<?xml version="1.0" encoding="UTF-8"?>
<svg width="142px" height="102px" viewBox="0 0 142 102" version="1.1" xmlns="http://www.w3.org/2000/svg" xmlns:xlink="http://www.w3.org/1999/xlink">
    <!-- Generator: Sketch 52.3 (67297) - http://www.bohemiancoding.com/sketch -->
    <title>Nationwide Geographic Information Systems (GIS)</title>
    <desc>Created with Sketch.</desc>
    <defs>
        <polygon id="path-1" points="0.5 0 87.5 0 87.5 88 0.5 88"></polygon>
    </defs>
    <g id="Nationwide-Geographic-Information-Systems-(GIS)" stroke="none" stroke-width="1" fill="none" fill-rule="evenodd">
        <g id="Group-3" transform="translate(27.000000, 8.000000)">
            <mask id="mask-2" fill="white">
                <use xlink:href="#path-1"></use>
            </mask>
            <g id="Clip-2"></g>
            <path d="M39.8830457,22.9749171 C40.5234059,23.6428847 40.799259,23.6309243 41.1267658,22.9749171 L39.8830457,22.9749171 Z M44.0131489,20.4770157 C43.885663,20.5636376 43.6259288,20.6459104 43.5706117,20.7995828 C43.4962449,21.0079828 43.5108985,21.4476164 43.6050475,21.483135 C44.3747253,21.7738078 45.1718784,21.9934434 45.9474176,22.2308382 C46.2185082,21.6204978 46.0459627,21.3515711 45.571554,21.1725283 C45.0660065,20.9818875 44.5828057,20.7343445 44.0131489,20.4770157 Z M63.1363985,19.0718555 C63.8921554,19.1809484 64.0921763,19.1117234 65.2454108,18.1298872 C65.4296792,17.9729529 65.5923336,17.5847851 65.5194321,17.3966814 C65.4450654,17.2045909 65.0703008,17.0233734 64.8230222,17.0182993 C63.8562542,16.998003 63.0078136,18.0657362 63.1363985,19.0718555 Z M67.1899369,18.3140041 C66.0019003,18.7253678 66.0019003,18.7253678 66.1770102,19.6608123 C68.0625558,19.8757362 68.7813125,19.6782091 69.1450869,19.0019056 C68.6146283,18.3632953 68.0548627,17.8381271 67.6863259,17.2042284 C67.311195,16.560544 67.1243623,15.8092165 66.8430141,15.0727487 C66.6356663,15.1104419 66.3546845,15.0934075 66.1586933,15.2133735 C65.8938304,15.3750194 65.597096,15.6080651 65.5025806,15.8759045 C65.4436,16.0415372 65.6978391,16.3626546 65.8788105,16.5507583 C66.0619799,16.7417615 66.3132882,16.8860106 66.5602006,16.9951035 C67.1672239,17.2636678 67.2976405,17.7279469 67.1899369,18.3140041 Z M80.5653314,27.533261 C80.881848,26.3350512 80.9107888,24.9230048 82.6384424,24.7493985 C82.698522,25.2778286 82.7362548,25.8356159 82.835899,26.3825302 C82.8853547,26.6536315 83.017603,26.9236455 83.1667029,27.1603155 C83.5916558,27.8329947 84.1924514,28.0515429 85.0126839,27.9939158 C86.3003646,27.9029446 86.3091568,27.9587596 86.7429019,29.1798028 C86.9773587,29.8401592 87.2011916,30.5048649 87.4140345,31.17247 C87.6173525,31.8092681 87.475213,32.0281788 86.8242291,32.0390519 C85.8189955,32.0560863 84.8126629,32.0557239 83.8074294,32.0336153 C83.5975173,32.0289037 83.3780804,31.9205356 83.1853862,31.8179666 C82.9864642,31.7121356 82.8146513,31.5552012 82.631482,31.4207379 C81.2298699,30.3917852 81.2298699,30.3917852 79.4000078,30.7154396 C79.3769284,31.1206418 79.3527501,31.5392541 79.3172152,32.1659041 C78.7955488,32.0042581 78.3464175,31.8745064 77.9046129,31.7248208 C77.455848,31.5725981 77.0235682,31.3685473 76.5678428,31.2442321 C75.5794608,30.9742181 74.5811877,30.74081 73.5462807,30.4823939 L73.5462807,28.056617 C72.5234629,28.1254797 71.5570612,28.2066651 70.5888279,28.251607 C69.5062969,28.3019855 68.5226773,28.5767111 67.5192754,29.034104 C66.8334893,29.3472478 65.9048205,29.2530147 65.101806,29.173279 C63.9163337,29.0551252 63.1777948,29.8861885 62.2535221,30.3163987 C62.1454522,30.3667772 62.0959964,30.6904315 62.1296996,30.8669373 C62.4114141,32.3525581 61.7901036,33.3043121 60.4800762,34.0179465 C59.5264964,34.5373157 58.7121253,35.3020534 57.789318,35.8844863 C57.2808398,36.2052412 57.3302955,36.5354194 57.4423952,37.0185451 C57.5618216,37.5353773 57.8900611,37.4976841 58.260796,37.4907978 C58.3699649,37.4889856 58.4795002,37.5179804 58.6483824,37.5408138 C58.5589957,38.0558338 58.4795002,38.5407718 58.3882818,39.0231726 C58.3725293,39.1058078 58.3208755,39.2348346 58.2626277,39.2489696 C57.4486229,39.4464966 57.7405949,40.1039535 57.6493766,40.6182487 C57.3526422,42.2937853 57.8874968,43.6202971 59.1689497,44.7558057 C59.9463206,45.4447944 60.629176,46.260273 61.2464569,47.0971352 C61.8058561,47.8546242 62.5370683,47.6255653 63.2290822,47.6052689 C63.7232732,47.591134 64.2101374,47.4081043 64.7065264,47.3512021 C65.0900831,47.306985 65.4864617,47.3084347 65.8700183,47.3497523 C66.5301608,47.421152 67.0485301,47.2464584 67.5079189,46.744486 C67.9039311,46.3117387 69.7217041,46.2762201 70.0550723,46.7176658 C70.6360856,47.4871152 71.4255456,47.5972954 72.2838773,47.6429622 C72.7586524,47.6679702 73.2304967,47.7477059 73.7726781,47.8104071 C73.6664398,48.9379421 73.5451817,50.0310458 73.4722803,51.127049 C73.4532307,51.4202588 73.5147756,51.7598603 73.655816,52.0150145 C74.5013259,53.5405031 75.365519,55.0569307 76.2601182,56.5548742 C76.4894463,56.9390553 76.4876146,57.2282783 76.2656133,57.6015863 C75.907334,58.204678 75.6025402,58.8385766 75.2739343,59.4594276 C74.6496931,60.640603 74.7225945,61.3227055 75.6944912,62.2066843 C76.1436225,62.6151484 76.3454752,63.0442714 76.2659797,63.6248921 C76.2571875,63.6912177 76.2733064,63.7615301 76.2637816,63.8278556 C76.0216317,65.5106409 76.4311984,66.9770526 77.6679581,68.2075191 C77.8599196,68.3988848 77.9269596,68.7725552 77.9419795,69.0672147 C77.9797124,69.8058571 77.954435,70.5473989 77.954435,71.3335203 L79.6494845,71.3335203 C74.2943445,77.8631477 67.8079504,82.5845873 59.9345978,85.3108227 C47.9252805,89.4690384 36.0921722,88.8615975 24.7788987,83.0930834 C1.54093211,71.2447237 -4.46995426,44.8862822 4.41485968,26.0570636 C4.41485968,27.0048309 4.4452658,27.7837035 4.40350318,28.5585894 C4.3782258,29.039903 4.52476131,29.3447107 4.99807099,29.4661264 C6.08280005,29.7448389 6.48980242,30.4273038 6.27329621,31.5055477 C5.90402674,33.34418 6.84112129,34.7830466 7.82071113,36.1744342 C8.02219745,36.4611202 8.54203215,36.5285331 8.91533134,36.6974278 C8.99665855,36.654298 9.07835209,36.6115307 9.16041197,36.568401 C9.10069876,36.2150269 9.08824324,35.8446184 8.96735145,35.5129905 C8.86184589,35.2226801 8.63471585,34.9762244 8.46143762,34.7101972 C7.48917455,33.2227643 7.27596539,32.4993442 7.26570791,30.5965609 L8.55851739,30.5965609 C8.59295324,30.7607439 8.66182492,30.9325381 8.65999323,31.1032449 C8.63178514,33.1423037 9.92825802,34.5779084 11.0122544,36.0957858 C11.3862863,36.6187794 11.5306238,37.0257938 11.1276511,37.5897426 C11.0049276,37.7615367 11.029106,38.1605775 11.1488988,38.3591919 C12.2314298,40.1503452 12.2416873,40.1449087 14.29062,40.6548546 C14.7544048,40.7704713 15.2200214,40.8799267 15.731064,41.0038794 C15.8171536,40.8280985 15.8984808,40.661016 15.9886001,40.4758118 C16.5776728,40.5595342 17.1605178,40.6421694 17.7964819,40.7324157 C17.7653431,41.0948506 17.7375014,41.421042 17.7070952,41.7791277 C18.4287826,41.9636071 19.1233609,42.1763564 19.8333254,42.3111822 C20.4319229,42.4249867 20.861272,42.7218209 21.2371355,43.1813884 C21.7826139,43.8493559 22.3522707,44.5017388 22.959294,45.1142538 C23.1743349,45.3313523 23.5186933,45.5020591 23.8231208,45.5386651 C24.7715719,45.6528321 25.7295477,45.6926999 26.7413754,45.7651869 C26.8549404,46.7129542 26.9813273,47.627015 27.0589911,48.5450627 C27.0714466,48.6925737 26.9054952,48.9357675 26.7600587,49.002818 C25.1554949,49.7432725 24.3946093,50.9327839 24.6715614,52.7040033 C24.0594093,53.9380942 24.7748689,54.7731442 25.5342892,55.6208795 C26.0790349,56.2290453 26.5450178,56.9067985 27.0846348,57.519676 C27.5040927,57.995553 27.7597972,58.5087609 27.8572433,59.1386727 C27.8902138,59.3528718 28.1649678,59.6544176 28.3748799,59.6975474 C29.794809,59.9896699 30.7337352,61.0352946 31.8386129,61.8123551 C31.9873464,61.9170988 32.0203169,62.2527135 32.0217823,62.4821348 C32.0360695,64.4722649 32.0565845,66.462395 32.0173862,68.4518003 C32.0045644,69.1096196 32.092852,69.5775231 32.967669,69.5728115 C32.7910937,70.5843673 32.6566474,71.5401082 32.4474679,72.479177 C32.338299,72.9677393 32.3807943,73.3580817 32.7442023,73.7129055 C33.6640789,74.6106567 34.0842695,75.6573688 33.7281882,76.942563 C33.3878595,78.1726671 33.9153873,79.1708128 34.4656282,80.250144 C35.2792665,81.8459449 36.5328778,82.9796413 37.8736776,84.0705704 C38.0187478,84.1887242 38.2348877,84.2648355 38.4242848,84.2775207 C38.9704959,84.3148515 39.5207367,84.3271743 40.0684131,84.3108648 C40.2416914,84.3057907 40.533297,84.2043089 40.554911,84.1024647 C40.5915449,83.9295832 40.5080197,83.6740666 40.3816328,83.5381535 C40.1207996,83.2576289 39.7991542,83.0325568 39.5013207,82.7853762 C38.6924448,82.1141467 38.6700981,82.0148396 38.978189,80.9982096 C39.1177641,80.5371924 39.2192399,80.0653022 39.3720032,79.4607607 C38.2850761,79.6843831 37.716152,79.2288024 37.358239,78.4430435 C37.7872217,77.950132 38.214739,77.4586703 38.7320093,76.864277 C38.1583229,76.6794352 37.7978455,76.5634561 37.3813183,76.4293551 C37.4062294,76.1067881 37.4304077,75.7994433 37.4571505,75.4573047 C37.5688838,75.4181617 37.670726,75.3536483 37.7740335,75.3511113 C39.1752792,75.3152302 40.3471969,74.6276912 41.5517188,74.0423588 C41.722799,73.9589988 41.8740969,73.7988025 41.9880282,73.6411433 C42.9969252,72.248306 43.973218,70.8311855 45.0110557,69.4597318 C45.3180476,69.0541671 45.4404047,68.7073169 45.2715226,68.2303525 C45.1513634,67.8914759 45.056848,67.5326653 45.0246102,67.1763918 C44.9839466,66.7255228 44.919471,66.2409473 45.0388974,65.8190731 C45.3327011,64.7810595 46.0771015,64.3551984 47.149375,64.622313 C48.3238571,64.9147979 49.0184354,64.1409994 49.7679645,63.5027515 C49.8954504,63.3947459 49.9265892,63.1432161 49.9482032,62.9518505 C50.1020654,61.5814841 50.2130661,60.2056811 50.4042949,58.8403888 C50.4629091,58.4206892 50.6709895,57.9926535 50.9091097,57.6320308 C51.535549,56.6831762 52.5396835,55.9517825 52.589872,54.6818106 C52.5913373,54.637956 52.5832779,54.5937389 52.5792481,54.5495219 C52.5503074,54.515453 52.5257627,54.4556512 52.4927922,54.4509396 C51.3201418,54.2845819 50.6211675,53.5673233 50.1174517,52.557942 C50.0123124,52.3473673 49.6401123,52.2346501 49.3675562,52.1491154 C49.1591095,52.0835147 48.9121971,52.1106973 48.6861661,52.1331683 C46.7896304,52.3194599 45.0293726,51.8530061 43.3156399,51.093705 C42.9496675,50.9316966 42.7785873,50.7638892 42.7881121,50.358687 C42.8130231,49.3047262 42.6994581,48.2699746 41.9700776,47.4287631 C41.7905717,47.2214504 41.456837,46.9557856 41.2458259,46.9942037 C39.4383105,47.3218448 38.3601755,46.5339113 37.6223692,44.9602189 C37.403665,44.4941276 36.8116616,44.1991056 36.3907383,43.8257977 C36.3720551,43.9363403 36.3533718,44.046883 36.3346885,44.1574256 C36.0419838,44.2831905 35.7580713,44.4422995 35.4532774,44.525297 C35.1931769,44.5956094 34.9048683,44.5550167 34.6367084,44.6043079 C33.6779998,44.7800888 32.9328668,44.589448 32.4339134,43.6449426 C32.2976354,43.3872514 31.7920879,43.3147644 31.4506602,43.169428 C30.1889895,42.6322995 29.2277166,42.9809619 28.5697721,44.1567007 C27.9382041,45.2853231 27.0201592,45.4995221 25.8229641,45.126939 C25.1565939,44.9192638 24.439669,44.8696102 23.6974666,44.7402209 C23.6036839,43.4303812 23.5124656,42.1509859 23.4179502,40.822662 C22.5544897,40.6671774 21.7082472,40.5149547 20.8458857,40.3598326 C20.9477279,39.3747345 22.1104871,38.7263384 21.6521973,37.4994963 C20.7096077,38.1207097 19.828563,38.7016929 18.9467856,39.2819512 C18.5408823,39.5487033 16.451286,39.6389495 16.2120668,39.2750649 C15.8274111,38.6897325 15.3808441,37.9717489 15.4094185,37.3295143 C15.4705971,35.9555235 16.2043736,34.7388295 16.9901703,33.6323157 C17.2836076,33.2191399 17.9668294,33.0901131 18.4441688,32.7882048 C19.3255799,32.2300551 20.2707339,32.0593482 21.3096706,32.1079145 C22.5859948,32.1673538 23.8670815,32.1220495 25.248545,32.1220495 C25.158792,33.1734731 25.1613563,34.2078624 26.6091271,34.2814367 C26.6091271,33.7388716 26.6402659,33.165862 26.5988696,32.5979265 C26.5669981,32.1575681 26.647959,31.8067311 27.0161295,31.5312805 C28.0869377,30.7302994 29.1636073,29.9365669 30.2091381,29.1047788 C30.4454266,28.9166751 30.5824373,28.5944704 30.7359332,28.318295 C30.9689247,27.8996827 31.102272,27.4053215 31.4066995,27.051585 C32.655182,25.5993083 34.0630219,24.3525322 35.8240123,23.4808763 C36.4724319,23.1601214 36.9120384,22.4185795 37.4355365,21.85898 C37.9711237,21.2859704 38.5030476,20.7691382 39.3368346,21.4160846 C39.3921518,21.4588519 39.5976678,21.313153 39.8911052,21.1873881 C39.5145089,21.0685095 39.3280425,20.9750013 39.133883,20.9543425 C38.5059783,20.8876545 38.4437007,20.4813649 38.503414,19.9873661 C38.5671569,19.4661847 38.9067529,19.2733694 39.3943498,19.2498111 C40.3647812,19.203057 40.5479506,19.2929408 41.0344485,20.0928347 C41.7107098,19.9177786 42.6708837,20.4356981 42.9679844,19.1787738 C43.3508084,19.3222981 43.7094541,19.5821639 44.042456,19.5531691 C44.5872017,19.5060526 45.2030172,19.3878988 45.6228414,19.0787418 C45.9752593,18.8192384 45.6748615,17.8450134 45.2260965,17.6608964 C44.2552988,17.2629429 43.8376726,16.6047611 43.9864062,15.5689221 C44.0270698,15.2883975 43.9534357,14.9922882 43.9222969,14.5693266 C43.3610659,14.8411528 42.8987464,15.1162409 42.4005257,15.2916594 C41.9059684,15.4659906 41.3758762,15.5399273 40.7487042,15.6834515 C40.825269,14.8875445 40.8849822,14.2688681 40.9534876,13.5595829 C40.0486309,13.3439342 39.1536653,13.1014652 38.2451451,12.9260467 C37.8168951,12.8434116 36.9336524,13.7150675 36.9281573,14.1615873 C36.9189988,14.8625365 36.9017809,15.5645729 36.9340187,16.2640723 C36.9519693,16.6551395 36.8127606,16.8548412 36.4343326,16.9189922 C36.3225993,16.9382012 36.2174601,16.998003 36.1057268,17.0125004 C34.9264823,17.1654479 34.1703591,17.7960846 33.850179,18.9370298 C33.6193856,19.759757 32.8757179,19.4901054 32.2533084,19.6785716 L32.2533084,17.1571119 C31.798682,17.0875244 31.4001054,17.0251856 31.0011625,16.9661087 C29.1463894,16.6899333 28.8522193,16.0857543 28.5485245,14.575488 C28.5203164,14.4355881 28.5895544,14.1807964 28.693961,14.1242565 C30.6249326,13.0797191 32.3727348,11.6560748 34.6989859,11.2805922 C34.7792141,11.6796331 34.861274,12.0880972 34.9444329,12.4998233 L35.5902881,12.4998233 C35.558783,12.4494448 35.5272779,12.3990664 35.4957727,12.3486879 C35.7914081,12.1138301 36.0866772,11.8793347 36.4057582,11.6256303 C36.3658273,11.4038201 36.3035497,11.0573323 36.2339453,10.669527 C36.4009958,10.6369078 36.5295807,10.5825426 36.6530369,10.5919659 C37.42418,10.6528549 37.9846783,10.3433355 38.4880277,9.76525184 C38.7239499,9.49415053 39.1683188,9.38433275 39.5353902,9.24733235 C39.742738,9.16940885 39.9966107,9.21761269 40.2109189,9.15092466 C41.5517188,8.73339964 42.6075071,9.12482935 43.4416604,10.3012931 C42.4965064,10.8065273 41.5260751,11.3251717 40.4021478,11.9260888 C41.6744423,12.2236479 42.7906765,12.4853259 44.0138816,12.7720119 C44.0805552,11.3972963 44.9612336,11.295452 46.0382696,11.3501797 C46.3097266,11.3635898 46.605362,10.922869 46.9336015,10.6546671 C46.7456697,10.5086058 46.6998774,10.4422803 46.6515207,10.4401057 C45.752159,10.3973383 45.5133061,9.88884215 45.660208,9.09257264 C45.727248,8.72796312 45.5722867,8.52789905 45.2129083,8.38147534 C44.1574864,7.95198997 43.121114,7.47611293 42.0744842,7.0252439 C41.9096318,6.95420666 41.7217,6.85526193 41.5579465,6.87628315 C40.3025036,7.03684182 38.9950406,6.94587065 37.8560934,7.68741249 C37.5425074,7.89146334 37.4076947,8.06869401 37.4439623,8.43149136 C37.494517,8.94288702 37.4996458,9.45899434 37.5289529,10.0707845 C36.8644144,9.96531591 36.2570247,9.90370198 35.6683183,9.76343967 C35.2814646,9.6713812 35.0982952,8.47969521 35.3983266,8.16945092 C35.555486,8.00635521 35.7342593,7.86319342 35.9046068,7.71205806 C36.0526077,7.58049419 36.2024402,7.45074249 36.3852433,7.29090869 C34.3996872,6.78712416 33.4113052,6.98392632 33.2101852,7.91864596 C33.5091176,7.99004564 33.8098818,8.06217019 34.1271311,8.13828152 C34.1271311,8.24954904 34.1406857,8.33907046 34.1249331,8.42351779 C33.9131893,9.57134916 33.9124566,9.57714812 32.7332122,9.62100275 C32.3141206,9.63658745 31.9052866,9.60469318 31.7774343,10.1566815 C31.7517906,10.2683115 31.5096407,10.4002378 31.3638379,10.4038622 C30.497813,10.427058 29.6310555,10.4154601 28.7020204,10.4154601 C28.629119,9.85078648 28.5532869,9.26146731 28.4584052,8.52608687 C29.1595776,8.52608687 29.8625816,8.67903441 30.4465256,8.48295712 C31.0275389,8.28796714 31.4876604,7.74214016 32.000901,7.34998558 C31.9715939,7.26372607 31.9426531,7.177829 31.913346,7.09120705 C31.7012359,7.13723629 31.3817885,7.11114097 31.2942335,7.23980537 C30.585368,8.28253061 29.5431342,8.03607487 28.5756336,7.91610892 C28.2913547,7.88095273 28.0503038,7.48299919 27.7960647,7.24451702 C27.4791817,6.94768283 27.1751205,6.3982315 26.8549404,6.39062037 C25.9819552,6.36996158 25.029108,6.03217224 24.2301232,6.74073249 C23.8249525,7.10026793 23.3597023,7.39311534 22.7860158,7.81571445 L24.6763238,7.81571445 C24.7631461,8.27455704 24.8400772,8.68157145 24.9265332,9.14113892 C25.1569603,9.15201197 25.4738433,9.17013371 25.7907263,9.1813692 C27.0630208,9.227036 27.0630208,9.22631113 27.3586562,10.4803359 L24.0410924,10.4803359 C24.0465875,9.6173784 23.4252769,9.59526987 22.8512241,9.45863191 C22.3922016,9.34917656 21.9661497,9.10815734 21.5078599,8.99326548 C21.0546988,8.87946091 20.5821218,8.8221962 20.1146736,8.7921141 C19.5941062,8.75877009 19.0695091,8.78450297 18.523298,8.7163652 C25.2258319,3.73795924 32.7573905,0.875085861 41.1084489,0.162538822 C54.3318128,-0.966445933 66.3275755,3.90431686 74.3144931,11.0943007 C74.0741749,11.8365674 73.6378654,12.3399895 72.8348508,12.6031172 C72.2538376,12.793758 71.7057948,13.1583675 71.2288217,13.5476226 C71.0412563,13.701295 71.0174443,14.1427407 71.0562762,14.4352257 C71.0738604,14.567152 71.4361695,14.642176 71.6255666,14.7672161 C71.8472015,14.9136398 72.1105991,15.0481031 72.2476098,15.2572281 C72.4406703,15.5526125 72.5351857,15.9110607 72.691246,16.2901676 C73.3158536,16.0542225 73.9019957,15.8324123 74.5540786,15.5859565 C74.6760694,16.452176 74.7903671,17.2633053 74.9185857,18.169755 C74.4694544,18.1378608 74.1126404,18.1168395 73.7565592,18.086395 C73.3268438,18.0497891 72.8971284,17.969691 72.4677794,17.9715031 C71.5420414,17.9758524 70.841968,18.3306761 70.3741534,19.1907342 C69.9953591,19.888059 69.5634457,20.5244947 68.5611429,20.6078547 C67.1195999,20.7274582 67.1265603,20.8108183 67.0858967,22.3580529 C67.3489279,22.4425002 67.6229493,22.5305719 67.9266441,22.6280669 C67.9130896,22.7712287 67.9134559,22.9035174 67.8867132,23.0300072 C67.8086831,23.4044025 67.7203954,23.7762607 67.622583,24.2108202 C67.1925013,24.1347088 66.7843999,24.1013648 66.4004769,23.9871978 C65.5853731,23.7450913 64.7922497,23.7958322 63.9808094,24.0089439 C63.2367753,24.2042963 62.8781297,24.6174721 62.9275854,25.3858342 C62.9524965,25.768203 63.0316256,26.1469475 63.0829131,26.5278666 C63.2089336,27.4625862 63.6844413,27.9141801 64.6376548,27.9178045 C65.4586199,27.9207039 66.2825158,27.8888097 67.0998176,27.8130608 C67.310096,27.7934893 67.5533449,27.5883511 67.6888903,27.4027844 C68.4878751,26.3096808 69.2524241,25.191569 70.0510426,24.0984653 C70.1265084,23.9951714 70.395401,23.9226844 70.5118968,23.9741502 C71.4438626,24.3862387 72.0655394,23.9263088 72.6472854,23.2927725 C72.7978506,23.1293144 72.9843171,22.9992003 73.269695,22.7549191 C73.2004569,24.0495366 74.1829775,24.4079848 74.9526552,24.938227 C75.6443028,25.4144665 76.3491386,25.8725842 77.0371228,26.3310644 C76.7997352,27.2353395 76.1403255,27.2585354 75.3607566,27.1121116 C75.5746984,27.7539839 76.0732855,27.7467352 76.4810205,27.6713487 C76.8872902,27.5963247 77.4096893,27.5202134 77.3334908,26.8475342 C77.2935599,26.4988718 77.3891743,26.1353496 77.4367983,25.6388137 C77.1125885,25.4572338 76.6616255,25.1433652 76.1648702,24.9407641 C75.3567269,24.6113107 74.8867142,24.055698 74.715634,23.2170236 C74.6625149,22.9575202 74.5438212,22.7107021 74.4145036,22.3410185 C75.5402626,22.4116933 76.6678533,21.9459644 77.4679371,23.0658883 C77.595423,23.2452936 77.794345,23.3851934 77.9837421,23.5091462 C78.8010439,24.0441001 79.126719,24.7330889 79.190462,25.7500812 C79.2303929,26.3843423 79.9436545,26.9772859 80.3546866,27.5887136 C80.4246573,27.5705918 80.494628,27.5517452 80.5653314,27.533261 Z" id="Fill-1" fill="#FFFFFF" mask="url(#mask-2)"></path>
        </g>
    </g>
</svg>