<?xml version="1.0" encoding="UTF-8"?>
<svg width="142px" height="102px" viewBox="0 0 142 102" version="1.1" xmlns="http://www.w3.org/2000/svg" xmlns:xlink="http://www.w3.org/1999/xlink">
    <!-- Generator: Sketch 52.3 (67297) - http://www.bohemiancoding.com/sketch -->
    <title>Permittee Responsible Project Generation</title>
    <desc>Created with Sketch.</desc>
    <defs>
        <polygon id="path-1" points="0.42137927 0.424088889 69.6198266 0.424088889 69.6198266 48 0.42137927 48"></polygon>
        <polygon id="path-3" points="0.451318182 0.430235294 39.6185909 0.430235294 39.6185909 45.9791196 0.451318182 45.9791196"></polygon>
        <polygon id="path-5" points="0 0.425573446 67.6189748 0.425573446 67.6189748 78.9792458 0 78.9792458"></polygon>
    </defs>
    <g id="Permittee-Responsible-Project-Generation" stroke="none" stroke-width="1" fill="none" fill-rule="evenodd">
        <g id="Group-10" transform="translate(13.000000, 5.000000)">
            <g id="Group-25">
                <g id="Group-3" transform="translate(33.000000, 46.000000)">
                    <mask id="mask-2" fill="white">
                        <use xlink:href="#path-1"></use>
                    </mask>
                    <g id="Clip-2"></g>
                    <path d="M2.35940385,42.7716444 L57.7500449,26.7312 L64.6715192,24.7267556 L66.4017756,24.2258667 L66.8015833,24.1107556 C66.8904295,24.0872 66.9433782,24.0649778 67.0075449,24.0320889 C67.1286987,23.9707556 67.2328013,23.8849778 67.3153654,23.7729778 C67.4854295,23.5534222 67.5558782,23.2240889 67.4849808,22.9436444 C67.4522244,22.8027556 67.3885064,22.6734222 67.2938269,22.5596444 C67.247609,22.5023111 67.1928654,22.4480889 67.12825,22.3996444 C67.1085064,22.3818667 67.0443397,22.3369778 66.9797244,22.2934222 L66.7948526,22.1658667 L54.9464551,14.0209778 L51.9844679,11.9845333 L51.2243397,11.4569778 C50.9223526,11.2343111 50.6647885,10.9369778 50.488891,10.6009778 C50.1308141,9.92497778 50.115109,9.1152 50.4022885,8.43697778 C50.6791474,7.75253333 51.2970321,7.20275556 52.0037628,7.00942222 C52.1899808,6.95697778 52.3398526,6.93208889 52.4829936,6.90408889 L52.9249808,6.81786667 L53.8098526,6.64631111 L57.3475449,5.95831111 L64.4238269,4.5832 C64.7119038,4.52275556 65.0291474,4.47475556 65.2929936,4.40497778 C65.5622244,4.32586667 65.8139551,4.19208889 66.0253013,4.00808889 C66.4448526,3.63564444 66.676391,3.06097778 66.6517115,2.48853333 C66.6310705,1.91875556 66.3600449,1.34453333 65.8794679,1.00142222 C65.6447885,0.823644444 65.3661346,0.710311111 65.0753654,0.641866667 L64.2012628,0.424088889 L65.0847885,0.601866667 C65.3804936,0.657422222 65.6748526,0.760533333 65.9279295,0.933866667 C66.44575,1.26897778 66.7674808,1.86497778 66.8177372,2.47875556 C66.8729295,3.09342222 66.6553013,3.74097778 66.1962628,4.18808889 C65.9660705,4.40897778 65.6842756,4.57608889 65.3818397,4.67964444 C65.0690833,4.77697778 64.7922244,4.82853333 64.4956218,4.90542222 L57.4911346,6.60275556 L53.988891,7.45164444 L53.1129936,7.66364444 L52.6754936,7.76986667 C52.5251731,7.80586667 52.3802372,7.84008889 52.2792756,7.87475556 C51.8305577,8.0232 51.4845962,8.37031111 51.3315833,8.80008889 C51.1749808,9.2272 51.2167115,9.71786667 51.4397244,10.0880889 C51.550109,10.2743111 51.7008782,10.4347556 51.8870962,10.5583111 L52.6265833,11.0209778 L55.6805577,12.9196444 L67.8960064,20.5143111 L68.0871603,20.6325333 C68.1481859,20.6707556 68.2092115,20.7076444 68.3106218,20.7778667 C68.4910064,20.9009778 68.6615192,21.0472 68.8140833,21.2120889 C69.1223526,21.5396444 69.3565833,21.9458667 69.4867115,22.3769778 C69.7514551,23.2414222 69.6181859,24.1969778 69.1147244,24.9654222 C68.8665833,25.3498667 68.5197244,25.6818667 68.1217115,25.9187556 C67.9274167,26.0369778 67.7048526,26.1378667 67.5069679,26.2036444 L67.0483782,26.3592 L65.34325,26.9400889 L58.5240833,29.2645333 L3.99183974,47.8543111 C2.58510897,48.3334222 1.05273718,47.5929778 0.568570513,46.2000889 C0.0848525641,44.8072 0.832416667,43.2889778 2.23869872,42.8094222 C2.27549359,42.7969778 2.32216026,42.7823111 2.35940385,42.7716444" id="Fill-1" fill="#FFFFFF" mask="url(#mask-2)"></path>
                </g>
                <g id="Group-6" transform="translate(77.000000, 0.000000)">
                    <mask id="mask-4" fill="white">
                        <use xlink:href="#path-3"></use>
                    </mask>
                    <g id="Clip-5"></g>
                    <path d="M20.0349545,28.4603353 C15.2476818,28.4603353 11.3667727,24.6098647 11.3667727,19.8601392 C11.3667727,15.1104137 15.2476818,11.2599431 20.0349545,11.2599431 C24.8222273,11.2599431 28.7031364,15.1104137 28.7031364,19.8601392 C28.7031364,24.6098647 24.8222273,28.4603353 20.0349545,28.4603353 M39.6185909,19.8601392 C39.6185909,9.12951176 30.8504091,0.4301 20.0349545,0.4301 C9.2195,0.4301 0.451318182,9.12951176 0.451318182,19.8601392 C0.451318182,28.6407275 6.32222727,36.0598059 14.3813182,38.4666882 L20.0349545,45.9791196 L25.6885909,38.4666882 C33.7476818,36.0598059 39.6185909,28.6407275 39.6185909,19.8601392" id="Fill-4" fill="#FFFFFF"></path>
                </g>
                <g id="Group-9" transform="translate(0.000000, 14.000000)">
                    <mask id="mask-6" fill="white">
                        <use xlink:href="#path-5"></use>
                    </mask>
                    <g id="Clip-8"></g>
                    <path d="M33.8094649,48.7664322 C25.5445377,48.7664322 18.8445113,42.1259689 18.8445113,33.9349633 C18.8445113,25.7435113 25.5445377,19.103048 33.8094649,19.103048 C42.0743921,19.103048 48.7744185,25.7435113 48.7744185,33.9349633 C48.7744185,42.1259689 42.0743921,48.7664322 33.8094649,48.7664322 M67.6189748,33.9349633 C67.6189748,15.4284322 52.4819947,0.425573446 33.8094649,0.425573446 C15.1369351,0.425573446 -4.50331126e-05,15.4284322 -4.50331126e-05,33.9349633 C-4.50331126e-05,49.0775226 10.1355576,61.871952 24.0489881,66.0236921 L33.8094649,78.9792458 L43.5699417,66.0236921 C57.4833722,61.871952 67.6189748,49.0775226 67.6189748,33.9349633" id="Fill-7" fill="#FFFFFF" mask="url(#mask-6)"></path>
                </g>
            </g>
        </g>
    </g>
</svg>