<?xml version="1.0" encoding="UTF-8"?>
<svg width="142px" height="102px" viewBox="0 0 142 102" version="1.1" xmlns="http://www.w3.org/2000/svg" xmlns:xlink="http://www.w3.org/1999/xlink">
    <!-- Generator: Sketch 52.3 (67297) - http://www.bohemiancoding.com/sketch -->
    <title>Timber &amp; Land Opportunity Management</title>
    <desc>Created with Sketch.</desc>
    <defs>
        <polygon id="path-1" points="0.5 0 131.5 0 131.5 88 0.5 88"></polygon>
    </defs>
    <g id="Timber-&amp;-Land-Opportunity-Management" stroke="none" stroke-width="1" fill="none" fill-rule="evenodd">
        <g id="Group-3" transform="translate(5.000000, 8.000000)">
            <mask id="mask-2" fill="white">
                <use xlink:href="#path-1"></use>
            </mask>
            <g id="Clip-2"></g>
            <path d="M51.6707243,60.1371406 C51.5629842,60.0901723 51.4884604,60.0530247 51.4607801,60.0342374 C49.3911484,58.6576401 50.7691995,58.877537 48.7749432,59.120918 C46.7806869,59.3694229 47.9811585,58.2596907 47.3087411,58.3433796 C45.9826437,58.5120384 46.6827413,57.3886428 44.898855,57.5709651 C44.6280143,57.5944492 44.4082756,57.6128095 44.2264376,57.6315968 C45.2816943,58.549613 46.5515795,59.6217706 48.0837884,59.5611388 C48.5884208,59.5423515 48.9295268,60.4693344 51.4420427,60.1559279 C51.5118822,60.1512311 51.5910903,60.1418374 51.6707243,60.1371406 M57.3545464,54.2413416 C56.4670747,54.0257146 55.0702861,54.3912131 54.9587134,55.2575642 C56.4202311,56.4800202 56.0842354,56.5171678 56.0842354,57.5850555 C56.0936041,59.828004 54.7014999,59.0602862 54.3467667,60.0807787 C54.3420823,60.0948692 54.337398,60.1136565 54.3327136,60.1281739 C55.3138724,60.0666882 56.1540748,59.8420945 56.2711836,59.1350085 C57.1816512,53.5483461 57.8310727,59.0086211 56.8175493,59.5752293 C56.6587072,59.664042 56.9900187,62.1789794 58.2696984,58.2639605 C59.115011,55.6606374 60.5633274,58.3203225 58.8118057,60.2541343 C57.6488089,61.5372221 57.7327013,61.4996474 57.6436987,63.6162085 C57.5789694,65.0918662 60.0914854,65.2741885 60.6795845,67.3301178 C60.806062,67.7793053 63.5242636,69.8868997 62.8003183,64.9415678 C62.7768965,64.7686391 63.1737889,63.4057053 62.207109,63.7054483 C61.3383747,62.5346574 60.2873765,60.2118628 59.2785374,59.4112673 C58.8863294,59.0974339 57.7561231,56.2549995 57.3545464,54.2413416 M66.0414639,58.3578971 C65.8592,58.5120384 65.7378327,58.4044384 65.3128342,57.6695984 C64.196681,55.725966 63.5332064,57.762681 63.5004159,57.7532873 C63.4118391,57.7396238 63.3279466,57.7302302 63.252997,57.7302302 C63.5004159,59.1068275 63.9488362,61.05046 65.1352547,60.9471298 C65.5555688,60.914679 65.8404626,59.8045198 66.0414639,58.3578971 M71.9961267,54.1666194 C71.9586519,54.1431352 71.9258614,54.1196511 71.8888124,54.1008638 C71.4357079,53.824605 71.3377623,51.5628692 71.7018642,50.9492928 C72.9674909,48.8002809 71.8372846,48.280214 71.3935487,48.3224855 C70.8940265,49.5684256 70.0810785,51.0338357 69.9648214,52.3967695 C69.7071821,55.3515008 68.596139,58.1939351 71.9586519,54.2088908 C71.9680206,54.1948003 71.9820736,54.1807098 71.9961267,54.1666194 M77.5492128,58.2029018 C77.1242143,58.14227 77.2272701,57.9736112 76.241427,58.7840274 C75.3450124,59.5235642 73.8455939,58.278051 73.7523328,57.111957 C73.7523328,57.1025633 73.4440172,56.5829234 73.4018581,56.4518393 C73.2898595,56.133309 73.2055411,55.8664438 73.1216487,55.6418501 C72.3695973,56.5829234 71.3377623,57.5944492 71.2491855,57.7490175 C70.9966564,58.9292021 67.7227203,60.5585741 71.2159692,62.1742826 C71.8981811,62.4876891 73.2758064,60.0389342 75.6111687,60.1653216 C76.372163,60.207593 76.858058,59.2520022 77.5492128,58.2029018 M104.016226,56.6905235 C102.727178,57.1542284 104.656279,56.105128 102.269389,56.105128 C101.1856,56.105128 102.26002,57.5385143 101.041663,57.4864222 C100.942866,57.4864222 99.4532418,60.507336 95.3620993,58.7601163 C95.1236232,58.6576401 95.9876731,56.8028203 94.1428902,57.1354411 C93.6246306,57.2289506 93.90484,57.7490175 91.5136913,57.5850555 C90.8408481,57.5385143 91.1257418,56.9714791 89.9303804,56.9714791 C89.9303804,52.7759316 90.4490659,55.1170864 90.9903215,53.4407461 C91.6819022,51.2678231 89.4960133,53.1926682 89.2204882,52.2234139 C88.8465918,50.8980547 87.2168632,54.2178575 86.7032879,54.2088908 C82.4392502,54.1290448 87.5762807,54.5927497 85.6710271,57.1448347 C84.8397676,58.2545669 84.7511908,57.4351841 82.8404011,58.4467098 C82.2850925,58.741329 81.5377254,58.0859081 80.8325176,58.0158827 C80.5007803,57.9783081 80.2299396,57.9501271 80.0153111,57.9176763 C79.6929425,58.5871877 80.1366784,59.0880402 82.7846147,58.8728401 C83.2002445,58.8352655 89.636118,61.4202284 90.8502168,61.6358554 C92.6438977,61.9492619 94.259999,60.9377361 97.2298781,61.0269758 C98.4533456,61.0641235 99.9578742,59.5052039 102.568336,59.1303117 C103.782435,58.956956 103.927649,57.9364636 104.016226,56.6905235 M113.795875,58.956956 C113.655771,58.5120384 113.286558,58.2216891 112.465093,58.2639605 C111.787566,58.3015352 112.983353,57.5756619 109.970889,57.7490175 C108.840683,57.8143461 110.050097,56.89206 108.014108,56.9714791 C107.701108,56.9855696 107.238634,55.8899279 105.538641,56.1943677 C105.618275,56.7280981 106.108428,57.191803 107.238634,57.1448347 C107.337006,57.1401379 110.494259,58.6482464 111.049993,59.7110103 C111.600618,60.7690773 113.188613,60.2447406 113.795875,58.956956 M128.68019,51.703347 C126.251992,53.0005253 129.694139,52.1952329 128.147877,53.6845541 C128.381669,55.1593578 128.133824,55.6743009 126.266046,55.0517578 C126.214518,55.0329705 125.775466,52.2323806 123.328531,54.447575 C122.170219,55.4919786 122.29627,53.8668764 122.39379,56.2037614 C122.39379,56.2319423 120.661432,58.9334719 120.5077,59.9125469 C120.502589,59.9403008 116.831761,58.9151116 116.388025,59.1350085 C115.911925,59.3788165 116.752127,62.787432 114.033925,62.0803461 C113.655771,61.9821397 113.651086,61.5184348 113.721351,60.9518266 C112.93651,61.4155315 112.049038,61.5235586 111.428148,60.7131424 C111.166676,60.371128 106.341794,58.3297161 105.697483,58.849356 C104.637542,59.7016166 104.623489,58.8634465 103.19902,60.342947 C103.161545,60.3856455 99.9250837,61.0316727 98.5896176,62.0615588 C97.9261431,62.5765018 93.302262,63.1576274 92.0834789,63.0077559 C90.7569556,62.843794 90.1824837,63.0171496 88.655385,62.6051098 C86.7126566,62.0803461 87.777282,63.3681307 84.5080303,61.6495189 C82.9575099,60.8348329 81.2106725,62.3894827 79.6414147,61.1999045 C78.1002629,60.0342374 76.6246921,62.8203098 75.0366968,62.7549812 C74.1866999,62.7221035 74.8216425,64.0051912 72.2575987,64.2156945 C72.0757607,64.229785 69.5300284,65.9296094 69.5257699,65.9483967 C67.6060374,67.0722193 67.9701392,68.3130357 67.4518796,70.5188365 C67.3445654,70.9825414 67.3445654,82.4321249 67.4518796,82.9517648 C67.5221449,83.3031729 67.9232957,85.4333975 67.9748236,85.4713991 C68.3810847,85.7754119 68.1059855,86.74979 68.5633485,86.8479964 C68.6289294,87.1660997 69.0070844,87.6016237 69.5206597,88 C66.475831,87.4470554 63.4446296,86.8761774 60.4368499,86.3232327 C60.6846947,85.9205865 60.9555354,85.2463784 60.9133762,84.2395494 C60.9133762,84.2113685 62.3940572,82.3194011 62.2910015,80.0999368 C62.2910015,80.0440019 62.6367918,72.6541849 62.6367918,71.7365956 C62.6367918,70.368965 59.6992774,69.6383949 58.6529635,67.5265306 C58.4570725,67.1285813 58.1674944,67.5312274 57.5410688,66.4590699 C56.2524462,64.2485723 56.4670747,63.930042 55.556607,62.1742826 C55.2342384,61.565403 52.5488273,60.3950391 51.3206754,61.2891442 C49.9473087,62.2865795 45.907694,60.8113488 44.7911149,59.2144276 C44.296277,58.5077686 42.6895443,59.7204039 42.3109636,57.4864222 C40.4806596,57.4398809 38.5472998,56.4936837 37.7671423,57.2011967 C36.0952546,58.7088782 35.1656237,55.3139261 35.772886,58.1563605 C33.8484691,58.7652401 35.3240399,58.7507226 34.7687313,59.4112673 C33.2458911,61.2233886 34.4978906,61.0923044 34.4791532,61.3591696 C34.385892,62.6657415 38.7010317,61.3548998 36.5900925,62.9142464 C35.6468344,63.6119387 36.6088299,63.8975912 36.0812015,64.0517325 C35.7166738,63.6631768 35.7447799,65.2366139 36.1182505,65.2647949 C38.5984018,65.4475441 36.8703019,66.7724764 36.8937236,67.7045831 C36.9639889,70.6687079 33.0968436,67.7980926 33.0687375,67.7562481 C29.6776926,67.8873323 34.1802064,69.1892074 28.3652224,68.3651277 C27.6651248,66.3373794 25.5963447,67.0675225 27.2401263,65.9296094 C27.0438094,64.6187676 27.2213889,65.5786283 25.3067666,64.1315786 C24.2651371,63.3450735 22.9990845,65.2788853 23.765189,64.1221849 C22.2380903,65.1055297 25.0308157,64.7498518 21.6589341,65.6208997 C21.0469874,68.2664944 20.1084136,66.9740129 19.7489961,66.9881034 C15.4146931,67.1144908 17.0631591,65.4428473 16.9000585,65.0961361 C14.914745,60.9283425 12.4818631,66.1729904 11.5198675,65.3399441 C10.239762,64.2250881 10.9496542,65.5132997 9.08613387,65.0730789 C8.59129598,62.9095496 7.63866917,64.4641993 7.11529932,63.0777814 C6.16735686,60.5773614 5.81688217,62.6426844 6.6668791,60.0201469 C8.00745541,55.9087152 6.41520165,57.1354411 3.40231175,56.6153742 C3.28094445,55.8429597 2.99605069,55.3937722 1.94079399,55.3233198 C-0.707568169,55.1499642 1.11379298,54.7844656 1.07205966,53.7827605 C0.946008012,50.8980547 3.2856288,51.8344312 2.69241953,50.6683371 C2.28615847,49.8677416 4.20589101,50.2003624 3.30947641,48.9403317 C3.45341377,48.7204348 3.43978656,48.4019046 3.22473223,48.308395 C-0.347724782,46.7161706 5.52261971,45.4706575 5.55541017,45.8169417 C5.61162239,46.3417054 8.31534508,45.9625434 8.9089802,45.6628004 C12.3183366,43.9113109 8.04918872,44.8528112 7.74598341,44.749481 C5.41062112,43.9672458 8.60023883,43.527025 7.0829347,42.8438501 C3.58457562,41.2610194 8.16629752,41.026605 9.32460996,40.6521398 C12.8923826,39.4954394 9.60481937,39.1863028 14.0604896,39.1863028 C15.5126387,39.1863028 17.3063196,38.0014214 14.7703818,37.6269562 C8.83871492,36.7465146 13.1257485,36.6901527 13.9340121,35.4121887 C14.2048528,34.9856314 18.2214716,33.9600152 16.1944248,33.365653 C14.7516444,32.9395227 14.4292759,32.0966557 15.5356346,32.0121129 C19.4547336,31.7217635 16.6568981,30.3310757 18.6089952,29.9796677 C21.3271968,29.4882088 19.771992,29.3007627 20.2859931,27.8071716 C22.116723,27.1705381 19.996415,25.8123011 21.5558783,25.4519263 C22.8359839,25.1517564 22.9245608,24.1590179 22.5932493,23.9907861 C20.113098,22.7495428 21.9621394,23.4378415 21.7287735,22.5437364 C19.2162575,21.3494613 21.8923,21.8597075 21.9157217,21.2277708 C22.0136673,18.9515176 24.0641358,21.494636 24.0641358,19.6684242 C24.0641358,19.5326432 27.4922296,17.9122379 24.3302921,17.9498125 C23.3308218,17.9592061 21.5328824,15.8896133 23.6063469,16.0390578 C25.4604985,16.1748388 23.4334517,15.7768895 24.4563438,15.2149781 C28.7484876,12.8499122 25.8667595,13.1453853 26.1427104,12.3584533 C27.0484937,9.79697456 25.507342,11.6278832 25.5963447,10.3213113 C25.7453922,8.17187238 28.164647,11.6231863 29.0614874,9.567684 C29.3463812,8.91653297 32.9380015,10.2653763 32.1344222,8.90244249 C31.4760579,7.78801351 33.1385769,7.33370223 33.5171577,8.20005335 C33.8953126,9.06640446 35.2542005,8.70133289 35.772886,8.19065969 C35.8755159,8.19065969 35.9738873,8.22353748 36.0526696,8.14369142 C38.3509829,5.88238266 36.1093076,7.17956091 39.2473975,6.40202253 C41.4941829,5.84480804 39.4530831,4.60826155 42.1154983,4.91739818 C44.2915927,5.17059986 44.1233818,2.20135115 44.5483803,2.23422894 C47.8785286,2.48230681 45.6785866,-0.931005551 47.9717898,0.248752023 C50.5733084,1.59289855 48.5743677,0.103577367 50.4659942,0.679579165 C52.1608778,1.19921904 53.0389808,0.618520413 53.683718,1.0399539 C55.3091881,0.0988805401 55.5144478,1.73764622 55.9300776,1.63943983 C57.8498101,1.16676823 55.4113921,2.60869416 59.3675401,3.10058005 C60.5910076,3.52201354 61.1607951,3.1616388 60.8154307,4.19195188 C59.5774842,7.87682624 62.0623199,4.36488051 62.6457347,5.9383176 C63.1409984,7.27776729 66.0274108,5.32474118 65.9946203,6.80936553 C65.9852516,7.28716095 68.9836626,6.43959715 69.0960871,6.02713033 C69.7259195,3.68127868 70.7769177,5.76026515 71.9445988,4.68810762 C73.7991763,2.97888953 72.2810204,4.08392486 73.9950673,3.60143262 C74.1492251,2.44046235 74.9242724,3.55958816 75.3586396,3.25045153 C76.7737397,2.23892577 77.8294222,5.05360616 78.9034163,3.9387502 C80.2955205,4.20561538 80.3329953,4.80979814 80.7809897,4.82388862 C80.8746767,4.82858545 80.5991517,2.28077023 81.7340424,3.69536916 C83.9710333,6.50022891 84.4986616,4.41184878 85.2600817,4.93148866 C86.9366538,6.08349225 86.3298173,4.95966962 86.8199708,5.18426335 C87.1189177,6.48613843 87.3944427,4.68341079 88.1746002,5.41355391 C88.3564382,5.58263969 90.9715841,6.80466871 91.3829553,6.91226875 C92.2418951,9.40841887 92.0132136,7.94258182 92.4054216,7.94258182 C93.1012607,9.45026333 92.7886867,8.56555189 93.0642118,9.04804413 C93.9887325,10.6868098 95.4553604,8.42037724 95.3574149,12.3584533 C95.3293088,13.5663918 97.2298781,14.3674143 98.369879,13.8661348 C98.5470326,13.7914125 99.6491328,11.2909926 100.013661,13.5386378 C100.19124,14.6107954 101.372548,13.0373583 101.723023,14.7606669 C102.759968,19.8601402 105.407905,16.385769 105.431326,16.385769 C108.691209,16.2640785 104.768278,18.1137744 106.65011,18.3007935 C107.677686,18.4041237 106.907323,19.6077924 107.41153,19.5890051 C109.704733,19.4950686 108.014108,20.1133418 108.695894,20.2021546 C110.965675,20.4831102 109.079159,21.3400677 110.082888,21.7474107 C110.713572,21.9066758 111.596359,21.630417 111.638092,22.2627807 C111.666199,22.6560332 114.183399,22.6607301 113.10472,23.8170035 C112.20788,24.7772912 114.487456,24.5569673 113.244825,25.4280152 C110.428678,27.4092223 113.20735,26.6457744 112.987612,27.1842016 C112.184884,29.1321039 113.754142,28.1111844 113.296353,28.7623355 C111.652571,31.1034903 111.79225,27.9288622 113.525035,30.4104948 C114.103765,31.2303046 111.152623,34.0069834 110.769358,34.0069834 C110.769358,35.5103951 112.894776,33.8336278 113.14688,33.9745326 C114.515136,34.7657345 115.393239,34.0774358 115.42603,34.5317471 C118.830702,36.4467716 116.033292,34.6205598 118.522386,35.1261092 C118.806854,35.9642794 118.125494,36.6154304 118.606705,36.5966431 C120.133803,36.5360113 119.334908,37.8003118 119.251016,37.8707642 C117.760966,39.0829726 119.90938,40.1371968 118.457231,40.9753669 C117.579128,41.4856131 119.227594,41.5885164 118.587967,42.5530738 C117.845284,43.662806 119.28338,44.9791985 119.919175,45.292605 C120.348432,45.5082321 121.455216,43.5880838 122.487477,44.3651951 C124.346313,45.7657036 123.897467,43.3306122 126.088466,44.8993525 C127.601938,45.9813307 128.082722,44.7213 127.391568,47.0436676 C127.199935,47.6666376 130.30566,46.7443516 129.282768,47.9898647 C127.559352,50.0970322 129.404135,48.9121508 129.694139,49.394643 C130.651451,51.024442 130.810293,49.4463081 131.337921,49.994129 C132.262442,50.9633833 128.941662,51.567566 128.68019,51.703347" id="Fill-1" fill="#FFFFFF" mask="url(#mask-2)"></path>
        </g>
    </g>
</svg>