<?xml version="1.0" encoding="utf-8"?>
<!-- Generator: Adobe Illustrator 19.1.0, SVG Export Plug-In . SVG Version: 6.00 Build 0)  -->
<!DOCTYPE svg PUBLIC "-//W3C//DTD SVG 1.1//EN" "http://www.w3.org/Graphics/SVG/1.1/DTD/svg11.dtd">
<svg version="1.1" id="Layer_1" xmlns="http://www.w3.org/2000/svg" xmlns:xlink="http://www.w3.org/1999/xlink" x="0px" y="0px"
	 width="350px" height="75px" viewBox="0 0 350 75" enable-background="new 0 0 350 75" xml:space="preserve">
<path fill="#E03E2F" d="M325,59.7l2.8,0.7c-1.5,3.4-1.9,7.4,1.7,9.5c2.8,1.6,5.3,0.9,6.9-1.9c1.5-2.6,0.9-5.9,0.1-9.5l-1.8-7.8
	c-0.7-2.9-1-5.7,0.4-8c2.4-4,6.8-4.8,10.8-2.4c4,2.4,5.1,6.1,3.4,10.8l-0.1,0.3l-2.7-0.6l0.1-0.3c1.2-3.1,1-6.4-1.9-8.1
	c-2.6-1.5-5.2-1.3-6.8,1.5c-1,1.7-0.9,3.9-0.4,6.3l1.6,7.5c0.8,4,2,8.1,0,11.6c-2.6,4.5-7.1,5-11.2,2.6
	C323.4,69.3,323.2,64.3,325,59.7 M310.7,40.6l5.7,2.6c3.4,1.5,5.4-1.1,6.8-4.1c1.4-3.2,1.9-6.3-1.4-7.8l-5.7-2.6L310.7,40.6z
	 M299.7,57.3l14.5-32.1l8.6,3.9c5.6,2.5,5.2,7,3.1,11.4c-1.5,3.3-3.9,6.1-8,5.8l-2.3,18.3l-3-1.4l2.4-17.8l-5.4-2.4l-7.1,15.7
	L299.7,57.3z M277.8,40.5l8.4-25.2l3,1l-8.7,25.9c-1.2,3.7-0.5,6.2,3.8,7.6c4,1.4,6.1-0.3,7.3-3.9l8.7-25.9l2.9,1l-8.4,25.2
	c-1.6,4.7-4.7,8.2-11.3,6C276.7,49.8,276.2,45.2,277.8,40.5 M252.6,32.5l3.5-14.4c1.4-5.8,4.6-10,11.3-8.3c6.7,1.6,7.6,6.8,6.2,12.6
	l-3.5,14.4c-1.4,5.8-4.5,10-11.3,8.4C252,43.5,251.2,38.3,252.6,32.5 M266.9,36.7l3.8-15.7c1-4.1,0.5-7.7-3.9-8.7
	c-4.5-1.1-6.5,1.9-7.5,6l-3.8,15.7c-1,4.1-0.5,7.7,3.9,8.8C263.8,43.8,265.9,40.8,266.9,36.7 M225.4,38.3L231,3.5l3.1,0.5l-2.5,15.8
	l10.7,1.7l2.5-15.8l3.1,0.5l-5.6,34.8l-3.1-0.5l2.7-16.9l-10.7-1.7l-2.7,16.9L225.4,38.3z M198.1,16.9c3.3-2.8,5.6-6.5,5.8-9.7
	c0.2-2.5-0.9-4.3-3.7-4.5c-3.2-0.2-4.4,3-4.5,5C195.4,10.2,196.1,12.9,198.1,16.9 M203.2,31.5l-6.1-10.8c-2.4,2-4.4,5.4-4.6,8.4
	c-0.2,2.5,1,4.6,4.5,4.8C199,34,201.2,33.1,203.2,31.5 M210.4,34.2l-0.2,2.8c-0.1,0-0.3,0-0.4,0c-2.1-0.3-3.9-1.5-5.4-3.4
	c-2.2,1.8-4.9,3-7.8,2.8c-5.2-0.3-7.3-3.4-7.1-7.1c0.2-3.6,2.6-8.1,6.4-10.8c-2.4-4.7-3.7-8.3-3.5-11c0.3-4.5,3.3-7.5,7.7-7.2
	c4.5,0.3,6.8,3.2,6.6,7.1c-0.2,3.5-2.6,7.9-7.7,11.9l5.9,10.5c2-2.3,3.4-5.3,3.6-8.6l2.6,0.2c-0.2,2.9-2,7.2-4.9,10.5
	C207.6,33.3,209,34.1,210.4,34.2 M156.7,35.6l-0.8-35.3l2.4-0.1L170.1,28l-0.7-27.9l2.6-0.1l0.8,35.3l-2.3,0.1L158.8,8.2l0.6,27.3
	L156.7,35.6z M130,27.6l-1.3-14.7c-0.5-5.9,1.2-10.9,8-11.5c6.8-0.6,9.4,4,9.9,9.9l1.3,14.7c0.5,5.9-1,10.9-8,11.6
	C132.9,38.2,130.5,33.5,130,27.6 M144.8,27l-1.5-16.1c-0.4-4.2-2-7.4-6.5-7c-4.6,0.4-5.6,3.9-5.2,8.1l1.5,16.1c0.4,4.2,2,7.4,6.5,7
	C144.2,34.7,145.2,31.1,144.8,27 M119.9,39.5l-5.1-34.9l3.1-0.5L123,39L119.9,39.5z M105.3,42L99.2,9.8l-6.7,1.3L92,8.6l16.6-3.2
	l0.5,2.5l-6.8,1.3l6.1,32.2L105.3,42z M81.3,36l7.2-1.8l-8.6-19.3L81.3,36z M81.9,47.4l-3,0.8c-0.8-16.7-1-19.2-1.8-35.9l3.9-1
	l15.3,32.5l-3.1,0.8l-3.9-8.5l-7.9,2L81.9,47.4z M53.6,45.9l-4.8-14c-1.9-5.6-1.5-10.9,5-13.1c6-2.1,9.4,1.9,11.3,7.5l0.5,1.4
	l-2.8,1l-0.7-2c-1.4-4.1-3.6-6.8-7.5-5.4c-4.3,1.5-4.5,5-3.1,9l5.2,15.3c1.4,4.1,3.6,6.8,8,5.3c3.9-1.3,4-4.8,2.6-8.9l-0.8-2.3
	l2.8-1l0.6,1.6c1.9,5.6,1.8,10.8-4.3,12.9C59,55.4,55.5,51.5,53.6,45.9 M29.4,56.6l-6.2-13.4c-2.5-5.4-2.6-10.7,3.6-13.5
	c6.2-2.9,10.2,0.6,12.7,6L45.8,49c2.5,5.4,2.7,10.6-3.6,13.6C35.8,65.5,31.9,61.9,29.4,56.6 M43.2,51l-6.8-14.7
	c-1.8-3.8-4.3-6.3-8.5-4.4c-4.2,1.9-3.9,5.5-2.2,9.3l6.8,14.7c1.8,3.8,4.4,6.3,8.5,4.4C45.2,58.4,45,54.7,43.2,51 M18.2,75L0,44.8
	l2.7-1.6l16.9,28.1l8.4-5.1l1.3,2.1L18.2,75z"/>
</svg>
