<svg class="logo-main img-responsive" role="img" xmlns="http://www.w3.org/2000/svg" x="0px" y="0px" viewBox="-234 352 490 142">
<title>Unleavened Fresh Kitchen</title>
<desc>The Unleavened Fresh Kitchen logo, in white.</desc>
<g>
    <polygon class="path" points="-156.8,476.9 -156.8,483 -153.4,483 -153.4,485 -156.8,485 -156.8,493.8 -159.5,493.8
        -159.5,474.8 -152.1,474.8 -152.1,476.9  "/>
    <g>
        <path class="path" d="M-129.1,476.9h-0.7v6.1h0.7c2.2,0,3.4-0.8,3.4-3.1C-125.8,477.7-126.9,476.9-129.1,476.9 M-125.4,484.3
            l3.1,9.5h-2.8l-2.7-8.8h-2v8.8h-2.7v-19h3.4c3.9,0,6.1,1.3,6.1,5.1C-123,482.2-123.8,483.8-125.4,484.3"/>
    </g>
    <polygon class="path" points="-99.9,485 -99.9,491.8 -95.1,491.8 -95.1,493.8 -102.6,493.8 -102.6,474.8 -95.1,474.8
        -95.1,476.9 -99.9,476.9 -99.9,483 -96.5,483 -96.5,485   "/>
    <g>
        <path class="path" d="M-71,476.9c-1.3,0-2,0.8-2,2.1c0,1.2,0.6,2.1,1.4,2.7l3.4,2.7c1.4,1.1,2.7,2.8,2.7,5.2
            c0,2.8-1.9,4.4-4.7,4.4c-3.5,0-5.2-2.3-5.4-5.6l2.7-0.7c0.1,2,0.7,4.1,2.7,4.1c1.4,0,2-0.7,2-2c0-1.7-1.1-2.6-2-3.4l-3.4-2.7
            c-1.2-0.9-2-2.4-2-4.4c0-2.8,1.9-4.6,4.8-4.6c3.4,0,5.2,1.9,5.4,4.9l-2.7,0.7C-68.4,478.5-69,476.9-71,476.9"/>
    </g>
    <polygon class="path" points="-42.6,485 -42.6,493.8 -45.3,493.8 -45.3,474.8 -42.6,474.8 -42.6,483 -37.9,483 -37.9,474.8
        -35.2,474.8 -35.2,493.8 -37.9,493.8 -37.9,485   "/>
    <polygon class="path" points="9.9,493.8 6.5,485 5.2,487.7 5.2,493.8 2.5,493.8 2.5,474.8 5.2,474.8 5.2,483 9.3,474.8
        12.6,474.8 8.6,482.3 13.3,493.8     "/>
    <rect x="32.7" y="474.8" class="path" width="2.7" height="19"/>
    <polygon class="path" points="64.7,477.3 61.3,477.3 61.3,493.8 58.6,493.8 58.6,477.3 55.2,477.3 55.2,474.8 64.7,474.8     "/>
    <g>
        <path class="path" d="M88.3,494c-4.1,0-5.2-2.9-5.2-7v-5.4c0-4.1,1.1-7,5.2-7c3.8,0,5.1,2.5,5.1,6.3h-2.7c0-2.3-0.1-4.1-2.3-4.1
            c-2.3,0-2.5,1.8-2.5,4.1v6.8c0,2.1,0.4,4.1,2.5,4.1s2.3-2,2.3-4.1V487h2.7v0.7C93.4,491.5,92.1,494,88.3,494"/>
    </g>
    <polygon class="path" points="116.1,485 116.1,493.8 113.4,493.8 113.4,474.8 116.1,474.8 116.1,483 120.9,483 120.9,474.8
        123.6,474.8 123.6,493.8 120.9,493.8 120.9,485   "/>
    <polygon class="path" points="147.2,485 147.2,491.8 152,491.8 152,493.8 144.5,493.8 144.5,474.8 152,474.8 152,476.9
        147.2,476.9 147.2,483 150.6,483 150.6,485   "/>
    <polygon class="path" points="174.6,481.2 174.6,493.8 171.9,493.8 171.9,474.8 173.9,474.8 178.6,486.6 178.6,474.8
        181.3,474.8 181.3,493.8 179.4,493.8     "/>
    <path class="path" d="M251,352.2c-3.4-0.8-8.8,0.2-14.7,9.7c-5.1,8.1-9.7,20.9-13.6,38c-0.3,1.4-0.6,2.8-0.9,4.1
        c-0.2-0.7-0.4-1.4-0.8-2c-1.6-2.7-4.5-3.6-6.8-3.6l0,0c-9.5,0-20.2,11-24.4,21.2c-0.6,1.5-1.1,2.9-1.5,4.3c0,0.1-0.1,0.1-0.1,0.2
        c-5.6,10.9-17.6,16.8-26.1,16.8c-2.7,0-5-0.8-6.9-2.3c9.9-6.9,19.2-17.4,22.4-26.2c2.1-5.8,0.7-9.2-0.8-11c-2-2.4-5.3-3.5-9-3
        c-8.5,1.3-16.2,8.6-20.1,19.2c-2.5,6.9-2,14.6,1.3,20.1c-2,1.1-4,2.1-5.9,2.9c-3.4,1.3-8.2,2.5-11.8,0.6c-4.6-2.5-2.6-9.6,0.7-19.4
        c2.5-7.5,4.9-14.5,2.5-19.3c-1-2-2.7-3.3-5.1-4.1c-3.8-1.1-7.5-0.7-11.1,1.4c-3.6,2.1-7.1,5.9-10.2,11.2l2.3-10.1
        c0.3-1.1-0.4-2.2-1.6-2.5c-1.1-0.3-2.2,0.4-2.5,1.5l-4.2,18.4l0,0c-3.5,15-20.1,22.5-28.4,22.5c-4.5,0-7.8-1.5-9.8-4.3
        c-0.8-1.2-1.4-2.6-1.8-4.3c3-0.2,6.2-1,9.4-2.3c3.3-1.4,7.1-3.7,10-6.2c4-3.5,6.8-7.5,7.8-11.5c1.2-4.6,0.6-8.6-1.7-11.2
        c-1.9-2.2-4.9-3.1-8.1-2.6c-6.7,1-15.5,6.6-20.1,19.2c-1.1,3.1-1.9,6.8-1.9,10.5c-2.3-0.3-4.3-1.1-6.1-2.3
        c-4.3-2.8-6.6-7.8-6.7-14.1c0-1.1,0-2.1,0-3c1-2.5,1.8-5.1,2.5-7.6c0.2-0.6,0.1-1.2-0.3-1.7c-0.6-0.9-1.9-1.7-3.3-1.2
        c-2.3,0.7-3,4.1-3.1,9.8c-4,10.3-9.2,17.9-12.2,21.8c-4.5,5.8-8.8,9.5-11.6,10.8l-0.7-40.2c0-1-0.8-1.9-1.8-2s-2,0.6-2.2,1.6
        c-3.7,16-11.9,35.5-19.9,40.3c-1.7,1-3.2,1.2-4.6,0.8c-5.5-1.6-1.6-16.3,0.3-23.3l2.2-8.5c0.6-2.2,1.2-4.5,1.8-6.9
        c0-0.1,0-0.3,0-0.4s0-0.3,0-0.4s-0.1-0.3-0.1-0.4s-0.1-0.3-0.1-0.4c-0.1-0.1-0.2-0.2-0.2-0.3c-0.1-0.1-0.2-0.2-0.3-0.3
        c-0.1-0.1-0.2-0.1-0.3-0.1c-0.1-0.1-0.3-0.2-0.4-0.2l0,0l0,0c-0.1,0-0.2,0-0.3,0c-0.2,0-0.3,0-0.5,0c-0.1,0-0.3,0.1-0.4,0.1
        c-0.1,0-0.2,0.1-0.3,0.1c-0.1,0.1-0.2,0.2-0.3,0.3c-0.1,0.1-0.2,0.2-0.3,0.3c-0.1,0.1-0.1,0.3-0.2,0.4c0,0.1-0.1,0.2-0.2,0.3v0.1
        l0,0l0,0l-1.1,4.2c-0.1-1.3-0.4-2.5-1-3.6c-1.6-2.7-4.5-3.6-6.8-3.6l0,0c-8.4,0-17.6,7.8-24.1,20.1c-0.2,0.2-0.3,0.3-0.4,0.6
        c-7.7,15.1-22.7,21.9-30.8,21.9c-3.5,0-6.3-1.3-8.4-3.7c0.1-0.1,0.2-0.1,0.3-0.2c11.3-6.7,19.8-15.6,23.5-24.5
        c1.7-4,1.3-8.2-0.9-11c-2-2.5-5.1-3.6-8.9-3.1c-6.7,1-15.5,6.6-20.1,19.2c-2.2,6-2.1,12.7,0.2,18c-8,4.1-15.9,6.3-20.7,5.3
        c-2.4-0.4-4-1.5-5.2-3.3c-1.2-1.8-1.9-4.5-2.2-8.1c9.3-9.6,17.6-22,23.9-35.8c6.5-14.3,10-28.3,8.8-35.7c-0.5-3-1.7-4.9-3.6-5.6
        c-2.1-0.9-4.4-0.7-6.7,0.5c-8.3,4.3-16.6,21.4-22.7,47.2c-2.8,11.8-4.1,21.1-3.9,28c-1.7,1.7-3.4,3.2-5.1,4.7
        c-2.4,2.1-9.9,8.3-14.3,8.3c-1.1,0-1.4-0.4-1.5-0.5c-1.4-1.9,0.9-8.9,2.7-14.5c3.4-10.7,7.7-24-2.2-27.4c-3.7-1.3-7.4-0.9-10.9,1.1
        c-3.7,2-7.2,5.9-10.4,11.2l2.3-9.9c0.3-1.1-0.4-2.2-1.6-2.5c-1.1-0.3-2.2,0.4-2.5,1.5l-2.1,9l0,0c-4.2,18-15.8,32-23,32
        c-1.8,0-3-0.5-3.8-1.5c-1.3-1.7-1.6-5-0.6-9.1l0.5-2l0,0l0,0l6.3-27.3c0.3-1.1-0.4-2.2-1.5-2.5c-1.1-0.3-2.2,0.4-2.5,1.5l-6.3,27.3
        l0,0c-2,8.8-9.5,13.6-15.4,13.6c-2.5,0-4.3-0.7-5.5-2.2c-1.5-1.9-1.9-4.8-1-8.4l4.5-20.4c1.6-6.9-1.9-9.7-3.4-10.5
        c-3.7-2.1-9-0.8-12.9,3c-0.8,0.8-0.8,2.1,0,2.9c0.8,0.8,2.1,0.8,2.9,0c2.9-2.8,6.2-3.3,7.9-2.3c2.2,1.2,1.8,4.3,1.4,6l-4.7,20.1
        c-1.1,4.8-0.5,9,1.8,11.9c2,2.5,5,3.8,8.7,3.8c5.5,0,10.9-2.8,14.6-7.2c0.3,1.6,0.9,3.1,1.7,4.2c1.1,1.4,3.2,3,7,3
        c5.8,0,12.4-5.4,17.8-13.6l-2.5,11.1c-0.3,1.1,0.4,2.2,1.5,2.5c1.1,0.3,2.2-0.4,2.5-1.5c4.9-21.3,12.2-36,19.9-40.4
        c2.5-1.4,5-1.7,7.6-0.8c5.6,1.9,3.3,10.8-0.4,22.2c-2.4,8.1-4.5,14.6-1.9,18.1c0.7,1,2.1,2.2,4.8,2.2c4.1,0,9.4-2.9,17-9.3
        c1-0.8,2-1.7,2.9-2.6c0.5,2.7,1.3,4.9,2.4,6.7c1.8,2.8,4.5,4.5,7.9,5.1c1,0.2,2,0.3,3.2,0.3c5.6,0,12.9-2.2,20.4-6.1
        c2.9,3.8,7,5.8,12,5.8c5.5,0,12.1-2.3,18.2-6.2c2.5-1.6,5.5-3.9,8.5-7c-0.4,4.2,0.6,7.1,1.9,9c1.9,2.8,5.2,4.3,9.1,4.3
        c0.4,0,0.8,0,1.2,0c6.8-0.5,13-5.3,18.3-13.7c-0.6,6.4,0.3,12.1,5.6,13.6c0.8,0.2,1.7,0.4,2.5,0.4c1.8,0,3.6-0.5,5.3-1.6
        c4.6-2.7,9.2-8.9,13.5-18.3c1.6-3.5,3.1-7.3,4.5-11.2l0.5,29c0,1.1,0.9,2,2.1,2c4.3,0,10.6-4.8,16.9-13c3.6-4.6,6.8-9.8,9.5-15.4
        c1.1,5.3,3.9,9.6,8,12.4c2.5,1.7,5.5,2.7,8.7,3c0.4,2.4,1.3,4.7,2.7,6.7c1.9,2.8,5.8,6.1,13.2,6.1c7.3,0,17.8-4.2,25-12l-2.2,9.5
        c-0.3,1.1,0.4,2.2,1.5,2.5c1.1,0.3,2.2-0.4,2.5-1.5c4.8-21,12-35.5,19.8-40.1c2.6-1.5,5.1-1.8,7.8-1c1.3,0.4,2.2,1,2.7,2
        c1.6,3.2-0.6,9.7-2.7,16.1c-3.2,9.4-6.8,20,1.3,24.3c1.8,1,4,1.5,6.3,1.5c2.7,0,5.7-0.6,8.9-1.8c2.3-0.9,4.6-2,7-3.4
        c2.7,2.7,6.3,4.1,10.5,4.1c7.7,0,17.5-4,24.6-11.7c0,2.9,0.6,5.3,1.9,7.2c1.4,2,4.2,4.5,9.9,4.5c6.2,0,13.1-4.3,19.9-11.1
        c0.4,3.9,1.5,6.1,2.7,7.6c2.5,3.1,6.1,3.5,8.5,3.5c4.8,0,9.5-2.9,12-7.4c0.5-1,0.2-2.3-0.8-2.8c-1-0.5-2.3-0.2-2.8,0.8
        c-2.2,3.9-5.8,5.3-8.3,5.3c-2.6,0-4.2-0.6-5.3-1.9c-1.3-1.7-2-4.7-2-9.2c16.6-18.7,31.8-50.1,33.6-65.9
        C256.9,355.4,253.8,352.9,251,352.2z M-115.3,401c8.5-35.7,17.9-43.1,20.6-44.4c0.8-0.4,1.5-0.6,2.1-0.6c0.4,0,0.8,0.1,1.1,0.2
        s0.8,0.9,1.1,2.5c0.9,5.4-1.4,17.9-8.5,33.4c-5.4,11.9-12.4,22.7-20.2,31.5C-118.7,417.6-117.4,410-115.3,401z M-87.2,433.6
        c-1.7-4.2-1.7-9.7,0-14.6c4-10.9,11.3-15.7,16.8-16.5c0.4-0.1,0.8-0.1,1.2-0.1c1.6,0,2.9,0.6,3.7,1.6c1.3,1.6,1.4,4.3,0.3,6.9
        C-68.8,420-77.8,428.1-87.2,433.6z M-38.1,441c-2.1,0.2-5-0.1-6.7-2.5c-2.1-3.1-1.5-8.9,1.8-15.9c5.6-12,14.3-20,21.5-20l0,0
        c1,0,2.5,0.4,3.2,1.6c1,1.6,0.4,4.5-1.6,8c-0.5,1-0.2,2.3,0.8,2.8c1,0.5,2.2,0.2,2.8-0.8C-21.7,430.6-29.6,440.3-38.1,441z
         M63.2,419.1c4-10.9,11.3-15.7,16.8-16.5c0.3-0.1,0.7-0.1,1.1-0.1c1.1,0,2.4,0.3,3.3,1.4c1.4,1.5,1.7,4.2,0.8,7.4
        c-2.1,7.7-11,13.2-15.4,15c-2.8,1.2-5.6,1.8-8.3,2C61.5,425.4,62.1,422.2,63.2,419.1z M151.6,419.1c4-10.9,11.3-15.7,16.8-16.5
        c0.4-0.1,0.8-0.1,1.2-0.1c1.7,0,3.1,0.6,3.9,1.6c1.2,1.5,1.2,3.9,0.1,7c-3,8.3-11.8,18.1-21.2,24.5
        C149.9,431.2,149.5,424.7,151.6,419.1z M218.2,428.3c-7.4,8.2-14.4,12.7-19.7,12.7c-3.1,0-5.3-0.9-6.5-2.7
        c-2.1-3.1-1.5-9.2,1.7-17.1c3.9-9.8,13.7-18.6,20.5-18.6l0,0c1.1,0,2.5,0.4,3.2,1.6c1,1.6,0.4,4.5-1.6,8c-0.5,1-0.2,2.3,0.8,2.8
        c1,0.5,2.3,0.2,2.8-0.8c0.2-0.3,0.3-0.6,0.5-0.9C218.9,419.6,218.3,424.4,218.2,428.3z M251.8,363.5c-1.3,11.1-9.7,30.5-20.5,47.4
        c-2.9,4.4-5.7,8.5-8.6,12c0.6-5.8,2-13.1,4-22c7.7-33.2,16.6-44.8,22.4-44.8c0.3,0,0.6,0,0.9,0.1
        C252.3,356.8,252,361.5,251.8,363.5z"/>
</g>
</svg>
