<?xml version="1.0" encoding="utf-8"?>
<!-- Generator: Adobe Illustrator 19.1.0, SVG Export Plug-In . SVG Version: 6.00 Build 0)  -->
<!DOCTYPE svg PUBLIC "-//W3C//DTD SVG 1.1//EN" "http://www.w3.org/Graphics/SVG/1.1/DTD/svg11.dtd">
<svg version="1.1" id="Layer_1" xmlns="http://www.w3.org/2000/svg" xmlns:xlink="http://www.w3.org/1999/xlink" x="0px" y="0px"
	 width="55px" height="65px" viewBox="-452 248 55 65" enable-background="new -452 248 55 65" xml:space="preserve">
<g>
	<g>
		<path fill="#FFFFFF" d="M-440.4,278.2c0.5-0.6,1.1-1.2,1.7-1.8c0.3-0.3,0.6-0.3,0.9,0c0.6,0.7,1.2,1.4,1.9,2.1
			c0.6,0.5,1.3,0.9,1.9,1.3c0.2,0.1,0.5-0.1,0.7-0.3c0.4-0.3,0.8-0.8,1.3-1.2c0.5-0.5,1.1-0.6,1.8-0.3c0.3,0.2,0.8,0.3,1.1,0.3
			c2.2,0.3,3.1,2,4.1,3.7c0.4,0.8,1,1.6,1.5,2.5c0.7,1,1.4,1.9,2,3c0.3,0.6,0.9,0.8,1.6,0.8c0.1-0.8,0.1-1.6,0.3-2.3
			c0.1-0.5,0.3-1.1,0.5-1.6c1-1.8,2.2-3.3,4.2-4.2c0.5-0.3,0.9-0.8,1.4-1.2c0.4-0.4,0.9-0.8,1.4-1.2c0.8-0.4,0.9-1.1,0.8-1.9
			c-0.3-1.1-0.8-2.2-1.1-3.4c-0.3-0.7-0.4-1.4-0.6-2.1c-0.3-0.5-0.3-0.6-0.8-0.6c-3.2-0.3-6.4-0.5-9.6-0.8c-0.6-0.1-1.2-0.3-1.8-0.4
			c-1.4-0.4-2.3-1.6-2.3-3c0-1,0-1.9,0-3c-1.3,0-2.5,0-3.9,0c0,0.3,0,0.6,0,0.8c0,3.1,0,6.2,0,9.3c0,1.5-0.6,2.2-2.1,2.2
			c-3.9,0-7.7-0.1-11.6-0.1c-1.1,0-1.7-0.5-1.6-1.6c0.1-1.3,0.3-2.6,0.7-3.9c1.9-6.6,6.1-11.4,12.4-14.4c3.6-1.7,7.5-2.3,11.4-1.9
			c6.3,0.7,11.4,3.4,15.3,8.2c3.4,4.2,5.1,9,4.9,14.3c-0.1,2.8-0.7,5.5-1.8,8.1c-1.6,3.8-4.1,6.9-7.5,9.3c-3,2.3-6.5,3.7-10.3,4.2
			c-5.3,0.7-10.3-0.3-14.9-3.2c-2.3-1.4-4.3-3.3-5.9-5.5c-2-2.8-3.6-5.9-4.2-9.4c0-0.1,0-0.1,0-0.2c-0.3-1.4-0.2-1.5,1.3-1.6
			c0.6,0,1.4-0.3,1.7,0c0.3,0.3,0.3,1,0.4,1.6c1.6,7.1,5.9,11.9,12.9,14.2c3.8,1.3,7.7,1.3,11.6,0c4.5-1.4,8-4.2,10.5-8.1
			c2.7-4.3,3.5-9,2.4-13.9c-1.5-6.6-5.5-11.3-11.9-13.6c-6.9-2.5-13.5-1.4-19.2,3.4c-3.1,2.6-5.1,6-6.1,10c-0.2,0.5,0,0.8,0.6,0.8
			c2.4,0,4.7,0,7,0c0.5,0,0.7-0.2,0.7-0.7c0-3,0-6.1,0-9.1c0-0.5,0-0.9,0.2-1.4c0.1-0.6,0.5-1.1,1.2-1.1c2.5-0.1,4.9-0.1,7.4-0.1
			c1.2,0,1.7,0.7,1.8,1.9c0,1.3,0,2.5,0,3.8c0,0.4,0.1,0.7,0.6,0.8c0.6,0.1,1.2,0.2,1.9,0.3c2,0.2,4.1,0.4,6.1,0.5c1,0.1,1.9,0,3,0
			c1.3,0,1.9,0.4,2.2,1.7c0.1,0.3,0.2,0.8,0.3,1.1c0.3,1,0.7,1.9,0.9,3c0.3,1.1,0.7,2.2,0.8,3.4c0.3,2.3-0.4,4.1-2.5,5.3
			c-0.3,0.2-0.5,0.5-0.8,0.7c-0.8,0.6-1.5,1.3-2.4,1.9c-1.6,1-2.7,2.4-2.6,4.4c0,0.8,0.1,1.5,0.1,2.3c0.1,1.4-0.7,2.2-2,2
			c-1.1-0.1-2.1-0.3-3.1-0.7c-1.2-0.4-2.2-1.1-2.8-2.4c-0.5-0.9-1.2-1.7-1.8-2.5c-0.8-1.1-1.4-2.2-2.1-3.4c-0.3-0.3-0.4-0.7-0.7-1
			c-0.6-0.7-1.2-0.7-1.9-0.1c-0.8,0.5-1.6,1-2.5,1.4c-0.3,0.2-0.9,0-1.4-0.2c-0.9-0.4-1.9-1-2.8-1.5c-0.2-0.1-0.3-0.3-0.5-0.4
			C-438.9,280.2-439.6,279.3-440.4,278.2z"/>
		<path fill="#FFFFFF" d="M-413.1,306.5c-0.6,0-1.2-0.1-1.9,0c-0.2,0-0.4,0.3-0.5,0.6c-0.1,0.6-0.3,0.8-0.9,0.8c-0.7-0.1-1.4,0-2,0
			c-0.3,0-0.6-0.3-0.8-0.5c-0.3-0.7-0.7-1.4-1-2.1c-0.3,0.7-0.6,1.2-0.8,1.8c-0.3,0.7-0.6,0.9-1.3,0.8c-0.3,0-0.5,0-0.9,0
			c0.2-0.3,0.3-0.5,0.3-0.8c0.4-0.8,0.8-1.6,1.4-2.4c0.4-0.6,0.3-1,0-1.6c-0.5-0.8-1-1.7-1.5-2.7c0.6,0,1.2,0,1.7,0
			c0.2,0,0.3,0.2,0.4,0.3c0.3,0.5,0.5,1.1,0.8,1.8c0.3-0.6,0.5-1,0.7-1.5s0.4-0.7,0.9-0.6c0.3,0,0.8,0,1.3,0c-0.6,1.1-1.1,2-1.7,3
			c-0.2,0.3-0.3,0.6,0,0.9c0.6,0.9,1.1,1.9,1.8,3c0.4-1.6,0.8-3.1,1.3-4.6c0.2-0.7,0.4-1.4,0.5-1.9c0.1-0.4,0.3-0.5,0.7-0.5
			c1.5,0,1.5,0,1.9,1.4c0.5,1.8,1,3.6,1.5,5.4c0,0.2,0.1,0.3,0.1,0.5c-0.5,0-1.1,0.2-1.4-0.1C-412.9,307.6-413,307-413.1,306.5z
			 M-414.1,302.2c-0.1,0-0.1,0-0.2,0c-0.3,0.9-0.4,1.9-0.7,2.8c0.5,0,1,0,1.5,0C-413.7,304-413.9,303.1-414.1,302.2z"/>
		<path fill="#FFFFFF" d="M-406.3,300.6c0.6,0,1,0,1.5,0c0,2.5,0,4.8,0,7.2c-1.2,0.3-1.4,0.3-2-0.8c-0.7-1.2-1.4-2.4-2.1-3.6
			c0,1.5,0,3,0,4.6c-0.5,0-1,0-1.5,0c0-2.5,0-4.8,0-7.2c1.4-0.3,1.4-0.3,2.1,0.8c0.7,1.1,1.4,2.3,2.1,3.6
			C-406.3,303.5-406.3,302-406.3,300.6z"/>
		<path fill="#FFFFFF" d="M-443.6,305.1c-0.5,0-0.9-0.1-1.3-0.1c-0.1-0.1-0.1-0.1-0.1-0.1c-0.2-1.4-0.2-1.4,1.3-1.4c0.5,0,1,0,1.6,0
			c0.1,1.4,0,2.6-0.9,3.6c-1,1.1-2.8,1.1-3.7,0c-1.4-1.4-1.4-4.4-0.1-5.9c1.3-1.5,3.6-1.1,4.3,0.8c-0.4,0.3-0.8,0.5-1.2,0.8
			c-0.2-0.2-0.3-0.3-0.3-0.4c-0.6-0.6-1.4-0.5-1.9,0.2c-0.5,0.8-0.5,2.5,0,3.3c0.3,0.4,0.8,0.7,1.3,0.5
			C-444,306.2-443.6,305.8-443.6,305.1z"/>
		<path fill="#FFFFFF" d="M-435.6,303.7c-0.1,1.7-0.4,2.9-1.4,3.7c-0.9,0.8-2.2,0.8-3.1,0c-1.8-1.5-1.8-4.9-0.1-6.4
			c1.2-1.1,2.9-0.8,3.8,0.6C-435.9,302.4-435.8,303.3-435.6,303.7z M-437,304.2c-0.2-0.6-0.3-1.1-0.6-1.6c-0.5-0.8-1.4-0.8-1.9,0
			c-0.6,0.8-0.6,2.4,0,3.1c0.5,0.7,1.4,0.7,1.9,0C-437.3,305.2-437.2,304.7-437,304.2z"/>
		<path fill="#FFFFFF" d="M-423.6,302.1c-0.7,0-1.3,0-1.9,0c0,0.4,0,0.8,0,1.2c0.6,0,1.2,0,1.8,0c0,0.6,0,1,0,1.6
			c-0.6,0-1.2,0-1.8,0c0,0.4,0,0.8,0,1.3c0.7,0,1.3,0,1.9,0c0,0.6,0,1.1,0,1.6c-1.2,0-2.4,0-3.6,0c0-2.5,0-4.8,0-7.3
			c1.2,0,2.4,0,3.6,0C-423.6,301.1-423.6,301.5-423.6,302.1z"/>
		<path fill="#FFFFFF" d="M-428,302.2c-0.3,0-0.4,0-0.6,0s-0.3,0-0.7,0c0,0.8,0,1.5,0,2.4c0,0.8,0,1.7,0,2.5c0,0.6-0.2,0.8-0.8,0.7
			c-0.3,0-0.6,0-0.9,0c0-1.9,0-3.7,0-5.6c-0.5,0-0.8,0-1.3-0.1c0-0.5,0-1.1,0-1.6c1.4,0,2.8,0,4.2,0C-428,301.1-428,301.6-428,302.2
			z"/>
		<path fill="#FFFFFF" d="M-401.2,307c0,0.6-0.4,1-1,1s-1-0.4-1-0.9s0.4-1,0.9-1C-401.6,306-401.2,306.4-401.2,307z"/>
	</g>
</g>
</svg>
