<?xml version="1.0" encoding="utf-8"?>
<!-- Generator: Adobe Illustrator 19.1.0, SVG Export Plug-In . SVG Version: 6.00 Build 0)  -->
<!DOCTYPE svg PUBLIC "-//W3C//DTD SVG 1.1//EN" "http://www.w3.org/Graphics/SVG/1.1/DTD/svg11.dtd">
<svg version="1.1" id="Layer_1" xmlns="http://www.w3.org/2000/svg" xmlns:xlink="http://www.w3.org/1999/xlink" x="0px" y="0px"
	 width="40px" height="39px" viewBox="0 0 40 39" enable-background="new 0 0 40 39" xml:space="preserve">
<g>
	<path fill="#EC5A4F" d="M40,16.3c0.2-4.5-1.3-8.6-4.2-11.6C32.8,1.7,28.6,0,24,0C13.3,0,2.7,8.7,0.4,19.3c-1.1,5.3-0.1,10.3,3,14.1
		C6.4,37,10.8,39,16,39c3.5,0,7.1-0.9,10.5-2.7c0.5-0.2,0.6-0.8,0.4-1.3c-0.2-0.5-0.8-0.6-1.3-0.4c-3.1,1.6-6.4,2.5-9.6,2.5
		c-4.6,0-8.6-1.8-11.2-4.9c-2.7-3.3-3.6-7.7-2.6-12.5C4.4,9.9,14.1,1.9,24,1.9c4.2,0,7.9,1.5,10.4,4.1c2.5,2.6,3.8,6.2,3.7,10.2
		c-0.7,8.5-6.2,13.2-9.7,13.2c-0.8,0-1.4-0.2-1.7-0.7c-0.6-0.8-0.7-2.3-0.3-4.1l3.1-13.3c0.1-0.5-0.2-1-0.7-1.1
		c-0.5-0.1-1,0.2-1.1,0.7l-2.9,12.3v0c-0.9,4-4.3,6.1-7,6.1c-1.1,0-2-0.3-2.5-1c-0.7-0.8-0.8-2.2-0.5-3.8l2-9.2
		c0.7-3.1-0.8-4.4-1.6-4.8c-1.7-0.9-4.1-0.4-5.8,1.4c-0.4,0.4-0.4,1,0,1.3c0.4,0.4,1,0.4,1.3,0c1.3-1.3,2.8-1.5,3.6-1
		c1,0.5,0.8,1.9,0.6,2.7l-2,9.2c-0.5,2.2-0.2,4.1,0.8,5.4c0.9,1.1,2.3,1.7,4,1.7c2.5,0,4.9-1.2,6.6-3.2c0.1,0.7,0.4,1.3,0.8,1.9
		c0.5,0.6,1.5,1.4,3.2,1.4C32.7,31.2,39.2,26,40,16.3C40,16.3,40,16.3,40,16.3C40,16.3,40,16.3,40,16.3"/>
</g>
</svg>
