<svg id="Layer_1" data-name="Layer 1" xmlns="http://www.w3.org/2000/svg" viewBox="0 0 180.71 51.43"><defs><style>.cls-1{fill:#ec5a4f;}.cls-2{fill:#fff;}</style></defs><title>rewardbtn-white</title><rect class="cls-1" width="180.71" height="51.43"/><path class="cls-2" d="M258.86,411.26a4.74,4.74,0,0,1-3.88-1.68,6.14,6.14,0,0,1-.81-5.28l2-9.08c.18-.77.33-2.14-.63-2.68-.79-.44-2.26-.23-3.53,1a.92.92,0,1,1-1.29-1.3c1.72-1.7,4.07-2.25,5.72-1.33.7.39,2.24,1.62,1.53,4.69l-2,9.08a4.4,4.4,0,0,0,.46,3.73,2.94,2.94,0,0,0,2.44,1,7.51,7.51,0,0,0,6.87-6,.92.92,0,1,1,1.79.42c-1,4.25-4.7,7.46-8.66,7.46" transform="translate(-129.84 -373.98)"/><path class="cls-2" d="M269.26,411.26a3.78,3.78,0,0,1-3.13-1.35c-1-1.22-1.19-3.16-.62-5.61l3-13.09a.92.92,0,1,1,1.79.41l-3,13.09c-.42,1.83-.33,3.31.27,4a2,2,0,0,0,1.69.66c3.44,0,8.81-4.64,9.52-13a.92.92,0,0,1,1.83.16c-.81,9.6-7.12,14.71-11.35,14.71" transform="translate(-129.84 -373.98)"/><path class="cls-2" d="M257.08,418.92a15.53,15.53,0,0,1-12.4-5.56c-3-3.69-4-8.61-2.9-13.86,2.24-10.5,12.61-19,23.11-19a15.85,15.85,0,0,1,11.57,4.62,15.42,15.42,0,0,1,4.15,11.41.9.9,0,0,1-1,.89.92.92,0,0,1-.89-1,13.6,13.6,0,0,0-3.64-10.07,14,14,0,0,0-10.25-4.06c-9.69,0-19.25,7.89-21.31,17.58-1,4.69-.11,9.07,2.53,12.32a13.74,13.74,0,0,0,11,4.88,20.42,20.42,0,0,0,9.45-2.45.92.92,0,0,1,.86,1.63,22.28,22.28,0,0,1-10.31,2.66" transform="translate(-129.84 -373.98)"/><path class="cls-2" d="M159.76,410.43V391.2h4.37a4.71,4.71,0,0,1,3.67,1.24,5.29,5.29,0,0,1,1.1,3.63q0,4-2.68,4.54l3,9.84h-1.79L164.59,401h-3v9.45Zm1.82-10.79H164a3,3,0,0,0,2.42-.85,5.82,5.82,0,0,0,0-5.41,2.92,2.92,0,0,0-2.4-.82h-2.51Z" transform="translate(-129.84 -373.98)"/><path class="cls-2" d="M171.93,410.43V391.2h6.95v1.39h-5.13v7.2h4.2v1.35h-4.2v7.93h5.19v1.36Z" transform="translate(-129.84 -373.98)"/><path class="cls-2" d="M183.81,410.43l-3.27-19.22h1.55l2.53,15.61,2.91-15.32H189l3,15.35,2.35-15.64h1.53l-3.11,19.23h-1.42l-3.05-15.88-3,15.88Z" transform="translate(-129.84 -373.98)"/><path class="cls-2" d="M197.35,410.43l4.06-19.23h1.9l4.08,19.23h-1.77l-1-5.14h-4.59l-1,5.14Zm3-6.46h4.09l-2.05-10.37Z" transform="translate(-129.84 -373.98)"/><path class="cls-2" d="M209.7,410.43V391.2h4.37a4.71,4.71,0,0,1,3.67,1.24,5.29,5.29,0,0,1,1.1,3.63q0,4-2.68,4.54l3,9.84h-1.79L214.54,401h-3v9.45Zm1.82-10.79H214a3,3,0,0,0,2.42-.85,5.82,5.82,0,0,0,0-5.41,2.92,2.92,0,0,0-2.4-.82h-2.51Z" transform="translate(-129.84 -373.98)"/><path class="cls-2" d="M221.87,410.43V391.2h4.21a7.29,7.29,0,0,1,2.07.27,4.31,4.31,0,0,1,1.49.74,3.65,3.65,0,0,1,1,1.19,5.61,5.61,0,0,1,.53,1.55,10.32,10.32,0,0,1,.16,1.89v7.64a10.55,10.55,0,0,1-.26,2.46,5.22,5.22,0,0,1-.83,1.86,3.59,3.59,0,0,1-1.57,1.21,6.26,6.26,0,0,1-2.41.41Zm1.82-1.36h2.42a4.07,4.07,0,0,0,1.51-.25,2.61,2.61,0,0,0,1-.64,2.68,2.68,0,0,0,.55-1.06,6.64,6.64,0,0,0,.25-1.32q.05-.64.05-1.59V397a14.13,14.13,0,0,0-.07-1.58,5.2,5.2,0,0,0-.29-1.22,2.29,2.29,0,0,0-.59-.92,2.6,2.6,0,0,0-1-.53,4.91,4.91,0,0,0-1.46-.19h-2.37Z" transform="translate(-129.84 -373.98)"/></svg>