<?xml version="1.0" encoding="utf-8"?>
<!-- Generator: Adobe Illustrator 18.1.1, SVG Export Plug-In . SVG Version: 6.00 Build 0)  -->
<!DOCTYPE svg PUBLIC "-//W3C//DTD SVG 1.1//EN" "http://www.w3.org/Graphics/SVG/1.1/DTD/svg11.dtd">
<svg version="1.1" id="Layer_1" xmlns="http://www.w3.org/2000/svg" xmlns:xlink="http://www.w3.org/1999/xlink" x="0px" y="0px"
	 width="168px" height="168px" viewBox="0 0 168 168" enable-background="new 0 0 168 168" xml:space="preserve">
<g>
	<circle fill="none" stroke="#FFFFFF" stroke-width="4" stroke-miterlimit="10" cx="84" cy="84" r="81.5"/>
	<g>
		<path fill="#EC5A4D" d="M57.7,69.5l2.3-0.7c0.4,3.1,1.8,6.2,5.3,6.2c2.7,0,4.2-1.6,4.2-4.3c0-2.5-1.8-4.7-4-6.9l-4.6-4.9
			c-1.7-1.8-3.1-3.7-3.1-5.9c0-3.9,2.9-6.4,6.8-6.4c3.9,0,6.3,2.3,7,6.4l0.1,0.3l-2.2,0.7l0-0.2c-0.4-2.8-2-5-4.9-5
			c-2.5,0-4.3,1.3-4.3,3.9c0,1.7,1,3.2,2.4,4.7l4.4,4.7c2.3,2.5,4.9,5,4.9,8.4c0,4.4-3,6.6-7,6.6C60.7,77.1,58.3,73.6,57.7,69.5z"/>
		<path fill="#EC5A4D" d="M79.4,76.6V47h10.3v2.1H82v11.2h5.5v2H82v12.2h7.7v2.1H79.4z"/>
		<path fill="#EC5A4D" d="M96.8,76.6V47h10.3v2.1h-7.7v11.2h5.5v2h-5.5v12.2h7.7v2.1H96.8z"/>
		<path fill="#EC5A4D" d="M42.2,110.9V81.3h3.2l5.7,25.6c2.3-11.2,3.5-14.4,5.7-25.6h3.2v29.7h-2.3V87.2l-5.5,23.7H50l-5.5-23.7
			v23.7H42.2z"/>
		<path fill="#EC5A4D" d="M68.2,102.3V89.9c0-5,1.8-9,7.6-9c5.8,0,7.6,4,7.6,9v12.4c0,5-1.7,9.1-7.6,9.1S68.2,107.3,68.2,102.3z
			 M80.7,102.9V89.3c0-3.5-1.1-6.4-4.9-6.4s-4.9,2.8-4.9,6.4v13.6c0,3.5,1.1,6.4,4.9,6.4S80.7,106.4,80.7,102.9z"/>
		<path fill="#EC5A4D" d="M91.4,110.9V81.3h7.9c5.2,0,6.4,3.5,6.4,7.7c0,3-0.9,6-4.1,7.2l4.6,14.8h-2.8L99,96.4h-5v14.5H91.4z
			 M94,94.3h5.3c3.1,0,3.8-2.7,3.8-5.5c0-2.9-0.7-5.5-3.8-5.5H94V94.3z"/>
		<path fill="#EC5A4D" d="M113.4,110.9V81.3h10.3v2.1H116v11.2h5.5v2H116v12.2h7.7v2.1H113.4z"/>
	</g>
	<polyline fill="none" stroke="#FFFFFF" stroke-width="4" stroke-linecap="round" stroke-miterlimit="10" points="66.1,134 
		83.6,151.7 101.9,134 	"/>
</g>
</svg>
