<?xml version="1.0" encoding="utf-8"?>
<!-- Generator: Adobe Illustrator 16.2.1, SVG Export Plug-In . SVG Version: 6.00 Build 0)  -->
<!DOCTYPE svg PUBLIC "-//W3C//DTD SVG 1.1//EN" "http://www.w3.org/Graphics/SVG/1.1/DTD/svg11.dtd">
<svg version="1.1" id="Layer_1" xmlns="http://www.w3.org/2000/svg" xmlns:xlink="http://www.w3.org/1999/xlink" x="0px" y="0px"
	 width="666px" height="64px" viewBox="0 0 666 64" enable-background="new 0 0 666 64" xml:space="preserve">
<g>
	<path fill="#FFFFFF" d="M35.494,12.48v33.406c0,4.999,0.725,8.54,2.173,10.625s4.005,3.247,7.675,3.484
		c1.063,0.089,1.598,0.615,1.598,1.579c0,0.69-0.459,1.037-1.376,1.037c-0.209,0-0.576-0.016-1.11-0.044l-3.325-0.133l-5.546-0.354
		c-0.445-0.029-1.037-0.044-1.774-0.044c-1.717,0-3.255,0.044-4.615,0.133l-9.804,0.575c-1.035,0.118-1.746,0.178-2.129,0.178
		c-0.917,0-1.36-0.392-1.332-1.17c0.028-0.662,0.177-1.09,0.443-1.285c0.266-0.195,0.845-0.323,1.73-0.383
		c2.309-0.148,4.089-0.982,5.348-2.507c1.256-1.525,1.884-3.602,1.884-6.233l-0.044-2.085V9.863c0-2.338-1.256-3.505-3.771-3.505
		c-5.916,0-9.952,0.43-12.11,1.29C7.839,8.302,6.797,9.037,6.278,9.853c-0.516,0.816-1.22,2.843-2.106,6.077l-0.354,1.246
		c-0.326,1.217-0.829,1.827-1.509,1.827c-0.977,0-1.436-0.458-1.376-1.376c0.029-0.829,0.177-1.98,0.443-3.46l0.445-3.86
		l0.532-3.948l0.31-2.708c0.117-1.152,0.74-1.728,1.863-1.728c0.294,0,0.798,0.029,1.509,0.088C7.188,2.1,8.83,2.144,10.958,2.144
		l9.051,0.089l10.781,0.133c6.95,0,14.314-0.193,22.094-0.579c1.538-0.057,2.528-0.089,2.973-0.089c1.626,0,2.483,0.683,2.572,2.041
		l0.222,3.195c0.028,0.503,0.177,1.702,0.443,3.594c0.208,1.569,0.31,2.825,0.31,3.771c0,0.977-0.398,1.464-1.196,1.464
		c-0.68,0-1.154-0.565-1.42-1.694c-0.621-2.763-1.812-4.753-3.57-5.973c-1.762-1.217-4.313-1.827-7.654-1.827
		c-4.496,0-7.297,0.347-8.407,1.042S35.494,9.73,35.494,12.48z"/>
	<path fill="#FFFFFF" d="M105.396,6.754l20.186,46.325c1.006,2.335,2.189,4.078,3.549,5.232c1.36,1.151,3.119,1.921,5.28,2.304
		c0.532,0.091,0.797,0.514,0.797,1.264c0,0.813-0.341,1.207-1.021,1.176c-0.386-0.028-0.949-0.117-1.689-0.266
		c-2.28-0.503-5.955-0.753-11.021-0.753c-5.095,0-8.561,0.231-10.398,0.7c-0.446,0.123-0.829,0.186-1.157,0.186
		c-0.829,0-1.243-0.423-1.243-1.267c0-0.422,0.326-0.74,0.977-0.951c1.418-0.414,2.593-1.154,3.526-2.218
		c0.93-1.066,1.397-2.189,1.397-3.372c0-1.655-1.282-5.293-3.847-10.914c-0.797-1.715-1.676-2.697-2.635-2.95
		c-0.956-0.25-4.357-0.378-10.197-0.378h-6.017l-3.982,0.709c-1.092,0.503-2.33,2.449-3.716,5.843l-1.371,3.408
		c-0.414,0.975-0.62,1.963-0.62,2.966c0,3.719,2.601,5.872,7.808,6.463c1.123,0.151,1.67,0.587,1.642,1.312
		c-0.06,0.781-0.594,1.172-1.6,1.172c-0.534,0-1.29-0.088-2.267-0.266c-1.957-0.383-3.706-0.576-5.246-0.576
		c-1.395,0-3.646,0.148-6.757,0.443c-2.312,0.237-3.75,0.354-4.313,0.354c-0.829,0-1.246-0.359-1.246-1.084
		c0-0.602,0.414-1.053,1.243-1.355c1.598-0.503,2.877-1.425,3.839-2.768c0.959-1.345,2.387-4.172,4.279-8.482l12.112-27.908
		c0.975-2.212,1.655-3.734,2.041-4.561l4.125-8.462l2.129-4.162v0.133c0.946-2.249,1.582-3.372,1.908-3.372
		c0.474,0,1.288,1.243,2.442,3.727L105.396,6.754z M107.061,34.49l-5.796-13.538c-1.386-3.245-2.374-4.868-2.963-4.868
		c-0.354,0-1.003,1.047-1.947,3.143l-0.842,1.858l-5.178,11.812l-0.487,1.105c-0.206,0.442-0.31,0.826-0.31,1.151
		c0,1.004,1.063,1.504,3.187,1.504h13.098c1.118,0,1.681-0.308,1.681-0.928c0-0.148-0.075-0.398-0.221-0.753L107.061,34.49z"/>
	<path fill="#FFFFFF" d="M169.576,14.786v16.105c0,1.094,0.253,1.658,0.753,1.686c0.266,0,0.975-0.443,2.126-1.332l4.339-3.904
		l6.202-5.501c8.149-7.304,12.222-12.287,12.222-14.951c0-0.886-0.386-1.597-1.154-2.129c-0.769-0.532-1.788-0.797-3.06-0.797
		c-0.949,0-1.42-0.409-1.42-1.222c0-0.753,0.547-1.131,1.645-1.131c1.214,0,2.46,0.076,3.734,0.222
		c3.171,0.357,5.392,0.534,6.667,0.534c0.948,0,2.118-0.073,3.513-0.222c3.023-0.357,5.126-0.534,6.312-0.534
		c1.038,0,1.556,0.438,1.556,1.311c0,0.662-0.651,1.097-1.952,1.308c-2.072,0.326-4.422,1.417-7.054,3.278
		c-2.632,1.861-6.382,5.079-11.245,9.655c-2.254,2.126-3.797,3.544-4.628,4.25c-2.491,2.098-3.737,3.648-3.737,4.652
		c0,0.708,0.667,1.994,2.001,3.854l3.2,4.342c7.409,10.155,12.774,16.918,16.094,20.285c2.335,2.361,5.635,4.134,9.893,5.316
		l0.933,0.269c0.737,0.211,1.092,0.693,1.063,1.443c-0.029,0.722-0.487,1.082-1.374,1.082c-0.323,0-0.75-0.029-1.282-0.089
		c-2.893-0.295-5.342-0.443-7.352-0.443c-0.943,0-1.934,0.061-2.966,0.178c-1.918,0.237-3.101,0.354-3.542,0.354
		c-1.535,0-2.924-0.77-4.162-2.307c-0.12-0.148-0.68-0.845-1.684-2.085c-2.549-3.046-5.835-7.239-9.854-12.576
		c-4.016-5.34-6.499-8.822-7.448-10.45c-0.829-1.358-1.509-2.041-2.041-2.041c-0.354,0-0.8,0.266-1.332,0.801l-1.332,1.284
		l-1.907,1.863c-0.769,0.769-1.249,1.559-1.441,2.372c-0.192,0.81-0.289,2.501-0.289,5.068v1.905c0,4.781,0.495,8.183,1.488,10.205
		c0.99,2.021,2.713,3.121,5.167,3.299c1.626,0.12,2.439,0.57,2.439,1.353c0,0.901-0.487,1.353-1.464,1.353
		c-0.561,0-1.493-0.117-2.794-0.354c-1.597-0.266-3.638-0.398-6.121-0.398c-3.315,0-6.45,0.148-9.405,0.442
		c-1.895,0.178-3.417,0.267-4.571,0.267c-1.152,0-1.73-0.433-1.73-1.301c0-0.578,0.386-0.943,1.155-1.095
		c2.129-0.325,3.599-1.264,4.415-2.812c0.812-1.551,1.219-4.201,1.219-7.951V13.929l0.044-1.728l-0.399-2.525
		c-0.445-1.592-1.279-2.804-2.507-3.63s-2.994-1.357-5.303-1.595c-0.709-0.091-1.144-0.227-1.308-0.407
		c-0.162-0.18-0.242-0.615-0.242-1.308c0-0.69,0.412-1.038,1.24-1.038c0.74,0,1.48,0.044,2.22,0.133
		c3.075,0.326,6.637,0.49,10.69,0.49c3.461,0,6.58-0.148,9.361-0.446c0.769-0.088,1.42-0.146,1.952-0.177
		c0.857-0.028,1.287,0.365,1.287,1.178c0,0.542-0.37,0.904-1.11,1.087c-2.543,0.68-4.125,1.53-4.746,2.548
		c-0.62,1.022-0.933,3.247-0.933,6.68L169.576,14.786z"/>
	<path fill="#FFFFFF" d="M250.751,11.993v9.626c0,2.752,0.201,4.495,0.599,5.235c0.399,0.74,1.368,1.107,2.906,1.107l1.332-0.044
		l1.952-0.044h3.771c2.929,0,5.191-1.61,6.789-4.834l1.019-2.173c0.266-0.535,0.711-0.813,1.332-0.845
		c0.649-0.029,0.975,0.373,0.975,1.201c0,0.237-0.044,0.889-0.133,1.957c-0.06,0.769-0.089,1.421-0.089,1.955
		c0,0.948,0.133,3.171,0.401,6.668c0.177,2.283,0.266,4.269,0.266,5.958l0.044,2.267c0,0.415-0.044,0.696-0.133,0.845
		c-0.12,0.18-0.357,0.281-0.711,0.312c-0.74,0.058-1.196-0.503-1.376-1.686c-0.383-2.515-1.271-4.423-2.661-5.724
		c-0.769-0.711-1.707-1.17-2.817-1.375c-1.11-0.206-3.188-0.311-6.234-0.311h-3.015c-1.42,0-2.39,0.214-2.906,0.641
		c-0.519,0.431-0.865,1.293-1.045,2.591c-0.177,1.478-0.266,3.811-0.266,7v3.984c0,4.164,0.326,7.161,0.977,8.991
		c0.503,1.328,1.095,2.23,1.774,2.702c0.681,0.475,1.731,0.709,3.148,0.709c12.008,0,19.86-3.653,23.558-10.958
		c0.206-0.354,0.383-0.548,0.532-0.576c0.297-0.061,0.571,0.036,0.821,0.289c0.252,0.253,0.377,0.57,0.377,0.956
		c0,2.906-0.784,5.724-2.351,8.451c-1.303,2.314-2.929,3.967-4.881,4.962c-1.952,0.993-4.54,1.488-7.764,1.488
		c-1.892,0-3.992-0.117-6.298-0.354l-5.147-0.487c-1.895-0.177-4.451-0.266-7.675-0.266c-2.161,0-5.444,0.133-9.851,0.398
		c-1.212,0.089-2.085,0.133-2.617,0.133c-0.708,0-1.094-0.33-1.154-0.995c-0.028-0.542,0.297-0.951,0.977-1.222
		c1.687-0.649,2.833-1.338,3.438-2.06c0.607-0.725,1.087-2.017,1.444-3.877c0.323-1.564,0.487-3.69,0.487-6.378V13.087
		c0-3.307-0.54-5.551-1.621-6.734c-1.079-1.181-3.32-2.007-6.721-2.479c-0.797-0.122-1.196-0.558-1.196-1.313
		c0-0.693,0.487-1.04,1.464-1.04c0.206,0,0.649,0.031,1.33,0.088c0.534,0.032,1.256,0.044,2.173,0.044l4.482,0.177l16.814,0.18
		c9.67,0,15.63-0.136,17.877-0.401c0.237-0.028,0.446-0.044,0.623-0.044c0.857,0,1.285,0.49,1.285,1.465
		c0,0.68,0.088,1.895,0.269,3.638c0.234,2.572,0.354,4.423,0.354,5.546c0,2.249-0.579,3.401-1.731,3.461
		c-0.562,0.029-0.844-0.625-0.844-1.96c0-2.942-1.071-5.071-3.215-6.395c-2.145-1.321-5.611-1.983-10.403-1.983h-5.413l-3.015,0.357
		c-1.509,0.472-2.264,1.965-2.264,4.48L250.751,11.993z"/>
	<path fill="#FFFFFF" d="M356.042,11.669v33.62c0,5.611,0.37,9.316,1.11,11.117c0.886,2.155,2.942,3.38,6.166,3.678l1.907,0.177
		c0.8,0.061,1.199,0.498,1.199,1.309c0,0.812-0.563,1.22-1.687,1.22c-0.266,0-0.695-0.029-1.287-0.089
		c-0.946-0.089-1.924-0.133-2.927-0.133l-6.877-0.266l-1.73,0.044c-2.101,0-4.97,0.217-8.607,0.654
		c-1.184,0.153-2.114,0.231-2.794,0.231c-0.946,0-1.437-0.359-1.465-1.084c-0.028-0.693,0.342-1.128,1.11-1.311
		c2.277-0.531,3.792-1.61,4.548-3.236c0.753-1.624,1.131-4.623,1.131-8.999V14.468c0-3.398-0.644-5.879-1.932-7.448
		c-1.284-1.566-3.453-2.512-6.499-2.835c-1.095-0.151-1.642-0.618-1.642-1.399c0-0.87,0.636-1.308,1.907-1.308
		c0.326,0,1.021,0.044,2.087,0.133c3.253,0.208,7.023,0.313,11.313,0.313c2.04,0,3.727-0.047,5.056-0.136l4.925-0.31
		C362.71,1.36,364.219,1.3,365.58,1.3c8.37,0,14.479,1.762,18.323,5.28c3.432,3.167,5.146,7.01,5.146,11.534
		c0,4.881-1.804,9.006-5.412,12.379c-3.61,3.372-8.029,5.058-13.265,5.058c-2.841,0-5.332-0.297-7.478-0.889
		c-2.145-0.592-3.216-1.287-3.216-2.085c0-0.797,0.37-1.199,1.113-1.199c0.177,0,0.414,0.044,0.711,0.133
		c1.629,0.474,3.2,0.711,4.715,0.711c3.557,0,6.483-1.16,8.782-3.476c2.296-2.32,3.445-5.28,3.445-8.881
		c0-4.488-1.327-8.149-3.978-10.984c-2.652-2.835-6.069-4.253-10.246-4.253c-3.231,0-5.402,0.479-6.513,1.438
		C356.596,7.028,356.042,8.894,356.042,11.669z"/>
	<path fill="#FFFFFF" d="M426.524,45.156c0,5.611,0.519,9.413,1.553,11.407c1.035,1.99,3.075,3.135,6.122,3.432
		c1.243,0.12,1.863,0.602,1.863,1.441c0,0.844-0.503,1.264-1.507,1.264c-0.325,0-0.933-0.044-1.818-0.133
		c-2.546-0.206-4.999-0.311-7.365-0.311c-1.982,0-3.742,0.058-5.279,0.17l-3.727,0.336l-2.974,0.256
		c-0.828,0.083-1.404,0.125-1.73,0.125c-1.063,0-1.598-0.407-1.598-1.22c0-0.662,0.297-1.084,0.889-1.264
		c2.012-0.621,3.401-1.452,4.17-2.5c0.769-1.047,1.154-2.649,1.154-4.803v-4.206l0.044-1.725V15.383
		c0-3.542-0.442-5.916-1.331-7.125c-1.449-1.978-3.815-3.171-7.099-3.586c-1.212-0.18-1.819-0.69-1.819-1.532
		s0.415-1.264,1.243-1.264c0.326,0,0.857,0.047,1.598,0.136c2.277,0.237,4.776,0.354,7.497,0.354c2.986,0,6.609-0.162,10.87-0.49
		c4.998-0.383,8.443-0.576,10.335-0.576c5.619,0,10.278,1.532,13.977,4.597c3.695,3.062,5.545,6.919,5.545,11.565
		c0,2.932-0.82,5.595-2.462,7.993c-1.643,2.397-3.899,4.217-6.766,5.459c-0.592,0.237-0.873,0.534-0.845,0.889
		c0.031,0.294,0.178,0.649,0.446,1.064c0.266,0.414,0.664,1.107,1.196,2.082l3.948,7.005l4.57,8.112
		c1.566,2.746,2.963,4.654,4.193,5.718c1.225,1.063,2.668,1.595,4.323,1.595c0.681,0,1.316-0.061,1.907-0.178
		c0.357-0.088,0.681-0.133,0.978-0.133c0.532,0,0.798,0.342,0.798,1.02c0,0.857-1.209,1.832-3.631,2.927
		c-2.421,1.094-4.567,1.642-6.439,1.642c-3.041,0-5.843-1.494-8.412-4.48c-2.566-2.986-5.902-8.636-10.004-16.946
		c-1.595-3.284-2.908-5.361-3.943-6.233c-1.034-0.873-2.721-1.309-5.058-1.309h-2.75l-1.996,0.352
		c-0.445,0.237-0.667,0.946-0.667,2.127V45.156z M426.524,10.528v15.35c0,1.894,0.245,3.09,0.734,3.594
		c0.49,0.502,1.652,0.755,3.49,0.755c5.274,0,8.542-0.097,9.804-0.289c1.259-0.193,2.437-0.79,3.533-1.796
		c2.163-1.952,3.245-4.644,3.245-8.076c0-4.464-1.46-8.154-4.378-11.068c-2.919-2.914-6.633-4.37-11.139-4.37
		c-2.015,0-3.4,0.422-4.156,1.264C426.902,6.736,426.524,8.281,426.524,10.528z"/>
	<path fill="#FFFFFF" d="M503.836,48.646l0.357,4.434c0.354,2.274,1.219,4.019,2.593,5.229c1.376,1.212,3.174,1.819,5.392,1.819
		c1.449,0,2.174,0.451,2.174,1.353c0,0.873-0.962,1.309-2.885,1.309c-0.826,0-2.01-0.078-3.547-0.232
		c-3.847-0.436-6.967-0.654-9.361-0.654c-2.96,0-5.295,0.154-7.01,0.464c-1.48,0.282-2.544,0.423-3.195,0.423
		s-1.065-0.315-1.243-0.949l-0.089-0.361l1.288-1.04c2.129-0.769,3.541-1.704,4.237-2.812c0.693-1.107,1.042-2.947,1.042-5.514
		l0.045-3.943V12.865c0-2.715-0.475-4.649-1.421-5.801c-0.945-1.152-2.676-1.92-5.191-2.304c-1.506-0.24-2.476-0.472-2.905-0.698
		c-0.428-0.224-0.644-0.607-0.644-1.147c0-0.839,0.357-1.246,1.065-1.217c0.532,0.032,1.332,0.149,2.396,0.357
		c1.065,0.237,2.854,0.354,5.368,0.354c1.657,0,3.711-0.099,6.166-0.297l3.239-0.252c3.046-0.224,5.384-0.339,7.01-0.339
		c0.975,0,1.465,0.362,1.465,1.084c0,0.542-0.076,0.904-0.222,1.084c-0.148,0.18-0.519,0.315-1.11,0.407
		c-2.129,0.354-3.497,0.943-4.104,1.772c-0.604,0.829-0.909,2.512-0.909,5.053V48.646z"/>
	<path fill="#FFFFFF" d="M540.201,13.538c0-2.835-0.784-5.025-2.351-6.56c-1.569-1.538-3.786-2.307-6.655-2.307
		c-0.918,0-1.376-0.391-1.376-1.175c0-0.542,0.192-0.894,0.578-1.061c0.383-0.164,1.225-0.248,2.527-0.248l6.745,0.089
		c1.537,0,2.911-0.029,4.125-0.089c1.863-0.12,4.42-0.326,7.675-0.623c4.375-0.412,7.852-0.62,10.427-0.62
		c10.025,0,18.062,2.567,24.11,7.704c6.049,5.134,9.071,11.964,9.071,20.488c0,10.979-4.064,19.727-12.198,26.238
		c-5.976,4.766-12.704,7.148-20.187,7.148c-1.242,0-3.742-0.117-7.497-0.354c-2.129-0.118-4.318-0.178-6.567-0.178
		c-5.264,0-8.77,0.148-10.513,0.443c-1.36,0.237-2.277,0.354-2.752,0.354c-0.68,0-1.019-0.436-1.019-1.311
		c0-0.603,0.367-0.978,1.107-1.129c1.835-0.354,3.083-1.107,3.75-2.262c0.665-1.152,0.998-3.133,0.998-5.939V13.538z
		 M550.403,11.143v38.921l0.532,4.034c0.975,3.43,4.623,5.142,10.945,5.142c6.851,0,12.287-2.371,16.303-7.114
		c4.019-4.743,6.025-11.148,6.025-19.217c0-8.451-2.413-15.336-7.242-20.655c-4.831-5.321-11.07-7.979-18.719-7.979
		c-3.133,0-5.274,0.415-6.427,1.24C550.875,6.166,550.403,8.042,550.403,11.143z"/>
	<path fill="#FFFFFF" d="M633.884,11.993v9.626c0,2.752,0.2,4.495,0.6,5.235c0.398,0.74,1.368,1.107,2.905,1.107l1.332-0.044
		l1.952-0.044h3.771c2.929,0,5.191-1.61,6.789-4.834l1.019-2.173c0.266-0.535,0.712-0.813,1.332-0.845
		c0.648-0.029,0.975,0.373,0.975,1.201c0,0.237-0.045,0.889-0.133,1.957c-0.061,0.769-0.089,1.421-0.089,1.955
		c0,0.948,0.133,3.171,0.401,6.668c0.177,2.283,0.266,4.269,0.266,5.958l0.044,2.267c0,0.415-0.044,0.696-0.133,0.845
		c-0.119,0.18-0.356,0.281-0.711,0.312c-0.74,0.058-1.196-0.503-1.376-1.686c-0.384-2.515-1.272-4.423-2.661-5.724
		c-0.769-0.711-1.707-1.17-2.817-1.375c-1.109-0.206-3.187-0.311-6.233-0.311h-3.015c-1.421,0-2.39,0.214-2.906,0.641
		c-0.519,0.431-0.865,1.293-1.045,2.591c-0.177,1.478-0.266,3.811-0.266,7v3.984c0,4.164,0.326,7.161,0.978,8.991
		c0.503,1.328,1.094,2.23,1.774,2.702c0.681,0.475,1.73,0.709,3.148,0.709c12.008,0,19.86-3.653,23.558-10.958
		c0.206-0.354,0.384-0.548,0.532-0.576c0.297-0.061,0.57,0.036,0.82,0.289c0.253,0.253,0.378,0.57,0.378,0.956
		c0,2.906-0.784,5.724-2.351,8.451c-1.303,2.314-2.929,3.967-4.881,4.962c-1.952,0.993-4.54,1.488-7.763,1.488
		c-1.893,0-3.993-0.117-6.299-0.354l-5.147-0.487c-1.895-0.177-4.451-0.266-7.675-0.266c-2.16,0-5.443,0.133-9.851,0.398
		c-1.212,0.089-2.085,0.133-2.616,0.133c-0.709,0-1.095-0.33-1.154-0.995c-0.029-0.542,0.297-0.951,0.978-1.222
		c1.686-0.649,2.832-1.338,3.437-2.06c0.607-0.725,1.087-2.017,1.444-3.877c0.323-1.564,0.487-3.69,0.487-6.378V13.087
		c0-3.307-0.54-5.551-1.621-6.734c-1.079-1.181-3.32-2.007-6.721-2.479c-0.798-0.122-1.196-0.558-1.196-1.313
		c0-0.693,0.487-1.04,1.464-1.04c0.206,0,0.649,0.031,1.329,0.088c0.534,0.032,1.257,0.044,2.174,0.044l4.482,0.177l16.814,0.18
		c9.671,0,15.63-0.136,17.877-0.401c0.236-0.028,0.445-0.044,0.623-0.044c0.857,0,1.284,0.49,1.284,1.465
		c0,0.68,0.089,1.895,0.269,3.638c0.234,2.572,0.354,4.423,0.354,5.546c0,2.249-0.579,3.401-1.73,3.461
		c-0.563,0.029-0.845-0.625-0.845-1.96c0-2.942-1.07-5.071-3.216-6.395c-2.145-1.321-5.61-1.983-10.402-1.983h-5.413l-3.015,0.357
		c-1.51,0.472-2.266,1.965-2.266,4.48L633.884,11.993z"/>
</g>
</svg>
