<?xml version="1.0" encoding="UTF-8"?>
<svg width="100px" height="105px" viewBox="0 0 100 105" version="1.1" xmlns="http://www.w3.org/2000/svg" xmlns:xlink="http://www.w3.org/1999/xlink">
    <!-- Generator: Sketch 45.2 (43514) - http://www.bohemiancoding.com/sketch -->
    <title>icon / great-aroma</title>
    <desc>Created with Sketch.</desc>
    <defs>
        <polygon id="path-1" points="11.162 11.8388 11.162 0.3768 0.281276482 0.3768 0.281276482 11.8388 11.162 11.8388"></polygon>
    </defs>
    <g id="Symbols" stroke="none" stroke-width="1" fill="none" fill-rule="evenodd">
        <g id="icon-/-great-aroma">
            <rect id="Rectangle-15" fill="#FFFFFF" x="0" y="0" width="100" height="105"></rect>
            <g id="Page-1" transform="translate(18.000000, 4.000000)">
                <path d="M11.0421,55.5253 C12.3971,55.5253 13.8831,56.0903 14.9801,57.0433 C15.1261,57.1563 15.1431,57.3493 15.0141,57.4793 L13.7381,58.8353 C13.6081,58.9483 13.4311,58.9483 13.3021,58.8513 C12.6881,58.2863 11.9791,58.0763 11.1881,58.0763 C9.4281,58.0763 8.0071,59.5613 8.0071,61.3373 C8.0071,63.0973 9.4431,64.5493 11.2031,64.5493 C11.6721,64.5493 12.1551,64.4853 12.6401,64.2923 L12.6401,63.3553 L11.6231,63.3553 C11.4451,63.3553 11.3161,63.2263 11.3161,63.0643 L11.3161,61.4663 C11.3161,61.2893 11.4451,61.1603 11.6231,61.1603 L14.8681,61.1603 C15.0291,61.1603 15.1581,61.3053 15.1581,61.4663 L15.1751,65.8093 C15.1751,65.8893 15.1101,66.0193 15.0461,66.0673 C15.0461,66.0673 13.3831,67.1173 11.0421,67.1173 C7.8291,67.1173 5.2461,64.5663 5.2461,61.3373 C5.2461,58.1083 7.8291,55.5253 11.0421,55.5253" id="Fill-1" fill="#003A70"></path>
                <path d="M23.2774,60.498 C23.9384,60.498 24.5044,59.885 24.5044,59.206 C24.5044,58.528 23.9384,57.979 23.2774,57.979 L20.8874,57.979 L20.8874,60.498 L23.2774,60.498 Z M18.3534,55.977 C18.3534,55.816 18.4824,55.671 18.6604,55.671 L23.4874,55.671 C25.4234,55.671 27.0064,57.237 27.0064,59.158 C27.0064,60.644 26.0214,61.838 24.6174,62.403 L26.8294,66.504 C26.9414,66.713 26.8294,66.972 26.5544,66.972 L24.4074,66.972 C24.2784,66.972 24.1804,66.891 24.1484,66.826 L22.0024,62.548 L20.8874,62.548 L20.8874,66.665 C20.8874,66.826 20.7424,66.972 20.5814,66.972 L18.6604,66.972 C18.4824,66.972 18.3534,66.826 18.3534,66.665 L18.3534,55.977 Z" id="Fill-3" fill="#003A70"></path>
                <path d="M30.1368,55.9774 C30.1368,55.8164 30.2658,55.6704 30.4438,55.6704 L37.1268,55.6704 C37.3048,55.6704 37.4338,55.8164 37.4338,55.9774 L37.4338,57.7374 C37.4338,57.8984 37.3048,58.0434 37.1268,58.0434 L32.6558,58.0434 L32.6558,60.0454 L36.3358,60.0454 C36.4968,60.0454 36.6428,60.1914 36.6428,60.3524 L36.6428,62.1124 C36.6428,62.2894 36.4968,62.4184 36.3358,62.4184 L32.6558,62.4184 L32.6558,64.5984 L37.1268,64.5984 C37.3048,64.5984 37.4338,64.7444 37.4338,64.9054 L37.4338,66.6654 C37.4338,66.8264 37.3048,66.9714 37.1268,66.9714 L30.4438,66.9714 C30.2658,66.9714 30.1368,66.8264 30.1368,66.6654 L30.1368,55.9774 Z" id="Fill-5" fill="#003A70"></path>
                <path d="M45.7296,63.0976 L44.5026,60.4336 L44.4866,60.4336 L43.2756,63.0976 L45.7296,63.0976 Z M39.0946,66.5516 L44.1476,55.6876 C44.1966,55.5896 44.3086,55.5096 44.4216,55.5096 L44.5836,55.5096 C44.6966,55.5096 44.8096,55.5896 44.8586,55.6876 L49.9116,66.5516 C50.0076,66.7616 49.8786,66.9716 49.6366,66.9716 L47.8446,66.9716 C47.5536,66.9716 47.4246,66.8746 47.2796,66.5686 L46.6986,65.2926 L42.3076,65.2926 L41.7256,66.5836 C41.6456,66.7786 41.4676,66.9716 41.1446,66.9716 L39.3696,66.9716 C39.1266,66.9716 38.9986,66.7616 39.0946,66.5516 L39.0946,66.5516 Z" id="Fill-7" fill="#003A70"></path>
                <path d="M53.0889,58.0439 L50.7809,58.0439 C50.6039,58.0439 50.4739,57.8979 50.4739,57.7369 L50.4739,55.9779 C50.4739,55.8159 50.6039,55.6709 50.7809,55.6709 L57.9479,55.6709 C58.1259,55.6709 58.2549,55.8159 58.2549,55.9779 L58.2549,57.7369 C58.2549,57.8979 58.1259,58.0439 57.9479,58.0439 L55.6399,58.0439 L55.6399,66.6649 C55.6399,66.8259 55.4949,66.9719 55.3329,66.9719 L53.3969,66.9719 C53.2349,66.9719 53.0889,66.8259 53.0889,66.6649 L53.0889,58.0439 Z" id="Fill-9" fill="#003A70"></path>
                <path d="M6.6671,80.2401 L5.4401,77.5761 L5.4241,77.5761 L4.2131,80.2401 L6.6671,80.2401 Z M0.0321,83.6941 L5.0851,72.8301 C5.1341,72.7321 5.2461,72.6521 5.3591,72.6521 L5.5211,72.6521 C5.6341,72.6521 5.7471,72.7321 5.7961,72.8301 L10.8491,83.6941 C10.9451,83.9041 10.8161,84.1141 10.5741,84.1141 L8.7821,84.1141 C8.4911,84.1141 8.3621,84.0171 8.2171,83.7111 L7.6361,82.4351 L3.2451,82.4351 L2.6631,83.7261 C2.5831,83.9211 2.4051,84.1141 2.0821,84.1141 L0.3071,84.1141 C0.0641,84.1141 -0.0639,83.9041 0.0321,83.6941 L0.0321,83.6941 Z" id="Fill-11" fill="#003A70"></path>
                <path d="M18.0635,77.6405 C18.7255,77.6405 19.2905,77.0275 19.2905,76.3485 C19.2905,75.6705 18.7255,75.1215 18.0635,75.1215 L15.6735,75.1215 L15.6735,77.6405 L18.0635,77.6405 Z M13.1395,73.1195 C13.1395,72.9585 13.2685,72.8135 13.4465,72.8135 L18.2735,72.8135 C20.2095,72.8135 21.7925,74.3795 21.7925,76.3005 C21.7925,77.7865 20.8075,78.9805 19.4035,79.5455 L21.6155,83.6465 C21.7275,83.8555 21.6155,84.1145 21.3405,84.1145 L19.1935,84.1145 C19.0645,84.1145 18.9665,84.0335 18.9345,83.9685 L16.7885,79.6905 L15.6735,79.6905 L15.6735,83.8075 C15.6735,83.9685 15.5285,84.1145 15.3675,84.1145 L13.4465,84.1145 C13.2685,84.1145 13.1395,83.9685 13.1395,83.8075 L13.1395,73.1195 Z" id="Fill-13" fill="#003A70"></path>
                <path d="M29.8946,81.6923 C31.6706,81.6923 33.1236,80.2403 33.1236,78.4803 C33.1236,76.7043 31.6706,75.2353 29.8946,75.2353 C28.1346,75.2353 26.6826,76.7043 26.6826,78.4803 C26.6826,80.2403 28.1346,81.6923 29.8946,81.6923 M29.8946,72.6523 C33.1236,72.6523 35.7066,75.2513 35.7066,78.4803 C35.7066,81.7093 33.1236,84.2753 29.8946,84.2753 C26.6656,84.2753 24.0996,81.7093 24.0996,78.4803 C24.0996,75.2513 26.6656,72.6523 29.8946,72.6523" id="Fill-15" fill="#003A70"></path>
                <path d="M39.7393,72.9101 C39.7563,72.7651 39.9013,72.6521 40.0303,72.6521 L40.2883,72.6521 C40.3693,72.6521 40.5143,72.7171 40.5623,72.8131 L44.3083,79.7881 L44.3413,79.7881 L48.0863,72.8131 C48.1353,72.7171 48.2793,72.6521 48.3603,72.6521 L48.6193,72.6521 C48.7483,72.6521 48.8933,72.7651 48.9093,72.9101 L50.7333,83.7591 C50.7653,83.9691 50.6203,84.1141 50.4273,84.1141 L48.5213,84.1141 C48.3773,84.1141 48.2313,83.9851 48.2153,83.8551 L47.4883,78.8671 L47.4563,78.8671 L44.7443,84.0981 C44.6953,84.1951 44.5513,84.2751 44.4693,84.2751 L44.1783,84.2751 C44.0823,84.2751 43.9533,84.1951 43.9043,84.0981 L41.1763,78.8671 L41.1443,78.8671 L40.4333,83.8551 C40.4183,83.9851 40.2883,84.1141 40.1273,84.1141 L38.2213,84.1141 C38.0283,84.1141 37.8833,83.9691 37.9153,83.7591 L39.7393,72.9101 Z" id="Fill-17" fill="#003A70"></path>
                <g id="Group-21" transform="translate(52.000000, 72.275300)">
                    <mask id="mask-2" fill="white">
                        <use xlink:href="#path-1"></use>
                    </mask>
                    <g id="Clip-20"></g>
                    <path d="M6.9483,7.9648 L5.7213,5.3008 L5.7053,5.3008 L4.4943,7.9648 L6.9483,7.9648 Z M0.3133,11.4188 L5.3663,0.5548 C5.4153,0.4568 5.5273,0.3768 5.6403,0.3768 L5.8023,0.3768 C5.9153,0.3768 6.0283,0.4568 6.0773,0.5548 L11.1303,11.4188 C11.2263,11.6288 11.0973,11.8388 10.8553,11.8388 L9.0633,11.8388 C8.7723,11.8388 8.6433,11.7418 8.4983,11.4358 L7.9173,10.1598 L3.5263,10.1598 L2.9443,11.4508 C2.8643,11.6458 2.6863,11.8388 2.3633,11.8388 L0.5883,11.8388 C0.3453,11.8388 0.2173,11.6288 0.3133,11.4188 L0.3133,11.4188 Z" id="Fill-19" fill="#003A70" mask="url(#mask-2)"></path>
                </g>
                <path d="M4.4905,41.0611 L4.50977167,40.8487548 C4.50190222,40.893644 4.49623353,40.9309527 4.4905,40.9811669 L4.4905,41.0611 Z M4.4905,18.5155834 C3.43491674,17.5085017 2.65680268,16.3497867 2.13476321,15.0735276 C1.23132835,12.86485 1.15454487,10.5514938 1.55736946,8.41486369 C1.64314112,7.95992047 1.73151365,7.61932537 1.79906609,7.40804765 C2.76607308,4.45492417 4.44703566,2.30956304 6.63067962,0.887320021 C7.89827417,0.0617149624 9.25104607,-0.466934515 10.6036938,-0.760601705 C11.4241789,-0.938733488 12.0761901,-0.9994 12.481,-0.9994 L48.503,-0.9994 C50.7622239,-0.9994 52.7333584,-0.79486305 54.4072521,-0.451894998 C55.4354214,-0.24123095 56.1493686,-0.0245634969 56.5406949,0.131817648 C56.6310462,0.167923694 56.7165828,0.215070657 56.7953551,0.272183971 C58.3713046,1.41481501 59.6198579,2.64016776 60.5566861,3.94057653 C63.4664398,7.97959789 63.2191235,12.3104821 61.0900805,16.3320276 C60.6230203,17.2142567 60.1531043,17.9187063 59.7695,18.4135002 L59.7695,41.0611 C59.7695,42.1875963 59.1827189,42.9956809 58.2905438,43.3991757 C57.8187711,43.6125395 57.3725444,43.6791102 57.0160107,43.6776 L6.848,43.6776 C5.69587629,43.6776 4.8911326,43.0684788 4.59471069,42.1374224 C4.46917331,41.7431116 4.45025391,41.3611508 4.48762271,41.0073935 C4.48826794,41.0012853 4.48922704,33.5040153 4.4905,18.5155834 Z M55.2732857,2.19217611 C54.9035051,2.07995574 54.4566727,1.9662383 53.9337479,1.859095 C52.4138916,1.54768805 50.6012761,1.3596 48.503,1.3596 L12.481,1.3596 C12.4350332,1.3596 12.3188131,1.3646464 12.1428333,1.38102048 C11.8328108,1.40986658 11.4831049,1.4624287 11.104186,1.54469404 C10.0162436,1.78089228 8.92842537,2.20600056 7.91813579,2.86401869 C6.17837022,3.99715645 4.83810015,5.70770215 4.04351978,8.13415926 C4.00671126,8.24933551 3.94242115,8.49711496 3.87553018,8.85191274 C3.54976616,10.5798043 3.61197169,12.4539518 4.31816835,14.1804302 C4.76686985,15.2773958 5.46042752,16.2566564 6.43935479,17.0990567 C6.69973883,17.323126 6.8495,17.6495786 6.8495,17.9931 L6.8495,41.0611 L6.83022833,41.2734452 C6.82753439,41.3123456 6.83118891,41.3861262 6.84253931,41.4217776 C6.83554971,41.3998234 23.5650406,41.3654512 57.0310121,41.3186612 C57.0733831,41.3188652 57.210779,41.2984723 57.3184562,41.2497743 C57.4081561,41.2092066 57.4105,41.2059787 57.4105,41.0611 L57.4105,17.9931 C57.4105,17.7081988 57.5136201,17.4329257 57.7008056,17.2181461 C57.7683553,17.1406384 57.9046935,16.9697601 58.0869784,16.7155498 C58.3989244,16.2805172 58.7124952,15.7812168 59.0052225,15.2282847 C60.7546068,11.9238759 60.948939,8.52082351 58.6426493,5.31946886 C57.8832534,4.26535333 56.8573969,3.24870663 55.5416679,2.27784909 C55.4747695,2.2551229 55.3852582,2.22615733 55.2732857,2.19217611 Z" id="Stroke-22" fill="#003A70" fill-rule="nonzero"></path>
            </g>
        </g>
    </g>
</svg>