<?xml version="1.0" encoding="UTF-8"?>
<svg width="9px" height="5px" viewBox="0 0 9 5" version="1.1" xmlns="http://www.w3.org/2000/svg" xmlns:xlink="http://www.w3.org/1999/xlink">
    <!-- Generator: Sketch 45.1 (43504) - http://www.bohemiancoding.com/sketch -->
    <title></title>
    <desc>Created with Sketch.</desc>
    <defs></defs>
    <g id="Round-2" stroke="none" stroke-width="1" fill="none" fill-rule="evenodd">
        <g id="Full-Design_01" transform="translate(-555.000000, -8151.000000)" fill="#FFFFFF">
            <g id="locate-map" transform="translate(150.000000, 7985.000000)">
                <g id="map" transform="translate(0.000000, 128.000000)">
                    <g id="list-side">
                        <path d="M413.398448,38.7499925 C413.398448,38.6874925 413.367197,38.6171799 413.320322,38.5703048 L412.929697,38.1796794 C412.882822,38.1328043 412.812509,38.1015543 412.750009,38.1015543 C412.687509,38.1015543 412.617197,38.1328043 412.570322,38.1796794 L409.500005,41.2499955 L406.429689,38.1796794 C406.382814,38.1328043 406.312502,38.1015543 406.250001,38.1015543 C406.179689,38.1015543 406.117189,38.1328043 406.070314,38.1796794 L405.679688,38.5703048 C405.632813,38.6171799 405.601563,38.6874925 405.601563,38.7499925 C405.601563,38.8124926 405.632813,38.8828052 405.679688,38.9296803 L409.320318,42.5703096 C409.367193,42.6171847 409.437505,42.6484347 409.500005,42.6484347 C409.562505,42.6484347 409.632818,42.6171847 409.679693,42.5703096 L413.320322,38.9296803 C413.367197,38.8828052 413.398448,38.8124926 413.398448,38.7499925 Z" id=""></path>
                    </g>
                </g>
            </g>
        </g>
    </g>
</svg>