<?xml version="1.0" encoding="UTF-8"?>
<svg width="144px" height="105px" viewBox="0 0 144 105" version="1.1" xmlns="http://www.w3.org/2000/svg" xmlns:xlink="http://www.w3.org/1999/xlink">
    <!-- Generator: Sketch 45.2 (43514) - http://www.bohemiancoding.com/sketch -->
    <title>icon / no-artificial</title>
    <desc>Created with Sketch.</desc>
    <defs>
        <polygon id="path-1" points="7.907 0.3767 7.907 11.9997 0.3033 11.9997 0.3033 0.3767 7.907 0.3767"></polygon>
    </defs>
    <g id="Symbols" stroke="none" stroke-width="1" fill="none" fill-rule="evenodd">
        <g id="icon-/-no-artificial">
            <rect id="Rectangle-15" fill="#FFFFFF" x="0" y="0" width="144" height="105"></rect>
            <g id="Page-1" transform="translate(7.000000, 1.000000)">
                <path d="M3.9385,58.0715 C3.9385,57.9105 4.0845,57.7815 4.2455,57.7815 L4.6485,57.7815 L11.0905,63.9805 L11.1065,63.9805 L11.1065,58.2495 C11.1065,58.0885 11.2355,57.9425 11.4135,57.9425 L13.3505,57.9425 C13.5115,57.9425 13.6575,58.0885 13.6575,58.2495 L13.6575,69.1145 C13.6575,69.2755 13.5115,69.4045 13.3505,69.4045 L13.0925,69.4045 C13.0435,69.4045 12.9145,69.3565 12.8825,69.3245 L6.5055,62.9155 L6.4895,62.9155 L6.4895,68.9365 C6.4895,69.0975 6.3605,69.2435 6.1825,69.2435 L4.2615,69.2435 C4.1005,69.2435 3.9545,69.0975 3.9545,68.9365 L3.9385,58.0715 Z" id="Fill-1" fill="#003A70"></path>
                <path d="M22.373,66.8215 C24.149,66.8215 25.602,65.3695 25.602,63.6095 C25.602,61.8335 24.149,60.3645 22.373,60.3645 C20.613,60.3645 19.16,61.8335 19.16,63.6095 C19.16,65.3695 20.613,66.8215 22.373,66.8215 M22.373,57.7815 C25.602,57.7815 28.185,60.3805 28.185,63.6095 C28.185,66.8385 25.602,69.4045 22.373,69.4045 C19.144,69.4045 16.577,66.8385 16.577,63.6095 C16.577,60.3805 19.144,57.7815 22.373,57.7815" id="Fill-3" fill="#003A70"></path>
                <path d="M40.8057,65.3693 L39.5787,62.7053 L39.5627,62.7053 L38.3517,65.3693 L40.8057,65.3693 Z M34.1707,68.8233 L39.2237,57.9593 C39.2717,57.8613 39.3857,57.7813 39.4977,57.7813 L39.6597,57.7813 C39.7727,57.7813 39.8857,57.8613 39.9337,57.9593 L44.9877,68.8233 C45.0837,69.0333 44.9547,69.2433 44.7127,69.2433 L42.9207,69.2433 C42.6307,69.2433 42.5007,69.1463 42.3557,68.8403 L41.7747,67.5643 L37.3837,67.5643 L36.8027,68.8553 C36.7217,69.0503 36.5437,69.2433 36.2217,69.2433 L34.4457,69.2433 C34.2027,69.2433 34.0737,69.0333 34.1707,68.8233 L34.1707,68.8233 Z" id="Fill-5" fill="#003A70"></path>
                <path d="M52.2012,62.7697 C52.8632,62.7697 53.4282,62.1567 53.4282,61.4777 C53.4282,60.7997 52.8632,60.2507 52.2012,60.2507 L49.8122,60.2507 L49.8122,62.7697 L52.2012,62.7697 Z M47.2772,58.2487 C47.2772,58.0877 47.4072,57.9427 47.5842,57.9427 L52.4112,57.9427 C54.3482,57.9427 55.9302,59.5087 55.9302,61.4297 C55.9302,62.9157 54.9462,64.1097 53.5412,64.6747 L55.7532,68.7757 C55.8662,68.9847 55.7532,69.2437 55.4782,69.2437 L53.3312,69.2437 C53.2022,69.2437 53.1052,69.1627 53.0732,69.0977 L50.9262,64.8197 L49.8122,64.8197 L49.8122,68.9367 C49.8122,69.0977 49.6672,69.2437 49.5052,69.2437 L47.5842,69.2437 C47.4072,69.2437 47.2772,69.0977 47.2772,68.9367 L47.2772,58.2487 Z" id="Fill-7" fill="#003A70"></path>
                <path d="M60.4976,60.3156 L58.1886,60.3156 C58.0116,60.3156 57.8826,60.1696 57.8826,60.0086 L57.8826,58.2496 C57.8826,58.0876 58.0116,57.9426 58.1886,57.9426 L65.3566,57.9426 C65.5346,57.9426 65.6636,58.0876 65.6636,58.2496 L65.6636,60.0086 C65.6636,60.1696 65.5346,60.3156 65.3566,60.3156 L63.0486,60.3156 L63.0486,68.9366 C63.0486,69.0976 62.9026,69.2436 62.7416,69.2436 L60.8046,69.2436 C60.6436,69.2436 60.4976,69.0976 60.4976,68.9366 L60.4976,60.3156 Z" id="Fill-9" fill="#003A70"></path>
                <path d="M68.2451,58.2492 C68.2451,58.0882 68.3911,57.9422 68.5521,57.9422 L70.4891,57.9422 C70.6511,57.9422 70.7961,58.0882 70.7961,58.2492 L70.7961,68.9372 C70.7961,69.0982 70.6511,69.2432 70.4891,69.2432 L68.5521,69.2432 C68.3911,69.2432 68.2451,69.0982 68.2451,68.9372 L68.2451,58.2492 Z" id="Fill-11" fill="#003A70"></path>
                <path d="M74.54,58.2492 C74.54,58.0882 74.669,57.9422 74.847,57.9422 L81.53,57.9422 C81.708,57.9422 81.837,58.0882 81.837,58.2492 L81.837,60.0092 C81.837,60.1702 81.708,60.3152 81.53,60.3152 L77.059,60.3152 L77.059,62.6412 L80.739,62.6412 C80.901,62.6412 81.046,62.7852 81.046,62.9472 L81.046,64.7072 C81.046,64.8682 80.901,65.0142 80.739,65.0142 L77.059,65.0142 L77.059,68.9372 C77.059,69.0982 76.914,69.2432 76.752,69.2432 L74.847,69.2432 C74.669,69.2432 74.54,69.0982 74.54,68.9372 L74.54,58.2492 Z" id="Fill-13" fill="#003A70"></path>
                <path d="M84.5957,58.2492 C84.5957,58.0882 84.7417,57.9422 84.9027,57.9422 L86.8397,57.9422 C87.0017,57.9422 87.1467,58.0882 87.1467,58.2492 L87.1467,68.9372 C87.1467,69.0982 87.0017,69.2432 86.8397,69.2432 L84.9027,69.2432 C84.7417,69.2432 84.5957,69.0982 84.5957,68.9372 L84.5957,58.2492 Z" id="Fill-15" fill="#003A70"></path>
                <path d="M95.8955,57.7815 C97.5095,57.7815 98.7045,58.2815 99.8025,59.2825 C99.9475,59.4115 99.9475,59.6055 99.8185,59.7345 L98.5595,61.0425 C98.4465,61.1555 98.2685,61.1555 98.1555,61.0425 C97.5585,60.5105 96.7675,60.2195 95.9765,60.2195 C94.1515,60.2195 92.8125,61.7365 92.8125,63.5445 C92.8125,65.3365 94.1675,66.8215 95.9925,66.8215 C96.7505,66.8215 97.5745,66.5475 98.1555,66.0475 C98.2685,65.9505 98.4785,65.9505 98.5755,66.0625 L99.8345,67.4025 C99.9475,67.5155 99.9315,67.7255 99.8185,67.8395 C98.7205,68.9045 97.3325,69.4045 95.8955,69.4045 C92.6665,69.4045 90.0675,66.8385 90.0675,63.6095 C90.0675,60.3805 92.6665,57.7815 95.8955,57.7815" id="Fill-17" fill="#003A70"></path>
                <path d="M102.7222,58.2492 C102.7222,58.0882 102.8682,57.9422 103.0292,57.9422 L104.9662,57.9422 C105.1282,57.9422 105.2732,58.0882 105.2732,58.2492 L105.2732,68.9372 C105.2732,69.0982 105.1282,69.2432 104.9662,69.2432 L103.0292,69.2432 C102.8682,69.2432 102.7222,69.0982 102.7222,68.9372 L102.7222,58.2492 Z" id="Fill-19" fill="#003A70"></path>
                <path d="M114.1992,65.3693 L112.9722,62.7053 L112.9562,62.7053 L111.7452,65.3693 L114.1992,65.3693 Z M107.5642,68.8233 L112.6172,57.9593 C112.6652,57.8613 112.7792,57.7813 112.8912,57.7813 L113.0532,57.7813 C113.1662,57.7813 113.2792,57.8613 113.3272,57.9593 L118.3812,68.8233 C118.4772,69.0333 118.3482,69.2433 118.1062,69.2433 L116.3142,69.2433 C116.0242,69.2433 115.8942,69.1463 115.7492,68.8403 L115.1682,67.5643 L110.7772,67.5643 L110.1962,68.8553 C110.1152,69.0503 109.9372,69.2433 109.6152,69.2433 L107.8392,69.2433 C107.5962,69.2433 107.4672,69.0333 107.5642,68.8233 L107.5642,68.8233 Z" id="Fill-21" fill="#003A70"></path>
                <path d="M120.6709,58.2492 C120.6709,58.0882 120.7999,57.9422 120.9779,57.9422 L122.8989,57.9422 C123.0609,57.9422 123.2059,58.0882 123.2059,58.2492 L123.2059,66.8702 L127.0479,66.8702 C127.2259,66.8702 127.3549,67.0162 127.3549,67.1772 L127.3549,68.9372 C127.3549,69.0982 127.2259,69.2432 127.0479,69.2432 L120.9779,69.2432 C120.7999,69.2432 120.6709,69.0982 120.6709,68.9372 L120.6709,58.2492 Z" id="Fill-23" fill="#003A70"></path>
                <path d="M4.0522,79.9279 C4.7462,79.9279 5.3272,79.3779 5.3272,78.6529 C5.3272,77.9739 4.7462,77.4569 4.0522,77.4569 L2.5182,77.4569 L2.5182,79.9279 L4.0522,79.9279 Z M0.0002,75.3909 C0.0002,75.2299 0.1292,75.0839 0.3072,75.0839 L4.1982,75.0839 C6.1832,75.0839 7.8142,76.6989 7.8142,78.6529 C7.8142,80.6539 6.1832,82.2839 4.2142,82.2839 L2.5182,82.2839 L2.5182,86.0779 C2.5182,86.2399 2.3732,86.3849 2.2122,86.3849 L0.3072,86.3849 C0.1292,86.3849 0.0002,86.2399 0.0002,86.0779 L0.0002,75.3909 Z" id="Fill-25" fill="#003A70"></path>
                <path d="M15.3511,79.9113 C16.0131,79.9113 16.5781,79.2983 16.5781,78.6193 C16.5781,77.9413 16.0131,77.3923 15.3511,77.3923 L12.9621,77.3923 L12.9621,79.9113 L15.3511,79.9113 Z M10.4271,75.3903 C10.4271,75.2293 10.5571,75.0843 10.7341,75.0843 L15.5611,75.0843 C17.4981,75.0843 19.0801,76.6503 19.0801,78.5713 C19.0801,80.0573 18.0961,81.2513 16.6911,81.8163 L18.9031,85.9173 C19.0161,86.1273 18.9031,86.3853 18.6281,86.3853 L16.4811,86.3853 C16.3521,86.3853 16.2551,86.3043 16.2231,86.2393 L14.0761,81.9613 L12.9621,81.9613 L12.9621,86.0783 C12.9621,86.2393 12.8171,86.3853 12.6551,86.3853 L10.7341,86.3853 C10.5571,86.3853 10.4271,86.2393 10.4271,86.0783 L10.4271,75.3903 Z" id="Fill-27" fill="#003A70"></path>
                <path d="M22.2104,75.3908 C22.2104,75.2298 22.3394,75.0838 22.5174,75.0838 L29.2004,75.0838 C29.3784,75.0838 29.5074,75.2298 29.5074,75.3908 L29.5074,77.1508 C29.5074,77.3118 29.3784,77.4568 29.2004,77.4568 L24.7294,77.4568 L24.7294,79.4588 L28.4094,79.4588 C28.5714,79.4588 28.7164,79.6048 28.7164,79.7658 L28.7164,81.5258 C28.7164,81.7028 28.5714,81.8318 28.4094,81.8318 L24.7294,81.8318 L24.7294,84.0118 L29.2004,84.0118 C29.3784,84.0118 29.5074,84.1578 29.5074,84.3188 L29.5074,86.0788 C29.5074,86.2398 29.3784,86.3848 29.2004,86.3848 L22.5174,86.3848 C22.3394,86.3848 22.2104,86.2398 22.2104,86.0788 L22.2104,75.3908 Z" id="Fill-29" fill="#003A70"></path>
                <path d="M31.9761,84.8518 L32.7351,83.5108 C32.8641,83.3018 33.1701,83.3338 33.2841,83.4148 C33.3481,83.4468 34.5111,84.3018 35.5761,84.3018 C36.2221,84.3018 36.6901,83.8988 36.6901,83.3338 C36.6901,82.6558 36.1251,82.1388 35.0271,81.7038 C33.6391,81.1548 31.8951,80.0728 31.8951,78.1358 C31.8951,76.5378 33.1381,74.9228 35.6241,74.9228 C37.3031,74.9228 38.5951,75.7788 39.0791,76.1338 C39.2731,76.2468 39.2411,76.5378 39.1761,76.6508 L38.3531,77.8938 C38.2401,78.0708 37.9491,78.2158 37.8041,78.1028 C37.6591,78.0228 36.4801,77.1348 35.4961,77.1348 C34.9141,77.1348 34.4781,77.5218 34.4781,77.9578 C34.4781,78.5548 34.9621,79.0068 36.2381,79.5238 C37.4971,80.0248 39.4991,81.0088 39.4991,83.2048 C39.4991,84.8678 38.0621,86.5458 35.6891,86.5458 C33.5901,86.5458 32.4281,85.6748 32.0571,85.3028 C31.8951,85.1418 31.8471,85.0778 31.9761,84.8518" id="Fill-31" fill="#003A70"></path>
                <path d="M42.4355,75.3908 C42.4355,75.2298 42.5645,75.0838 42.7425,75.0838 L49.4255,75.0838 C49.6035,75.0838 49.7325,75.2298 49.7325,75.3908 L49.7325,77.1508 C49.7325,77.3118 49.6035,77.4568 49.4255,77.4568 L44.9545,77.4568 L44.9545,79.4588 L48.6345,79.4588 C48.7965,79.4588 48.9415,79.6048 48.9415,79.7658 L48.9415,81.5258 C48.9415,81.7028 48.7965,81.8318 48.6345,81.8318 L44.9545,81.8318 L44.9545,84.0118 L49.4255,84.0118 C49.6035,84.0118 49.7325,84.1578 49.7325,84.3188 L49.7325,86.0788 C49.7325,86.2398 49.6035,86.3848 49.4255,86.3848 L42.7425,86.3848 C42.5645,86.3848 42.4355,86.2398 42.4355,86.0788 L42.4355,75.3908 Z" id="Fill-33" fill="#003A70"></path>
                <path d="M57.7705,79.9113 C58.4325,79.9113 58.9975,79.2983 58.9975,78.6193 C58.9975,77.9413 58.4325,77.3923 57.7705,77.3923 L55.3815,77.3923 L55.3815,79.9113 L57.7705,79.9113 Z M52.8465,75.3903 C52.8465,75.2293 52.9765,75.0843 53.1535,75.0843 L57.9805,75.0843 C59.9175,75.0843 61.4995,76.6503 61.4995,78.5713 C61.4995,80.0573 60.5155,81.2513 59.1105,81.8163 L61.3225,85.9173 C61.4355,86.1273 61.3225,86.3853 61.0475,86.3853 L58.9005,86.3853 C58.7715,86.3853 58.6745,86.3043 58.6425,86.2393 L56.4955,81.9613 L55.3815,81.9613 L55.3815,86.0783 C55.3815,86.2393 55.2365,86.3853 55.0745,86.3853 L53.1535,86.3853 C52.9765,86.3853 52.8465,86.2393 52.8465,86.0783 L52.8465,75.3903 Z" id="Fill-35" fill="#003A70"></path>
                <path d="M63.1772,75.5041 C63.0802,75.2941 63.2092,75.0841 63.4512,75.0841 L65.5982,75.0841 C65.7282,75.0841 65.8412,75.1811 65.8732,75.2621 L68.5362,81.1541 L68.6342,81.1541 L71.2972,75.2621 C71.3292,75.1811 71.4432,75.0841 71.5722,75.0841 L73.7192,75.0841 C73.9612,75.0841 74.0902,75.2941 73.9932,75.5041 L68.9242,86.3681 C68.8762,86.4661 68.7792,86.5461 68.6502,86.5461 L68.4882,86.5461 C68.3592,86.5461 68.2622,86.4661 68.2142,86.3681 L63.1772,75.5041 Z" id="Fill-37" fill="#003A70"></path>
                <path d="M80.5947,82.51 L79.3677,79.847 L79.3517,79.847 L78.1407,82.51 L80.5947,82.51 Z M73.9597,85.965 L79.0127,75.101 C79.0607,75.003 79.1747,74.923 79.2867,74.923 L79.4487,74.923 C79.5617,74.923 79.6747,75.003 79.7227,75.101 L84.7767,85.965 C84.8727,86.175 84.7437,86.385 84.5017,86.385 L82.7097,86.385 C82.4197,86.385 82.2897,86.288 82.1447,85.982 L81.5637,84.706 L77.1727,84.706 L76.5917,85.997 C76.5107,86.192 76.3327,86.385 76.0107,86.385 L74.2347,86.385 C73.9917,86.385 73.8627,86.175 73.9597,85.965 L73.9597,85.965 Z" id="Fill-39" fill="#003A70"></path>
                <path d="M87.9385,77.4572 L85.6295,77.4572 C85.4525,77.4572 85.3235,77.3112 85.3235,77.1502 L85.3235,75.3912 C85.3235,75.2292 85.4525,75.0842 85.6295,75.0842 L92.7975,75.0842 C92.9755,75.0842 93.1045,75.2292 93.1045,75.3912 L93.1045,77.1502 C93.1045,77.3112 92.9755,77.4572 92.7975,77.4572 L90.4895,77.4572 L90.4895,86.0782 C90.4895,86.2392 90.3435,86.3852 90.1825,86.3852 L88.2455,86.3852 C88.0845,86.3852 87.9385,86.2392 87.9385,86.0782 L87.9385,77.4572 Z" id="Fill-41" fill="#003A70"></path>
                <path d="M95.6699,75.3908 C95.6699,75.2298 95.8159,75.0838 95.9769,75.0838 L97.9139,75.0838 C98.0759,75.0838 98.2209,75.2298 98.2209,75.3908 L98.2209,86.0788 C98.2209,86.2398 98.0759,86.3848 97.9139,86.3848 L95.9769,86.3848 C95.8159,86.3848 95.6699,86.2398 95.6699,86.0788 L95.6699,75.3908 Z" id="Fill-43" fill="#003A70"></path>
                <path d="M100.5122,75.5041 C100.4152,75.2941 100.5442,75.0841 100.7862,75.0841 L102.9332,75.0841 C103.0632,75.0841 103.1762,75.1811 103.2082,75.2621 L105.8712,81.1541 L105.9692,81.1541 L108.6322,75.2621 C108.6642,75.1811 108.7782,75.0841 108.9072,75.0841 L111.0542,75.0841 C111.2962,75.0841 111.4252,75.2941 111.3282,75.5041 L106.2592,86.3681 C106.2112,86.4661 106.1142,86.5461 105.9852,86.5461 L105.8232,86.5461 C105.6942,86.5461 105.5972,86.4661 105.5492,86.3681 L100.5122,75.5041 Z" id="Fill-45" fill="#003A70"></path>
                <path d="M113.6187,75.3908 C113.6187,75.2298 113.7477,75.0838 113.9257,75.0838 L120.6087,75.0838 C120.7867,75.0838 120.9157,75.2298 120.9157,75.3908 L120.9157,77.1508 C120.9157,77.3118 120.7867,77.4568 120.6087,77.4568 L116.1377,77.4568 L116.1377,79.4588 L119.8177,79.4588 C119.9797,79.4588 120.1247,79.6048 120.1247,79.7658 L120.1247,81.5258 C120.1247,81.7028 119.9797,81.8318 119.8177,81.8318 L116.1377,81.8318 L116.1377,84.0118 L120.6087,84.0118 C120.7867,84.0118 120.9157,84.1578 120.9157,84.3188 L120.9157,86.0788 C120.9157,86.2398 120.7867,86.3848 120.6087,86.3848 L113.9257,86.3848 C113.7477,86.3848 113.6187,86.2398 113.6187,86.0788 L113.6187,75.3908 Z" id="Fill-47" fill="#003A70"></path>
                <g id="Group-51" transform="translate(123.000000, 74.546100)">
                    <mask id="mask-2" fill="white">
                        <use xlink:href="#path-1"></use>
                    </mask>
                    <g id="Clip-50"></g>
                    <path d="M0.3843,10.3057 L1.1433,8.9647 C1.2723,8.7557 1.5783,8.7877 1.6923,8.8687 C1.7563,8.9007 2.9193,9.7557 3.9843,9.7557 C4.6303,9.7557 5.0983,9.3527 5.0983,8.7877 C5.0983,8.1097 4.5333,7.5927 3.4353,7.1577 C2.0473,6.6087 0.3033,5.5267 0.3033,3.5897 C0.3033,1.9917 1.5463,0.3767 4.0323,0.3767 C5.7113,0.3767 7.0033,1.2327 7.4873,1.5877 C7.6813,1.7007 7.6493,1.9917 7.5843,2.1047 L6.7613,3.3477 C6.6483,3.5247 6.3573,3.6697 6.2123,3.5567 C6.0673,3.4767 4.8883,2.5887 3.9043,2.5887 C3.3223,2.5887 2.8863,2.9757 2.8863,3.4117 C2.8863,4.0087 3.3703,4.4607 4.6463,4.9777 C5.9053,5.4787 7.9073,6.4627 7.9073,8.6587 C7.9073,10.3217 6.4703,11.9997 4.0973,11.9997 C1.9983,11.9997 0.8363,11.1287 0.4653,10.7567 C0.3033,10.5957 0.2553,10.5317 0.3843,10.3057" id="Fill-49" fill="#003A70" mask="url(#mask-2)"></path>
                </g>
                <path d="M74.1993,11.7487 C72.6343,12.8277 71.1553,14.0337 69.7853,15.3597 C68.4313,16.7057 67.1743,18.1487 66.0103,19.6677 C64.8633,21.2047 63.8103,22.8117 62.8383,24.4697 C60.9143,27.8007 59.3303,31.3357 58.0333,34.9737 C56.7513,38.5967 55.6913,42.3917 55.0403,46.0937 C54.8273,47.0467 53.9943,47.5777 53.1523,47.3917 C52.6373,47.2777 52.2353,46.9127 52.0463,46.4577 C51.5443,45.2347 50.8453,43.9157 50.1073,42.7187 C49.3563,41.5107 48.5233,40.3517 47.5873,39.2937 C46.6423,38.2477 45.6023,37.3067 44.4633,36.5137 C43.3043,35.7597 42.0453,35.2017 40.7153,34.8657 C40.1633,34.7257 39.8613,34.2207 39.9873,33.7227 C40.1063,33.2487 40.5733,32.9537 41.0473,33.0337 C42.6523,33.3097 44.1953,33.8687 45.6083,34.6537 C46.9923,35.4727 48.2533,36.4617 49.3953,37.5597 C50.5253,38.6667 51.5333,39.8777 52.4543,41.1467 C53.0669667,42.0073667 53.2488667,42.2918 53,42 C53.6215333,39.1664667 54.4103,36.4943667 55.3663,33.9837 C56.8113,30.2417 58.5543,26.6037 60.6593,23.1657 C61.7213,21.4547 62.8733,19.7927 64.1243,18.2047 C65.3943,16.6287 66.7663,15.1327 68.2433,13.7397 C69.7383,12.3637 71.3523,11.1147 73.0573,10.0027 C74.7813,8.9157 76.6153,8.0087 78.5103,7.2607 C79.0053,7.0647 79.5683,7.3077 79.7643,7.8037 C79.9573,8.2907 79.7253,8.8417 79.2463,9.0487 C77.4663,9.8077 75.7813,10.6917 74.1993,11.7487 Z" id="Fill-52" fill="#003A70"></path>
                <path d="M88.397123,2.11446917 C88.3047528,3.01079341 88.1794451,3.98610298 88.0160701,5.02306014 C87.449501,8.61913083 86.5487439,12.2129797 85.2449942,15.5536317 C81.3960689,25.4158931 74.9773538,30.9864501 65.2354374,30.387878 C64.5097231,30.343288 63.8852681,30.8954483 63.840678,31.6211626 C63.796088,32.3468769 64.3482483,32.9713319 65.0739626,33.015922 C76.141077,33.6959181 83.4750622,27.3310333 87.6978181,16.5108904 C89.0773447,12.9760719 90.0229355,9.20334532 90.6169871,5.43284052 C90.8247407,4.11420776 90.9739379,2.88876751 91.0742827,1.78682805 C91.1095925,1.39907342 91.13629,1.05372184 91.1555748,0.754575386 C91.1673709,0.571593038 91.1741428,0.442493791 91.1770844,0.371086462 C91.221353,-0.703541425 90.0281522,-1.37491876 89.1326109,-0.779275785 C88.9831079,-0.679838234 86.5129346,-0.153776687 83.2875381,0.412138709 C82.7311809,0.509754955 82.1472471,0.610195863 81.5388615,0.713047615 C79.7590143,1.01394299 77.8507794,1.32208011 75.9423695,1.62060257 C75.2742892,1.72510682 74.6539714,1.82093433 74.0973874,1.905989 C73.7637402,1.95697547 73.525715,1.99300579 73.3992715,2.01198605 C62.9347571,4.18490054 57.1355525,8.5349493 55.2446192,14.4896774 C54.0761762,18.1692153 54.5099971,22.0432252 55.9223592,25.7612027 C56.4237053,27.080973 56.9295602,28.07853 57.2823422,28.6577297 C57.6605632,29.2786954 58.470564,29.4754788 59.0915297,29.0972578 C59.7124954,28.7190368 59.9092788,27.909036 59.5310578,27.2880703 C59.4698562,27.1875891 59.3493471,26.9726819 59.1890983,26.6566677 C58.915585,26.1172935 58.6406895,25.5025736 58.3837475,24.8261859 C57.1634631,21.6138441 56.7936331,18.3112703 57.7541294,15.2865763 C59.3257323,10.3374496 64.3291083,6.58436086 73.8626049,4.60285276 C73.9187979,4.59649957 74.1591092,4.5601232 74.4951333,4.50877351 C75.054668,4.42326793 75.6780252,4.32697089 76.3492874,4.2219689 C78.2675701,3.92190209 80.1860279,3.6121142 81.9777605,3.30920953 C82.5913337,3.20548076 83.1806108,3.10412078 83.7425631,3.00552284 C85.7568715,2.6521002 87.2858128,2.36510914 88.397123,2.11446917 Z" id="Stroke-54" fill="#003A70" fill-rule="nonzero"></path>
            </g>
        </g>
    </g>
</svg>