<?xml version="1.0" encoding="UTF-8"?>
<svg width="100px" height="105px" viewBox="0 0 100 105" version="1.1" xmlns="http://www.w3.org/2000/svg" xmlns:xlink="http://www.w3.org/1999/xlink">
    <!-- Generator: Sketch 45.2 (43514) - http://www.bohemiancoding.com/sketch -->
    <title>icon / milk-free</title>
    <desc>Created with Sketch.</desc>
    <defs>
        <polygon id="path-1" points="9.655 11.8583 9.655 0.5573 0.3664 0.5573 0.3664 11.8583 9.655 11.8583"></polygon>
        <polygon id="path-3" points="0.6734 12 9.3264 12 9.3264 0.6994 0.6734 0.6994 0.6734 12"></polygon>
    </defs>
    <g id="Symbols" stroke="none" stroke-width="1" fill="none" fill-rule="evenodd">
        <g id="icon-/-milk-free">
            <rect id="Rectangle-15" fill="#FFFFFF" x="0" y="0" width="100" height="105"></rect>
            <g id="Page-1" transform="translate(30.000000, 1.000000)">
                <path d="M25.0690756,5.34128867 C25.1059924,5.41003724 25.1477289,5.48775213 25.1964102,5.57839346 C25.3866078,5.93252849 25.4711534,6.09001306 25.5751791,6.28403409 C25.8313187,6.75961038 26.097744,7.25563468 26.4177865,7.85252175 C26.5835371,8.16165064 26.7328566,8.44031871 27.0475377,9.02768823 C27.7290146,10.2996276 28.1007225,10.9920652 28.5167503,11.7632386 C28.542673,11.8112759 28.9630787,12.586203 29.0896062,12.8223043 C30.5431318,15.5345935 31.2106,17.3324202 31.2106,19.3553 L31.2106,40.8473 C31.2106,43.4692266 30.1889711,45.365875 28.4968846,46.5406068 C27.4846835,47.2433279 26.480884,47.5513295 25.7460897,47.6344557 L25.5981,47.6428 L15.5301,47.6428 L15.3821783,47.6344634 C14.6472013,47.5513552 13.6430962,47.2434032 12.6305512,46.5407705 C10.9377365,45.36608 9.9156,43.4693722 9.9156,40.8473 L9.9156,19.3553 C9.9156,17.3316095 10.5832997,15.532787 12.0370412,12.8197371 C12.1637027,12.5833547 12.5852609,11.8062097 12.6082858,11.7635425 C13.030621,10.9801857 13.4306661,10.2356801 14.0797831,9.02587158 C14.1716422,8.85466323 14.1716422,8.85466323 14.2635077,8.68343523 C14.9160305,7.46719639 15.194035,6.94938506 15.5518806,6.28429467 C15.6780662,6.04976017 15.6780662,6.04976017 15.8044635,5.81444671 C15.8676808,5.69669996 15.8676808,5.69669996 15.9309088,5.5788704 C15.98772,5.47295241 16.0275151,5.39875901 16.0604766,5.33730173 C16.0951265,5.27269633 16.1222247,5.22216527 16.1536,5.16365002 C16.1920257,5.09198574 16.2368666,5.00834584 16.3098519,4.87220952 L17.4701,5.4943 L16.1536,5.4943 L16.1536,4.8113 L17.4701,4.8113 L16.7937612,5.94078577 C16.5807458,5.81323162 16.3855161,5.66317447 16.211408,5.4943 C16.121793,5.40423896 16.0907445,5.37108283 16.0604766,5.33730173 C15.581161,4.80235194 15.2976,4.11068009 15.2976,3.3593 L15.2976,2.0343 C15.2976,0.361263755 16.6569701,-0.9992 18.3301,-0.9992 L22.8021,-0.9992 C24.4722773,-0.9992 25.8316,0.362311667 25.8316,2.0343 L25.8316,3.3633 C25.8316,4.11574179 25.5481466,4.80616323 25.0690756,5.34128867 C25.0380623,5.37593079 25.0062291,5.4099221 24.9736,5.44323728 C24.7474987,5.6648588 24.5511377,5.81656467 24.3367489,5.94579705 L23.6571,4.8183 L24.9736,4.8183 L24.9736,5.4943 L23.6571,5.4943 L24.8173481,4.87220952 C24.8693546,4.96920578 24.9162885,5.05669211 24.9736,5.16346026 C25.0022007,5.21674171 25.0333858,5.27482509 25.0690756,5.34128867 Z M25.8831708,44.9137612 C26.2637992,44.7969708 26.6450784,44.6208954 26.9953154,44.3777432 C27.9882289,43.6884125 28.5776,42.5942484 28.5776,40.8473 L28.5776,19.3553 C28.5776,17.8959705 28.027953,16.4154955 26.7688524,14.0660046 C26.6461381,13.8370189 26.2283799,13.0669719 26.1995288,13.013508 C25.7818836,12.2393364 25.4092719,11.5452152 24.7266623,10.2711618 C24.4119863,9.6838017 24.2628563,9.4054874 24.0973056,9.09673131 C23.7779748,8.50117171 23.5122839,8.00651457 23.2558519,7.53039048 C23.1510466,7.33492027 23.0668422,7.17807151 22.8767898,6.82420654 C22.6865922,6.47007151 22.6020466,6.31258694 22.4968519,6.11639048 C22.394277,5.92508021 22.3406,5.71137423 22.3406,5.4943 L22.3406,4.8183 C22.3406,4.35682539 22.5822279,3.92904125 22.9774511,3.69080295 C23.1257451,3.60141213 23.1986,3.48274563 23.1986,3.3633 L23.1986,2.0343 C23.1986,1.81552988 23.0171623,1.6338 22.8021,1.6338 L18.3301,1.6338 C18.1116101,1.6338 17.9306,1.81495571 17.9306,2.0343 L17.9306,3.3593 C17.9306,3.47769192 18.0029763,3.59590857 18.1464388,3.68181423 C18.5435399,3.91959935 18.7866,4.34844896 18.7866,4.8113 L18.7866,5.4943 C18.7866,5.71137423 18.732923,5.92508021 18.6303481,6.11639048 C18.4411172,6.46935497 18.4411172,6.46935497 18.2510412,6.8237296 C18.1876303,6.94190004 18.1876303,6.94190004 18.1241809,7.06007921 C17.997245,7.29639539 17.997245,7.29639539 17.8704439,7.53207398 C17.5133858,8.19570085 17.2357011,8.71291644 16.5836767,9.9282263 C16.4918039,10.099468 16.4918039,10.099468 16.3999169,10.2707284 C15.7500238,11.4819833 15.3492973,12.227757 14.9256712,13.013508 C14.8995601,13.0618944 14.4807132,13.834041 14.3578633,14.06331 C13.0984915,16.4136169 12.5486,17.8950571 12.5486,19.3553 L12.5486,40.8473 C12.5486,42.5941028 13.1382135,43.6882075 14.1316488,44.3775795 C14.4821168,44.6207789 14.8636573,44.7968929 15.2445524,44.9137108 C15.4139475,44.9656631 15.5458469,44.9957783 15.6237552,45.0098 L25.504382,45.0098 C25.582211,44.9957804 25.7139644,44.9656798 25.8831708,44.9137612 Z" id="Stroke-1" fill="#003A70" fill-rule="nonzero"></path>
                <path d="M1.8288,58.15 C1.8448,58.005 1.9898,57.892 2.1198,57.892 L2.3778,57.892 C2.4578,57.892 2.6038,57.957 2.6518,58.053 L6.3968,65.028 L6.4298,65.028 L10.1748,58.053 C10.2238,57.957 10.3688,57.892 10.4498,57.892 L10.7078,57.892 C10.8368,57.892 10.9818,58.005 10.9978,58.15 L12.8228,68.999 C12.8548,69.209 12.7098,69.354 12.5158,69.354 L10.6108,69.354 C10.4658,69.354 10.3208,69.225 10.3038,69.095 L9.5778,64.107 L9.5458,64.107 L6.8328,69.338 C6.7848,69.435 6.6398,69.515 6.5588,69.515 L6.2678,69.515 C6.1708,69.515 6.0418,69.435 5.9938,69.338 L3.2658,64.107 L3.2328,64.107 L2.5228,69.095 C2.5068,69.225 2.3778,69.354 2.2158,69.354 L0.3108,69.354 C0.1178,69.354 -0.0282,69.209 0.0048,68.999 L1.8288,58.15 Z" id="Fill-3" fill="#003A70"></path>
                <path d="M15.8552,58.36 C15.8552,58.199 16.0012,58.053 16.1622,58.053 L18.0992,58.053 C18.2612,58.053 18.4062,58.199 18.4062,58.36 L18.4062,69.048 C18.4062,69.209 18.2612,69.354 18.0992,69.354 L16.1622,69.354 C16.0012,69.354 15.8552,69.209 15.8552,69.048 L15.8552,58.36 Z" id="Fill-5" fill="#003A70"></path>
                <path d="M22.1501,58.36 C22.1501,58.199 22.2791,58.053 22.4571,58.053 L24.3781,58.053 C24.5401,58.053 24.6851,58.199 24.6851,58.36 L24.6851,66.981 L28.5271,66.981 C28.7051,66.981 28.8341,67.127 28.8341,67.288 L28.8341,69.048 C28.8341,69.209 28.7051,69.354 28.5271,69.354 L22.4571,69.354 C22.2791,69.354 22.1501,69.209 22.1501,69.048 L22.1501,58.36 Z" id="Fill-7" fill="#003A70"></path>
                <g id="Group-11" transform="translate(31.000000, 57.495700)">
                    <mask id="mask-2" fill="white">
                        <use xlink:href="#path-1"></use>
                    </mask>
                    <g id="Clip-10"></g>
                    <path d="M0.3664,0.9453 C0.3664,0.7353 0.5284,0.5573 0.7544,0.5573 L2.6424,0.5573 C2.8524,0.5573 3.0304,0.7353 3.0304,0.9453 L3.0304,5.1913 L6.6144,0.7183 C6.6784,0.6383 6.8244,0.5573 6.9214,0.5573 L8.9554,0.5573 C9.2624,0.5573 9.4234,0.9133 9.2454,1.1553 L5.4684,5.8843 L9.5844,11.2453 C9.7624,11.4873 9.5844,11.8413 9.2784,11.8413 L7.0504,11.8413 C6.9374,11.8413 6.7914,11.7773 6.7594,11.7293 L3.0304,6.6603 L3.0304,11.4703 C3.0304,11.6803 2.8524,11.8583 2.6424,11.8583 L0.7544,11.8583 C0.5284,11.8583 0.3664,11.6803 0.3664,11.4703 L0.3664,0.9453 Z" id="Fill-9" fill="#003A70" mask="url(#mask-2)"></path>
                </g>
                <path d="M0.6179,75.5016 C0.6179,75.3406 0.7469,75.1946 0.9249,75.1946 L7.6079,75.1946 C7.7859,75.1946 7.9149,75.3406 7.9149,75.5016 L7.9149,77.2616 C7.9149,77.4226 7.7859,77.5676 7.6079,77.5676 L3.1369,77.5676 L3.1369,79.8936 L6.8169,79.8936 C6.9789,79.8936 7.1239,80.0386 7.1239,80.1996 L7.1239,81.9596 C7.1239,82.1206 6.9789,82.2666 6.8169,82.2666 L3.1369,82.2666 L3.1369,86.1896 C3.1369,86.3506 2.9919,86.4956 2.8299,86.4956 L0.9249,86.4956 C0.7469,86.4956 0.6179,86.3506 0.6179,86.1896 L0.6179,75.5016 Z" id="Fill-12" fill="#003A70"></path>
                <g id="Group-16" transform="translate(10.000000, 74.495700)">
                    <mask id="mask-4" fill="white">
                        <use xlink:href="#path-3"></use>
                    </mask>
                    <g id="Clip-15"></g>
                    <path d="M5.5974,5.5264 C6.2594,5.5264 6.8244,4.9134 6.8244,4.2344 C6.8244,3.5564 6.2594,3.0074 5.5974,3.0074 L3.2084,3.0074 L3.2084,5.5264 L5.5974,5.5264 Z M0.6734,1.0054 C0.6734,0.8444 0.8034,0.6994 0.9804,0.6994 L5.8074,0.6994 C7.7444,0.6994 9.3264,2.2654 9.3264,4.1864 C9.3264,5.6724 8.3424,6.8664 6.9374,7.4314 L9.1494,11.5324 C9.2624,11.7424 9.1494,12.0004 8.8744,12.0004 L6.7274,12.0004 C6.5984,12.0004 6.5014,11.9194 6.4694,11.8544 L4.3224,7.5764 L3.2084,7.5764 L3.2084,11.6934 C3.2084,11.8544 3.0634,12.0004 2.9014,12.0004 L0.9804,12.0004 C0.8034,12.0004 0.6734,11.8544 0.6734,11.6934 L0.6734,1.0054 Z" id="Fill-14" fill="#003A70" mask="url(#mask-4)"></path>
                </g>
                <path d="M22.4568,75.5016 C22.4568,75.3406 22.5858,75.1946 22.7638,75.1946 L29.4468,75.1946 C29.6248,75.1946 29.7538,75.3406 29.7538,75.5016 L29.7538,77.2616 C29.7538,77.4226 29.6248,77.5676 29.4468,77.5676 L24.9758,77.5676 L24.9758,79.5696 L28.6558,79.5696 C28.8178,79.5696 28.9628,79.7156 28.9628,79.8766 L28.9628,81.6366 C28.9628,81.8136 28.8178,81.9426 28.6558,81.9426 L24.9758,81.9426 L24.9758,84.1226 L29.4468,84.1226 C29.6248,84.1226 29.7538,84.2686 29.7538,84.4296 L29.7538,86.1896 C29.7538,86.3506 29.6248,86.4956 29.4468,86.4956 L22.7638,86.4956 C22.5858,86.4956 22.4568,86.3506 22.4568,86.1896 L22.4568,75.5016 Z" id="Fill-17" fill="#003A70"></path>
                <path d="M32.8845,75.5016 C32.8845,75.3406 33.0135,75.1946 33.1915,75.1946 L39.8745,75.1946 C40.0525,75.1946 40.1815,75.3406 40.1815,75.5016 L40.1815,77.2616 C40.1815,77.4226 40.0525,77.5676 39.8745,77.5676 L35.4035,77.5676 L35.4035,79.5696 L39.0835,79.5696 C39.2455,79.5696 39.3905,79.7156 39.3905,79.8766 L39.3905,81.6366 C39.3905,81.8136 39.2455,81.9426 39.0835,81.9426 L35.4035,81.9426 L35.4035,84.1226 L39.8745,84.1226 C40.0525,84.1226 40.1815,84.2686 40.1815,84.4296 L40.1815,86.1896 C40.1815,86.3506 40.0525,86.4956 39.8745,86.4956 L33.1915,86.4956 C33.0135,86.4956 32.8845,86.3506 32.8845,86.1896 L32.8845,75.5016 Z" id="Fill-19" fill="#003A70"></path>
                <path d="M4.88025918,40.9897319 L37.9512592,12.9287319 C38.5056602,12.4583183 38.5737455,11.6275419 38.1033319,11.0731408 C37.6329183,10.5187398 36.8021419,10.4506545 36.2477408,10.9210681 L3.17674082,38.9820681 C2.62233975,39.4524817 2.55425446,40.2832581 3.02466807,40.8376592 C3.49508167,41.3920602 4.32585811,41.4601455 4.88025918,40.9897319 Z" id="Stroke-21" fill="#003A70" fill-rule="nonzero"></path>
            </g>
        </g>
    </g>
</svg>