<?xml version="1.0" encoding="UTF-8"?>
<svg width="100px" height="105px" viewBox="0 0 100 105" version="1.1" xmlns="http://www.w3.org/2000/svg" xmlns:xlink="http://www.w3.org/1999/xlink">
    <!-- Generator: Sketch 45.2 (43514) - http://www.bohemiancoding.com/sketch -->
    <title>icon / best-served</title>
    <desc>Created with Sketch.</desc>
    <defs></defs>
    <g id="Symbols" stroke="none" stroke-width="1" fill="none" fill-rule="evenodd">
        <g id="icon-/-best-served">
            <rect id="Rectangle-15" fill="#FFFFFF" x="0" y="0" width="100" height="105"></rect>
            <g id="Page-1" fill="#003A70">
                <g id="Group-8" transform="translate(0.000000, 58.000000)">
                    <path d="M3.9873,10.1477 C4.6173,10.1477 5.1493,9.6307 5.1493,8.9687 C5.1493,8.3237 4.4553,7.8387 3.8263,7.8387 L2.5183,7.8387 L2.5183,10.1477 L3.9873,10.1477 Z M3.7773,5.7407 C4.3903,5.7407 4.9073,5.2237 4.9073,4.5787 C4.9073,3.9327 4.3903,3.4807 3.7773,3.4807 L2.5183,3.4807 L2.5183,5.7407 L3.7773,5.7407 Z M0.0003,1.4617 C0.0003,1.3007 0.1293,1.1557 0.3063,1.1557 L4.0683,1.1557 C5.9723,1.1557 7.5393,2.4627 7.5393,4.1587 C7.5393,5.4017 6.4253,6.3057 5.6663,6.7097 C6.5213,7.0647 7.8293,7.8557 7.8293,9.3397 C7.8293,11.1487 6.2313,12.4567 4.3103,12.4567 L0.3063,12.4567 C0.1293,12.4567 0.0003,12.3107 0.0003,12.1497 L0.0003,1.4617 Z" id="Fill-1"></path>
                    <path d="M9.8789,1.4622 C9.8789,1.3012 10.0079,1.1552 10.1859,1.1552 L16.8689,1.1552 C17.0469,1.1552 17.1759,1.3012 17.1759,1.4622 L17.1759,3.2222 C17.1759,3.3832 17.0469,3.5282 16.8689,3.5282 L12.3979,3.5282 L12.3979,5.5302 L16.0779,5.5302 C16.2389,5.5302 16.3849,5.6762 16.3849,5.8372 L16.3849,7.5972 C16.3849,7.7742 16.2389,7.9032 16.0779,7.9032 L12.3979,7.9032 L12.3979,10.0832 L16.8689,10.0832 C17.0469,10.0832 17.1759,10.2292 17.1759,10.3902 L17.1759,12.1502 C17.1759,12.3112 17.0469,12.4562 16.8689,12.4562 L10.1859,12.4562 C10.0079,12.4562 9.8789,12.3112 9.8789,12.1502 L9.8789,1.4622 Z" id="Fill-3"></path>
                    <path d="M18.6904,10.9231 L19.4494,9.5821 C19.5794,9.3731 19.8854,9.4051 19.9984,9.4861 C20.0634,9.5181 21.2254,10.3731 22.2914,10.3731 C22.9364,10.3731 23.4054,9.9701 23.4054,9.4051 C23.4054,8.7271 22.8394,8.2101 21.7424,7.7751 C20.3534,7.2261 18.6104,6.1441 18.6104,4.2071 C18.6104,2.6091 19.8534,0.9941 22.3394,0.9941 C24.0184,0.9941 25.3094,1.8501 25.7944,2.2051 C25.9884,2.3181 25.9554,2.6091 25.8904,2.7221 L25.0674,3.9651 C24.9554,4.1421 24.6644,4.2871 24.5184,4.1741 C24.3734,4.0941 23.1954,3.2061 22.2104,3.2061 C21.6284,3.2061 21.1934,3.5931 21.1934,4.0291 C21.1934,4.6261 21.6774,5.0781 22.9534,5.5951 C24.2114,6.0961 26.2134,7.0801 26.2134,9.2761 C26.2134,10.9391 24.7774,12.6171 22.4044,12.6171 C20.3054,12.6171 19.1424,11.7461 18.7714,11.3741 C18.6104,11.2131 18.5614,11.1491 18.6904,10.9231" id="Fill-5"></path>
                    <path d="M29.6348,3.5286 L27.3268,3.5286 C27.1498,3.5286 27.0198,3.3826 27.0198,3.2216 L27.0198,1.4626 C27.0198,1.3006 27.1498,1.1556 27.3268,1.1556 L34.4938,1.1556 C34.6718,1.1556 34.8008,1.3006 34.8008,1.4626 L34.8008,3.2216 C34.8008,3.3826 34.6718,3.5286 34.4938,3.5286 L32.1858,3.5286 L32.1858,12.1496 C32.1858,12.3106 32.0408,12.4566 31.8788,12.4566 L29.9428,12.4566 C29.7808,12.4566 29.6348,12.3106 29.6348,12.1496 L29.6348,3.5286 Z" id="Fill-7"></path>
                    <path d="M39.335,10.9231 L40.094,9.5821 C40.224,9.3731 40.53,9.4051 40.643,9.4861 C40.708,9.5181 41.87,10.3731 42.936,10.3731 C43.581,10.3731 44.05,9.9701 44.05,9.4051 C44.05,8.7271 43.484,8.2101 42.387,7.7751 C40.998,7.2261 39.255,6.1441 39.255,4.2071 C39.255,2.6091 40.498,0.9941 42.984,0.9941 C44.663,0.9941 45.954,1.8501 46.439,2.2051 C46.633,2.3181 46.6,2.6091 46.535,2.7221 L45.712,3.9651 C45.6,4.1421 45.309,4.2871 45.163,4.1741 C45.018,4.0941 43.84,3.2061 42.855,3.2061 C42.273,3.2061 41.838,3.5931 41.838,4.0291 C41.838,4.6261 42.322,5.0781 43.598,5.5951 C44.856,6.0961 46.858,7.0801 46.858,9.2761 C46.858,10.9391 45.422,12.6171 43.049,12.6171 C40.95,12.6171 39.787,11.7461 39.416,11.3741 C39.255,11.2131 39.206,11.1491 39.335,10.9231" id="Fill-9"></path>
                    <path d="M48.8271,1.4622 C48.8271,1.3012 48.9561,1.1552 49.1341,1.1552 L55.8171,1.1552 C55.9951,1.1552 56.1241,1.3012 56.1241,1.4622 L56.1241,3.2222 C56.1241,3.3832 55.9951,3.5282 55.8171,3.5282 L51.3461,3.5282 L51.3461,5.5302 L55.0261,5.5302 C55.1871,5.5302 55.3331,5.6762 55.3331,5.8372 L55.3331,7.5972 C55.3331,7.7742 55.1871,7.9032 55.0261,7.9032 L51.3461,7.9032 L51.3461,10.0832 L55.8171,10.0832 C55.9951,10.0832 56.1241,10.2292 56.1241,10.3902 L56.1241,12.1502 C56.1241,12.3112 55.9951,12.4562 55.8171,12.4562 L49.1341,12.4562 C48.9561,12.4562 48.8271,12.3112 48.8271,12.1502 L48.8271,1.4622 Z" id="Fill-11"></path>
                    <path d="M63.21,5.9827 C63.871,5.9827 64.437,5.3697 64.437,4.6907 C64.437,4.0127 63.871,3.4637 63.21,3.4637 L60.82,3.4637 L60.82,5.9827 L63.21,5.9827 Z M58.286,1.4617 C58.286,1.3007 58.415,1.1557 58.593,1.1557 L63.42,1.1557 C65.356,1.1557 66.939,2.7217 66.939,4.6427 C66.939,6.1287 65.954,7.3227 64.55,7.8877 L66.762,11.9887 C66.874,12.1987 66.762,12.4567 66.487,12.4567 L64.34,12.4567 C64.211,12.4567 64.113,12.3757 64.081,12.3107 L61.935,8.0327 L60.82,8.0327 L60.82,12.1497 C60.82,12.3107 60.675,12.4567 60.514,12.4567 L58.593,12.4567 C58.415,12.4567 58.286,12.3107 58.286,12.1497 L58.286,1.4617 Z" id="Fill-13"></path>
                    <path d="M67.6475,1.5755 C67.5505,1.3655 67.6795,1.1555 67.9215,1.1555 L70.0695,1.1555 C70.1985,1.1555 70.3115,1.2525 70.3435,1.3335 L73.0065,7.2255 L73.1035,7.2255 L75.7675,1.3335 C75.7995,1.2525 75.9135,1.1555 76.0425,1.1555 L78.1895,1.1555 C78.4315,1.1555 78.5605,1.3655 78.4635,1.5755 L73.3945,12.4395 C73.3455,12.5375 73.2495,12.6175 73.1205,12.6175 L72.9595,12.6175 C72.8295,12.6175 72.7325,12.5375 72.6845,12.4395 L67.6475,1.5755 Z" id="Fill-15"></path>
                    <path d="M79.7861,1.4622 C79.7861,1.3012 79.9151,1.1552 80.0931,1.1552 L86.7761,1.1552 C86.9541,1.1552 87.0831,1.3012 87.0831,1.4622 L87.0831,3.2222 C87.0831,3.3832 86.9541,3.5282 86.7761,3.5282 L82.3051,3.5282 L82.3051,5.5302 L85.9851,5.5302 C86.1461,5.5302 86.2921,5.6762 86.2921,5.8372 L86.2921,7.5972 C86.2921,7.7742 86.1461,7.9032 85.9851,7.9032 L82.3051,7.9032 L82.3051,10.0832 L86.7761,10.0832 C86.9541,10.0832 87.0831,10.2292 87.0831,10.3902 L87.0831,12.1502 C87.0831,12.3112 86.9541,12.4562 86.7761,12.4562 L80.0931,12.4562 C79.9151,12.4562 79.7861,12.3112 79.7861,12.1502 L79.7861,1.4622 Z" id="Fill-17"></path>
                    <path d="M93.3135,10.0667 C95.1375,10.0667 96.4605,8.6297 96.4605,6.7907 C96.4605,4.9657 95.1375,3.5287 93.3135,3.5287 L91.7635,3.5287 L91.7635,10.0667 L93.3135,10.0667 Z M89.2455,1.4627 C89.2455,1.3007 89.3745,1.1557 89.5355,1.1557 L93.4745,1.1557 C96.5895,1.1557 99.1405,3.6907 99.1405,6.7907 C99.1405,9.9217 96.5895,12.4567 93.4745,12.4567 L89.5355,12.4567 C89.3745,12.4567 89.2455,12.3107 89.2455,12.1497 L89.2455,1.4627 Z" id="Fill-19"></path>
                    <path d="M5.293,20.6702 L2.985,20.6702 C2.808,20.6702 2.678,20.5242 2.678,20.3632 L2.678,18.6042 C2.678,18.4422 2.808,18.2972 2.985,18.2972 L10.152,18.2972 C10.33,18.2972 10.459,18.4422 10.459,18.6042 L10.459,20.3632 C10.459,20.5242 10.33,20.6702 10.152,20.6702 L7.844,20.6702 L7.844,29.2912 C7.844,29.4522 7.699,29.5982 7.537,29.5982 L5.601,29.5982 C5.439,29.5982 5.293,29.4522 5.293,29.2912 L5.293,20.6702 Z" id="Fill-21"></path>
                    <path d="M17.0449,27.176 C18.8209,27.176 20.2739,25.724 20.2739,23.964 C20.2739,22.188 18.8209,20.719 17.0449,20.719 C15.2849,20.719 13.8329,22.188 13.8329,23.964 C13.8329,25.724 15.2849,27.176 17.0449,27.176 M17.0449,18.136 C20.2739,18.136 22.8569,20.735 22.8569,23.964 C22.8569,27.193 20.2739,29.759 17.0449,29.759 C13.8159,29.759 11.2499,27.193 11.2499,23.964 C11.2499,20.735 13.8159,18.136 17.0449,18.136" id="Fill-23"></path>
                    <path d="M29.9902,25.7239 L28.7632,23.0599 L28.7472,23.0599 L27.5362,25.7239 L29.9902,25.7239 Z M23.3552,29.1779 L28.4082,18.3139 C28.4572,18.2159 28.5692,18.1359 28.6822,18.1359 L28.8442,18.1359 C28.9572,18.1359 29.0702,18.2159 29.1192,18.3139 L34.1722,29.1779 C34.2682,29.3879 34.1392,29.5979 33.8972,29.5979 L32.1052,29.5979 C31.8142,29.5979 31.6852,29.5009 31.5402,29.1949 L30.9592,27.9189 L26.5682,27.9189 L25.9862,29.2099 C25.9062,29.4049 25.7282,29.5979 25.4052,29.5979 L23.6302,29.5979 C23.3872,29.5979 23.2592,29.3879 23.3552,29.1779 L23.3552,29.1779 Z" id="Fill-25"></path>
                    <path d="M34.8467,28.0647 L35.6057,26.7237 C35.7357,26.5147 36.0417,26.5467 36.1547,26.6277 C36.2197,26.6597 37.3817,27.5147 38.4477,27.5147 C39.0927,27.5147 39.5617,27.1117 39.5617,26.5467 C39.5617,25.8687 38.9957,25.3517 37.8987,24.9167 C36.5097,24.3677 34.7667,23.2857 34.7667,21.3487 C34.7667,19.7507 36.0097,18.1357 38.4957,18.1357 C40.1747,18.1357 41.4657,18.9917 41.9507,19.3467 C42.1447,19.4597 42.1117,19.7507 42.0467,19.8637 L41.2237,21.1067 C41.1117,21.2837 40.8207,21.4287 40.6747,21.3157 C40.5297,21.2357 39.3517,20.3477 38.3667,20.3477 C37.7847,20.3477 37.3497,20.7347 37.3497,21.1707 C37.3497,21.7677 37.8337,22.2197 39.1097,22.7367 C40.3677,23.2377 42.3697,24.2217 42.3697,26.4177 C42.3697,28.0807 40.9337,29.7587 38.5607,29.7587 C36.4617,29.7587 35.2987,28.8877 34.9277,28.5157 C34.7667,28.3547 34.7177,28.2907 34.8467,28.0647" id="Fill-27"></path>
                    <path d="M45.791,20.6702 L43.483,20.6702 C43.306,20.6702 43.176,20.5242 43.176,20.3632 L43.176,18.6042 C43.176,18.4422 43.306,18.2972 43.483,18.2972 L50.65,18.2972 C50.828,18.2972 50.957,18.4422 50.957,18.6042 L50.957,20.3632 C50.957,20.5242 50.828,20.6702 50.65,20.6702 L48.342,20.6702 L48.342,29.2912 C48.342,29.4522 48.197,29.5982 48.035,29.5982 L46.099,29.5982 C45.937,29.5982 45.791,29.4522 45.791,29.2912 L45.791,20.6702 Z" id="Fill-29"></path>
                    <path d="M52.5713,18.6038 C52.5713,18.4428 52.7003,18.2968 52.8783,18.2968 L59.5613,18.2968 C59.7393,18.2968 59.8683,18.4428 59.8683,18.6038 L59.8683,20.3638 C59.8683,20.5248 59.7393,20.6698 59.5613,20.6698 L55.0903,20.6698 L55.0903,22.6718 L58.7703,22.6718 C58.9313,22.6718 59.0773,22.8178 59.0773,22.9788 L59.0773,24.7388 C59.0773,24.9158 58.9313,25.0448 58.7703,25.0448 L55.0903,25.0448 L55.0903,27.2248 L59.5613,27.2248 C59.7393,27.2248 59.8683,27.3708 59.8683,27.5318 L59.8683,29.2918 C59.8683,29.4528 59.7393,29.5978 59.5613,29.5978 L52.8783,29.5978 C52.7003,29.5978 52.5713,29.4528 52.5713,29.2918 L52.5713,18.6038 Z" id="Fill-31"></path>
                    <path d="M66.082,27.2083 C67.906,27.2083 69.229,25.7713 69.229,23.9323 C69.229,22.1063 67.906,20.6703 66.082,20.6703 L64.532,20.6703 L64.532,27.2083 L66.082,27.2083 Z M62.014,18.6043 C62.014,18.4423 62.143,18.2973 62.304,18.2973 L66.243,18.2973 C69.358,18.2973 71.909,20.8323 71.909,23.9323 C71.909,27.0633 69.358,29.5983 66.243,29.5983 L62.304,29.5983 C62.143,29.5983 62.014,29.4523 62.014,29.2913 L62.014,18.6043 Z" id="Fill-33"></path>
                    <path d="M82.4004,27.176 C84.1764,27.176 85.6294,25.724 85.6294,23.964 C85.6294,22.188 84.1764,20.719 82.4004,20.719 C80.6404,20.719 79.1884,22.188 79.1884,23.964 C79.1884,25.724 80.6404,27.176 82.4004,27.176 M82.4004,18.136 C85.6294,18.136 88.2124,20.735 88.2124,23.964 C88.2124,27.193 85.6294,29.759 82.4004,29.759 C79.1714,29.759 76.6054,27.193 76.6054,23.964 C76.6054,20.735 79.1714,18.136 82.4004,18.136" id="Fill-35"></path>
                    <path d="M95.0879,23.1243 C95.7499,23.1243 96.3149,22.5113 96.3149,21.8323 C96.3149,21.1543 95.7499,20.6053 95.0879,20.6053 L92.6979,20.6053 L92.6979,23.1243 L95.0879,23.1243 Z M90.1639,18.6033 C90.1639,18.4423 90.2929,18.2973 90.4709,18.2973 L95.2979,18.2973 C97.2339,18.2973 98.8169,19.8633 98.8169,21.7843 C98.8169,23.2703 97.8319,24.4643 96.4279,25.0293 L98.6399,29.1303 C98.7519,29.3393 98.6399,29.5983 98.3649,29.5983 L96.2179,29.5983 C96.0889,29.5983 95.9909,29.5173 95.9589,29.4523 L93.8129,25.1743 L92.6979,25.1743 L92.6979,29.2913 C92.6979,29.4523 92.5529,29.5983 92.3919,29.5983 L90.4709,29.5983 C90.2929,29.5983 90.1639,29.4523 90.1639,29.2913 L90.1639,18.6033 Z" id="Fill-37"></path>
                    <path d="M26.4727,35.2942 C27.8277,35.2942 29.3137,35.8592 30.4107,36.8122 C30.5567,36.9252 30.5737,37.1182 30.4447,37.2482 L29.1687,38.6042 C29.0387,38.7172 28.8617,38.7172 28.7327,38.6202 C28.1187,38.0552 27.4097,37.8452 26.6187,37.8452 C24.8587,37.8452 23.4377,39.3302 23.4377,41.1062 C23.4377,42.8662 24.8737,44.3182 26.6337,44.3182 C27.1027,44.3182 27.5857,44.2542 28.0707,44.0612 L28.0707,43.1242 L27.0537,43.1242 C26.8757,43.1242 26.7467,42.9952 26.7467,42.8332 L26.7467,41.2352 C26.7467,41.0582 26.8757,40.9292 27.0537,40.9292 L30.2987,40.9292 C30.4597,40.9292 30.5887,41.0742 30.5887,41.2352 L30.6057,45.5782 C30.6057,45.6582 30.5407,45.7882 30.4767,45.8362 C30.4767,45.8362 28.8137,46.8862 26.4727,46.8862 C23.2597,46.8862 20.6767,44.3352 20.6767,41.1062 C20.6767,37.8772 23.2597,35.2942 26.4727,35.2942" id="Fill-39"></path>
                    <path d="M37.7393,40.2669 C38.4003,40.2669 38.9663,39.6539 38.9663,38.9749 C38.9663,38.2969 38.4003,37.7479 37.7393,37.7479 L35.3493,37.7479 L35.3493,40.2669 L37.7393,40.2669 Z M32.8153,35.7459 C32.8153,35.5849 32.9443,35.4399 33.1223,35.4399 L37.9493,35.4399 C39.8853,35.4399 41.4683,37.0059 41.4683,38.9269 C41.4683,40.4129 40.4833,41.6069 39.0793,42.1719 L41.2913,46.2729 C41.4033,46.4819 41.2913,46.7409 41.0163,46.7409 L38.8693,46.7409 C38.7403,46.7409 38.6423,46.6599 38.6103,46.5949 L36.4643,42.3169 L35.3493,42.3169 L35.3493,46.4339 C35.3493,46.5949 35.2043,46.7409 35.0433,46.7409 L33.1223,46.7409 C32.9443,46.7409 32.8153,46.5949 32.8153,46.4339 L32.8153,35.7459 Z" id="Fill-42"></path>
                    <path d="M43.6299,35.7464 C43.6299,35.5854 43.7749,35.4394 43.9369,35.4394 L45.8739,35.4394 C46.0349,35.4394 46.1809,35.5854 46.1809,35.7464 L46.1809,46.4344 C46.1809,46.5954 46.0349,46.7404 45.8739,46.7404 L43.9369,46.7404 C43.7749,46.7404 43.6299,46.5954 43.6299,46.4344 L43.6299,35.7464 Z" id="Fill-44"></path>
                    <path d="M48.9561,35.7464 C48.9561,35.5854 49.0851,35.4394 49.2631,35.4394 L51.1841,35.4394 C51.3451,35.4394 51.4901,35.5854 51.4901,35.7464 L51.4901,44.3674 L55.3331,44.3674 C55.5101,44.3674 55.6401,44.5134 55.6401,44.6744 L55.6401,46.4344 C55.6401,46.5954 55.5101,46.7404 55.3331,46.7404 L49.2631,46.7404 C49.0851,46.7404 48.9561,46.5954 48.9561,46.4344 L48.9561,35.7464 Z" id="Fill-46"></path>
                    <path d="M57.2041,35.7464 C57.2041,35.5854 57.3331,35.4394 57.5111,35.4394 L59.4321,35.4394 C59.5931,35.4394 59.7381,35.5854 59.7381,35.7464 L59.7381,44.3674 L63.5811,44.3674 C63.7581,44.3674 63.8881,44.5134 63.8881,44.6744 L63.8881,46.4344 C63.8881,46.5954 63.7581,46.7404 63.5811,46.7404 L57.5111,46.7404 C57.3331,46.7404 57.2041,46.5954 57.2041,46.4344 L57.2041,35.7464 Z" id="Fill-48"></path>
                    <path d="M65.4521,35.7464 C65.4521,35.5854 65.5811,35.4394 65.7591,35.4394 L72.4421,35.4394 C72.6201,35.4394 72.7491,35.5854 72.7491,35.7464 L72.7491,37.5064 C72.7491,37.6674 72.6201,37.8124 72.4421,37.8124 L67.9711,37.8124 L67.9711,39.8144 L71.6511,39.8144 C71.8121,39.8144 71.9581,39.9604 71.9581,40.1214 L71.9581,41.8814 C71.9581,42.0584 71.8121,42.1874 71.6511,42.1874 L67.9711,42.1874 L67.9711,44.3674 L72.4421,44.3674 C72.6201,44.3674 72.7491,44.5134 72.7491,44.6744 L72.7491,46.4344 C72.7491,46.5954 72.6201,46.7404 72.4421,46.7404 L65.7591,46.7404 C65.5811,46.7404 65.4521,46.5954 65.4521,46.4344 L65.4521,35.7464 Z" id="Fill-50"></path>
                    <path d="M78.9795,44.3508 C80.8035,44.3508 82.1265,42.9138 82.1265,41.0748 C82.1265,39.2488 80.8035,37.8128 78.9795,37.8128 L77.4295,37.8128 L77.4295,44.3508 L78.9795,44.3508 Z M74.9115,35.7468 C74.9115,35.5848 75.0405,35.4398 75.2015,35.4398 L79.1405,35.4398 C82.2555,35.4398 84.8065,37.9748 84.8065,41.0748 C84.8065,44.2058 82.2555,46.7408 79.1405,46.7408 L75.2015,46.7408 C75.0405,46.7408 74.9115,46.5948 74.9115,46.4338 L74.9115,35.7468 Z" id="Fill-52"></path>
                </g>
                <g id="Group-7" transform="translate(24.000000, 0.000000)">
                    <path d="M38.671162,35.737 L33.891162,31.006 C34.346162,30.812 34.834162,30.706 35.333162,30.706 C36.298162,30.706 37.207162,31.079 37.884162,31.755 C38.971162,32.827 39.226162,34.413 38.671162,35.737 M32.781162,36.914 C32.094162,36.233 31.706162,35.323 31.706162,34.354 C31.706162,33.856 31.806162,33.375 31.993162,32.929 L36.775162,37.663 C36.331162,37.859 35.843162,37.964 35.333162,37.964 C34.368162,37.964 33.469162,37.591 32.781162,36.914 M30.829162,29.879 C29.643162,31.082 28.988162,32.675 29.000162,34.367 C29.011162,36.061 29.676162,37.648 30.874162,38.839 C32.071162,40.019 33.657162,40.67 35.333162,40.67 C37.041162,40.67 38.638162,40.003 39.836162,38.79 C42.298162,36.306 42.275162,32.288 39.791162,29.832 C38.593162,28.65 37.019162,28 35.333162,28 C33.625162,28 32.027162,28.667 30.829162,29.879" id="Fill-54"></path>
                    <path d="M35.542,26.092 C36.396,26.092 37.095,25.401 37.095,24.545 C37.095,23.693 36.396,23 35.542,23 C34.688,23 34,23.693 34,24.545 C34,25.401 34.688,26.092 35.542,26.092" id="Fill-56"></path>
                    <path d="M29.542,28.092 C30.396,28.092 31.095,27.401 31.095,26.547 C31.095,25.694 30.396,25 29.542,25 C28.688,25 28,25.694 28,26.547 C28,27.401 28.688,28.092 29.542,28.092" id="Fill-58"></path>
                    <path d="M26.553,32.092 C27.407,32.092 28.095,31.4 28.095,30.545 C28.095,29.693 27.407,29 26.553,29 C25.699,29 25,29.693 25,30.545 C25,31.4 25.699,32.092 26.553,32.092" id="Fill-60"></path>
                    <path d="M26.543,38.093 C27.397,38.093 28.095,37.4 28.095,36.547 C28.095,35.693 27.397,35 26.543,35 C25.689,35 25,35.693 25,36.547 C25,37.4 25.689,38.093 26.543,38.093" id="Fill-62"></path>
                    <path d="M49.222,24.889 C49.178,24.97 49.067,25.111 48.867,25.164 L47.603,25.487 C47.425,24.29 47.148,23.167 46.76,22.127 L48.002,21.809 C48.313,21.73 48.645,21.924 48.734,22.237 L49.288,24.441 C49.344,24.645 49.278,24.809 49.222,24.889 L49.222,24.889 Z M2.795,42.974 L3.938,26.542 C4.58,20.475 8.329,16.705 13.709,16.705 L24.211,16.705 L24.756,16.705 L35.259,16.705 C40.638,16.705 44.375,20.475 45.019,26.494 L46.172,42.974 L2.795,42.974 Z M51.916,23.769 L51.352,21.565 C50.897,19.803 49.089,18.735 47.326,19.188 L45.551,19.644 C43.355,16.095 39.717,14 35.259,14 L24.756,14 L24.211,14 L13.709,14 C6.933,14 2.041,18.811 1.243,26.306 L0.012,44.03 L0,44.504 C0.077,45.165 0.644,45.679 1.332,45.679 L5.602,45.679 L5.602,47.606 C5.602,48.353 6.211,48.958 6.954,48.958 C7.709,48.958 8.308,48.353 8.308,47.606 L8.308,45.679 L40.649,45.679 L40.649,47.606 C40.649,48.353 41.259,48.958 42.002,48.958 C42.756,48.958 43.355,48.353 43.355,47.606 L43.355,45.679 L47.636,45.679 C48.324,45.679 48.877,45.165 48.967,44.504 L48.967,44.281 L48.955,44.033 L47.847,28.216 L49.533,27.786 C50.387,27.567 51.108,27.028 51.551,26.267 C52.006,25.507 52.127,24.618 51.916,23.769 L51.916,23.769 Z" id="Fill-64"></path>
                    <path d="M13.108,11.956 L15.813,11.956 L15.813,7.916 L15.381,7.514 C15.072,7.227 14.706,6.793 14.706,6.351 C14.706,4.865 18.544,2.707 24.544,2.707 C30.553,2.707 34.392,4.865 34.392,6.351 C34.392,6.792 34.024,7.227 33.715,7.514 L33.284,7.916 L33.284,11.956 L35.99,11.956 L35.99,9.05 C36.887,8.021 37.098,7.034 37.098,6.351 C37.098,2.73 31.697,0 24.544,0 C17.389,0 12,2.73 12,6.351 C12,7.034 12.211,8.021 13.108,9.05 L13.108,11.956 Z" id="Fill-66"></path>
                </g>
            </g>
        </g>
    </g>
</svg>