<?xml version="1.0" encoding="UTF-8"?>
<svg width="100px" height="105px" viewBox="0 0 100 105" version="1.1" xmlns="http://www.w3.org/2000/svg" xmlns:xlink="http://www.w3.org/1999/xlink">
    <!-- Generator: Sketch 45.2 (43514) - http://www.bohemiancoding.com/sketch -->
    <title>icon / best-taste</title>
    <desc>Created with Sketch.</desc>
    <defs>
        <polygon id="path-1" points="8.921 11.6976 8.921 0.3966 0.2684 0.3966 0.2684 11.6976 8.921 11.6976"></polygon>
    </defs>
    <g id="Symbols" stroke="none" stroke-width="1" fill="none" fill-rule="evenodd">
        <g id="icon-/-best-taste">
            <rect id="Rectangle-15" fill="#FFFFFF" x="0" y="0" width="100" height="105"></rect>
            <g id="Page-1" transform="translate(7.000000, 2.000000)">
                <path d="M3.9873,66.6352 C4.6173,66.6352 5.1493,66.1182 5.1493,65.4562 C5.1493,64.8112 4.4553,64.3262 3.8263,64.3262 L2.5183,64.3262 L2.5183,66.6352 L3.9873,66.6352 Z M3.7773,62.2282 C4.3903,62.2282 4.9073,61.7112 4.9073,61.0662 C4.9073,60.4202 4.3903,59.9682 3.7773,59.9682 L2.5183,59.9682 L2.5183,62.2282 L3.7773,62.2282 Z M0.0003,57.9492 C0.0003,57.7882 0.1293,57.6432 0.3063,57.6432 L4.0683,57.6432 C5.9723,57.6432 7.5393,58.9502 7.5393,60.6462 C7.5393,61.8892 6.4253,62.7932 5.6663,63.1972 C6.5213,63.5522 7.8293,64.3432 7.8293,65.8272 C7.8293,67.6362 6.2313,68.9442 4.3103,68.9442 L0.3063,68.9442 C0.1293,68.9442 0.0003,68.7982 0.0003,68.6372 L0.0003,57.9492 Z" id="Fill-1" fill="#003A70"></path>
                <path d="M10.8311,57.9496 C10.8311,57.7886 10.9601,57.6426 11.1381,57.6426 L17.8211,57.6426 C17.9991,57.6426 18.1281,57.7886 18.1281,57.9496 L18.1281,59.7096 C18.1281,59.8706 17.9991,60.0156 17.8211,60.0156 L13.3501,60.0156 L13.3501,62.0176 L17.0301,62.0176 C17.1911,62.0176 17.3371,62.1636 17.3371,62.3246 L17.3371,64.0846 C17.3371,64.2616 17.1911,64.3906 17.0301,64.3906 L13.3501,64.3906 L13.3501,66.5706 L17.8211,66.5706 C17.9991,66.5706 18.1281,66.7166 18.1281,66.8776 L18.1281,68.6376 C18.1281,68.7986 17.9991,68.9436 17.8211,68.9436 L11.1381,68.9436 C10.9601,68.9436 10.8311,68.7986 10.8311,68.6376 L10.8311,57.9496 Z" id="Fill-3" fill="#003A70"></path>
                <path d="M20.6113,67.4106 L21.3703,66.0696 C21.5003,65.8606 21.8063,65.8926 21.9193,65.9736 C21.9843,66.0056 23.1463,66.8606 24.2123,66.8606 C24.8573,66.8606 25.3263,66.4576 25.3263,65.8926 C25.3263,65.2146 24.7603,64.6976 23.6633,64.2626 C22.2743,63.7136 20.5313,62.6316 20.5313,60.6946 C20.5313,59.0966 21.7743,57.4816 24.2593,57.4816 C25.9393,57.4816 27.2303,58.3376 27.7153,58.6926 C27.9093,58.8056 27.8773,59.0966 27.8113,59.2096 L26.9883,60.4526 C26.8763,60.6296 26.5853,60.7746 26.4393,60.6616 C26.2943,60.5816 25.1163,59.6936 24.1313,59.6936 C23.5493,59.6936 23.1143,60.0806 23.1143,60.5166 C23.1143,61.1136 23.5983,61.5656 24.8743,62.0826 C26.1323,62.5836 28.1343,63.5676 28.1343,65.7636 C28.1343,67.4266 26.6983,69.1046 24.3253,69.1046 C22.2263,69.1046 21.0633,68.2336 20.6923,67.8616 C20.5313,67.7006 20.4823,67.6366 20.6113,67.4106" id="Fill-5" fill="#003A70"></path>
                <path d="M32.5254,60.016 L30.2164,60.016 C30.0394,60.016 29.9094,59.87 29.9094,59.709 L29.9094,57.95 C29.9094,57.788 30.0394,57.643 30.2164,57.643 L37.3834,57.643 C37.5614,57.643 37.6914,57.788 37.6914,57.95 L37.6914,59.709 C37.6914,59.87 37.5614,60.016 37.3834,60.016 L35.0754,60.016 L35.0754,68.637 C35.0754,68.798 34.9304,68.944 34.7684,68.944 L32.8324,68.944 C32.6704,68.944 32.5254,68.798 32.5254,68.637 L32.5254,60.016 Z" id="Fill-7" fill="#003A70"></path>
                <path d="M44.792,57.9496 C44.792,57.7886 44.921,57.6426 45.099,57.6426 L51.782,57.6426 C51.96,57.6426 52.089,57.7886 52.089,57.9496 L52.089,59.7096 C52.089,59.8706 51.96,60.0156 51.782,60.0156 L47.311,60.0156 L47.311,62.0176 L50.991,62.0176 C51.152,62.0176 51.298,62.1636 51.298,62.3246 L51.298,64.0846 C51.298,64.2616 51.152,64.3906 50.991,64.3906 L47.311,64.3906 L47.311,66.5706 L51.782,66.5706 C51.96,66.5706 52.089,66.7166 52.089,66.8776 L52.089,68.6376 C52.089,68.7986 51.96,68.9436 51.782,68.9436 L45.099,68.9436 C44.921,68.9436 44.792,68.7986 44.792,68.6376 L44.792,57.9496 Z" id="Fill-9" fill="#003A70"></path>
                <path d="M53.75,58.0629 C53.653,57.8529 53.782,57.6429 54.024,57.6429 L56.172,57.6429 C56.301,57.6429 56.414,57.7399 56.446,57.8209 L59.109,63.7129 L59.206,63.7129 L61.87,57.8209 C61.902,57.7399 62.016,57.6429 62.145,57.6429 L64.292,57.6429 C64.534,57.6429 64.663,57.8529 64.566,58.0629 L59.497,68.9269 C59.448,69.0249 59.352,69.1049 59.223,69.1049 L59.062,69.1049 C58.932,69.1049 58.835,69.0249 58.787,68.9269 L53.75,58.0629 Z" id="Fill-11" fill="#003A70"></path>
                <path d="M66.8574,57.9496 C66.8574,57.7886 66.9864,57.6426 67.1644,57.6426 L73.8474,57.6426 C74.0254,57.6426 74.1544,57.7886 74.1544,57.9496 L74.1544,59.7096 C74.1544,59.8706 74.0254,60.0156 73.8474,60.0156 L69.3764,60.0156 L69.3764,62.0176 L73.0564,62.0176 C73.2174,62.0176 73.3634,62.1636 73.3634,62.3246 L73.3634,64.0846 C73.3634,64.2616 73.2174,64.3906 73.0564,64.3906 L69.3764,64.3906 L69.3764,66.5706 L73.8474,66.5706 C74.0254,66.5706 74.1544,66.7166 74.1544,66.8776 L74.1544,68.6376 C74.1544,68.7986 74.0254,68.9436 73.8474,68.9436 L67.1644,68.9436 C66.9864,68.9436 66.8574,68.7986 66.8574,68.6376 L66.8574,57.9496 Z" id="Fill-13" fill="#003A70"></path>
                <g id="Group-17" transform="translate(77.000000, 57.246500)">
                    <mask id="mask-2" fill="white">
                        <use xlink:href="#path-1"></use>
                    </mask>
                    <g id="Clip-16"></g>
                    <path d="M5.1924,5.2236 C5.8534,5.2236 6.4194,4.6106 6.4194,3.9316 C6.4194,3.2536 5.8534,2.7046 5.1924,2.7046 L2.8024,2.7046 L2.8024,5.2236 L5.1924,5.2236 Z M0.2684,0.7026 C0.2684,0.5416 0.3974,0.3966 0.5754,0.3966 L5.4024,0.3966 C7.3384,0.3966 8.9214,1.9626 8.9214,3.8836 C8.9214,5.3696 7.9364,6.5636 6.5324,7.1286 L8.7444,11.2296 C8.8564,11.4396 8.7444,11.6976 8.4694,11.6976 L6.3224,11.6976 C6.1934,11.6976 6.0954,11.6166 6.0634,11.5516 L3.9174,7.2736 L2.8024,7.2736 L2.8024,11.3906 C2.8024,11.5516 2.6574,11.6976 2.4964,11.6976 L0.5754,11.6976 C0.3974,11.6976 0.2684,11.5516 0.2684,11.3906 L0.2684,0.7026 Z" id="Fill-15" fill="#003A70" mask="url(#mask-2)"></path>
                </g>
                <path d="M21.1602,77.1576 L18.8522,77.1576 C18.6752,77.1576 18.5452,77.0116 18.5452,76.8506 L18.5452,75.0916 C18.5452,74.9296 18.6752,74.7846 18.8522,74.7846 L26.0192,74.7846 C26.1972,74.7846 26.3262,74.9296 26.3262,75.0916 L26.3262,76.8506 C26.3262,77.0116 26.1972,77.1576 26.0192,77.1576 L23.7112,77.1576 L23.7112,85.7786 C23.7112,85.9396 23.5662,86.0856 23.4042,86.0856 L21.4682,86.0856 C21.3062,86.0856 21.1602,85.9396 21.1602,85.7786 L21.1602,77.1576 Z" id="Fill-18" fill="#003A70"></path>
                <path d="M33.5098,82.2113 L32.2828,79.5473 L32.2668,79.5473 L31.0558,82.2113 L33.5098,82.2113 Z M26.8748,85.6653 L31.9278,74.8013 C31.9768,74.7033 32.0888,74.6233 32.2018,74.6233 L32.3638,74.6233 C32.4768,74.6233 32.5898,74.7033 32.6388,74.8013 L37.6918,85.6653 C37.7878,85.8753 37.6588,86.0853 37.4168,86.0853 L35.6248,86.0853 C35.3338,86.0853 35.2048,85.9883 35.0598,85.6823 L34.4788,84.4063 L30.0878,84.4063 L29.5058,85.6973 C29.4258,85.8923 29.2478,86.0853 28.9248,86.0853 L27.1498,86.0853 C26.9068,86.0853 26.7788,85.8753 26.8748,85.6653 L26.8748,85.6653 Z" id="Fill-20" fill="#003A70"></path>
                <path d="M39.3359,84.5522 L40.0949,83.2112 C40.2249,83.0022 40.5309,83.0342 40.6439,83.1152 C40.7089,83.1472 41.8709,84.0022 42.9369,84.0022 C43.5819,84.0022 44.0509,83.5992 44.0509,83.0342 C44.0509,82.3562 43.4849,81.8392 42.3879,81.4042 C40.9989,80.8552 39.2559,79.7732 39.2559,77.8362 C39.2559,76.2382 40.4989,74.6232 42.9839,74.6232 C44.6639,74.6232 45.9549,75.4792 46.4399,75.8342 C46.6339,75.9472 46.6019,76.2382 46.5359,76.3512 L45.7129,77.5942 C45.6009,77.7712 45.3099,77.9162 45.1639,77.8032 C45.0189,77.7232 43.8409,76.8352 42.8559,76.8352 C42.2739,76.8352 41.8389,77.2222 41.8389,77.6582 C41.8389,78.2552 42.3229,78.7072 43.5989,79.2242 C44.8569,79.7252 46.8589,80.7092 46.8589,82.9052 C46.8589,84.5682 45.4229,86.2462 43.0499,86.2462 C40.9509,86.2462 39.7879,85.3752 39.4169,85.0032 C39.2559,84.8422 39.2069,84.7782 39.3359,84.5522" id="Fill-22" fill="#003A70"></path>
                <path d="M51.248,77.1576 L48.94,77.1576 C48.763,77.1576 48.633,77.0116 48.633,76.8506 L48.633,75.0916 C48.633,74.9296 48.763,74.7846 48.94,74.7846 L56.107,74.7846 C56.285,74.7846 56.414,74.9296 56.414,75.0916 L56.414,76.8506 C56.414,77.0116 56.285,77.1576 56.107,77.1576 L53.799,77.1576 L53.799,85.7786 C53.799,85.9396 53.654,86.0856 53.492,86.0856 L51.556,86.0856 C51.394,86.0856 51.248,85.9396 51.248,85.7786 L51.248,77.1576 Z" id="Fill-24" fill="#003A70"></path>
                <path d="M58.9961,75.0912 C58.9961,74.9302 59.1251,74.7842 59.3031,74.7842 L65.9861,74.7842 C66.1641,74.7842 66.2931,74.9302 66.2931,75.0912 L66.2931,76.8512 C66.2931,77.0122 66.1641,77.1572 65.9861,77.1572 L61.5151,77.1572 L61.5151,79.1592 L65.1951,79.1592 C65.3561,79.1592 65.5021,79.3052 65.5021,79.4662 L65.5021,81.2262 C65.5021,81.4032 65.3561,81.5322 65.1951,81.5322 L61.5151,81.5322 L61.5151,83.7122 L65.9861,83.7122 C66.1641,83.7122 66.2931,83.8582 66.2931,84.0192 L66.2931,85.7792 C66.2931,85.9402 66.1641,86.0852 65.9861,86.0852 L59.3031,86.0852 C59.1251,86.0852 58.9961,85.9402 58.9961,85.7792 L58.9961,75.0912 Z" id="Fill-26" fill="#003A70"></path>
                <path d="M31.4360727,38.5777252 L23.5358637,39.3956292 C22.5506991,39.4976227 21.8861037,38.4134045 22.424029,37.5817866 L30.842029,24.5677866 C31.4103693,23.689148 32.756414,23.9307322 32.9837333,24.9521736 C33.0024115,25.0365794 33.0024115,25.0365794 33.0203186,25.1184393 C33.1773234,25.8361338 33.269098,26.0925091 33.3817274,26.205666 C33.4975689,26.3210353 33.7484117,26.4109203 34.4542144,26.5667599 C35.3757111,26.7702248 35.7826385,26.8970282 36.2773075,27.2277609 C36.7618018,27.5526437 37.0369265,27.883352 37.559002,28.6341417 C37.9857236,29.2478337 38.1672799,29.4477303 38.3186882,29.5106481 C38.4617741,29.5699029 38.7236547,29.5566757 39.4326216,29.4302206 C40.351112,29.2670144 40.8082284,29.228833 41.3783853,29.3415392 C41.8555624,29.4364025 42.2669177,29.6306418 42.7961127,29.9573352 C42.887608,30.0138189 42.9459385,30.0508366 43.1198531,30.1620514 C43.7218083,30.5469894 43.9695865,30.6629 44.1434,30.6629 C44.319514,30.6629 44.5662851,30.5473942 45.1783266,30.1570807 C45.2304288,30.1238496 45.2304288,30.1238496 45.2838265,30.0898745 L45.4670837,29.9948336 L46.9500837,29.3838336 C47.0684095,29.335083 47.1938804,29.305914 47.3215766,29.2974702 C47.7648576,29.2681586 48.1249264,29.3084164 48.7902679,29.4242276 C49.5603943,29.5586703 49.8236658,29.5711361 49.968723,29.5112242 C50.1225127,29.4473071 50.3036887,29.2484208 50.7139996,28.6614315 C51.1223429,28.0772701 51.322371,27.8207245 51.6373273,27.5319776 C51.7392611,27.4385263 51.8568347,27.3637285 51.9846764,27.3110015 L53.6406764,26.6280015 L53.8353135,26.5668137 C54.5417754,26.4103361 54.7870855,26.3217644 54.8962182,26.2115376 C55.4267721,25.6756649 56.3170045,25.7684353 56.7256732,26.4021835 L63.9356732,37.5831835 C64.4684941,38.4094624 63.8159004,39.4866556 62.8368223,39.3969839 L54.7632923,38.6575457 L53.1234872,45.9927294 C52.8910796,47.0323364 51.5086798,47.2555907 50.9608342,46.3419928 L43.840691,34.4683047 L35.3478367,46.4186713 C34.7620584,47.2429249 33.4785773,46.9961968 33.2401547,46.0135041 L31.4360727,38.5777252 Z M41.8489595,32.1494392 C41.6864348,32.045508 41.6337188,32.0120535 41.5569208,31.964643 C41.2483009,31.7741195 41.0534276,31.6821016 40.9196691,31.6555095 C40.7351647,31.6190377 40.4768502,31.6406138 39.9138071,31.7406414 C39.8805635,31.7465548 39.8805635,31.7465548 39.8468476,31.7525681 C38.6695766,31.9625523 38.138648,31.9893687 37.4147882,31.6896029 C36.6870848,31.38721 36.3159309,30.9785631 35.6416982,30.008913 C35.2739215,29.480016 35.1143348,29.288188 34.9648253,29.1879315 C34.8065193,29.0820895 34.5673183,29.0075516 33.9478138,28.8707661 C32.7809273,28.6131202 32.2734992,28.4312926 31.7134785,27.8735391 C31.6717377,27.8316086 31.6320874,27.7899032 31.5943412,27.7481326 L25.7420506,36.7956154 L32.2179363,36.1251708 C32.8049314,36.0643995 33.3465031,36.4468015 33.4856453,37.0202959 L34.9229407,42.9443121 L42.3673499,32.4692213 C42.2085144,32.3762217 42.0374763,32.2699918 41.8489595,32.1494392 Z M51.4654845,42.5965585 L52.6873128,37.1310706 C52.8166736,36.5524133 53.3555086,36.1597363 53.9459777,36.2138161 L60.6411238,36.8270109 L55.3439832,28.6124023 C55.093254,28.6940229 54.8013131,28.7676871 54.4461951,28.8475384 L53.1046056,29.400863 C52.9969498,29.5228981 52.8693948,29.6954612 52.661407,29.9930008 C51.969862,30.9823228 51.6006855,31.3875869 50.8716861,31.6905664 C50.1500014,31.9886535 49.6184256,31.9634835 48.4435543,31.758367 C48.4144701,31.7532896 48.4144701,31.7532896 48.3857362,31.7482833 C48.0304932,31.6864487 47.8117755,31.6561473 47.6433502,31.6495778 L46.4620993,32.1362564 C46.086535,32.3757638 45.7908296,32.5533666 45.5229595,32.6866892 L51.4654845,42.5965585 Z M44.9359658,31.7078072 C44.4984258,30.978157 43.4558121,30.937637 42.9629633,31.6311287 L42.3673499,32.4692213 C43.0449059,32.8659361 43.5004116,33.0219 44.1434,33.0219 C44.6540018,33.0219 45.0439819,32.9250829 45.5229595,32.6866892 L44.9359658,31.7078072 Z" id="Stroke-28" fill="#003A70" fill-rule="nonzero"></path>
                <path d="M58.9126591,10.6598088 L59.3576591,12.1078088 L59.3873248,12.2256466 C59.414367,12.3624963 59.5077293,12.5594787 59.7028306,12.87475 C59.7485489,12.9486279 59.7802647,12.9985947 59.880521,13.1554488 C60.5142043,14.1468656 60.7517,14.6551726 60.7517,15.4493 C60.7517,16.2429237 60.5142316,16.7512699 59.8806641,17.7429977 C59.7762801,17.9063907 59.7428865,17.9590647 59.6953892,18.0361019 C59.5055608,18.3439899 59.4139282,18.5384589 59.3870531,18.6743241 C59.3504239,18.8585422 59.3717188,19.1171204 59.4710297,19.679876 C59.6916313,20.9249167 59.7179503,21.4551019 59.4195306,22.1741882 C59.1175428,22.9060734 58.7092132,23.2768368 57.7340326,23.9541914 C57.2078705,24.3196694 57.0162057,24.4787409 56.9171257,24.6257846 C56.8120227,24.7837124 56.7378446,25.0226615 56.6024201,25.6388956 C56.3447299,26.811494 56.1622971,27.320545 55.607505,27.8730537 C55.0520248,28.4315735 54.5437468,28.6141146 53.3772328,28.8712676 C52.7570015,29.0079963 52.5182636,29.0824143 52.3594689,29.1887033 C52.2070616,29.2903082 52.0476575,29.4818179 51.6960117,29.987585 C51.0057396,30.9804192 50.6360895,31.3874976 49.9073014,31.6897148 C49.1852534,31.9893609 48.6551874,31.9625641 47.4773836,31.7524646 C46.8465707,31.6404549 46.5878048,31.6190975 46.4049645,31.6552047 C46.2672426,31.6825567 46.0691505,31.7768587 45.7507618,31.9744442 C45.678232,32.0194547 45.6291628,32.0506557 45.4754505,32.1490501 C44.4834119,32.7840743 43.9755326,33.0218 43.1812,33.0218 C42.3866878,33.0218 41.8775531,32.7837823 40.8854762,32.1493139 C40.7195519,32.0431994 40.6662014,32.0093482 40.5881033,31.9611969 C40.2828345,31.7729835 40.0892984,31.6818168 39.9568949,31.6554936 C39.7723826,31.6190908 39.5133603,31.6404327 38.9575018,31.7390418 C37.7040141,31.9625199 37.1737863,31.9893101 36.4505882,31.6895029 C35.7227108,31.3870377 35.3527958,30.9794008 34.6781239,30.008544 C34.3113409,29.4807576 34.1519028,29.2890359 34.0006253,29.1878315 C33.8428666,29.0823554 33.6036164,29.0077868 32.9869163,28.8717633 C31.8164143,28.613592 31.3084352,28.431358 30.7543062,27.8764695 C30.1972216,27.3209029 30.0153386,26.8130256 29.758909,25.6465168 C29.6223151,25.0251495 29.5478945,24.7861186 29.4418527,24.6281501 C29.3408055,24.4771074 29.1490755,24.3176886 28.6471916,23.9691995 C27.6498963,23.2767454 27.2409284,22.9056045 26.936566,22.1734523 C26.6399743,21.4532666 26.6669914,20.9244978 26.8764215,19.7490418 C26.9884972,19.117438 27.009943,18.8583758 26.9731186,18.6731732 C26.946536,18.5387834 26.8548596,18.3444621 26.6648704,18.036776 C26.6172674,17.9596832 26.5837921,17.9069628 26.4791623,17.7434431 C25.8445534,16.7516512 25.6067,16.2432823 25.6067,15.4493 C25.6067,14.6548141 25.844581,14.1464836 26.4793056,13.1550032 C26.5798021,12.9980213 26.6115969,12.9480081 26.6574192,12.8740736 C26.8526878,12.5590072 26.9460976,12.3621693 26.9733043,12.2244903 C27.0099855,12.0398317 26.9885143,11.7807195 26.8887452,11.2182496 C26.6670869,9.97382616 26.6400661,9.44463007 26.9383974,8.71872627 C27.2413906,7.99139176 27.648816,7.62213963 28.6200533,6.94789308 C29.1481759,6.58125272 29.3400616,6.42178158 29.4418417,6.2694663 C29.5475602,6.11143534 29.6224245,5.87169101 29.7575483,5.25875153 C30.0158492,4.08702035 30.1978649,3.57957018 30.752032,3.02540461 C31.3083352,2.46758357 31.8188499,2.2840462 32.9852531,2.02632727 C33.6071835,1.88891127 33.8455639,1.81483893 33.9987738,1.7130089 C34.0417123,1.68418303 34.1455628,1.50976287 34.3379032,1.05755992 C34.3594695,1.00678937 34.3594695,1.00678937 34.3817085,0.954390108 C34.9271051,-0.32953746 35.3453677,-0.893922118 36.4460932,-0.9952353 L36.6473001,-0.996519977 L37.6703001,-0.915519977 C38.2997984,-0.865677005 38.7783732,-0.328899133 38.7559566,0.302171299 C38.6891566,2.18271684 39.4866791,3.99635721 40.9290626,5.21401848 C41.1609664,5.40979183 41.3084834,5.68742093 41.3409369,5.98917139 C41.5877348,8.2838851 43.0968167,10.2414304 45.2816506,11.0693883 C45.987224,11.3349267 46.7185729,11.4688 47.4632,11.4688 C47.8003215,11.4688 48.1433307,11.4395316 48.4907596,11.3817704 C48.7770647,11.3341713 49.0708684,11.3938035 49.3159604,11.5492583 C49.6368815,11.7528093 49.9816795,11.9243795 50.347373,12.0626604 C50.9950525,12.3068948 51.6672643,12.4308 52.3462,12.4308 C53.9163457,12.4308 55.3688466,11.4169031 56.6464427,9.5774482 C56.7986602,9.35828879 57.0206914,9.19721842 57.2762732,9.1205439 C57.8536446,8.94733246 58.4772582,9.22261087 58.7256139,9.78977312 C58.8254821,10.0178391 58.83973,10.1923393 58.8275227,10.3920755 C58.8599213,10.5142078 58.8897014,10.5851059 58.9126591,10.6598088 Z M57.5917223,12.1832762 C57.2858001,12.1510258 57.0065071,12.0167401 56.7960288,11.8027709 C56.6541202,11.6585085 56.5434928,11.4780242 56.4770758,11.2681683 C56.3871589,10.9840604 56.3912293,10.7526184 56.4338731,10.4600409 C56.4463054,10.3796411 56.4463054,10.3796411 56.457663,10.3153306 C56.4639586,10.3947327 56.4751191,10.5314198 56.5647097,10.7360153 C56.660327,10.9543735 56.8155152,11.1280387 57.0026049,11.2468075 C57.2541252,11.4064782 57.5633034,11.466931 57.862909,11.403374 C57.893438,11.3968977 57.9238677,11.3891338 57.9541268,11.3800561 L57.6152,10.2503 L58.5839573,10.9231518 C58.3746507,11.2245068 58.1589536,11.5109232 57.9368959,11.7814288 C57.8234955,11.9195705 57.7084364,12.0535628 57.5917223,12.1832762 C57.4379788,12.3541434 57.2813638,12.517586 57.1218862,12.6733081 C55.7076886,14.0370336 54.1288758,14.7898 52.3462,14.7898 C51.3813424,14.7898 50.4272824,14.6139432 49.5140219,14.26956 C49.1408346,14.1284459 48.7816887,13.962042 48.438273,13.7708316 C48.1121938,13.8086006 47.7869214,13.8278 47.4632,13.8278 C46.4339058,13.8278 45.4211446,13.6424142 44.4482276,13.2762593 C41.5768647,12.1881409 39.5443769,9.68082188 39.058196,6.7049652 C37.7097094,5.43291647 36.8257451,3.76372933 36.5161533,1.96333505 C36.4179211,1.39207743 36.3775148,0.807610323 36.3984434,0.218428701 L37.5772,0.2603 L37.4840999,1.43611998 L36.4610999,1.35511998 L36.5542,0.1793 L36.6623068,1.3538353 C36.7624043,1.34462211 36.8383838,1.29493046 36.8403844,1.29223098 C36.8223796,1.3165258 36.8038372,1.34516154 36.7835414,1.38065054 C36.7280566,1.47767071 36.6594677,1.62591018 36.5529351,1.87670034 C36.5339189,1.92150657 36.5315483,1.92709236 36.5161533,1.96333505 C36.1333547,2.86333887 35.8775085,3.29304073 35.309158,3.67457597 C34.8181002,4.00100166 34.4143083,4.12647257 33.4974645,4.32904992 C32.7888798,4.48561301 32.5371293,4.57612096 32.4212324,4.69233245 C32.3074177,4.80614718 32.2180149,5.0553976 32.0632506,5.75745506 C31.8602782,6.67816495 31.7321677,7.0884245 31.4029002,7.58062236 C31.0766157,8.06891218 30.7455742,8.3440321 29.9883232,8.86974229 C29.3786892,9.29295834 29.1794756,9.47350689 29.1181671,9.62064263 C29.0591927,9.76414688 29.0725814,10.0263613 29.1988543,10.7352178 C29.3621777,11.6557915 29.4002049,12.1147015 29.2873248,12.6829534 C29.1919146,13.1657868 28.9957276,13.5792019 28.6625467,14.1167903 C28.6083348,14.2042615 28.5732979,14.2593743 28.4660626,14.4268827 C28.0813429,15.0278395 27.9657,15.2749581 27.9657,15.4493 C27.9657,15.6232617 28.0815249,15.8708168 28.466206,16.4720115 C28.5782126,16.6470599 28.6152741,16.7054283 28.6720551,16.7973848 C28.9986177,17.3262505 29.1928261,17.737903 29.2870531,18.2142759 C29.400179,18.7832162 29.362174,19.242311 29.2116478,20.0908729 C29.072671,20.8710108 29.0592858,21.1329807 29.1163354,21.271526 C29.1800331,21.424749 29.3795876,21.6058459 29.9653933,22.0125899 C30.7457058,22.554408 31.0770614,22.8299221 31.4015058,23.3148957 C31.7328084,23.8084223 31.8599182,24.2166852 32.0620541,25.136204 C32.217563,25.8436202 32.3069927,26.0933375 32.4218008,26.2078363 C32.5358171,26.3220082 32.78592,26.4117308 33.4903634,26.5671061 C34.4112066,26.7702134 34.8190263,26.8973212 35.3120501,27.2269527 C35.7989638,27.5526968 36.0739116,27.8833169 36.5985527,28.6382532 C37.0226758,29.2485694 37.2034591,29.4477879 37.3548945,29.5107164 C37.4973069,29.5697545 37.7588264,29.556541 38.4679113,29.4301083 C39.3861887,29.2671608 39.8464753,29.2292359 40.4151853,29.3414392 C40.890261,29.4358848 41.3007593,29.6292531 41.8261456,29.9531799 C41.9195268,30.010754 41.9786683,30.0482796 42.1564491,30.1619767 C42.7582569,30.5468542 43.0062722,30.6628 43.1812,30.6628 C43.3552759,30.6628 43.6023278,30.5471611 44.2036531,30.1622405 C44.3674348,30.0574005 44.4213937,30.0230903 44.5068723,29.9700441 C45.0476724,29.6344347 45.4612302,29.4375598 45.9466822,29.3411484 C46.513706,29.2291708 46.9735785,29.2671266 47.8149367,29.4164641 C48.6000752,29.5564949 48.8613646,29.5697041 49.0033869,29.5107656 C49.1562145,29.4473904 49.3364967,29.248854 49.7444138,28.6621377 C50.2862032,27.8828887 50.5614257,27.5522336 51.0491018,27.2271187 C51.5415279,26.8975063 51.9491469,26.7704457 52.8646016,26.5686356 C53.5727193,26.4125341 53.8220786,26.3229801 53.9388749,26.2055637 C54.0528769,26.092027 54.1425149,25.8419059 54.297495,25.136681 C54.4994372,24.2177664 54.625705,23.8110208 54.9569654,23.3133028 C55.2833913,22.8287467 55.6127055,22.5554338 56.3668057,22.0316265 C56.9767655,21.6079523 57.1758232,21.4272078 57.2397852,21.2721986 C57.2988032,21.1299847 57.2857985,20.8680101 57.1602024,20.1592202 C56.9979875,19.2401977 56.9603146,18.7827453 57.0731186,18.2154268 C57.1675056,17.7382482 57.3613787,17.3267976 57.6873727,16.7980588 C57.7440126,16.706193 57.7809784,16.6478843 57.8927105,16.4729892 C58.2769977,15.8714616 58.3927,15.623779 58.3927,15.4493 C58.3927,15.2744408 58.2771795,15.0271947 57.8928536,14.4259052 C57.785885,14.2585496 57.7509403,14.2034956 57.6968653,14.1161139 C57.3796004,13.603434 57.1867689,13.2038104 57.0869088,12.7492748 C57.0804957,12.7190934 57.4615927,12.6207684 58.2302,12.4543 L57.1027409,12.8007912 L56.6577409,11.3527912 L57.7852,11.0063 L58.0117355,12.1638413 C57.8689397,12.191787 57.7277005,12.197611 57.5917223,12.1832762 Z" id="Stroke-30" fill="#003A70" fill-rule="nonzero"></path>
            </g>
        </g>
    </g>
</svg>