<?xml version="1.0" encoding="UTF-8"?>
<svg width="100px" height="105px" viewBox="0 0 100 105" version="1.1" xmlns="http://www.w3.org/2000/svg" xmlns:xlink="http://www.w3.org/1999/xlink">
    <!-- Generator: Sketch 45.2 (43514) - http://www.bohemiancoding.com/sketch -->
    <title>icon / high-fiber</title>
    <desc>Created with Sketch.</desc>
    <defs>
        <polygon id="path-1" points="9.986 12.0195 9.986 0.3965 0.2676 0.3965 0.2676 12.0195 9.986 12.0195"></polygon>
        <polygon id="path-3" points="0.5032 12 8.3322 12 8.3322 0.6994 0.5032 0.6994"></polygon>
    </defs>
    <g id="Symbols" stroke="none" stroke-width="1" fill="none" fill-rule="evenodd">
        <g id="icon-/-high-fiber">
            <rect id="Rectangle-15" fill="#FFFFFF" x="0" y="0" width="100" height="105"></rect>
            <g id="Page-1" transform="translate(17.000000, 3.000000)">
                <path d="M49.060165,16.3936 L32.5970599,1.75729797 L16.132272,16.3936 L22.1881,16.3936 C22.8395199,16.3936 23.3676,16.9216801 23.3676,17.5731 L23.3676,39.1261 C23.3676,39.3422187 23.5440588,39.5186 23.7621,39.5186 L41.4301,39.5186 C41.6466412,39.5186 41.8236,39.3417189 41.8236,39.1261 L41.8236,17.5731 C41.8236,16.9216801 42.3516801,16.3936 43.0031,16.3936 L49.060165,16.3936 Z M21.0086,18.7526 L13.0301,18.7526 C11.945548,18.7526 11.4358735,17.4121184 12.2464549,16.6915556 L31.8134549,-0.702444434 C32.2603768,-1.0997337 32.9338882,-1.0997166 33.3807899,-0.702404658 L52.9457899,16.6915953 C53.7563127,17.4121798 53.2466226,18.7526 52.1621,18.7526 L44.1826,18.7526 L44.1826,39.1261 C44.1826,40.6447906 42.9492491,41.8776 41.4301,41.8776 L23.7621,41.8776 C22.2414509,41.8776 21.0086,40.6452903 21.0086,39.1261 L21.0086,18.7526 Z" id="Stroke-1" fill="#003A70" fill-rule="nonzero"></path>
                <path d="M0,56.4423 C0,56.2813 0.145,56.1353 0.307,56.1353 L2.228,56.1353 C2.405,56.1353 2.534,56.2813 2.534,56.4423 L2.534,60.5103 L7.151,60.5103 L7.151,56.4423 C7.151,56.2813 7.28,56.1353 7.458,56.1353 L9.379,56.1353 C9.541,56.1353 9.686,56.2813 9.686,56.4423 L9.686,67.1303 C9.686,67.2913 9.541,67.4363 9.379,67.4363 L7.458,67.4363 C7.28,67.4363 7.151,67.2913 7.151,67.1303 L7.151,62.8833 L2.534,62.8833 L2.534,67.1303 C2.534,67.2913 2.405,67.4363 2.228,67.4363 L0.307,67.4363 C0.145,67.4363 0,67.2913 0,67.1303 L0,56.4423 Z" id="Fill-3" fill="#003A70"></path>
                <path d="M13.4297,56.4423 C13.4297,56.2813 13.5747,56.1353 13.7367,56.1353 L15.6737,56.1353 C15.8347,56.1353 15.9807,56.2813 15.9807,56.4423 L15.9807,67.1303 C15.9807,67.2913 15.8347,67.4363 15.6737,67.4363 L13.7367,67.4363 C13.5747,67.4363 13.4297,67.2913 13.4297,67.1303 L13.4297,56.4423 Z" id="Fill-5" fill="#003A70"></path>
                <path d="M24.7129,55.9901 C26.0679,55.9901 27.5539,56.5551 28.6509,57.5081 C28.7969,57.6211 28.8139,57.8141 28.6849,57.9441 L27.4089,59.3001 C27.2789,59.4131 27.1019,59.4131 26.9729,59.3161 C26.3589,58.7511 25.6499,58.5411 24.8589,58.5411 C23.0989,58.5411 21.6779,60.0261 21.6779,61.8021 C21.6779,63.5611 23.1139,65.0141 24.8739,65.0141 C25.3429,65.0141 25.8259,64.9501 26.3109,64.7571 L26.3109,63.8201 L25.2939,63.8201 C25.1159,63.8201 24.9869,63.6911 24.9869,63.5291 L24.9869,61.9311 C24.9869,61.7541 25.1159,61.6251 25.2939,61.6251 L28.5389,61.6251 C28.6999,61.6251 28.8289,61.7701 28.8289,61.9311 L28.8459,66.2741 C28.8459,66.3541 28.7809,66.4841 28.7169,66.5321 C28.7169,66.5321 27.0539,67.5821 24.7129,67.5821 C21.4999,67.5821 18.9169,65.0311 18.9169,61.8021 C18.9169,58.5731 21.4999,55.9901 24.7129,55.9901" id="Fill-7" fill="#003A70"></path>
                <path d="M32.0244,56.4423 C32.0244,56.2813 32.1694,56.1353 32.3314,56.1353 L34.2524,56.1353 C34.4294,56.1353 34.5584,56.2813 34.5584,56.4423 L34.5584,60.5103 L39.1754,60.5103 L39.1754,56.4423 C39.1754,56.2813 39.3044,56.1353 39.4824,56.1353 L41.4034,56.1353 C41.5654,56.1353 41.7104,56.2813 41.7104,56.4423 L41.7104,67.1303 C41.7104,67.2913 41.5654,67.4363 41.4034,67.4363 L39.4824,67.4363 C39.3044,67.4363 39.1754,67.2913 39.1754,67.1303 L39.1754,62.8833 L34.5584,62.8833 L34.5584,67.1303 C34.5584,67.2913 34.4294,67.4363 34.2524,67.4363 L32.3314,67.4363 C32.1694,67.4363 32.0244,67.2913 32.0244,67.1303 L32.0244,56.4423 Z" id="Fill-9" fill="#003A70"></path>
                <path d="M49.9893,56.4423 C49.9893,56.2813 50.1343,56.1353 50.2963,56.1353 L52.2333,56.1353 C52.3943,56.1353 52.5403,56.2813 52.5403,56.4423 L52.5403,67.1303 C52.5403,67.2913 52.3943,67.4363 52.2333,67.4363 L50.2963,67.4363 C50.1343,67.4363 49.9893,67.2913 49.9893,67.1303 L49.9893,56.4423 Z" id="Fill-11" fill="#003A70"></path>
                <g id="Group-15" transform="translate(56.000000, 55.578000)">
                    <mask id="mask-2" fill="white">
                        <use xlink:href="#path-1"></use>
                    </mask>
                    <g id="Clip-14"></g>
                    <path d="M0.2676,0.6865 C0.2676,0.5255 0.4136,0.3965 0.5746,0.3965 L0.9786,0.3965 L7.4196,6.5955 L7.4356,6.5955 L7.4356,0.8645 C7.4356,0.7035 7.5646,0.5575 7.7426,0.5575 L9.6796,0.5575 C9.8406,0.5575 9.9866,0.7035 9.9866,0.8645 L9.9866,11.7295 C9.9866,11.8905 9.8406,12.0195 9.6796,12.0195 L9.4206,12.0195 C9.3726,12.0195 9.2446,11.9715 9.2106,11.9395 L2.8346,5.5305 L2.8186,5.5305 L2.8186,11.5515 C2.8186,11.7125 2.6896,11.8585 2.5116,11.8585 L0.5906,11.8585 C0.4286,11.8585 0.2846,11.7125 0.2846,11.5515 L0.2676,0.6865 Z" id="Fill-13" fill="#003A70" mask="url(#mask-2)"></path>
                </g>
                <path d="M10.1523,73.5839 C10.1523,73.4229 10.2813,73.2769 10.4593,73.2769 L17.1423,73.2769 C17.3203,73.2769 17.4493,73.4229 17.4493,73.5839 L17.4493,75.3439 C17.4493,75.5049 17.3203,75.6499 17.1423,75.6499 L12.6713,75.6499 L12.6713,77.9759 L16.3513,77.9759 C16.5123,77.9759 16.6583,78.1199 16.6583,78.2819 L16.6583,80.0419 C16.6583,80.2029 16.5123,80.3489 16.3513,80.3489 L12.6713,80.3489 L12.6713,84.2719 C12.6713,84.4329 12.5253,84.5779 12.3633,84.5779 L10.4593,84.5779 C10.2813,84.5779 10.1523,84.4329 10.1523,84.2719 L10.1523,73.5839 Z" id="Fill-16" fill="#003A70"></path>
                <path d="M20.208,73.5839 C20.208,73.4229 20.353,73.2769 20.515,73.2769 L22.452,73.2769 C22.613,73.2769 22.759,73.4229 22.759,73.5839 L22.759,84.2719 C22.759,84.4329 22.613,84.5779 22.452,84.5779 L20.515,84.5779 C20.353,84.5779 20.208,84.4329 20.208,84.2719 L20.208,73.5839 Z" id="Fill-18" fill="#003A70"></path>
                <g id="Group-22" transform="translate(26.000000, 72.578000)">
                    <mask id="mask-4" fill="white">
                        <use xlink:href="#path-3"></use>
                    </mask>
                    <g id="Clip-21"></g>
                    <path d="M4.4902,9.6914 C5.1202,9.6914 5.6522,9.1744 5.6522,8.5124 C5.6522,7.8674 4.9582,7.3824 4.3292,7.3824 L3.0212,7.3824 L3.0212,9.6914 L4.4902,9.6914 Z M4.2802,5.2844 C4.8932,5.2844 5.4102,4.7674 5.4102,4.1224 C5.4102,3.4754 4.8932,3.0244 4.2802,3.0244 L3.0212,3.0244 L3.0212,5.2844 L4.2802,5.2844 Z M0.5032,1.0054 C0.5032,0.8444 0.6322,0.6994 0.8092,0.6994 L4.5712,0.6994 C6.4752,0.6994 8.0422,2.0064 8.0422,3.7024 C8.0422,4.9454 6.9282,5.8494 6.1692,6.2534 C7.0242,6.6084 8.3322,7.3994 8.3322,8.8834 C8.3322,10.6924 6.7342,12.0004 4.8132,12.0004 L0.8092,12.0004 C0.6322,12.0004 0.5032,11.8544 0.5032,11.6934 L0.5032,1.0054 Z" id="Fill-20" fill="#003A70" mask="url(#mask-4)"></path>
                </g>
                <g id="Group-25" transform="translate(48.000000, 73.578000)" fill="#003A70">
                    <path d="M4.924,4.827 C5.585,4.827 6.151,4.214 6.151,3.535 C6.151,2.857 5.585,2.308 4.924,2.308 L2.534,2.308 L2.534,4.827 L4.924,4.827 Z M0,0.306 C0,0.145 0.129,0 0.307,0 L5.134,0 C7.07,0 8.653,1.566 8.653,3.487 C8.653,4.973 7.668,6.167 6.264,6.732 L8.476,10.833 C8.588,11.042 8.476,11.301 8.201,11.301 L6.054,11.301 C5.925,11.301 5.827,11.22 5.795,11.155 L3.649,6.877 L2.534,6.877 L2.534,10.994 C2.534,11.155 2.389,11.301 2.228,11.301 L0.307,11.301 C0.129,11.301 0,11.155 0,10.994 L0,0.306 Z" id="Fill-23-Copy"></path>
                </g>
                <path d="M37,73.307 C37,73.146 37.129,73 37.307,73 L43.99,73 C44.168,73 44.297,73.146 44.297,73.307 L44.297,75.067 C44.297,75.228 44.168,75.373 43.99,75.373 L39.519,75.373 L39.519,77.375 L43.199,77.375 C43.36,77.375 43.506,77.521 43.506,77.682 L43.506,79.442 C43.506,79.619 43.36,79.748 43.199,79.748 L39.519,79.748 L39.519,81.928 L43.99,81.928 C44.168,81.928 44.297,82.074 44.297,82.235 L44.297,83.995 C44.297,84.156 44.168,84.301 43.99,84.301 L37.307,84.301 C37.129,84.301 37,84.156 37,83.995 L37,73.307 Z" id="Fill-26" fill="#003A70"></path>
            </g>
        </g>
    </g>
</svg>