<?xml version="1.0" encoding="UTF-8"?>
<svg width="100px" height="105px" viewBox="0 0 100 105" version="1.1" xmlns="http://www.w3.org/2000/svg" xmlns:xlink="http://www.w3.org/1999/xlink">
    <!-- Generator: Sketch 45.2 (43514) - http://www.bohemiancoding.com/sketch -->
    <title>icon / omega-3</title>
    <desc>Created with Sketch.</desc>
    <defs>
        <polygon id="path-1" points="7.3864 12 0.153560054 12 0.153560054 0.6992 7.3864 0.6992 7.3864 12"></polygon>
    </defs>
    <g id="Symbols" stroke="none" stroke-width="1" fill="none" fill-rule="evenodd">
        <g id="icon-/-omega-3">
            <rect id="Rectangle-15" fill="#FFFFFF" x="0" y="0" width="100" height="105"></rect>
            <g id="Page-1" transform="translate(6.000000, 15.000000)">
                <path d="M0.0801,54.3749 L0.8391,53.0339 C0.9691,52.8249 1.2751,52.8569 1.3881,52.9379 C1.4531,52.9699 2.6151,53.8249 3.6811,53.8249 C4.3261,53.8249 4.7951,53.4219 4.7951,52.8569 C4.7951,52.1789 4.2291,51.6619 3.1321,51.2269 C1.7431,50.6779 0.0001,49.5959 0.0001,47.6589 C0.0001,46.0609 1.2431,44.4459 3.7291,44.4459 C5.4081,44.4459 6.6991,45.3019 7.1841,45.6569 C7.3781,45.7699 7.3451,46.0609 7.2801,46.1739 L6.4571,47.4169 C6.3451,47.5939 6.0541,47.7389 5.9081,47.6259 C5.7631,47.5459 4.5851,46.6579 3.6001,46.6579 C3.0181,46.6579 2.5831,47.0449 2.5831,47.4809 C2.5831,48.0779 3.0671,48.5299 4.3431,49.0469 C5.6011,49.5479 7.6031,50.5319 7.6031,52.7279 C7.6031,54.3909 6.1671,56.0689 3.7941,56.0689 C1.6951,56.0689 0.5321,55.1979 0.1611,54.8259 C0.0001,54.6649 -0.0489,54.6009 0.0801,54.3749" id="Fill-1" fill="#003A70"></path>
                <path d="M14.5439,53.4862 C16.3199,53.4862 17.7729,52.0332 17.7729,50.2742 C17.7729,48.4982 16.3199,47.0292 14.5439,47.0292 C12.7839,47.0292 11.3319,48.4982 11.3319,50.2742 C11.3319,52.0332 12.7839,53.4862 14.5439,53.4862 M14.5439,44.4462 C17.7729,44.4462 20.3559,47.0452 20.3559,50.2742 C20.3559,53.5032 17.7729,56.0692 14.5439,56.0692 C11.3149,56.0692 8.7489,53.5032 8.7489,50.2742 C8.7489,47.0452 11.3149,44.4462 14.5439,44.4462" id="Fill-3" fill="#003A70"></path>
                <path d="M22.1455,44.9139 C22.1455,44.7529 22.2915,44.6069 22.4525,44.6069 L24.4385,44.6069 C24.6165,44.6069 24.7455,44.7529 24.7455,44.9139 L24.7455,51.4519 C24.7455,52.5829 25.5845,53.4859 26.7305,53.4859 C27.8935,53.4859 28.7495,52.5829 28.7495,51.4519 L28.7495,44.9139 C28.7495,44.7529 28.8775,44.6069 29.0555,44.6069 L31.0415,44.6069 C31.2025,44.6069 31.3475,44.7529 31.3475,44.9139 L31.3475,51.5819 C31.3475,54.0349 29.2815,56.0689 26.7305,56.0689 C24.1965,56.0689 22.1455,54.0349 22.1455,51.5819 L22.1455,44.9139 Z" id="Fill-5" fill="#003A70"></path>
                <path d="M38.8691,49.4344 C39.5301,49.4344 40.0961,48.8214 40.0961,48.1424 C40.0961,47.4644 39.5301,46.9154 38.8691,46.9154 L36.4791,46.9154 L36.4791,49.4344 L38.8691,49.4344 Z M33.9451,44.9134 C33.9451,44.7524 34.0741,44.6074 34.2521,44.6074 L39.0791,44.6074 C41.0151,44.6074 42.5981,46.1734 42.5981,48.0944 C42.5981,49.5804 41.6131,50.7744 40.2091,51.3394 L42.4211,55.4404 C42.5331,55.6504 42.4211,55.9084 42.1461,55.9084 L39.9991,55.9084 C39.8701,55.9084 39.7721,55.8274 39.7401,55.7624 L37.5941,51.4844 L36.4791,51.4844 L36.4791,55.6014 C36.4791,55.7624 36.3341,55.9084 36.1731,55.9084 L34.2521,55.9084 C34.0741,55.9084 33.9451,55.7624 33.9451,55.6014 L33.9451,44.9134 Z" id="Fill-7" fill="#003A70"></path>
                <path d="M49.7637,44.4462 C51.3777,44.4462 52.5737,44.9462 53.6707,45.9472 C53.8167,46.0762 53.8167,46.2702 53.6867,46.3992 L52.4277,47.7072 C52.3147,47.8202 52.1367,47.8202 52.0247,47.7072 C51.4267,47.1752 50.6357,46.8842 49.8447,46.8842 C48.0207,46.8842 46.6807,48.4012 46.6807,50.2092 C46.6807,52.0012 48.0367,53.4862 49.8617,53.4862 C50.6197,53.4862 51.4437,53.2122 52.0247,52.7122 C52.1367,52.6152 52.3467,52.6152 52.4447,52.7272 L53.7027,54.0672 C53.8167,54.1802 53.7997,54.3902 53.6867,54.5042 C52.5887,55.5692 51.2007,56.0692 49.7637,56.0692 C46.5347,56.0692 43.9367,53.5032 43.9367,50.2742 C43.9367,47.0452 46.5347,44.4462 49.7637,44.4462" id="Fill-9" fill="#003A70"></path>
                <path d="M55.623,44.9139 C55.623,44.7529 55.752,44.6069 55.93,44.6069 L62.613,44.6069 C62.791,44.6069 62.92,44.7529 62.92,44.9139 L62.92,46.6739 C62.92,46.8349 62.791,46.9799 62.613,46.9799 L58.142,46.9799 L58.142,48.9819 L61.822,48.9819 C61.983,48.9819 62.129,49.1279 62.129,49.2889 L62.129,51.0489 C62.129,51.2259 61.983,51.3549 61.822,51.3549 L58.142,51.3549 L58.142,53.5349 L62.613,53.5349 C62.791,53.5349 62.92,53.6809 62.92,53.8419 L62.92,55.6019 C62.92,55.7629 62.791,55.9079 62.613,55.9079 L55.93,55.9079 C55.752,55.9079 55.623,55.7629 55.623,55.6019 L55.623,44.9139 Z" id="Fill-11" fill="#003A70"></path>
                <path d="M73.6201,53.4862 C75.3961,53.4862 76.8491,52.0332 76.8491,50.2742 C76.8491,48.4982 75.3961,47.0292 73.6201,47.0292 C71.8601,47.0292 70.4081,48.4982 70.4081,50.2742 C70.4081,52.0332 71.8601,53.4862 73.6201,53.4862 M73.6201,44.4462 C76.8491,44.4462 79.4321,47.0452 79.4321,50.2742 C79.4321,53.5032 76.8491,56.0692 73.6201,56.0692 C70.3911,56.0692 67.8251,53.5032 67.8251,50.2742 C67.8251,47.0452 70.3911,44.4462 73.6201,44.4462" id="Fill-13" fill="#003A70"></path>
                <path d="M81.3838,44.9139 C81.3838,44.7529 81.5128,44.6069 81.6908,44.6069 L88.3738,44.6069 C88.5518,44.6069 88.6808,44.7529 88.6808,44.9139 L88.6808,46.6739 C88.6808,46.8349 88.5518,46.9799 88.3738,46.9799 L83.9028,46.9799 L83.9028,49.3059 L87.5828,49.3059 C87.7438,49.3059 87.8898,49.4509 87.8898,49.6119 L87.8898,51.3719 C87.8898,51.5329 87.7438,51.6789 87.5828,51.6789 L83.9028,51.6789 L83.9028,55.6019 C83.9028,55.7629 83.7568,55.9079 83.5948,55.9079 L81.6908,55.9079 C81.5128,55.9079 81.3838,55.7629 81.3838,55.6019 L81.3838,44.9139 Z" id="Fill-15" fill="#003A70"></path>
                <path d="M15.2705,70.6278 C17.0465,70.6278 18.4995,69.1758 18.4995,67.4158 C18.4995,65.6398 17.0465,64.1708 15.2705,64.1708 C13.5105,64.1708 12.0585,65.6398 12.0585,67.4158 C12.0585,69.1758 13.5105,70.6278 15.2705,70.6278 M15.2705,61.5878 C18.4995,61.5878 21.0825,64.1868 21.0825,67.4158 C21.0825,70.6448 18.4995,73.2108 15.2705,73.2108 C12.0415,73.2108 9.4755,70.6448 9.4755,67.4158 C9.4755,64.1868 12.0415,61.5878 15.2705,61.5878" id="Fill-17" fill="#003A70"></path>
                <path d="M24.793,61.8456 C24.81,61.7006 24.955,61.5876 25.084,61.5876 L25.342,61.5876 C25.423,61.5876 25.568,61.6526 25.616,61.7486 L29.362,68.7236 L29.395,68.7236 L33.14,61.7486 C33.189,61.6526 33.333,61.5876 33.414,61.5876 L33.673,61.5876 C33.802,61.5876 33.947,61.7006 33.963,61.8456 L35.787,72.6946 C35.819,72.9046 35.674,73.0496 35.481,73.0496 L33.575,73.0496 C33.431,73.0496 33.285,72.9206 33.269,72.7906 L32.542,67.8026 L32.51,67.8026 L29.798,73.0336 C29.749,73.1306 29.605,73.2106 29.523,73.2106 L29.232,73.2106 C29.136,73.2106 29.007,73.1306 28.958,73.0336 L26.23,67.8026 L26.198,67.8026 L25.487,72.7906 C25.472,72.9206 25.342,73.0496 25.181,73.0496 L23.275,73.0496 C23.082,73.0496 22.937,72.9046 22.969,72.6946 L24.793,61.8456 Z" id="Fill-19" fill="#003A70"></path>
                <path d="M38.4971,62.0555 C38.4971,61.8945 38.6261,61.7485 38.8041,61.7485 L45.4871,61.7485 C45.6651,61.7485 45.7941,61.8945 45.7941,62.0555 L45.7941,63.8155 C45.7941,63.9765 45.6651,64.1215 45.4871,64.1215 L41.0161,64.1215 L41.0161,66.1235 L44.6961,66.1235 C44.8571,66.1235 45.0031,66.2695 45.0031,66.4305 L45.0031,68.1905 C45.0031,68.3675 44.8571,68.4965 44.6961,68.4965 L41.0161,68.4965 L41.0161,70.6765 L45.4871,70.6765 C45.6651,70.6765 45.7941,70.8225 45.7941,70.9835 L45.7941,72.7435 C45.7941,72.9045 45.6651,73.0495 45.4871,73.0495 L38.8041,73.0495 C38.6261,73.0495 38.4971,72.9045 38.4971,72.7435 L38.4971,62.0555 Z" id="Fill-21" fill="#003A70"></path>
                <path d="M53.5742,61.6034 C54.9292,61.6034 56.4152,62.1684 57.5122,63.1214 C57.6582,63.2344 57.6752,63.4274 57.5462,63.5574 L56.2702,64.9134 C56.1402,65.0264 55.9632,65.0264 55.8342,64.9294 C55.2202,64.3644 54.5112,64.1544 53.7202,64.1544 C51.9602,64.1544 50.5392,65.6394 50.5392,67.4154 C50.5392,69.1754 51.9752,70.6274 53.7352,70.6274 C54.2042,70.6274 54.6882,70.5634 55.1722,70.3704 L55.1722,69.4334 L54.1552,69.4334 C53.9772,69.4334 53.8482,69.3044 53.8482,69.1424 L53.8482,67.5444 C53.8482,67.3674 53.9772,67.2384 54.1552,67.2384 L57.4002,67.2384 C57.5612,67.2384 57.6902,67.3834 57.6902,67.5444 L57.7072,71.8874 C57.7072,71.9674 57.6422,72.0974 57.5782,72.1454 C57.5782,72.1454 55.9152,73.1954 53.5742,73.1954 C50.3612,73.1954 47.7782,70.6444 47.7782,67.4154 C47.7782,64.1864 50.3612,61.6034 53.5742,61.6034" id="Fill-23" fill="#003A70"></path>
                <path d="M65.7441,69.1756 L64.5171,66.5116 L64.5011,66.5116 L63.2901,69.1756 L65.7441,69.1756 Z M59.1091,72.6296 L64.1621,61.7656 C64.2111,61.6676 64.3231,61.5876 64.4361,61.5876 L64.5981,61.5876 C64.7111,61.5876 64.8241,61.6676 64.8731,61.7656 L69.9261,72.6296 C70.0221,72.8396 69.8931,73.0496 69.6511,73.0496 L67.8591,73.0496 C67.5681,73.0496 67.4391,72.9526 67.2941,72.6466 L66.7131,71.3706 L62.3221,71.3706 L61.7401,72.6616 C61.6601,72.8566 61.4821,73.0496 61.1591,73.0496 L59.3841,73.0496 C59.1411,73.0496 59.0131,72.8396 59.1091,72.6296 L59.1091,72.6296 Z" id="Fill-25" fill="#003A70"></path>
                <g id="Group-29" transform="translate(75.000000, 61.210800)">
                    <mask id="mask-2" fill="white">
                        <use xlink:href="#path-1"></use>
                    </mask>
                    <g id="Clip-28"></g>
                    <path d="M0.2344,10.1602 L1.2524,9.1422 C1.3654,9.0302 1.5264,9.0142 1.6554,9.1102 C1.6554,9.1102 2.6564,9.8532 3.4314,9.8532 C4.1264,9.8532 4.8364,9.2722 4.8364,8.5612 C4.8364,7.8512 4.1094,7.2542 2.9154,7.2542 L2.0104,7.2542 C1.8494,7.2542 1.7044,7.1082 1.7044,6.9472 L1.7044,5.6072 C1.7044,5.4302 1.8494,5.3012 2.0104,5.3012 L2.9154,5.3012 C4.0454,5.3012 4.6414,4.7522 4.6414,4.0572 C4.6414,3.3632 4.0454,2.8472 3.3504,2.8472 C2.6404,2.8472 2.1884,3.2182 1.9464,3.4922 C1.8334,3.6222 1.6394,3.6222 1.5094,3.5092 L0.5254,2.5402 C0.3964,2.4272 0.4124,2.2332 0.5254,2.1202 C0.5254,2.1202 1.8494,0.6992 3.6084,0.6992 C5.4814,0.6992 7.0954,1.8462 7.0954,3.6542 C7.0954,4.8972 6.1594,5.8172 5.4334,6.1562 L5.4334,6.2052 C6.1924,6.5272 7.3864,7.5282 7.3864,8.9172 C7.3864,10.6772 5.8524,12.0002 3.6254,12.0002 C1.5904,12.0002 0.5574,10.9992 0.2184,10.5632 C0.1224,10.4502 0.1374,10.2722 0.2344,10.1602" id="Fill-27" fill="#003A70" mask="url(#mask-2)"></path>
                </g>
                <path d="M19.8389,11.6307 C24.1679,16.8897 29.3289,19.8267 35.1919,20.3627 C46.0369,21.3547 56.4409,13.8947 59.5739,11.4077 C52.1869,4.8617 44.7379,1.8427 37.4149,2.4287 C28.1849,3.1687 21.7589,9.4977 19.8389,11.6307 M37.2309,22.8137 C36.4859,22.8137 35.7399,22.7817 34.9879,22.7127 C28.1719,22.0927 22.2469,18.5997 17.3779,12.3307 C17.0499,11.9047 17.0469,11.3097 17.3779,10.8847 C17.6889,10.4827 25.1299,1.0457 37.2279,0.0777 C45.3149,-0.5613 53.4579,2.7377 61.4429,9.9127 L69.8279,3.4077 C70.3429,3.0067 71.0829,3.1007 71.4829,3.6157 C71.8819,4.1307 71.7879,4.8717 71.2739,5.2697 L63.2739,11.4747 L71.7729,18.2737 C72.2809,18.6807 72.3619,19.4227 71.9559,19.9327 C71.5499,20.4407 70.8079,20.5237 70.2969,20.1167 L61.3869,12.9867 C58.7589,15.1547 48.6469,22.8137 37.2309,22.8137" id="Fill-30" fill="#003A70"></path>
            </g>
        </g>
    </g>
</svg>