<?xml version="1.0" encoding="UTF-8"?>
<svg width="100px" height="105px" viewBox="0 0 100 105" version="1.1" xmlns="http://www.w3.org/2000/svg" xmlns:xlink="http://www.w3.org/1999/xlink">
    <!-- Generator: Sketch 45.2 (43514) - http://www.bohemiancoding.com/sketch -->
    <title>icon / wheat-free</title>
    <desc>Created with Sketch.</desc>
    <defs>
        <polygon id="path-1" points="0.4824 12 9.1354 12 9.1354 0.6994 0.4824 0.6994 0.4824 12"></polygon>
    </defs>
    <g id="Symbols" stroke="none" stroke-width="1" fill="none" fill-rule="evenodd">
        <g id="icon-/-wheat-free">
            <rect id="Rectangle-15" fill="#FFFFFF" x="0" y="0" width="100" height="105"></rect>
            <g id="Page-1" transform="translate(21.000000, 3.000000)">
                <g id="Group-3" transform="translate(0.000000, 55.744100)" fill="#003A70">
                    <path d="M0.0168,0.9453 C-0.0482,0.7183 0.0808,0.5573 0.3078,0.5573 L2.1958,0.5573 C2.3248,0.5573 2.4548,0.6713 2.4868,0.7843 L3.8748,6.2573 L3.9398,6.2573 L6.4418,0.5743 C6.4908,0.4763 6.5868,0.3963 6.7158,0.3963 L7.0068,0.3963 C7.1518,0.3963 7.2488,0.4763 7.2818,0.5743 L9.7838,6.2573 L9.8488,6.2573 L11.2368,0.7843 C11.2688,0.6713 11.3978,0.5573 11.5268,0.5573 L13.4158,0.5573 C13.6418,0.5573 13.7708,0.7183 13.7058,0.9453 L10.6558,11.7943 C10.6228,11.9233 10.4938,12.0193 10.3648,12.0193 L10.1068,12.0193 C9.9938,12.0193 9.8808,11.9393 9.8318,11.8413 L6.8778,5.2393 L6.8288,5.2393 L3.8908,11.8413 C3.8428,11.9393 3.7298,12.0193 3.6168,12.0193 L3.3578,12.0193 C3.2288,12.0193 3.0998,11.9233 3.0678,11.7943 L0.0168,0.9453 Z" id="Fill-1"></path>
                </g>
                <path d="M16.4001,56.6084 C16.4001,56.4474 16.5461,56.3014 16.7071,56.3014 L18.6281,56.3014 C18.8061,56.3014 18.9351,56.4474 18.9351,56.6084 L18.9351,60.6764 L23.5521,60.6764 L23.5521,56.6084 C23.5521,56.4474 23.6811,56.3014 23.8581,56.3014 L25.7801,56.3014 C25.9411,56.3014 26.0871,56.4474 26.0871,56.6084 L26.0871,67.2964 C26.0871,67.4574 25.9411,67.6024 25.7801,67.6024 L23.8581,67.6024 C23.6811,67.6024 23.5521,67.4574 23.5521,67.2964 L23.5521,63.0494 L18.9351,63.0494 L18.9351,67.2964 C18.9351,67.4574 18.8061,67.6024 18.6281,67.6024 L16.7071,67.6024 C16.5461,67.6024 16.4001,67.4574 16.4001,67.2964 L16.4001,56.6084 Z" id="Fill-4" fill="#003A70"></path>
                <path d="M29.8298,56.6084 C29.8298,56.4474 29.9588,56.3014 30.1368,56.3014 L36.8198,56.3014 C36.9978,56.3014 37.1268,56.4474 37.1268,56.6084 L37.1268,58.3684 C37.1268,58.5294 36.9978,58.6744 36.8198,58.6744 L32.3488,58.6744 L32.3488,60.6764 L36.0288,60.6764 C36.1908,60.6764 36.3358,60.8224 36.3358,60.9834 L36.3358,62.7434 C36.3358,62.9204 36.1908,63.0494 36.0288,63.0494 L32.3488,63.0494 L32.3488,65.2294 L36.8198,65.2294 C36.9978,65.2294 37.1268,65.3754 37.1268,65.5364 L37.1268,67.2964 C37.1268,67.4574 36.9978,67.6024 36.8198,67.6024 L30.1368,67.6024 C29.9588,67.6024 29.8298,67.4574 29.8298,67.2964 L29.8298,56.6084 Z" id="Fill-6" fill="#003A70"></path>
                <path d="M45.4391,63.7275 L44.2121,61.0645 L44.1961,61.0645 L42.9851,63.7275 L45.4391,63.7275 Z M38.8041,67.1825 L43.8571,56.3185 C43.9051,56.2205 44.0191,56.1405 44.1311,56.1405 L44.2931,56.1405 C44.4061,56.1405 44.5191,56.2205 44.5671,56.3185 L49.6211,67.1825 C49.7171,67.3925 49.5881,67.6025 49.3461,67.6025 L47.5541,67.6025 C47.2641,67.6025 47.1341,67.5055 46.9891,67.1995 L46.4081,65.9235 L42.0171,65.9235 L41.4361,67.2145 C41.3551,67.4095 41.1771,67.6025 40.8551,67.6025 L39.0791,67.6025 C38.8361,67.6025 38.7071,67.3925 38.8041,67.1825 L38.8041,67.1825 Z" id="Fill-8" fill="#003A70"></path>
                <path d="M52.7829,58.6748 L50.4739,58.6748 C50.2969,58.6748 50.1679,58.5288 50.1679,58.3678 L50.1679,56.6088 C50.1679,56.4468 50.2969,56.3018 50.4739,56.3018 L57.6419,56.3018 C57.8199,56.3018 57.9489,56.4468 57.9489,56.6088 L57.9489,58.3678 C57.9489,58.5288 57.8199,58.6748 57.6419,58.6748 L55.3339,58.6748 L55.3339,67.2958 C55.3339,67.4568 55.1879,67.6028 55.0269,67.6028 L53.0899,67.6028 C52.9289,67.6028 52.7829,67.4568 52.7829,67.2958 L52.7829,58.6748 Z" id="Fill-10" fill="#003A70"></path>
                <path d="M9.4269,73.75 C9.4269,73.589 9.5559,73.443 9.7339,73.443 L16.4169,73.443 C16.5949,73.443 16.7239,73.589 16.7239,73.75 L16.7239,75.51 C16.7239,75.671 16.5949,75.816 16.4169,75.816 L11.9459,75.816 L11.9459,78.142 L15.6259,78.142 C15.7879,78.142 15.9329,78.286 15.9329,78.448 L15.9329,80.208 C15.9329,80.369 15.7879,80.515 15.6259,80.515 L11.9459,80.515 L11.9459,84.438 C11.9459,84.599 11.8009,84.744 11.6389,84.744 L9.7339,84.744 C9.5559,84.744 9.4269,84.599 9.4269,84.438 L9.4269,73.75 Z" id="Fill-12" fill="#003A70"></path>
                <g id="Group-16" transform="translate(19.000000, 72.744100)">
                    <mask id="mask-2" fill="white">
                        <use xlink:href="#path-1"></use>
                    </mask>
                    <g id="Clip-15"></g>
                    <path d="M5.4064,5.5264 C6.0684,5.5264 6.6334,4.9134 6.6334,4.2344 C6.6334,3.5564 6.0684,3.0074 5.4064,3.0074 L3.0174,3.0074 L3.0174,5.5264 L5.4064,5.5264 Z M0.4824,1.0054 C0.4824,0.8444 0.6124,0.6994 0.7894,0.6994 L5.6164,0.6994 C7.5534,0.6994 9.1354,2.2654 9.1354,4.1864 C9.1354,5.6724 8.1514,6.8664 6.7464,7.4314 L8.9584,11.5324 C9.0714,11.7414 8.9584,12.0004 8.6834,12.0004 L6.5364,12.0004 C6.4074,12.0004 6.3104,11.9194 6.2784,11.8544 L4.1314,7.5764 L3.0174,7.5764 L3.0174,11.6934 C3.0174,11.8544 2.8724,12.0004 2.7104,12.0004 L0.7894,12.0004 C0.6124,12.0004 0.4824,11.8544 0.4824,11.6934 L0.4824,1.0054 Z" id="Fill-14" fill="#003A70" mask="url(#mask-2)"></path>
                </g>
                <path d="M31.2658,73.75 C31.2658,73.589 31.3948,73.443 31.5728,73.443 L38.2558,73.443 C38.4338,73.443 38.5628,73.589 38.5628,73.75 L38.5628,75.51 C38.5628,75.671 38.4338,75.816 38.2558,75.816 L33.7848,75.816 L33.7848,77.818 L37.4648,77.818 C37.6268,77.818 37.7718,77.964 37.7718,78.125 L37.7718,79.885 C37.7718,80.062 37.6268,80.191 37.4648,80.191 L33.7848,80.191 L33.7848,82.371 L38.2558,82.371 C38.4338,82.371 38.5628,82.517 38.5628,82.678 L38.5628,84.438 C38.5628,84.599 38.4338,84.744 38.2558,84.744 L31.5728,84.744 C31.3948,84.744 31.2658,84.599 31.2658,84.438 L31.2658,73.75 Z" id="Fill-17" fill="#003A70"></path>
                <path d="M41.6774,73.75 C41.6774,73.589 41.8064,73.443 41.9844,73.443 L48.6674,73.443 C48.8454,73.443 48.9744,73.589 48.9744,73.75 L48.9744,75.51 C48.9744,75.671 48.8454,75.816 48.6674,75.816 L44.1964,75.816 L44.1964,77.818 L47.8764,77.818 C48.0384,77.818 48.1834,77.964 48.1834,78.125 L48.1834,79.885 C48.1834,80.062 48.0384,80.191 47.8764,80.191 L44.1964,80.191 L44.1964,82.371 L48.6674,82.371 C48.8454,82.371 48.9744,82.517 48.9744,82.678 L48.9744,84.438 C48.9744,84.599 48.8454,84.744 48.6674,84.744 L41.9844,84.744 C41.8064,84.744 41.6774,84.599 41.6774,84.438 L41.6774,73.75 Z" id="Fill-19" fill="#003A70"></path>
                <path d="M13.7020742,40.2391192 L46.7720742,12.1781192 C47.3264682,11.7076974 47.3945411,10.8769199 46.9241192,10.3225258 C46.4536974,9.76813179 45.6229199,9.7000589 45.0685258,10.1704808 L11.9985258,38.2314808 C11.4441318,38.7019026 11.3760589,39.5326801 11.8464808,40.0870742 C12.3169026,40.6414682 13.1476801,40.7095411 13.7020742,40.2391192 Z" id="Stroke-21" fill="#003A70" fill-rule="nonzero"></path>
                <path d="M29.3962,28.8928 C29.5856925,28.8928 29.7348103,28.8207486 29.8197441,28.7336821 C29.7348132,28.6461273 29.5854749,28.5738 29.3962,28.5738 C29.2057501,28.5738 29.0562844,28.6462348 28.9714147,28.7336819 C29.0562894,28.8206429 29.2055363,28.8928 29.3962,28.8928 Z M31.5657,28.7343 C31.5657,30.0293439 30.6959881,31.2068 29.3962,31.2068 C28.0949119,31.2068 27.2257,30.0300208 27.2257,28.7343 C27.2257,27.4385959 28.0943234,26.2598 29.3962,26.2598 C30.6965766,26.2598 31.5657,27.4392744 31.5657,28.7343 Z" id="Stroke-23" fill="#003A70" fill-rule="nonzero"></path>
                <path d="M28.4788201,26.2209227 C28.5065232,26.1771496 28.5065232,26.1771496 28.5355869,26.1386746 C28.5429971,26.1291865 28.5367744,26.1344428 28.5221769,26.1490376 C28.5078073,26.1728496 28.4933626,26.1967988 28.4788201,26.2209227 Z M28.9155133,3.65550779 L28.8884863,3.70205739 C27.1550644,6.68760836 26.3867136,8.04991582 25.5056283,9.75645006 C24.0713831,12.5292091 24.1202486,15.3907991 25.6133462,18.2921398 C26.3205027,19.6632423 27.0096386,20.8788773 28.3030231,23.0803884 C28.5404945,23.4826929 28.7998427,23.9008491 29.1168012,24.3958518 C29.1703633,24.4795012 29.2577829,24.6148347 29.3608819,24.7740324 C29.5212389,24.5132576 29.7053392,24.2145385 29.9267059,23.8556961 C31.5980239,21.1464376 32.3199909,19.9394994 33.1535985,18.4069395 C34.4664195,15.9914195 34.6503278,13.4420022 33.6872984,10.8503072 C32.7906245,8.43809961 31.7973895,6.58578723 29.4611169,2.71485554 C29.3037967,2.98650469 29.1252731,3.2942302 28.9155133,3.65550779 Z M30.4651105,0.966662413 L29.3203,0.3166 L28.9913356,1.5913371 C29.0347772,1.60254784 29.0678521,1.61149236 29.1561489,1.63574439 C29.202571,1.6485177 29.202571,1.6485177 29.2520745,1.6620297 L29.5973,0.3916 L28.4677039,1.06775443 C28.6863843,1.43308596 28.8676288,1.73350119 29.2541371,2.37240449 L29.2979751,2.4448694 C29.3530745,2.53595079 29.40745,2.62593575 29.4611169,2.71485554 C29.8840448,1.98457441 30.1537341,1.51502048 30.4651105,0.966662413 Z M30.7268961,-0.28455443 C30.9427867,0.0761162974 31.122565,0.374101225 31.5069755,1.00953679 L31.5508227,1.08201705 C34.0891312,5.27793906 35.1616471,7.25979082 36.1553582,9.93304513 C37.3837579,13.238902 37.1426574,16.5811437 35.4667892,19.6646509 C34.6024638,21.2536843 33.8640577,22.4881045 32.1752394,25.2257315 C31.4491212,26.402792 31.1268379,26.9282547 30.7424585,27.5656684 C30.6755121,27.6733328 30.6755121,27.6733328 30.6107058,27.7593444 C30.5336558,27.8579998 30.3411572,28.0579779 30.3386441,28.0608077 C29.7583401,28.7142208 28.7141489,28.6312731 28.2442826,27.8944372 C28.1707659,27.7791497 28.0943536,27.6600577 28.0128811,27.5337232 C27.8965721,27.3533699 27.12255,26.1641472 26.8994196,25.8156784 C26.5665974,25.295901 26.291211,24.8518858 26.034199,24.4164718 C24.7161658,22.1730111 24.0088641,20.9253317 23.2727135,19.4980114 C21.3969211,15.8530315 21.3327108,12.0928407 23.1665128,8.547638 C24.0735902,6.79075992 24.8563748,5.40286082 26.611456,2.38000516 C27.4079324,1.00820244 27.7538237,0.409123827 28.1754895,-0.333462413 C28.4692092,-0.850725726 29.073296,-1.10677412 29.6492644,-0.958137097 C29.7102359,-0.942402521 29.7583035,-0.929403474 29.8543771,-0.902988834 C29.900029,-0.89042881 29.900029,-0.89042881 29.9425255,-0.878829703 C30.270972,-0.78957794 30.5520887,-0.576590963 30.7268961,-0.28455443 Z" id="Stroke-25" fill="#003A70" fill-rule="nonzero"></path>
                <path d="M31.0623236,41.6510723 C30.343936,41.9514957 29.523185,41.5661472 29.2954581,40.8215162 C29.3255363,40.9198673 29.1668081,40.4441289 29.1330402,40.2661132 C29.1253277,40.2238943 29.1253277,40.2238943 29.1166773,40.1662011 C29.1006436,40.0471381 29.0911226,39.9777475 29.0648702,39.7883853 C29.0409014,39.6162158 29.0212994,39.4775287 28.9767908,39.164162 C28.8014367,37.9294744 28.7279168,37.3683166 28.6583003,36.6611574 C28.0372204,30.3855699 29.9319392,25.3190201 34.5588313,21.6154134 C37.0535246,19.6150451 39.2209487,18.2787471 44.0448771,15.5792248 L44.1383846,15.5268978 C44.3073992,15.4323161 44.3073992,15.4323161 44.4615154,15.3461667 C44.6971841,15.210204 44.9243812,15.1609431 45.1527674,15.1556619 C45.2443365,15.1535445 45.327565,15.1593108 45.3843608,15.1656208 C46.0193039,15.165 46.5828919,15.6695185 46.6568717,16.3363311 C47.09679,20.3015081 47.1889157,23.5259102 46.8576005,26.6509424 C46.4631534,30.3810897 44.9432308,33.4309619 42.219229,35.6871616 C39.593642,37.8577555 37.1518775,39.1097504 31.9544924,41.2787123 C31.5080031,41.4649313 31.2745164,41.5623351 31.0623236,41.6510723 Z M31.7242449,39.8013774 C31.7230096,39.7921599 31.7218083,39.7832089 31.7206281,39.7744294 C31.7221071,39.7874197 31.7221071,39.7874197 31.7242449,39.8013774 Z M45.1438552,17.7876136 C45.2109722,17.7939944 45.2725489,17.798 45.3484,17.798 C45.2880466,17.7996653 45.2247861,17.7950371 45.1438552,17.7876136 Z M40.5406326,33.6586149 C42.7108702,31.861079 43.9143318,29.4462164 44.2392371,26.3737029 C44.4952577,23.9588638 44.4788028,21.4499441 44.2251916,18.4981405 C40.2887719,20.7209083 38.3576924,21.9442282 36.2050946,23.6702869 C32.3068263,26.7906654 30.7415454,30.976286 31.2785665,36.4025199 C31.3395608,37.0220929 31.4053956,37.5335667 31.5549013,38.5911929 C36.0974102,36.6770748 38.2784196,35.5288039 40.5406326,33.6586149 Z" id="Stroke-27" fill="#003A70" fill-rule="nonzero"></path>
                <path d="M13.6237512,17.787601 C13.5427795,17.7950368 13.4794212,17.7997673 13.4191,17.795801 C13.4949771,17.798 13.5565357,17.7939945 13.6237512,17.787601 Z M27.0405277,39.8136857 C27.0443946,39.7874083 27.0443946,39.7874083 27.0466018,39.7753408 C27.0441433,39.7870235 27.0423768,39.8000427 27.0405277,39.8136857 Z M14.5273423,26.3744534 C14.8513574,29.4474317 16.0543212,31.8612953 18.225929,33.6578384 C20.4883942,35.5282367 22.6651989,36.674357 27.2117765,38.5912679 C27.3598288,37.5414241 27.426077,37.0253822 27.4880003,36.4018426 C28.0249739,30.976091 26.459535,26.7906489 22.5592001,23.6693209 C20.4055538,21.9412795 18.496502,20.7309623 14.5417518,18.4982049 C14.2872171,21.4511539 14.2705684,23.9593287 14.5273423,26.3744534 Z M26.8113657,41.2785985 C21.6095579,39.1064207 19.1730022,37.8570481 16.5479222,35.6868732 C13.8221358,33.4318653 12.3023256,30.3822186 11.9089782,26.6516849 C11.5767366,23.5267415 11.6693133,20.3034331 12.1106711,16.3359456 C12.184831,15.6693021 12.7483443,15.165 13.4191,15.165 C13.4394663,15.159333 13.5229349,15.1535328 13.6146358,15.1556662 C13.8460859,15.1610509 14.0761152,15.2114832 14.2899702,15.3376353 C14.4589224,15.4321607 14.4589224,15.4321607 14.6280441,15.5267505 C19.5464961,18.2776397 21.6962979,19.6011436 24.2056811,21.6146223 C28.8343479,25.3188121 30.7293082,30.3852804 30.1081558,36.6616005 C30.0366419,37.3817136 29.9617868,37.9527279 29.783458,39.2100543 C29.7422666,39.5004587 29.7240833,39.6291612 29.7017972,39.7888381 C29.6754215,39.9785026 29.6657913,40.0483849 29.6479449,40.1796226 C29.6411707,40.2239058 29.6411707,40.2239058 29.6334464,40.2661806 C29.5992368,40.4464735 29.4291883,40.9530574 29.4683227,40.8270935 C29.2379439,41.5686253 28.4191293,41.9507126 27.7028372,41.6509304 C27.4883016,41.5611431 27.257531,41.4648044 26.8113657,41.2785985 Z" id="Stroke-29" fill="#003A70" fill-rule="nonzero"></path>
            </g>
        </g>
    </g>
</svg>