<?xml version="1.0" encoding="UTF-8"?>
<svg width="11px" height="11px" viewBox="0 0 11 11" version="1.1" xmlns="http://www.w3.org/2000/svg" xmlns:xlink="http://www.w3.org/1999/xlink">
    <!-- Generator: Sketch 45.2 (43514) - http://www.bohemiancoding.com/sketch -->
    <title>Close</title>
    <defs></defs>
    <g id="Round-2" stroke="none" stroke-width="1" fill="none" fill-rule="evenodd">
        <g id="recipe-modal_02" transform="translate(-1036.000000, -449.000000)" fill="#ffffff">
            <g id="product-modal-copy" transform="translate(378.000000, 436.000000)">
                <path d="M668.116084,21.4803551 C668.116084,21.279462 668.035727,21.0785689 667.891084,20.9339259 L665.528581,18.5714231 L667.891084,16.2089202 C668.035727,16.0642772 668.116084,15.8633841 668.116084,15.662491 C668.116084,15.4615979 668.035727,15.2607048 667.891084,15.1160618 L666.798225,14.0232033 C666.653582,13.8785603 666.452689,13.7982031 666.251796,13.7982031 C666.050903,13.7982031 665.85001,13.8785603 665.705367,14.0232033 L663.342864,16.3857062 L660.980361,14.0232033 C660.835718,13.8785603 660.634825,13.7982031 660.433932,13.7982031 C660.233039,13.7982031 660.032146,13.8785603 659.887503,14.0232033 L658.794644,15.1160618 C658.650001,15.2607048 658.569644,15.4615979 658.569644,15.662491 C658.569644,15.8633841 658.650001,16.0642772 658.794644,16.2089202 L661.157147,18.5714231 L658.794644,20.9339259 C658.650001,21.0785689 658.569644,21.279462 658.569644,21.4803551 C658.569644,21.6812482 658.650001,21.8821413 658.794644,22.0267843 L659.887503,23.1196428 C660.032146,23.2642858 660.233039,23.344643 660.433932,23.344643 C660.634825,23.344643 660.835718,23.2642858 660.980361,23.1196428 L663.342864,20.7571399 L665.705367,23.1196428 C665.85001,23.2642858 666.050903,23.344643 666.251796,23.344643 C666.452689,23.344643 666.653582,23.2642858 666.798225,23.1196428 L667.891084,22.0267843 C668.035727,21.8821413 668.116084,21.6812482 668.116084,21.4803551 Z" id="body-large-copy-6"></path>
            </g>
        </g>
    </g>
</svg>
