<?xml version="1.0" encoding="UTF-8"?>
<svg width="100px" height="105px" viewBox="0 0 100 105" version="1.1" xmlns="http://www.w3.org/2000/svg" xmlns:xlink="http://www.w3.org/1999/xlink">
    <!-- Generator: Sketch 46.2 (44496) - http://www.bohemiancoding.com/sketch -->
    <title>icon / gluten-free</title>
    <desc>Created with Sketch.</desc>
    <defs>
        <polygon id="path-1" points="0 12.0031 0 0.4111 9.9289 0.4111 9.9289 12.0031 3.18409849e-16 12.0031"></polygon>
        <polygon id="path-3" points="10.244 12.0185 10.244 0.3955 0.5254 0.3955 0.5254 12.0185 10.244 12.0185"></polygon>
        <polygon id="path-5" points="0.0491 12 8.7021 12 8.7021 0.6994 0.0491 0.6994"></polygon>
    </defs>
    <g id="Symbols" stroke="none" stroke-width="1" fill="none" fill-rule="evenodd">
        <g id="icon-/-gluten-free">
            <rect id="Rectangle-15" fill="#FFFFFF" x="0" y="0" width="100" height="105"></rect>
            <g id="Page-1" transform="translate(18.000000, 2.000000)">
                <g id="Group-3" transform="translate(0.000000, 56.284600)">
                    <mask id="mask-2" fill="white">
                        <use xlink:href="#path-1"></use>
                    </mask>
                    <g id="Clip-2"></g>
                    <path d="M5.7959,0.4111 C7.1519,0.4111 8.6369,0.9761 9.7349,1.9291 C9.8799,2.0421 9.8969,2.2351 9.7669,2.3651 L8.4919,3.7211 C8.3629,3.8341 8.1849,3.8341 8.0559,3.7371 C7.4419,3.1721 6.7319,2.9621 5.9409,2.9621 C4.1809,2.9621 2.7609,4.4471 2.7609,6.2231 C2.7609,7.9821 4.1969,9.4351 5.9569,9.4351 C6.4249,9.4351 6.9099,9.3711 7.3939,9.1781 L7.3939,8.2411 L6.3769,8.2411 C6.1989,8.2411 6.0699,8.1121 6.0699,7.9501 L6.0699,6.3521 C6.0699,6.1751 6.1989,6.0461 6.3769,6.0461 L9.6219,6.0461 C9.7829,6.0461 9.9129,6.1911 9.9129,6.3521 L9.9289,10.6951 C9.9289,10.7751 9.8639,10.9051 9.7989,10.9531 C9.7989,10.9531 8.1369,12.0031 5.7959,12.0031 C2.5829,12.0031 -0.0001,9.4521 -0.0001,6.2231 C-0.0001,2.9941 2.5829,0.4111 5.7959,0.4111" id="Fill-1" fill="#003A70" mask="url(#mask-2)"></path>
                </g>
                <path d="M13.1069,57.1479 C13.1069,56.9869 13.2359,56.8409 13.4139,56.8409 L15.3349,56.8409 C15.4969,56.8409 15.6419,56.9869 15.6419,57.1479 L15.6419,65.7689 L19.4839,65.7689 C19.6619,65.7689 19.7909,65.9149 19.7909,66.0759 L19.7909,67.8359 C19.7909,67.9969 19.6619,68.1419 19.4839,68.1419 L13.4139,68.1419 C13.2359,68.1419 13.1069,67.9969 13.1069,67.8359 L13.1069,57.1479 Z" id="Fill-4" fill="#003A70"></path>
                <path d="M22.1621,57.1479 C22.1621,56.9869 22.3071,56.8409 22.4691,56.8409 L24.4541,56.8409 C24.6321,56.8409 24.7611,56.9869 24.7611,57.1479 L24.7611,63.6859 C24.7611,64.8169 25.6001,65.7199 26.7471,65.7199 C27.9091,65.7199 28.7651,64.8169 28.7651,63.6859 L28.7651,57.1479 C28.7651,56.9869 28.8941,56.8409 29.0711,56.8409 L31.0571,56.8409 C31.2191,56.8409 31.3641,56.9869 31.3641,57.1479 L31.3641,63.8159 C31.3641,66.2689 29.2971,68.3029 26.7471,68.3029 C24.2121,68.3029 22.1621,66.2689 22.1621,63.8159 L22.1621,57.1479 Z" id="Fill-6" fill="#003A70"></path>
                <path d="M36.3667,59.2143 L34.0577,59.2143 C33.8807,59.2143 33.7517,59.0683 33.7517,58.9073 L33.7517,57.1483 C33.7517,56.9863 33.8807,56.8413 34.0577,56.8413 L41.2257,56.8413 C41.4037,56.8413 41.5327,56.9863 41.5327,57.1483 L41.5327,58.9073 C41.5327,59.0683 41.4037,59.2143 41.2257,59.2143 L38.9177,59.2143 L38.9177,67.8353 C38.9177,67.9963 38.7717,68.1423 38.6107,68.1423 L36.6737,68.1423 C36.5127,68.1423 36.3667,67.9963 36.3667,67.8353 L36.3667,59.2143 Z" id="Fill-8" fill="#003A70"></path>
                <path d="M44.1138,57.1479 C44.1138,56.9869 44.2428,56.8409 44.4208,56.8409 L51.1038,56.8409 C51.2818,56.8409 51.4108,56.9869 51.4108,57.1479 L51.4108,58.9079 C51.4108,59.0689 51.2818,59.2139 51.1038,59.2139 L46.6328,59.2139 L46.6328,61.2159 L50.3128,61.2159 C50.4748,61.2159 50.6198,61.3619 50.6198,61.5229 L50.6198,63.2829 C50.6198,63.4599 50.4748,63.5889 50.3128,63.5889 L46.6328,63.5889 L46.6328,65.7689 L51.1038,65.7689 C51.2818,65.7689 51.4108,65.9149 51.4108,66.0759 L51.4108,67.8359 C51.4108,67.9969 51.2818,68.1419 51.1038,68.1419 L44.4208,68.1419 C44.2428,68.1419 44.1138,67.9969 44.1138,67.8359 L44.1138,57.1479 Z" id="Fill-10" fill="#003A70"></path>
                <g id="Group-14" transform="translate(54.000000, 56.284600)">
                    <mask id="mask-4" fill="white">
                        <use xlink:href="#path-3"></use>
                    </mask>
                    <g id="Clip-13"></g>
                    <path d="M0.5254,0.6855 C0.5254,0.5245 0.6714,0.3955 0.8324,0.3955 L1.2354,0.3955 L7.6774,6.5945 L7.6934,6.5945 L7.6934,0.8635 C7.6934,0.7025 7.8224,0.5565 8.0004,0.5565 L9.9374,0.5565 C10.0984,0.5565 10.2444,0.7025 10.2444,0.8635 L10.2444,11.7285 C10.2444,11.8895 10.0984,12.0185 9.9374,12.0185 L9.6794,12.0185 C9.6304,12.0185 9.5014,11.9705 9.4694,11.9385 L3.0924,5.5295 L3.0764,5.5295 L3.0764,11.5505 C3.0764,11.7115 2.9474,11.8575 2.7694,11.8575 L0.8484,11.8575 C0.6874,11.8575 0.5414,11.7115 0.5414,11.5505 L0.5254,0.6855 Z" id="Fill-12" fill="#003A70" mask="url(#mask-4)"></path>
                </g>
                <path d="M12.9937,74.2905 C12.9937,74.1295 13.1227,73.9835 13.3007,73.9835 L19.9837,73.9835 C20.1617,73.9835 20.2907,74.1295 20.2907,74.2905 L20.2907,76.0505 C20.2907,76.2115 20.1617,76.3565 19.9837,76.3565 L15.5127,76.3565 L15.5127,78.6825 L19.1927,78.6825 C19.3547,78.6825 19.4997,78.8275 19.4997,78.9885 L19.4997,80.7485 C19.4997,80.9095 19.3547,81.0555 19.1927,81.0555 L15.5127,81.0555 L15.5127,84.9785 C15.5127,85.1395 15.3677,85.2845 15.2057,85.2845 L13.3007,85.2845 C13.1227,85.2845 12.9937,85.1395 12.9937,84.9785 L12.9937,74.2905 Z" id="Fill-15" fill="#003A70"></path>
                <g id="Group-19" transform="translate(23.000000, 73.284600)">
                    <mask id="mask-6" fill="white">
                        <use xlink:href="#path-5"></use>
                    </mask>
                    <g id="Clip-18"></g>
                    <path d="M4.9731,5.5264 C5.6351,5.5264 6.2001,4.9134 6.2001,4.2344 C6.2001,3.5564 5.6351,3.0074 4.9731,3.0074 L2.5841,3.0074 L2.5841,5.5264 L4.9731,5.5264 Z M0.0491,1.0054 C0.0491,0.8444 0.1791,0.6994 0.3561,0.6994 L5.1831,0.6994 C7.1201,0.6994 8.7021,2.2654 8.7021,4.1864 C8.7021,5.6724 7.7181,6.8664 6.3131,7.4314 L8.5251,11.5324 C8.6381,11.7424 8.5251,12.0004 8.2501,12.0004 L6.1031,12.0004 C5.9741,12.0004 5.8771,11.9194 5.8451,11.8544 L3.6981,7.5764 L2.5841,7.5764 L2.5841,11.6934 C2.5841,11.8544 2.4391,12.0004 2.2771,12.0004 L0.3561,12.0004 C0.1791,12.0004 0.0491,11.8544 0.0491,11.6934 L0.0491,1.0054 Z" id="Fill-17" fill="#003A70" mask="url(#mask-6)"></path>
                </g>
                <path d="M34.8164,74.2905 C34.8164,74.1295 34.9454,73.9835 35.1234,73.9835 L41.8064,73.9835 C41.9844,73.9835 42.1134,74.1295 42.1134,74.2905 L42.1134,76.0505 C42.1134,76.2115 41.9844,76.3565 41.8064,76.3565 L37.3354,76.3565 L37.3354,78.3585 L41.0154,78.3585 C41.1774,78.3585 41.3224,78.5045 41.3224,78.6655 L41.3224,80.4255 C41.3224,80.6025 41.1774,80.7315 41.0154,80.7315 L37.3354,80.7315 L37.3354,82.9115 L41.8064,82.9115 C41.9844,82.9115 42.1134,83.0575 42.1134,83.2185 L42.1134,84.9785 C42.1134,85.1395 41.9844,85.2845 41.8064,85.2845 L35.1234,85.2845 C34.9454,85.2845 34.8164,85.1395 34.8164,84.9785 L34.8164,74.2905 Z" id="Fill-20" fill="#003A70"></path>
                <path d="M45.2441,74.2905 C45.2441,74.1295 45.3731,73.9835 45.5511,73.9835 L52.2341,73.9835 C52.4121,73.9835 52.5411,74.1295 52.5411,74.2905 L52.5411,76.0505 C52.5411,76.2115 52.4121,76.3565 52.2341,76.3565 L47.7631,76.3565 L47.7631,78.3585 L51.4431,78.3585 C51.6051,78.3585 51.7501,78.5045 51.7501,78.6655 L51.7501,80.4255 C51.7501,80.6025 51.6051,80.7315 51.4431,80.7315 L47.7631,80.7315 L47.7631,82.9115 L52.2341,82.9115 C52.4121,82.9115 52.5411,83.0575 52.5411,83.2185 L52.5411,84.9785 C52.5411,85.1395 52.4121,85.2845 52.2341,85.2845 L45.5511,85.2845 C45.3731,85.2845 45.2441,85.1395 45.2441,84.9785 L45.2441,74.2905 Z" id="Fill-22" fill="#003A70"></path>
                <path d="M32.5275,36.923 C32.5275,37.1398849 32.7037188,37.3165 32.922,37.3165 C33.1407148,37.3165 33.3165,37.1404514 33.3165,36.923 C33.3165,36.704483 33.1406487,36.5285 32.922,36.5285 C32.7037851,36.5285 32.5275,36.7050494 32.5275,36.923 Z M35.1605,36.923 C35.1605,38.1583329 34.1588346,39.1615 32.922,39.1615 C31.6860414,39.1615 30.6835,38.1582076 30.6835,36.923 C30.6835,35.6871673 31.6856659,34.6835 32.922,34.6835 C34.1592102,34.6835 35.1605,35.6870416 35.1605,36.923 Z" id="Stroke-24" fill="#003A70" fill-rule="nonzero"></path>
                <path d="M33.2675,26.292 C33.2675,26.3070829 33.2769171,26.3165 33.292,26.3165 C33.3060883,26.3165 33.3165,26.3060771 33.3165,26.292 C33.3165,26.2789171 33.3050829,26.2675 33.292,26.2675 C33.2779229,26.2675 33.2675,26.2779117 33.2675,26.292 Z M35.9005,26.292 C35.9005,27.7327079 34.7314589,28.9005 33.292,28.9005 C31.8509171,28.9005 30.6835,27.7330829 30.6835,26.292 C30.6835,24.8525411 31.8512921,23.6835 33.292,23.6835 C34.7310829,23.6835 35.9005,24.8529171 35.9005,26.292 Z" id="Stroke-26" fill="#003A70" fill-rule="nonzero"></path>
                <path d="M32.0846147,15.8126583 C32.1180227,15.7608929 32.1180227,15.7608929 32.1587902,15.7087204 C32.1790905,15.6836408 32.1691586,15.6915021 32.1435954,15.7177546 C32.1240462,15.7491739 32.1044277,15.7807417 32.0846147,15.8126583 Z M30.916489,6.11624103 C30.0837823,7.68825951 30.1200493,9.27812788 31.0131544,10.9276445 C31.4687506,11.7733968 31.9403537,12.5664754 32.7461905,13.8674233 C32.834061,14.0106122 32.926653,14.1567683 33.0287069,14.3135983 C34.0706942,12.6698961 34.5365047,11.9113233 35.0626778,10.9699633 C35.8252273,9.59930474 35.9240455,8.18297626 35.3530529,6.72050288 C34.837505,5.40226661 34.2714633,4.3581925 33.0497815,2.40222503 C31.954176,4.23976719 31.4709307,5.07373832 30.916489,6.11624103 Z M34.079311,0.663307589 L32.9421235,0 L32.6081108,1.27342363 C32.6550362,1.28570446 32.6550362,1.28570446 32.6988101,1.29713956 L32.7159091,1.30161716 C32.7494471,1.31042494 32.7494471,1.31042494 32.7819106,1.3190483 L33.1211235,0.047 L32.0056402,0.746191834 C32.1504852,0.977276081 32.2686687,1.16430643 32.5267437,1.57160241 L32.5420325,1.59573126 C32.7231005,1.88149541 32.8919149,2.14947361 33.0497815,2.40222503 C33.0559401,2.39189588 33.062118,2.38153502 33.0683154,2.37114224 L33.07714,2.35634389 C33.5785701,1.51546847 33.8028231,1.13732382 34.079311,0.663307589 Z M34.7508538,0.162338999 C36.4381216,2.8252093 37.1412999,4.06394474 37.8054683,5.76219871 C38.6629064,7.95833894 38.5068515,10.195023 37.3622933,12.2523247 C36.7991282,13.2598717 36.3128692,14.051044 35.2274482,15.7628757 L35.1724141,15.8496714 C34.7664597,16.4899322 34.5572578,16.8217747 34.3378599,17.174492 C34.2690354,17.2836489 34.2690354,17.2836489 34.2053642,17.3652903 C34.1383442,17.4480888 34.0164946,17.5704431 34.026698,17.5589481 C33.455108,18.2028913 32.4294018,18.1338348 31.9492869,17.4190847 C31.8975893,17.3422351 31.8975893,17.3422351 31.8456344,17.2654012 C31.7536532,17.1295253 31.2747481,16.429255 31.1398173,16.229043 C30.8905731,15.8592114 30.6894538,15.5499492 30.5049426,15.2492578 C29.6758975,13.9108647 29.1823543,13.0808902 28.6964241,12.1788207 C27.3935137,9.77242503 27.3359892,7.25067601 28.5907836,4.88182672 C29.176215,3.78105075 29.6762239,2.91864824 30.806872,1.02260136 C31.3127894,0.1742009 31.5341423,-0.199053417 31.8049361,-0.663307589 C32.102757,-1.17389752 32.7043772,-1.42339323 33.2761363,-1.27342363 C33.3199608,-1.26195446 33.3199608,-1.26195446 33.3651869,-1.25013956 C33.42112,-1.23546494 33.42112,-1.23546494 33.4603364,-1.2250483 C33.7822587,-1.13920234 34.0596596,-0.934491652 34.2366068,-0.652191834 C34.3784296,-0.425929252 34.4950564,-0.241362407 34.7508538,0.162338999 Z" id="Stroke-28" fill="#003A70" fill-rule="nonzero"></path>
                <path d="M30.6371801,45.3413814 C30.6424576,45.2921698 30.6424576,45.2921698 30.6469708,45.26474 C30.6535526,45.2272669 30.6636665,45.1922962 30.645962,45.2421285 C30.6430367,45.2747651 30.6401252,45.3076832 30.6371801,45.3413814 Z M23.4574416,37.2131586 C23.6454043,38.7498206 24.2158197,39.9638898 25.2196351,40.8830381 C26.5747805,42.1210566 27.9159647,42.8506834 30.7680617,44.01353 C30.7763934,43.9318006 30.7828137,43.8680888 30.7899302,43.7966332 C30.8716154,42.9764436 30.91148,42.4181392 30.9193163,41.8691341 C30.9526274,39.5448531 30.0285938,37.6448457 28.1429694,36.0914082 C26.8947143,35.0638391 25.7323499,34.3374731 23.3763974,33.0540819 C23.2762988,34.5753271 23.2984542,35.919856 23.4574416,37.2131586 Z M22.5858221,32.626338 L22.68187,32.6780623 C22.9245532,32.8087599 23.1557118,32.9338647 23.3763974,33.0540819 C23.4161231,32.4503531 23.475104,31.8187911 23.5524289,31.1515521 L22.2446811,31 L21.8789876,32.2646899 C21.9042977,32.2720085 21.9288738,32.2785918 21.9523446,32.2844906 C22.001702,32.2968952 22.0461717,32.3062726 22.0823018,32.3130942 C22.0231386,32.300956 21.9661113,32.2853084 21.8843948,32.2459903 C21.8604306,32.2344599 21.8343431,32.2208938 21.8054557,32.2047835 C21.832121,32.2192716 21.8581738,32.2334178 21.8839811,32.2474207 C21.9068767,32.2598438 21.9295791,32.2721542 21.9523446,32.2844906 C22.1235825,32.3772829 22.2983887,32.4715491 22.5858221,32.626338 Z M23.074818,29.8980141 C23.2865631,30.0129722 23.4680671,30.1109267 23.8342337,30.3081151 L23.9303385,30.35987 C26.9123302,31.9658294 28.2763057,32.7907852 29.8167728,34.0589046 C32.3065013,36.1100221 33.5970924,38.7637488 33.552047,41.9067894 C33.5429187,42.5463092 33.4984386,43.1692553 33.4099685,44.0575709 C33.3965035,44.1927703 33.3854339,44.3012883 33.360663,44.542227 C33.3075859,45.0585194 33.284881,45.2880066 33.2586476,45.5869966 C33.2507575,45.6563783 33.2507575,45.6563783 33.2402729,45.7202321 C33.2084144,45.9016155 33.1476604,46.0799112 33.1023205,46.1950814 C32.8731332,46.9733359 32.0594241,47.3682391 31.3382428,47.0787375 C31.2013835,47.0238635 31.2013835,47.0238635 31.0640859,46.96902 C30.8333846,46.8770374 30.8333846,46.8770374 30.6016172,46.7848021 C26.893443,45.308739 25.2321564,44.460815 23.4426243,42.8259533 C21.9474995,41.456937 21.1044224,39.6625359 20.8440173,37.5336301 C20.5930938,35.4924639 20.6426715,33.3876427 20.9369333,30.8484479 C21.0306421,30.0398319 21.8283825,29.5091919 22.6103746,29.7353101 C22.7863581,29.7696983 22.9109836,29.8065479 23.074818,29.8980141 Z" id="Stroke-30" fill="#003A70" fill-rule="nonzero"></path>
                <path d="M41.7382884,33.21758 L41.6936652,33.244233 C39.6989893,34.4356325 38.8153326,34.9815184 37.7606654,35.6998736 C35.5856093,37.1779455 34.4386657,39.1254347 34.329872,41.6334523 C34.2938478,42.4303497 34.3301282,43.2476824 34.4378918,44.1336343 C36.9310897,43.1171126 38.2292478,42.4429427 39.5486647,41.4102184 C40.6796607,40.5274085 41.3705287,39.4310791 41.6349359,38.0890731 C41.8036124,37.2309804 41.8956278,36.4207908 41.9032495,35.6684792 C41.9086303,34.9244651 41.8949916,34.3006463 41.8513141,33.1500599 C41.8144869,33.1720637 41.7768267,33.1945613 41.7382884,33.21758 Z M43.555503,32.1219373 L42.8667151,31 L42.2842636,32.1806449 C42.3423796,32.2093155 42.4062118,32.2418699 42.4828406,32.2817589 L43.0907151,31.114 L41.7749249,31.1572257 C41.7868906,31.5214625 41.7980622,31.8120109 41.8242754,32.4621388 C41.8343375,32.7116932 41.8433279,32.939682 41.8513141,33.1500599 C42.6637772,32.6646224 43.0707599,32.4195344 43.555503,32.1219373 Z M44.4065053,31.0707743 C44.4181845,31.4262912 44.4291881,31.7124706 44.4551378,32.3560623 C44.5219123,34.012174 44.5429477,34.7518201 44.5361476,35.6913272 C44.5267488,36.6197229 44.4167223,37.5884991 44.2183835,38.5974894 C43.8294647,40.5714583 42.7908186,42.2196723 41.1701524,43.4846975 C39.4377356,44.8406838 37.8248517,45.6276676 34.4820206,46.953323 C34.1823478,47.0720711 34.0135492,47.1389549 33.8835721,47.1905666 C33.1162904,47.4952409 32.26115,47.0266885 32.1049838,46.2160345 C31.772741,44.4913712 31.6327982,42.9913593 31.6994519,41.5169472 C31.8452308,38.1562428 33.4358462,35.4554071 36.2796,33.5229188 C37.3905978,32.7661948 38.304091,32.201877 40.3435054,30.9837558 L40.3881216,30.9571069 C41.2678498,30.4316507 41.6832294,30.1817711 42.1779271,29.8780627 C42.5634437,29.6413835 43.0434771,29.6192149 43.4491666,29.8193551 C43.5266506,29.8575805 43.6064652,29.8982859 43.6985896,29.9462411 C44.1203023,30.1657628 44.3908952,30.5956031 44.4065053,31.0707743 Z" id="Stroke-32" fill="#003A70" fill-rule="nonzero"></path>
                <path d="M30.6371885,34.3392858 C30.6430329,34.2858642 30.6430329,34.2858642 30.6484031,34.2551417 C30.6546572,34.2217653 30.6638346,34.1906667 30.6458896,34.2410087 C30.6429923,34.2733189 30.6401074,34.3059146 30.6371885,34.3392858 Z M23.4574639,26.212341 C23.6453562,27.7502084 24.2153865,28.963257 25.2201272,29.8824879 C26.5751289,31.1216344 27.9159385,31.8507698 30.7679484,33.0116092 C30.8731428,31.9708345 30.9107346,31.4683447 30.919316,30.8681544 C30.9526134,28.5423326 30.029841,26.6457551 28.1429694,25.0904082 C26.8947126,24.0628378 25.7323468,23.3364712 23.376388,22.0530768 C23.2763111,23.5737141 23.2984615,24.9189156 23.4574639,26.212341 Z M21.9546302,21.2847804 C22.1194566,21.3740579 22.2949836,21.4687154 22.5858221,21.625338 L22.68187,21.6770623 C22.9245497,21.8077581 23.1557052,21.9328611 23.376388,22.0530768 C23.416111,21.4494992 23.4750907,20.818282 23.5524127,20.151692 L22.2446811,20 L21.8931164,21.2686901 C21.9142198,21.274538 21.9348074,21.2798936 21.9546296,21.2847828 C22.0028448,21.296675 22.0465238,21.3058062 22.0820871,21.3125509 C22.0278319,21.3014512 21.9748744,21.2871105 21.8979549,21.2512295 C21.8751405,21.2405872 21.8502181,21.2280499 21.8225287,21.2131402 C21.847718,21.2268167 21.8725117,21.24027 21.8972715,21.2536955 C21.916356,21.2640437 21.9354204,21.2743755 21.9546302,21.2847804 Z M23.074818,18.8970141 C23.2865631,19.0119722 23.4680671,19.1099267 23.8342337,19.3071151 L23.9303385,19.35887 C26.9123302,20.9648294 28.2763057,21.7897852 29.8170555,23.0581376 C32.307759,25.1112221 33.597067,27.7611418 33.5520466,30.905821 C33.5413042,31.6571565 33.494086,32.2425007 33.3606648,33.5404913 C33.3074779,34.0579208 33.2848653,34.2864226 33.2587543,34.5839246 C33.2492999,34.6658441 33.2492999,34.6658441 33.2363623,34.7400711 C33.2039579,34.9130059 33.1456371,35.0829707 33.1011763,35.1963262 C32.8700608,35.9717762 32.0584936,36.364325 31.3390333,36.0760545 C31.2021747,36.0212835 31.2021747,36.0212835 31.0648762,35.9665426 C30.8355067,35.875262 30.8355067,35.875262 30.6050786,35.7837304 C26.8945335,34.3094756 25.2326313,33.4619117 23.4430259,31.8253208 C21.9472542,30.4568489 21.1043005,28.6630077 20.8440173,26.5326301 C20.5930821,24.4913688 20.6426946,22.3850703 20.9369496,19.848308 C21.0300539,19.0456588 21.8175591,18.5155293 22.5962458,18.7313099 C22.7789686,18.7675846 22.8997572,18.8027418 23.074818,18.8970141 Z" id="Stroke-34" fill="#003A70" fill-rule="nonzero"></path>
                <path d="M30.615647,24.3882112 C30.622268,24.3445072 30.622268,24.3445072 30.6287048,24.3134057 C30.6326069,24.2955485 30.6314337,24.2944363 30.6269396,24.3048581 C30.6239762,24.3266878 30.6204215,24.3529444 30.615647,24.3882112 Z M30.8913352,22.2837798 C31.2071762,19.0914976 30.2542711,16.6704394 27.8722349,14.8507929 C26.6199045,13.8921874 25.4816754,13.1861437 23.3744175,12.037963 C23.2796647,13.526392 23.2979288,14.8308019 23.4435773,16.0882602 C23.6443991,17.8616044 24.3608727,19.2325218 25.6589911,20.2599367 C26.9860717,21.3071958 28.2792086,21.9809086 30.8069276,23.0120939 C30.8442437,22.7294726 30.8684753,22.519223 30.8913352,22.2837798 Z M22.3865871,8.68443677 C22.6046418,8.69212725 22.8235205,8.74248123 23.0017171,8.84864857 C23.0820499,8.89146657 23.0820499,8.89146657 23.1624704,8.93432292 L23.208064,8.9586198 C26.3906734,10.6546521 27.8155983,11.4916106 29.4716168,12.759223 C32.6070221,15.1543699 33.9140199,18.4750763 33.5117775,22.5406174 C33.4682155,22.9893059 33.4220628,23.342388 33.3126881,24.1119139 C33.2865572,24.2957453 33.2865572,24.2957453 33.2610723,24.4772413 C33.2428393,24.6085164 33.2428393,24.6085164 33.2243591,24.7449586 C33.2138211,24.8135028 33.2138211,24.8135028 33.2010073,24.875499 C33.1717758,25.0092709 33.0864927,25.2525302 33.0956074,25.2223813 C32.8724636,25.9604725 32.0655986,26.3496342 31.3490657,26.0647616 C31.0696965,25.9538271 31.0696965,25.9538271 30.7893259,25.8426401 C27.383455,24.491211 25.7759546,23.7063429 24.0264122,22.3256984 C22.1570165,20.8461402 21.1044845,18.8322007 20.8276822,16.3878776 C20.5979022,14.4041103 20.6484899,12.3641492 20.9248914,9.86091327 C20.9968906,9.20885023 21.5370892,8.71176158 22.1881867,8.68966684 C22.224012,8.68592668 22.2336789,8.68583809 22.3865871,8.68443677 Z" id="Stroke-36" fill="#003A70" fill-rule="nonzero"></path>
                <path d="M43.1312201,11.3215988 C43.1612488,11.3174879 43.231857,11.30645 43.3052349,11.2921324 L43.3030036,11.280697 C43.2468363,11.2990038 43.189626,11.3118147 43.1312201,11.3215988 Z M41.8546071,12.1388815 L41.7774257,12.1831721 C39.773656,13.3330311 38.880234,13.8647454 37.8193573,14.5657223 C36.0178917,15.7548357 34.8999699,17.2919517 34.5081524,19.2116155 C34.2713857,20.3746797 34.2564081,21.5818766 34.4415082,23.0403834 C36.4181745,22.2421424 37.6472305,21.6342954 38.88447,20.8178628 C40.4802924,19.759484 41.3987349,18.505357 41.6542438,16.9392564 C41.7839164,16.154937 41.8494625,15.3170385 41.8826644,14.2081783 C41.8923779,13.8837697 41.8977735,13.6250285 41.9083957,13.0302254 L41.9098322,12.9498972 C41.91478,12.6796899 41.9103066,12.4348993 41.8927146,12.1170119 C41.8801138,12.1242438 41.867412,12.1315333 41.8546071,12.1388815 Z M32.1113231,25.1107374 C31.6267263,22.592093 31.5308142,20.6378202 31.928206,18.6857209 C32.4669575,16.0461704 34.0088854,13.926056 36.368352,12.368617 C37.4900066,11.6274807 38.4154693,11.0766975 40.4669291,9.89947167 L40.5440864,9.85519498 C41.3308545,9.40369871 41.7228786,9.1772255 42.1211188,8.94479374 C42.3298863,8.80760369 42.4932584,8.75878066 42.6962047,8.72478335 C42.7755694,8.71246058 42.7850243,8.71098253 42.8009881,8.70786764 C43.5801193,8.55584204 44.3155755,9.12278052 44.3668612,9.91494649 C44.3823501,10.1541905 44.3982047,10.3557135 44.4338653,10.7824477 C44.5258734,11.8834685 44.5540095,12.3635978 44.5424002,12.9975894 L44.540976,13.0772394 C44.5301636,13.6826863 44.5246225,13.948411 44.5144849,14.2869812 C44.4780662,15.5032732 44.4041239,16.448503 44.2524329,17.3659814 C43.8692368,19.7147486 42.5071346,21.5746899 40.3372075,23.0138213 C38.6054866,24.1565583 36.9598056,24.9066817 33.8761036,26.0909816 C33.1109603,26.3848359 32.2661828,25.9156057 32.1113231,25.1107374 Z" id="Stroke-38" fill="#003A70" fill-rule="nonzero"></path>
                <path d="M41.7673413,22.1988756 L41.7381771,22.2162912 C39.7257729,23.4180191 38.8275133,23.9727856 37.7606654,24.6988736 C35.5851178,26.1772795 34.4386367,28.1229315 34.3298829,30.6292095 C34.2938556,31.4294525 34.3300219,32.2464014 34.4378715,33.1326421 C36.9310927,32.1161083 38.2293436,31.441868 39.5496154,30.408477 C40.6789251,29.5286467 41.3703367,28.4310532 41.6349909,27.0877934 C41.803369,26.2321981 41.8956217,25.4196906 41.9032495,24.6684855 C41.9086308,23.9238985 41.8949571,23.2984809 41.8513087,22.1487288 C41.8238065,22.1651553 41.7958237,22.1818671 41.7673413,22.1988756 Z M43.5542501,21.1227056 L42.8667151,20 L42.2970246,21.1868551 C42.3498516,21.212212 42.4082655,21.2420032 42.4703602,21.275177 L43.0907151,20.114 L41.7749268,20.1572825 C41.7868858,20.5208374 41.7979909,20.8094284 41.8242762,21.4611113 C41.8343348,21.7104932 41.8433234,21.9383856 41.8513087,22.1487288 C42.681259,21.6530169 43.0736142,21.4170428 43.5542501,21.1227056 Z M44.4065034,20.0707175 C44.4181763,20.425574 44.429115,20.7098411 44.455137,21.3549972 C44.521858,23.0091956 44.5429486,23.7510808 44.5361473,24.6913573 C44.5267381,25.6186924 44.4164523,26.5900237 44.2183835,27.5964894 C43.8292308,29.5716451 42.789617,31.2219981 41.1701524,32.4836975 C39.4377356,33.8396838 37.8248517,34.6266676 34.4820206,35.952323 C34.1823478,36.0710711 34.0135492,36.1379549 33.8835721,36.1895666 C33.1162285,36.4942654 32.261031,36.0256127 32.1049529,35.214874 C31.7723859,33.4873731 31.6328591,31.9920761 31.6994527,30.5129283 C31.8452257,27.1534721 33.4355317,24.4546209 36.2799932,22.5216511 C37.4032668,21.7571598 38.3313594,21.1839684 40.3882329,19.9556852 C41.2970438,19.4129809 41.6937188,19.1745866 42.1791801,18.8772944 C42.5602165,18.6439511 43.0335973,18.619797 43.4364055,18.8131449 C43.5255786,18.855948 43.6172663,18.9027087 43.7110699,18.952823 C44.1259384,19.174465 44.3910393,19.6006091 44.4065034,20.0707175 Z" id="Stroke-40" fill="#003A70" fill-rule="nonzero"></path>
                <path d="M16.8517715,40.0638215 L49.9207715,12.0038215 C50.4751668,11.5334011 50.5432419,10.7026238 50.0728215,10.1482285 C49.6024011,9.59383322 48.7716238,9.52575811 48.2172285,9.99617851 L15.1482285,38.0561785 C14.5938332,38.5265989 14.5257581,39.3573762 14.9961785,39.9117715 C15.4665989,40.4661668 16.2973762,40.5342419 16.8517715,40.0638215 Z" id="Stroke-42" fill="#003A70" fill-rule="nonzero"></path>
            </g>
        </g>
    </g>
</svg>