<?xml version="1.0" encoding="UTF-8"?>
<svg width="100px" height="105px" viewBox="0 0 100 105" version="1.1" xmlns="http://www.w3.org/2000/svg" xmlns:xlink="http://www.w3.org/1999/xlink">
    <!-- Generator: Sketch 45.2 (43514) - http://www.bohemiancoding.com/sketch -->
    <title>icon / low-sat-fat</title>
    <desc>Created with Sketch.</desc>
    <defs></defs>
    <g id="Symbols" stroke="none" stroke-width="1" fill="none" fill-rule="evenodd">
        <g id="icon-/-low-sat-fat">
            <rect id="Rectangle-15" fill="#FFFFFF" x="0" y="0" width="100" height="105"></rect>
            <g id="Page-1" transform="translate(18.000000, 2.000000)">
                <path d="M0,57.8398 C0,57.6788 0.129,57.5328 0.307,57.5328 L2.228,57.5328 C2.39,57.5328 2.535,57.6788 2.535,57.8398 L2.535,66.4608 L6.377,66.4608 C6.555,66.4608 6.684,66.6068 6.684,66.7678 L6.684,68.5278 C6.684,68.6888 6.555,68.8338 6.377,68.8338 L0.307,68.8338 C0.129,68.8338 0,68.6888 0,68.5278 L0,57.8398 Z" id="Fill-1" fill="#003A70"></path>
                <path d="M14.1729,66.4121 C15.9489,66.4121 17.4019,64.9601 17.4019,63.2001 C17.4019,61.4241 15.9489,59.9551 14.1729,59.9551 C12.4129,59.9551 10.9599,61.4241 10.9599,63.2001 C10.9599,64.9601 12.4129,66.4121 14.1729,66.4121 M14.1729,57.3721 C17.4019,57.3721 19.9849,59.9711 19.9849,63.2001 C19.9849,66.4291 17.4019,68.9951 14.1729,68.9951 C10.9439,68.9951 8.3769,66.4291 8.3769,63.2001 C8.3769,59.9711 10.9439,57.3721 14.1729,57.3721" id="Fill-3" fill="#003A70"></path>
                <path d="M21.8872,57.9209 C21.8232,57.6939 21.9522,57.5329 22.1782,57.5329 L24.0672,57.5329 C24.1962,57.5329 24.3252,57.6469 24.3572,57.7599 L25.7452,63.2329 L25.8102,63.2329 L28.3122,57.5499 C28.3612,57.4519 28.4582,57.3719 28.5872,57.3719 L28.8782,57.3719 C29.0232,57.3719 29.1192,57.4519 29.1522,57.5499 L31.6542,63.2329 L31.7192,63.2329 L33.1072,57.7599 C33.1392,57.6469 33.2692,57.5329 33.3982,57.5329 L35.2862,57.5329 C35.5122,57.5329 35.6422,57.6939 35.5772,57.9209 L32.5262,68.7699 C32.4942,68.8989 32.3652,68.9949 32.2362,68.9949 L31.9772,68.9949 C31.8642,68.9949 31.7512,68.9149 31.7022,68.8169 L28.7482,62.2149 L28.7002,62.2149 L25.7622,68.8169 C25.7132,68.9149 25.6002,68.9949 25.4872,68.9949 L25.2292,68.9949 C25.1002,68.9949 24.9702,68.8989 24.9382,68.7699 L21.8872,57.9209 Z" id="Fill-5" fill="#003A70"></path>
                <path d="M42.8062,57.8398 C42.8062,57.6788 42.9522,57.5328 43.1132,57.5328 L45.0502,57.5328 C45.2122,57.5328 45.3572,57.6788 45.3572,57.8398 L45.3572,68.5278 C45.3572,68.6888 45.2122,68.8338 45.0502,68.8338 L43.1132,68.8338 C42.9522,68.8338 42.8062,68.6888 42.8062,68.5278 L42.8062,57.8398 Z" id="Fill-7" fill="#003A70"></path>
                <path d="M49.0688,57.6621 C49.0688,57.5011 49.2148,57.3721 49.3758,57.3721 L49.7788,57.3721 L56.2208,63.5711 L56.2368,63.5711 L56.2368,57.8401 C56.2368,57.6791 56.3658,57.5331 56.5438,57.5331 L58.4808,57.5331 C58.6418,57.5331 58.7878,57.6791 58.7878,57.8401 L58.7878,68.7051 C58.7878,68.8661 58.6418,68.9951 58.4808,68.9951 L58.2228,68.9951 C58.1738,68.9951 58.0448,68.9471 58.0128,68.9151 L51.6358,62.5061 L51.6198,62.5061 L51.6198,68.5271 C51.6198,68.6881 51.4908,68.8341 51.3128,68.8341 L49.3918,68.8341 C49.2308,68.8341 49.0848,68.6881 49.0848,68.5271 L49.0688,57.6621 Z" id="Fill-9" fill="#003A70"></path>
                <path d="M0.5977,84.4424 L1.3567,83.1014 C1.4857,82.8924 1.7927,82.9244 1.9057,83.0054 C1.9697,83.0374 3.1327,83.8924 4.1977,83.8924 C4.8437,83.8924 5.3117,83.4894 5.3117,82.9244 C5.3117,82.2464 4.7467,81.7294 3.6487,81.2944 C2.2607,80.7454 0.5167,79.6634 0.5167,77.7264 C0.5167,76.1284 1.7597,74.5134 4.2457,74.5134 C5.9257,74.5134 7.2167,75.3694 7.7007,75.7244 C7.8947,75.8374 7.8627,76.1284 7.7977,76.2414 L6.9747,77.4844 C6.8617,77.6614 6.5707,77.8064 6.4257,77.6934 C6.2807,77.6134 5.1017,76.7254 4.1167,76.7254 C3.5357,76.7254 3.0997,77.1124 3.0997,77.5484 C3.0997,78.1454 3.5837,78.5974 4.8597,79.1144 C6.1187,79.6154 8.1207,80.5994 8.1207,82.7954 C8.1207,84.4584 6.6837,86.1364 4.3107,86.1364 C2.2117,86.1364 1.0497,85.2654 0.6787,84.8934 C0.5167,84.7324 0.4687,84.6684 0.5977,84.4424" id="Fill-11" fill="#003A70"></path>
                <path d="M16.2393,82.1006 L15.0123,79.4376 L14.9963,79.4376 L13.7853,82.1006 L16.2393,82.1006 Z M9.6043,85.5556 L14.6573,74.6916 C14.7053,74.5936 14.8193,74.5136 14.9313,74.5136 L15.0933,74.5136 C15.2063,74.5136 15.3193,74.5936 15.3673,74.6916 L20.4213,85.5556 C20.5173,85.7656 20.3883,85.9756 20.1463,85.9756 L18.3543,85.9756 C18.0643,85.9756 17.9343,85.8786 17.7893,85.5726 L17.2083,84.2966 L12.8173,84.2966 L12.2363,85.5876 C12.1553,85.7826 11.9773,85.9756 11.6553,85.9756 L9.8793,85.9756 C9.6363,85.9756 9.5073,85.7656 9.6043,85.5556 L9.6043,85.5556 Z" id="Fill-13" fill="#003A70"></path>
                <path d="M23.583,77.0478 L21.274,77.0478 C21.097,77.0478 20.968,76.9018 20.968,76.7408 L20.968,74.9818 C20.968,74.8198 21.097,74.6748 21.274,74.6748 L28.442,74.6748 C28.62,74.6748 28.749,74.8198 28.749,74.9818 L28.749,76.7408 C28.749,76.9018 28.62,77.0478 28.442,77.0478 L26.134,77.0478 L26.134,85.6688 C26.134,85.8298 25.988,85.9758 25.827,85.9758 L23.89,85.9758 C23.729,85.9758 23.583,85.8298 23.583,85.6688 L23.583,77.0478 Z" id="Fill-15" fill="#003A70"></path>
                <path d="M35.8662,74.9814 C35.8662,74.8204 35.9952,74.6744 36.1732,74.6744 L42.8562,74.6744 C43.0342,74.6744 43.1632,74.8204 43.1632,74.9814 L43.1632,76.7414 C43.1632,76.9024 43.0342,77.0474 42.8562,77.0474 L38.3852,77.0474 L38.3852,79.3734 L42.0652,79.3734 C42.2272,79.3734 42.3722,79.5184 42.3722,79.6794 L42.3722,81.4394 C42.3722,81.6004 42.2272,81.7464 42.0652,81.7464 L38.3852,81.7464 L38.3852,85.6694 C38.3852,85.8304 38.2402,85.9754 38.0782,85.9754 L36.1732,85.9754 C35.9952,85.9754 35.8662,85.8304 35.8662,85.6694 L35.8662,74.9814 Z" id="Fill-17" fill="#003A70"></path>
                <path d="M50.6846,82.1006 L49.4576,79.4376 L49.4416,79.4376 L48.2306,82.1006 L50.6846,82.1006 Z M44.0496,85.5556 L49.1026,74.6916 C49.1506,74.5936 49.2646,74.5136 49.3766,74.5136 L49.5386,74.5136 C49.6516,74.5136 49.7646,74.5936 49.8126,74.6916 L54.8666,85.5556 C54.9626,85.7656 54.8336,85.9756 54.5916,85.9756 L52.7996,85.9756 C52.5096,85.9756 52.3796,85.8786 52.2346,85.5726 L51.6536,84.2966 L47.2626,84.2966 L46.6816,85.5876 C46.6006,85.7826 46.4226,85.9756 46.1006,85.9756 L44.3246,85.9756 C44.0816,85.9756 43.9526,85.7656 44.0496,85.5556 L44.0496,85.5556 Z" id="Fill-19" fill="#003A70"></path>
                <path d="M58.0288,77.0478 L55.7198,77.0478 C55.5428,77.0478 55.4138,76.9018 55.4138,76.7408 L55.4138,74.9818 C55.4138,74.8198 55.5428,74.6748 55.7198,74.6748 L62.8878,74.6748 C63.0658,74.6748 63.1948,74.8198 63.1948,74.9818 L63.1948,76.7408 C63.1948,76.9018 63.0658,77.0478 62.8878,77.0478 L60.5798,77.0478 L60.5798,85.6688 C60.5798,85.8298 60.4338,85.9758 60.2728,85.9758 L58.3358,85.9758 C58.1748,85.9758 58.0288,85.8298 58.0288,85.6688 L58.0288,77.0478 Z" id="Fill-21" fill="#003A70"></path>
                <path d="M15.2949528,5.45902319 C15.9983998,4.37383017 17.6833933,5.04828874 17.4437772,6.3191411 C17.2420838,7.38886318 17.2970427,8.39549059 17.5161918,9.15338428 C20.1597279,18.3387983 26.3145177,24.3808195 34.9810674,27.8819069 C38.7425441,29.4014573 42.7775301,30.3533233 46.8696366,30.8421647 C49.6045128,31.1688718 51.9713258,31.2493991 53.7538819,31.1935424 C53.9206985,31.1883152 54.0319613,31.1832379 54.0840862,31.1801561 C54.8173715,31.1368022 55.4114906,31.7670325 55.3249943,32.4964879 C55.086215,34.510204 54.7510663,36.330202 54.3434582,37.9580734 C53.8182984,40.0554127 53.2834575,41.4653816 52.9080766,42.2001904 C52.693891,42.6194591 52.2508856,42.8711955 51.7810706,42.8406082 C38.0223176,41.9448418 28.0890457,38.3369768 21.39554,32.8505875 C18.6287128,30.5827338 16.606099,28.1413312 15.214546,25.6889374 C14.3647052,24.1912263 13.9115787,23.0018273 13.7199766,22.193871 C12.755112,16.3540135 13.0643166,11.6617327 14.1816045,8.072615 C14.5806851,6.79062893 14.9934374,5.92416484 15.2949528,5.45902319 Z M16.0303363,21.7251122 C16.0562937,21.8327615 16.1308295,22.0760333 16.267824,22.4356264 C16.505724,23.0600833 16.8339024,23.7627796 17.2662594,24.524741 C18.5176984,26.7302059 20.3539523,28.9466622 22.8909613,31.0261434 C29.0530359,36.0769407 38.25292,39.4771817 51.1066986,40.4290249 C51.1283435,40.3736378 51.1508345,40.3152519 51.174121,40.253863 C51.4723138,39.4677553 51.7729062,38.5121025 52.055104,37.3850848 C52.3460972,36.2229401 52.5988512,34.9511113 52.8030105,33.5686562 C51.0713884,33.5742212 48.9602635,33.4676826 46.589821,33.1845105 C42.303327,32.6724477 38.0688548,31.6735222 34.0974629,30.069171 C25.3522774,26.5363165 18.9130804,20.5149271 15.7990596,11.5411241 C15.3581226,14.3477885 15.3748831,17.7438015 16.0303363,21.7251122 Z" id="Stroke-23" fill="#003A70" fill-rule="nonzero"></path>
                <path d="M18.4597612,11.5624158 L18.1425067,10.7640102 C18.2410219,11.0214902 18.3468885,11.2879785 18.4597612,11.5624158 Z M18.1425067,10.7640102 L18.4597612,11.5624158 C19.7348095,8.38913306 23.2273527,6.18465413 27.2722068,6.65012127 C28.5790964,6.80137701 29.783883,7.36710233 30.9887324,8.24404045 C31.3761891,8.52604711 31.5852775,8.69510246 32.1172247,9.14705672 C32.6492888,8.69518352 32.8587037,8.5259307 33.2463628,8.24389822 C34.4516347,7.36703038 35.656824,6.80135162 36.9647065,6.65003893 C41.0077926,6.18459775 44.4998719,8.38869711 45.7752661,11.5613997 C46.6362429,9.46726285 47.0892571,7.83593965 46.9807842,7.13694704 C46.7713494,5.7740308 45.1313145,3.68600057 42.948205,2.49872831 C40.0669131,0.931753265 36.5693443,0.908961475 32.6402466,2.9306097 C32.2458088,3.13356075 31.7845882,3.09383101 31.4363157,2.85667277 C27.5554608,0.895434701 24.1088467,0.935739184 21.2686713,2.49032489 C19.0964812,3.67928516 17.4649396,5.76934054 17.2531487,7.13867728 C17.159086,7.74480453 17.4891023,9.056268 18.1425067,10.7640102 Z M32.1117743,0.560261374 C36.5239089,-1.53863978 40.6464544,-1.4383575 44.075245,0.426371688 C46.869616,1.94607526 48.9833451,4.63719505 49.3121487,6.77692272 C49.5298514,8.17976948 48.8740215,10.3750819 47.607034,13.2849224 C46.8060387,15.1245366 45.7397641,17.2355718 45.2101071,18.1459488 C44.4253692,19.4947602 42.3983272,18.3364352 43.1619901,16.9755808 C45.5220814,12.7698764 41.9810763,8.44713315 37.2351557,8.99348464 C36.3964017,9.09052262 35.5398994,9.49253848 34.6341771,10.1514759 C34.7888462,10.0389499 32.7399572,11.7833 32.1196,11.7833 C31.494068,11.7833 29.445241,10.0383101 29.6005273,10.1513337 C28.6952751,9.49245454 27.8392525,9.09049652 27.0017574,8.99356692 C22.2538825,8.44719887 18.7136223,12.7693932 21.0732907,16.975725 C21.8367095,18.336591 19.8097758,19.4946657 19.0250929,18.1459488 C18.4950474,17.2349039 17.4288208,15.1244268 16.6277106,13.2850248 C15.3603608,10.3751057 14.7043404,8.17982248 14.9219597,6.7775143 C15.2532485,4.63556065 17.3548847,1.94329963 20.1360287,0.421025111 C23.5618417,-1.45411259 27.6879151,-1.55383477 32.1117743,0.560261374 Z" id="Stroke-25" fill="#003A70" fill-rule="nonzero"></path>
                <path d="M47.9561,6.1006 C47.9561,6.1006 51.1671,11.0526 49.3591,22.0016 C49.3591,22.0016 45.5791,39.1626 12.3831,41.6626 C12.3831,41.6626 10.8301,38.6226 10.0881,32.3586 C10.0881,32.3586 40.7521,34.1706 47.8611,9.4796 C48.0761,8.7326 48.2291,7.5326 47.9561,6.1006" id="Fill-27" fill="#FFFFFF"></path>
                <path d="M30.146104,30.0688371 C26.1741346,31.6737102 21.9390381,32.6729859 17.651937,33.1852638 C15.2813712,33.4685295 13.1702011,33.575132 11.4386331,33.5696142 C11.6427712,34.9528481 11.8956288,36.2253285 12.1868159,37.3879914 C12.4687642,38.513765 12.7690904,39.4684128 13.0670182,40.2537346 C13.0890455,40.3117973 13.1103602,40.3671711 13.1309197,40.4198595 C25.9975269,39.3401124 35.1822097,35.9745737 41.3022949,31.0633396 C43.9032984,28.9760912 45.7611384,26.7532382 47.0038891,24.5428211 C47.4326364,23.7802303 47.7538485,23.0773698 47.9828063,22.4532008 C48.1142786,22.0947899 48.1840059,21.8532334 48.1953595,21.8094324 C48.8627893,17.7675695 48.8827114,14.3563434 48.4427757,11.546001 C45.3268026,20.5170092 38.8886442,26.5364163 30.146104,30.0688371 Z M48.9457559,5.45888247 C49.2474639,5.92417607 49.6604906,6.79094972 50.059841,8.07341222 C51.1774537,11.6624824 51.4870792,16.3544702 50.5109876,22.2553227 C50.3495457,22.9882602 49.9090898,24.1890008 49.0601778,25.6989171 C47.6723339,28.1674038 45.6195896,30.6234545 42.7787288,32.9031829 C36.1344913,38.235038 26.2306199,41.8025795 12.4716776,42.8387693 C11.9978561,42.8744529 11.5488896,42.6223362 11.3327234,42.1991904 C10.9576373,41.4649587 10.4232264,40.05628 9.89849146,37.9610987 C9.49065514,36.3326746 9.15542798,34.5119491 8.916789,32.4973472 C8.83038886,31.7679531 9.42446319,31.1378268 10.1576778,31.181154 C10.2097452,31.1842307 10.3208938,31.1893001 10.4875446,31.1945193 C12.2700012,31.2503421 14.6369201,31.1697549 17.3720445,30.8429271 C21.4647373,30.3538796 25.500327,29.4016778 29.2623629,27.8816282 C37.9283266,24.3801481 44.0831532,18.3381135 46.7276145,9.15336254 C46.946504,8.39284874 47.0008967,7.38855852 46.7974671,6.32148463 C46.5550494,5.04990183 48.2414803,4.37274946 48.9457559,5.45888247 Z" id="Stroke-29" fill="#003A70" fill-rule="nonzero"></path>
                <path d="M16.2783,36.5664 C16.2783,37.1424 15.8123,37.6064 15.2373,37.6064 C14.6623,37.6064 14.1983,37.1424 14.1983,36.5664 C14.1983,35.9934 14.6623,35.5284 15.2373,35.5284 C15.8123,35.5284 16.2783,35.9934 16.2783,36.5664" id="Fill-31" fill="#003A70"></path>
                <path d="M15.8853,36.5664 C15.8853,36.2105636 15.5953668,35.9214 15.2373,35.9214 C14.8798479,35.9214 14.5913,36.2099479 14.5913,36.5664 C14.5913,36.9252562 14.8792522,37.2134 15.2373,37.2134 C15.5959644,37.2134 15.8853,36.9246404 15.8853,36.5664 Z M16.6713,36.5664 C16.6713,37.3590872 16.02971,37.9994 15.2373,37.9994 C14.4450393,37.9994 13.8053,37.3592351 13.8053,36.5664 C13.8053,35.7758521 14.4457521,35.1354 15.2373,35.1354 C16.0289957,35.1354 16.6713,35.7759995 16.6713,36.5664 Z" id="Stroke-33" fill="#003A70" fill-rule="nonzero"></path>
                <path d="M18.2935199,32.9560682 L19.1975199,36.6100682 C19.3539646,37.2424232 19.9934132,37.6282248 20.6257682,37.4717801 C21.2581232,37.3153354 21.6439248,36.6758868 21.4874801,36.0435318 L20.5834801,32.3895318 C20.4270354,31.7571768 19.7875868,31.3713752 19.1552318,31.5278199 C18.5228768,31.6842646 18.1370752,32.3237132 18.2935199,32.9560682 Z M23.4621996,31.4889071 L24.1421996,33.7689071 C24.3283787,34.3931548 24.9853595,34.7482795 25.6096071,34.5621004 C26.2338548,34.3759213 26.5889795,33.7189405 26.4028004,33.0946929 L25.7228004,30.8146929 C25.5366213,30.1904452 24.8796405,29.8353205 24.2553929,30.0214996 C23.6311452,30.2076787 23.2760205,30.8646595 23.4621996,31.4889071 Z M28.5128088,29.5505353 L29.5368088,32.8905353 C29.7277531,33.5133419 30.3874286,33.8634355 31.0102353,33.6724912 C31.6330419,33.4815469 31.9831355,32.8218714 31.7921912,32.1990647 L30.7681912,28.8590647 C30.5772469,28.2362581 29.9175714,27.8861645 29.2947647,28.0771088 C28.6719581,28.2680531 28.3218645,28.9277286 28.5128088,29.5505353 Z" id="Stroke-35" fill="#003A70" fill-rule="nonzero"></path>
            </g>
        </g>
    </g>
</svg>