<?xml version="1.0" encoding="UTF-8"?>
<svg width="232px" height="119px" viewBox="0 0 232 119" version="1.1" xmlns="http://www.w3.org/2000/svg" xmlns:xlink="http://www.w3.org/1999/xlink">
    <!-- Generator: Sketch 45.1 (43504) - http://www.bohemiancoding.com/sketch -->
    <title>logo</title>
    <desc>Created with Sketch.</desc>
    <defs>
        <polygon id="path-1" points="0.0185256919 118.618271 0.0185256919 0.306914945 231.811448 0.306914945 231.811448 118.618271"></polygon>
    </defs>
    <g id="Round-2" stroke="none" stroke-width="1" fill="none" fill-rule="evenodd">
        <g id="Full-Design_02" transform="translate(-169.000000, -19.000000)">
            <g id="nav-new" transform="translate(150.000000, 0.000000)">
                <g id="Group">
                    <g id="logo" transform="translate(19.000000, 19.000000)">
                        <g id="Group-3">
                            <mask id="mask-2" fill="white">
                                <use xlink:href="#path-1"></use>
                            </mask>
                            <g id="Clip-2"></g>
                            <path d="M231.217802,0.30670757 L222.679929,0.30670757 C222.391339,0.311684569 222.208141,0.342376063 222.072698,0.476340289 C221.980892,0.565926273 221.901438,0.656341756 221.868092,0.895237713 C221.865621,0.91265721 221.860681,0.924270208 221.857388,0.943348705 C221.453528,4.15890487 220.202426,8.30350088 218.049329,11.0885466 C215.983097,13.7636836 213.327748,15.7826863 210.372694,17.1136188 C210.226547,22.4867041 207.696349,27.8672548 202.940186,31.7206964 C196.441374,36.9842877 187.643728,37.894249 180.689184,34.6762044 C176.117043,38.4350829 169.954574,40.6427968 163.251979,40.4121958 C152.024586,40.0285521 142.822258,32.9346694 140.277651,23.6036256 C133.713381,22.6584105 127.640247,19.0940497 123.927698,13.320316 C121.633806,9.75222236 120.538732,4.81545401 120.532145,0.905606461 C120.529675,0.898970463 120.529675,0.896896713 120.526793,0.895237713 C120.495917,0.656341756 120.415227,0.565926273 120.324657,0.476340289 C120.188802,0.342376063 120.006839,0.311684569 119.717426,0.30670757 L0.594757047,0.30670757 C0.266646459,0.30670757 -0.000123504613,0.558875524 -0.000123504613,0.875329717 L-0.000123504613,118.052138 C-0.000123504613,118.364859 0.266646459,118.618271 0.594757047,118.618271 L231.217802,118.618271 C231.543031,118.618271 231.811448,118.365274 231.811448,118.052552 L231.811448,0.877818216 C231.811448,0.558875524 231.543031,0.30670757 231.217802,0.30670757" id="Fill-1" fill="#49A1DF" mask="url(#mask-2)"></path>
                        </g>
                        <g id="Group-20" transform="translate(8.252964, 43.938462)" fill="#FFFFFF">
                            <path d="M134.633963,0.159935221 C129.876077,0.159935221 126.149449,3.58029564 126.149449,7.94565361 C126.149449,12.4408212 129.79697,15.8277087 134.633963,15.8277087 C139.442675,15.8277087 143.21439,12.3669358 143.21439,7.94565361 C143.21439,3.50559389 139.52711,0.159935221 134.633963,0.159935221" id="Fill-4"></path>
                            <path d="M48.1458923,38.1639807 C48.1458923,35.2081591 47.751178,29.039754 41.4890321,29.8900476 C38.9932731,30.2296753 36.0503351,30.4296963 33.4812075,31.5240974 C30.8448597,32.6478893 29.3069901,34.7730112 30.3579223,37.7304657 C31.8810362,42.0109167 35.3621466,40.9430491 37.5718094,40.495655 C38.0161193,45.6210931 36.6217077,53.6517352 27.8912648,53.6517352 C18.1119391,53.6517352 11.3817104,45.7721294 11.3817104,33.3740882 C11.3817104,15.1729866 24.2712051,11.5575036 29.4787298,11.5575036 C33.4598938,11.5575036 35.8548223,12.7584465 37.5607427,13.5920037 C40.8344538,15.1929887 43.6507389,11.8950902 41.2287583,8.79313066 C39.1523065,6.13244213 34.107914,3.77994934 27.4469549,3.77994934 C16.8327038,3.77994934 0.0936165802,12.522095 0.0936165802,33.7275949 C0.0936165802,53.1422938 14.4291678,61.8117788 24.1293866,61.8117788 C34.70183,61.8117788 38.6333985,57.1308774 38.6333985,57.1308774 C38.6333985,57.7717612 38.5145333,59.5352123 38.9965521,61.1361974 C40.3819464,65.7407642 44.5147659,65.2276489 46.2276542,61.2896829 C48.9644226,54.9963667 48.1458923,40.4434046 48.1458923,38.1639807" id="Fill-6"></path>
                            <path d="M209.784919,24.9032773 C211.415012,27.1108568 209.581619,29.3070066 207.901111,29.3070066 C207.266207,29.3070066 205.89065,28.6440796 203.332999,28.6440796 C201.106121,28.6440796 199.065739,30.4009994 199.065739,32.9188158 C199.065739,37.9128114 208.529867,41.0021165 208.529867,51.105222 C208.529867,62.2178216 192.877371,63.4963236 188.411729,57.4389506 C186.972641,55.4905821 188.417877,53.2140156 190.290619,53.2140156 C191.026353,53.2140156 194.582472,54.0618601 195.638323,54.0618601 C197.430318,54.0618601 199.895336,52.8213212 199.895336,49.7712039 C199.895336,45.0813219 190.432028,41.6870867 190.432028,31.698279 C190.432028,20.6697699 205.776293,19.4859717 209.784919,24.9032773" id="Fill-8"></path>
                            <path d="M153.270713,21.7512308 C146.703616,21.7512308 146.198234,35.2440812 146.198234,42.9301973 C146.198234,52.8589986 148.693583,62.1889614 156.867409,62.1889614 C169.215043,62.1889614 176.714616,39.5947438 176.714616,39.5947438 C176.514595,49.0271663 176.210874,57.0643397 180.550273,57.0643397 C184.783513,57.0643397 184.11049,48.7071326 184.11049,43.0816418 C184.11049,28.5335782 183.112023,22.1982167 178.519318,22.1982167 C175.664094,22.1982167 174.758259,24.1073975 174.148768,25.153222 C172.22766,28.4445892 165.404389,54.0709631 157.671184,54.0709631 C153.941686,54.0709631 157.402303,40.3891132 157.402303,32.4470518 C157.402303,31.0171052 158.016303,21.7512308 153.270713,21.7512308" id="Fill-10"></path>
                            <path d="M88.0945956,24.0525754 C87.0932589,26.1793301 85.8459942,34.2977366 85.6340863,41.7066806 C85.208221,56.620497 87.8125982,58.569682 90.5460876,58.569682 C96.1790677,58.569682 99.0281432,50.7798816 102.039531,44.3265485 C104.256982,39.576252 106.92489,35.6346122 108.583265,35.6346122 C112.656652,35.6346122 112.306614,53.1691129 116.632897,59.6220378 C120.315668,65.1164944 127.198372,63.4399912 123.9968,53.3401514 C123.676684,52.3314737 122.397858,48.3886092 121.089522,43.8787462 C119.236864,37.496441 117.174758,29.9523807 116.059885,27.8550169 C114.36831,24.6669258 112.381212,23.4570024 110.356815,23.4570024 C107.194591,23.4570024 103.159733,26.6471345 100.481987,30.615716 C97.0738356,35.6611456 93.8349643,42.0430426 93.8349643,42.0430426 C94.2427948,37.0959907 94.5850446,30.9916739 94.5850446,26.1683085 C94.5850446,20.9840888 90.1444052,19.7157919 88.0945956,24.0525754" id="Fill-12"></path>
                            <path d="M130.79015,26.878914 C130.084747,31.0279227 129.408445,38.3621649 129.408445,42.0666369 C129.408445,49.198817 129.587563,52.382826 129.747006,55.3500775 C130.181479,63.4415423 139.66815,62.8276001 139.833741,56.1877167 C139.886206,54.0723918 139.931703,53.0808587 139.931703,49.9597135 C139.931703,39.7545565 138.615578,29.698803 138.286035,27.3238589 C137.331834,20.443542 131.787388,21.0182965 130.79015,26.878914" id="Fill-14"></path>
                            <path d="M62.4318481,44.0582753 C62.4318481,44.0582753 61.8186677,43.1410358 61.8186677,40.578725 C61.8186677,36.1219288 65.1591892,29.150582 69.0341943,29.150582 C69.3543105,29.150582 71.2975514,28.9130059 71.2975514,31.6451305 C71.2975514,34.3780716 62.4318481,44.0582753 62.4318481,44.0582753 M78.1318896,53.0224852 C76.0312549,53.2225063 74.620858,53.7176605 71.7430909,53.7176605 C66.9097865,53.7176605 65.7256433,50.7851066 65.7256433,50.7851066 C65.7256433,50.7851066 80.0374215,40.0790805 80.0374215,30.516032 C80.0374215,25.0848474 75.7660626,21.2456674 70.8356167,21.2456674 C61.185813,21.2456674 53.3841581,30.7985107 53.3841581,42.6707822 C53.3841581,51.7158169 59.0577163,61.1466066 70.5827207,61.1466066 C83.4152422,61.1466066 82.9471592,52.564886 78.1318896,53.0224852" id="Fill-16"></path>
                            <path d="M214.296796,55.7009308 L213.73444,55.7009308 L213.73444,56.637356 L214.296796,56.637356 C214.595598,56.637356 214.79316,56.4222313 214.79316,56.1699598 C214.79316,55.9189129 214.595598,55.7009308 214.296796,55.7009308 L214.296796,55.7009308 Z M214.774716,58.6338929 L214.118908,57.2415013 L213.73444,57.2415013 L213.73444,58.6338929 L212.929846,58.6338929 L212.929846,55.0396366 L214.400085,55.0396366 C215.130492,55.0396366 215.599394,55.5715294 215.599394,56.1699598 C215.599394,56.6659304 215.280508,56.9818821 214.935389,57.1235296 L215.694486,58.6338929 L214.774716,58.6338929 Z M214.164814,54.2175091 C212.704412,54.2175091 211.579702,55.3384436 211.579702,56.8430919 C211.579702,58.345291 212.704412,59.4662255 214.164814,59.4662255 C215.628086,59.4662255 216.753616,58.345291 216.753616,56.8430919 C216.753616,55.3384436 215.628086,54.2175091 214.164814,54.2175091 L214.164814,54.2175091 Z M214.164814,60.2214071 C212.290843,60.2214071 210.770598,58.709411 210.770598,56.8430919 C210.770598,54.9739154 212.290843,53.4619193 214.164814,53.4619193 C216.042065,53.4619193 217.55944,54.9739154 217.55944,56.8430919 C217.55944,58.709411 216.042065,60.2214071 214.164814,60.2214071 L214.164814,60.2214071 Z" id="Fill-18"></path>
                        </g>
                    </g>
                </g>
            </g>
        </g>
    </g>
</svg>