<?xml version="1.0" encoding="UTF-8"?>
<svg width="1140px" height="770px" viewBox="0 0 1140 770" version="1.1" xmlns="http://www.w3.org/2000/svg" xmlns:xlink="http://www.w3.org/1999/xlink">
    <!-- Generator: Sketch 45.1 (43504) - http://www.bohemiancoding.com/sketch -->
    <title>Mask</title>
    <desc>Created with Sketch.</desc>
    <defs>
        <path d="M738.238111,623.142103 C697.605531,616.727068 665.519143,584.625528 659.151643,544 L0,544 L0,0 L1140,0 L1140,544 L1064.84505,544 C1059.24425,567.145269 1043.17383,586.206033 1021.92534,595.893891 C1017.8925,639.674789 981.045479,673.958864 936.186235,673.958864 C923.129612,673.958864 910.751741,671.054506 899.664158,665.856963 C881.943387,681.214159 858.818788,690.507751 833.522267,690.507751 C789.51772,690.507751 752.085481,662.385043 738.238111,623.142103 Z M758.133301,706.482061 C777.901082,706.482061 792.797293,720.045529 792.797293,738.045754 C792.797293,755.969853 777.559973,770 758.133301,770 C738.592374,770 723.856783,756.269388 723.856783,738.045754 C723.856783,720.348374 738.911957,706.482061 758.133301,706.482061 Z" id="path-1"></path>
    </defs>
    <g id="Round-2" stroke="none" stroke-width="1" fill="none" fill-rule="evenodd">
        <g id="Full-Design_02" transform="translate(-150.000000, -3295.000000)">
            <g id="hero" transform="translate(150.000000, 3295.000000)">
                <g id="Image-2">
                    <mask id="mask-2" fill="white">
                        <use xlink:href="#path-1"></use>
                    </mask>
                    <use id="Mask" fill="#000000" xlink:href="#path-1"></use>
                </g>
            </g>
        </g>
    </g>
</svg>