<?xml version="1.0" encoding="UTF-8"?>
<svg width="55px" height="54px" viewBox="0 0 55 54" version="1.1" xmlns="http://www.w3.org/2000/svg" xmlns:xlink="http://www.w3.org/1999/xlink">
    <!-- Generator: Sketch 45.1 (43504) - http://www.bohemiancoding.com/sketch -->
    <title>quote-open</title>
    <desc>Created with Sketch.</desc>
    <defs></defs>
    <g id="Round-2" stroke="none" stroke-width="1" fill="none" fill-rule="evenodd" opacity="0.4">
        <g id="Full-Design_02" transform="translate(-260.000000, -5265.000000)" fill="#12366F">
            <g id="meet-lucinda" transform="translate(0.000000, 5080.000000)">
                <g id="lucinda-content" transform="translate(150.000000, 0.000000)">
                    <g id="meet-lucinda-quote" transform="translate(97.000000, 0.000000)">
                        <g id="Group-5">
                            <path d="M23.072,238.528 C30.272,238.528 31.424,229.024 31.424,222.4 C31.424,195.904 40.064,199.36 40.064,190.144 C40.064,186.688 38.048,185.248 35.456,185.248 C27.968,185.248 13.568,197.632 13.568,214.336 C13.568,238.24 20.192,238.528 23.072,238.528 Z M51.008,238.528 C58.208,238.528 59.072,229.024 59.072,222.4 C59.072,195.904 68,199.36 68,190.144 C68,186.688 65.984,185.248 63.392,185.248 C55.904,185.248 41.504,197.632 41.504,214.336 C41.504,238.24 48.128,238.528 51.008,238.528 Z" id="quote-open"></path>
                        </g>
                    </g>
                </g>
            </g>
        </g>
    </g>
</svg>