
<svg width="129px" height="50px" viewBox="0 0 129 50" version="1.1" xmlns="http://www.w3.org/2000/svg" xmlns:xlink="http://www.w3.org/1999/xlink">
    <g id="Page-1" stroke="none" stroke-width="1" fill="none" fill-rule="evenodd">
        <g id="Desktop" transform="translate(-564.000000, -815.000000)">
            <g id="1">
                <g id="Group-3" transform="translate(564.000000, 816.000000)">
                    <g id="Group-11-Copy" transform="translate(104.500000, 24.000000) scale(-1, 1) rotate(-270.000000) translate(-104.500000, -24.000000) translate(96.000000, 18.000000)" stroke="#ffffff" stroke-width="2">
                        <g id="Group-5-Copy" transform="translate(-0.000000, 0.000000)">
                            <polyline id="Stroke-1" points="11 0 17 6 11 12"></polyline>
                            <path d="M16,6 L0,6" id="Stroke-3"></path>
                        </g>
                    </g>
                    <path d="M9.125,22.75 L6.55,22.75 L6.55,22.4 C6.55,20.475 5.875,19.5 4.6,19.5 C3.9,19.5 3.35,19.8 3.075,20.325 C2.75,20.875 2.675,21.375 2.675,22.725 L2.675,28.275 C2.675,29.55 2.75,30.2 2.95,30.75 C3.2,31.4 3.85,31.825 4.6,31.825 C5.55,31.825 6.175,31.275 6.45,30.175 C6.55,29.75 6.575,29.375 6.6,28.15 L9.2,28.15 L9.2,28.725 C9.2,32.35 7.625,34.25 4.625,34.25 C2.95,34.25 1.625,33.6 0.9,32.4 C0.275,31.375 0.1,30.4 0.1,27.925 L0.1,23.25 C0.1,20.6 0.3,19.675 1.075,18.625 C1.8,17.625 3.05,17.075 4.6,17.075 C7.45,17.075 9.125,18.975 9.125,22.25 L9.125,22.75 Z M14.4291667,27.15 L14.4291667,34 L11.8541667,34 L11.8541667,17.325 L15.8791667,17.325 C17.4041667,17.325 18.3791667,17.625 19.1791667,18.325 C20.1791667,19.175 20.6791667,20.45 20.6791667,22.1 C20.6791667,24.2 19.9291667,25.65 18.4291667,26.425 L20.8791667,34 L18.1791667,34 L15.9791667,27.15 L14.4291667,27.15 Z M14.4291667,24.775 L15.3791667,24.775 C16.4791667,24.775 16.9791667,24.65 17.3791667,24.25 C17.8041667,23.825 18.0041667,23.15 18.0041667,22.225 C18.0041667,21.325 17.8041667,20.65 17.3791667,20.225 C16.9791667,19.825 16.4791667,19.7 15.3791667,19.7 L14.4291667,19.7 L14.4291667,24.775 Z M30.9583334,17.325 L30.9583334,19.7 L25.9833334,19.7 L25.9833334,24.1 L29.6583334,24.1 L29.6583334,26.475 L25.9833334,26.475 L25.9833334,31.625 L30.9583334,31.625 L30.9583334,34 L23.4083334,34 L23.4083334,17.325 L30.9583334,17.325 Z M33.2125001,34 L33.2125001,17.325 L37.2875001,17.325 C40.5625001,17.325 42.1125001,19 42.1125001,22.55 L42.1125001,28.775 C42.1125001,32.325 40.5625001,34 37.2875001,34 L33.2125001,34 Z M35.7875001,31.625 L37.0625001,31.625 C38.8875001,31.625 39.5375001,30.675 39.5375001,28.075 L39.5375001,23.25 C39.5375001,20.625 38.8875001,19.7 37.0625001,19.7 L35.7875001,19.7 L35.7875001,31.625 Z M47.5166668,17.325 L47.5166668,34 L44.9416668,34 L44.9416668,17.325 L47.5166668,17.325 Z M55.5958335,19.7 L55.5958335,34 L53.0208335,34 L53.0208335,19.7 L49.7958335,19.7 L49.7958335,17.325 L58.8458335,17.325 L58.8458335,19.7 L55.5958335,19.7 Z M69.9000002,21.25 L67.4250002,21.975 C67.0250002,20.325 66.2750002,19.5 65.2250002,19.5 C64.2750002,19.5 63.5500002,20.225 63.5500002,21.2 C63.5500002,21.775 63.8000002,22.4 64.2500002,22.875 C64.6750002,23.35 64.6750002,23.35 66.4500002,24.7 C67.8500002,25.8 68.3750002,26.275 68.9250002,26.95 C69.6000002,27.775 70.0000002,28.875 70.0000002,30 C70.0000002,32.525 68.1500002,34.25 65.4250002,34.25 C62.5750002,34.25 60.9000002,32.725 60.3750002,29.55 L62.8500002,28.825 C63.1750002,30.825 64.0500002,31.825 65.4250002,31.825 C66.5500002,31.825 67.3250002,31.05 67.3250002,29.925 C67.3250002,28.875 66.8000002,28.2 64.8500002,26.675 C62.5250002,24.85 62.4250002,24.75 61.8000002,23.95 C61.2000002,23.175 60.8750002,22.2 60.8750002,21.175 C60.8750002,18.775 62.6750002,17.075 65.2250002,17.075 C67.6000002,17.075 69.2000002,18.5 69.9000002,21.25 Z" id="CREDITS" fill="#ffffff"></path>
                    <circle id="Oval-7" stroke="#ffffff" stroke-width="2" cx="104" cy="24" r="24"></circle>
                </g>
            </g>
        </g>
    </g>
</svg>