<svg viewBox="0 0 469 139" version="1.1" xmlns="http://www.w3.org/2000/svg" xmlns:xlink="http://www.w3.org/1999/xlink">

    <defs>
        <polygon id="path-1" points="0 0.713645975 74.6586928 0.713645975 74.6586928 97.9677548 0 97.9677548"></polygon>
        <polygon id="path-3" points="0.0372197743 0.568230659 13.8902024 0.568230659 13.8902024 29 0.0372197743 29"></polygon>
    </defs>
    <g id="Page-1" stroke="none" stroke-width="1" fill="none" fill-rule="evenodd">
        <g id="Desktop" transform="translate(-394.000000, -46.000000)">
            <g id="1" transform="translate(0.000000, 9.000000)">
                <g id="Group-71" transform="translate(394.000000, 37.000000)">
                    <g id="Group-3" transform="translate(0.000000, 1.500000)">
                        <mask id="mask-2" fill="white">
                            <use xlink:href="#path-1"></use>
                        </mask>
                        <g id="Clip-2"></g>
                        <path d="M52.4954167,52.1808572 C54.3839583,38.3752124 56.2297917,24.8976975 58.0714583,11.4180791 C58.5089583,8.21460582 58.9735417,5.01323591 59.3391667,1.80134901 C59.435,0.958938596 59.781875,0.726513251 60.5152083,0.729668346 C64.9735417,0.751754013 69.4308333,0.778046473 73.8891667,0.767529489 C74.9204167,0.764374393 74.6454167,1.42378929 74.5641667,1.96120717 C74.0485417,5.36345147 73.5089583,8.76254069 72.9829167,12.1637333 C71.525625,21.579589 70.0777083,30.9964965 68.6141667,40.4113005 C67.156875,49.7850883 65.6766667,59.1546693 64.2225,68.5295088 C62.8454167,77.4068949 61.51625,86.2926947 60.106875,95.1648223 C59.59125,98.4093119 60.41625,97.9265823 57.056875,97.9507714 C53.64125,97.972857 50.2245833,97.8971348 46.8089583,97.9265823 C45.9995833,97.9339442 45.7360417,97.6384169 45.6204167,96.8759356 C43.79125,84.8003346 41.9422917,72.7257854 40.088125,60.6522878 C39.3485417,55.8397159 38.5870833,51.0313509 37.8329167,46.2219341 C37.81625,46.117816 37.7558333,46.0210597 37.6370833,45.7213257 C37.1079167,47.2399782 37.0891667,48.6608227 36.8870833,50.0343408 C35.131875,61.9553421 33.4089583,73.8816019 31.6839583,85.80681 C31.1485417,89.5045816 30.6172917,93.2034048 30.1245833,96.9074866 C30.0297917,97.6247449 29.7954167,97.9234272 29.038125,97.9213238 C24.9975,97.9076517 20.9558333,97.9318408 16.9152083,97.9675985 C16.263125,97.9739087 15.9683333,97.7909132 15.85375,97.0831202 C14.4558333,88.4686586 13.0308333,79.8584039 11.5985417,71.2502525 C10.31,63.5076489 8.99854167,55.7682004 7.71,48.0255969 C6.09020833,38.2942316 4.48291667,28.5618147 2.8725,18.8304494 C1.93395833,13.1596917 1.02041667,7.48367544 0.0475,1.81922788 C-0.099375,0.965248787 0.0641666667,0.704427585 0.931875,0.71389287 C5.3475,0.762270997 9.76416667,0.784356663 14.1797917,0.762270997 C14.95375,0.759115901 15.17875,1.07357372 15.2777083,1.75822938 C16.2120833,8.23879489 17.1672917,14.717257 18.113125,21.1978225 C19.2402083,28.9246506 20.363125,36.6525304 21.49125,44.3793585 C21.8527083,46.8613667 22.2245833,49.343375 22.79125,51.8148662 L24.8620833,36.4537594 C26.3422917,25.467718 27.8110417,14.4795732 29.3089583,3.49563513 C29.6704167,0.843251773 29.7120833,0.790666853 32.3422917,0.752805711 C36.1329167,0.696013998 39.925625,0.753857409 43.71625,0.717047966 C44.588125,0.708634378 44.9516667,1.00626502 45.07875,1.89389847 C46.49125,11.7840702 47.9360417,21.6700351 49.3745833,31.5570517 C50.3047917,37.9534813 51.238125,44.349911 52.1766667,50.7452889 C52.2308333,51.1144351 52.3370833,51.477271 52.4954167,52.1808572" id="Fill-1" fill="#ffffff" mask="url(#mask-2)"></path>
                    </g>
                    <path d="M258.682601,46.959959 C257.474839,55.3368744 256.276489,63.6628986 255.075002,71.9878626 C254.017819,79.3183263 252.955407,86.6477297 251.901361,93.9781934 C251.683859,95.4847871 251.47054,96.9924411 251.294866,98.5043359 C251.211212,99.2199945 250.934106,99.5062579 250.177033,99.4998965 C246.161619,99.4638485 242.147251,99.4670292 238.132882,99.4988362 C237.356987,99.5051976 237.067334,99.267705 236.935578,98.4566254 C235.324184,88.5625139 233.663643,78.675824 232.025061,68.7848932 C229.714106,54.8396243 227.413609,40.892235 225.105791,26.9459059 C223.758954,18.8043626 222.418392,10.661759 221.039139,2.52551685 C220.89588,1.68156992 221.137433,1.51617328 221.903917,1.52041422 C226.378385,1.54479962 230.854944,1.56706455 235.328366,1.50026976 C236.398098,1.48436624 236.320717,2.17457912 236.411692,2.7948165 C237.211637,8.23806217 237.986487,13.6855488 238.780159,19.1287944 C240.338223,29.8064195 241.90047,40.4840446 243.473174,51.1584889 C243.562057,51.7649433 243.442849,52.4328912 243.917588,53.0669117 C244.797006,46.5189013 245.667012,40.0811553 246.526562,33.6412889 C247.657988,25.1657716 248.782095,16.6902543 249.908293,8.21367676 C250.159257,6.32539851 250.437408,4.44030097 250.633996,2.54778178 C250.72497,1.65824475 251.140105,1.50345046 251.939005,1.51193234 C256.287992,1.55540197 260.638024,1.57978737 264.985964,1.50981187 C265.953219,1.49390835 266.186406,1.85650867 266.304568,2.68773278 C267.395213,10.3553511 268.507817,18.0197888 269.619376,25.6842265 C270.894061,34.4799347 272.170837,43.2745827 273.454933,52.0681704 C273.501988,52.3926023 273.625379,52.7053716 273.781185,53.2683563 C275.780527,38.4059843 277.742224,23.8160927 279.707058,9.22726127 C280.012397,6.96259965 280.371065,4.70535968 280.633531,2.43751736 C280.71614,1.72609978 280.97024,1.51829375 281.649933,1.52147446 C286.165182,1.54267915 290.682523,1.54904056 295.198819,1.50663117 C296.067779,1.49920952 296.050003,1.9243637 295.956937,2.53505896 C295.013733,8.59854201 294.071575,14.6609648 293.132553,20.7244479 C291.488743,31.348001 289.845979,41.9726143 288.205306,52.5961674 C286.565678,63.2176 284.929188,73.8411531 283.291652,84.4625857 C282.577452,89.1042939 281.841293,93.7428213 281.175194,98.391951 C281.050758,99.2549822 280.737054,99.5030772 279.905737,99.4956555 C275.973978,99.4574871 272.042218,99.4596075 268.11255,99.4967158 C267.289599,99.5051976 266.981123,99.2889097 266.847276,98.4078546 C265.151182,87.1969314 263.398621,75.9955503 261.674293,64.7878078 C260.792784,59.0572385 259.937418,53.3224283 259.070548,47.5897385 C259.040223,47.3882939 259.059046,47.1624638 258.682601,46.959959" id="Fill-4" fill="#ffffff"></path>
                    <path d="M179.032969,50.6945878 C179.032969,53.1493522 179.032969,55.6051752 179.032969,58.0599396 C179.032969,66.5261776 179.05013,74.993474 179.0083,83.4586534 C179.002937,84.5129636 179.302182,84.8273513 180.370453,84.7881852 C182.59709,84.7056187 184.837671,84.6452817 187.058946,84.7818339 C192.745666,85.130095 196.570419,80.4121627 196.441712,75.5121608 C196.201458,66.3748057 196.373068,57.2268652 196.373068,48.0831589 C196.373068,40.3780143 196.381649,32.6749869 196.371996,24.9698424 C196.36556,20.3281253 192.673804,16.6846155 187.991001,16.671913 C185.459757,16.6666203 182.926367,16.7396598 180.399412,16.6412152 C179.222813,16.5946392 179.00401,16.9746567 179.0083,18.056489 C179.049058,28.9362081 179.032969,39.8148687 179.032969,50.6945878 M164.002095,50.5019328 C164.002095,34.7105677 164.001022,18.9202612 164.002095,3.1288962 C164.002095,1.50508913 164.00424,1.50191349 165.686016,1.50191349 C173.107068,1.50085495 180.52812,1.49767932 187.949171,1.50297204 C200.37694,1.51249894 210.989934,11.9952639 210.995297,24.2786129 C211.002805,41.6789654 210.999587,59.0782593 210.997442,76.4775532 C210.996369,88.338543 201.322939,98.6413554 189.348864,99.2828333 C181.255316,99.715778 173.14139,99.3526973 165.037117,99.4384394 C164.113641,99.4490248 164.032127,99.0107874 164.032127,98.2528697 C164.039634,87.7552851 164.014966,77.2566419 164.003167,66.7579988 C163.996732,61.3393101 164.002095,55.9206214 164.002095,50.5019328" id="Fill-6" fill="#ffffff"></path>
                    <path d="M436.994561,50.6705606 L436.984923,50.6705606 C436.984923,61.6389712 436.997773,72.6073818 436.964578,83.5757924 C436.961365,84.5597296 437.191589,84.8859434 438.234558,84.8531102 C440.758456,84.7726159 443.286637,84.8425188 445.811606,84.8266318 C450.608833,84.7948577 454.345958,81.0783501 454.349171,76.3546043 C454.352383,71.1034089 454.353454,65.8522135 454.353454,60.6010181 C454.354525,48.8276643 454.277426,37.0543104 454.392003,25.2820158 C454.436977,20.7986938 450.447141,16.3598556 445.73772,16.6712415 C443.26415,16.8343484 440.770235,16.7559724 438.29024,16.6744189 C437.198014,16.6384083 436.965649,16.9805092 436.969932,18.0195214 C437.010623,28.9032011 436.994561,39.7868809 436.994561,50.6705606 M422.025714,50.5106311 C422.025714,34.6680774 422.037493,18.8265829 422.000015,2.9850884 C421.997873,1.85816788 422.231309,1.49064775 423.450961,1.50017997 C430.987319,1.56160985 438.524747,1.52030355 446.062176,1.53301318 C457.368854,1.5541959 467.565102,10.6532318 468.787967,21.7688622 C468.936809,23.1192604 469.001058,24.4675403 468.999987,25.8232342 C468.996774,42.5544028 469.003199,59.2855714 468.995704,76.01674 C468.99142,87.0836502 461.568569,96.369094 450.681648,98.9417349 C449.051876,99.3262012 447.385696,99.4638889 445.717375,99.4681254 C438.265611,99.4840125 430.813848,99.4532975 423.363155,99.4998995 C422.293416,99.5062543 422.001085,99.2128737 422.003227,98.1622109 C422.03428,82.278351 422.025714,66.394491 422.025714,50.5106311" id="Fill-8" fill="#ffffff"></path>
                    <path d="M395.576993,50.4027821 C395.576993,41.5390289 395.587578,32.6752756 395.572759,23.8115224 C395.564292,18.9826982 391.940112,15.3014325 387.240534,15.2982653 C382.466864,15.2940425 378.736838,18.9953668 378.733663,23.7977981 C378.723078,41.4830762 378.729429,59.1683542 378.729429,76.8525766 C378.729429,78.1342102 378.9697,79.3672812 379.540212,80.5211738 C381.313138,84.1084813 385.264383,86.0108733 389.06215,85.1145743 C393.00281,84.1855482 395.560058,80.9856868 395.570642,76.8673565 C395.591812,68.0458317 395.576993,59.2243069 395.576993,50.4027821 M410.993515,50.66671 C410.994573,59.4491735 411.003041,68.2305812 410.992457,77.0141004 C410.978696,89.1294449 402.526865,98.8810515 390.479433,100.308373 C381.861422,101.329246 374.807821,98.249736 369.175737,91.5829183 C365.420308,87.1373174 364.022078,82.0477325 364.014668,76.4366262 C363.990324,59.1672985 364.001967,41.8979708 364.009376,24.628643 C364.011493,20.6602237 364.534374,16.7530357 366.547572,13.2755222 C375.870519,-2.83569009 395.652144,-3.04366524 405.597468,8.92071251 C409.226939,13.2881907 411.01786,18.270093 410.999866,23.9403192 C410.973404,32.849468 410.992457,41.7575611 410.993515,50.66671" id="Fill-10" fill="#ffffff"></path>
                    <path d="M319.52052,50.219309 L319.52052,67.0637733 C319.52052,70.3570651 319.469436,73.6503569 319.530098,76.9415369 C319.640779,82.9875096 325.788882,87.0156943 331.356975,84.6188452 C334.982834,83.0561418 336.536622,80.0870054 336.532365,76.2140351 C336.517465,58.9472186 336.525979,41.680402 336.508951,24.4135855 C336.507887,23.4918017 336.451483,22.5467885 336.247149,21.6524576 C335.309555,17.5651435 331.366553,14.853642 327.088316,15.2897207 C322.883512,15.7184082 319.554576,19.3179054 319.534355,23.6237868 C319.49285,32.4889608 319.521584,41.3541349 319.52052,50.219309 Z M351.949981,50.3512941 C351.949981,59.5554058 352.044698,68.7616294 351.924439,77.9646853 C351.785024,88.7589533 343.842616,97.9324445 333.019315,100.055821 C321.382936,102.338635 309.802963,95.6242894 306.14092,84.4646866 C305.371475,82.1216874 305.01602,79.7037207 305.014956,77.2477423 C305.002185,59.3442297 304.989414,41.4407171 305.013891,23.5361487 C305.033048,10.6111134 316.040462,0.260315274 329.061414,0.504223708 C340.960659,0.727014529 349.942828,9.97547328 351.576433,19.2175968 C351.887191,20.9703587 352,22.7326235 352,24.5086148 C351.995743,33.1224892 351.997872,41.7363637 351.997872,50.3512941 L351.949981,50.3512941 Z" id="Fill-12" fill="#ffffff"></path>
                    <path d="M114.02521,50.5296582 C114.02521,34.6858171 114.037802,18.8419759 114.000026,2.99813482 C113.996878,1.84327412 114.273903,1.48516136 115.449158,1.50635146 C119.391511,1.57839782 123.338061,1.57733831 127.279364,1.50105394 C128.45357,1.47774482 128.757877,1.83691709 128.755779,2.99283729 C128.725348,24.640648 128.732693,46.2884588 128.731644,67.9362695 C128.731644,73.104536 128.752631,78.273862 128.710657,83.4400095 C128.702262,84.3681361 128.915277,84.6542025 129.884863,84.648905 C137.478902,84.6097033 145.072941,84.6584405 152.666981,84.6128818 C153.754092,84.6065247 154.01013,84.9688755 153.999636,85.9860006 C153.954515,90.0958213 153.944022,94.2056421 153.999636,98.3144033 C154.013278,99.3230523 153.643912,99.4957517 152.756174,99.4946922 C140.253345,99.4703235 127.749466,99.467145 115.246637,99.4999897 C114.225633,99.5021087 114.00947,99.1779001 114.011569,98.1883222 C114.044098,82.3021009 114.034654,66.4158795 114.034654,50.5296582 L114.02521,50.5296582 Z" id="Fill-14" fill="#ffffff"></path>
                    <path d="M87.0278488,50.4902629 C87.0278488,34.6373044 87.0406903,18.7843459 87.0000254,2.93244756 C86.9968151,1.80130494 87.2964507,1.49493173 88.4158039,1.50977334 C92.5218824,1.5638392 96.6301011,1.54475713 100.73725,1.50023231 C101.74745,1.48963116 102,1.8405292 102,2.82643607 C101.971107,34.4899484 101.975387,66.1534608 101.973247,97.8169731 C101.973247,99.4643917 101.966826,99.4972552 100.312409,99.4993755 C96.2898007,99.5057362 92.2671921,99.4336484 88.2477939,99.4993755 C87.1337914,99.5184575 87.0064462,99.1007723 87.0107267,98.1752919 C87.0428305,92.2004843 87.0235682,86.2235564 87.0235682,80.2466285 C87.0224981,70.3281933 87.0235682,60.408698 87.0235682,50.4902629 L87.0278488,50.4902629 Z" id="Fill-16" fill="#ffffff"></path>
                    <path d="M378.458542,122.414343 C377.879596,125.123044 377.30065,127.829663 376.724851,130.538364 C376.223517,132.893123 375.686524,135.242676 375.253363,137.612008 C375.12331,138.318852 374.833837,138.463552 374.188816,138.480208 C371.584608,138.546833 371.577267,138.567653 370.971052,136.033841 C370.429863,133.771733 369.993556,131.481517 369.356925,129.246474 C368.721344,127.010391 368.029126,124.788881 367.371519,122.536141 C367.371519,127.343513 367.332713,132.151925 367.399837,136.958256 C367.416618,138.124184 367.165951,138.5333 365.909471,138.497906 C363.024181,138.416707 363.022083,138.485414 363.022083,135.645546 C363.023132,127.654774 363.039913,119.662961 363.000058,111.673231 C362.995863,110.74257 363.218211,110.447965 364.171584,110.507302 C365.549727,110.595788 366.942553,110.599952 368.319647,110.507302 C369.250995,110.444842 369.506906,110.812318 369.665277,111.647205 C370.825266,117.723565 372.03455,123.789514 373.297323,130.21357 C374.133229,125.825724 374.903059,121.78037 375.674987,117.735016 C376.078781,115.613443 376.525576,113.499157 376.868538,111.367174 C376.982859,110.656166 377.269186,110.496892 377.924695,110.517713 C379.223128,110.560394 380.529951,110.595788 381.82314,110.508343 C382.781757,110.444842 383.005155,110.758185 382.999911,111.684682 C382.961104,119.176811 382.978934,126.667899 382.978934,134.160028 C382.978934,135.283275 382.940128,136.408604 382.988374,137.53081 C383.019838,138.224121 382.809026,138.52289 382.078002,138.477085 C381.326002,138.429199 380.563513,138.408379 379.815708,138.481249 C378.899044,138.570776 378.594888,138.300114 378.605376,137.328854 C378.657817,132.376783 378.629499,127.42367 378.629499,122.471599 C378.571814,122.45182 378.515178,122.434123 378.458542,122.414343" id="Fill-18" fill="#ffffff"></path>
                    <path d="M134.426544,122.511897 C134.426544,127.342073 134.381918,132.15042 134.457357,136.956689 C134.476483,138.176966 134.114161,138.486712 132.902882,138.453451 C130.024498,138.372376 130.022373,138.431623 130.022373,135.562829 C130.022373,127.622716 130.040436,119.682602 130.00006,111.743527 C129.99581,110.786223 130.21469,110.4349 131.238966,110.509738 C132.506559,110.601207 133.792216,110.597049 135.060872,110.509738 C136.032021,110.443216 136.331653,110.789342 136.50697,111.70299 C137.633248,117.570504 138.83284,123.425546 140.009056,129.285784 C140.04837,129.475998 140.096183,129.665172 140.188623,130.069505 C141.415841,123.744647 142.621808,117.639106 143.761899,111.522131 C143.90534,110.749844 144.134845,110.475437 144.943428,110.513896 C146.300273,110.57834 147.663494,110.558591 149.022465,110.520132 C149.686544,110.500383 150.002114,110.610562 149.999989,111.38181 C149.972364,120.111881 149.976614,128.841953 149.993614,137.572024 C149.995739,138.223739 149.775796,138.407716 149.12128,138.439938 C145.575631,138.614561 145.576693,138.632231 145.576693,135.214624 L145.576693,122.396522 C145.520379,122.384049 145.463003,122.371576 145.406689,122.360142 C144.901989,124.691557 144.396227,127.021932 143.893652,129.353347 C143.307137,132.071424 142.68981,134.785345 142.163859,137.515896 C142.019356,138.265316 141.699535,138.431623 140.98658,138.439938 C138.42483,138.469042 138.415267,138.493988 137.821315,136.02537 C136.773664,131.667091 135.737701,127.305693 134.694301,122.946374 C134.659237,122.798777 134.716614,122.603366 134.426544,122.511897" id="Fill-20" fill="#ffffff"></path>
                    <path d="M42.4508689,127.925447 C42.4508689,126.199846 42.4508689,124.473205 42.4508689,122.746564 C42.449816,119.048995 42.4613976,115.350386 42.4350758,111.653857 C42.4298115,110.922035 42.5119354,110.471924 43.4395148,110.561322 C44.5187075,110.665274 45.9390305,110.24115 46.6097094,110.779621 C47.3256616,111.354475 46.8371295,112.807723 46.8392352,113.874269 C46.8592398,121.643634 46.8318651,129.412999 46.8718742,137.181324 C46.8781915,138.211488 46.5970749,138.515027 45.5399924,138.499434 C42.0918399,138.448498 42.1213203,138.481763 41.0589734,135.187527 C39.5839011,130.617802 38.0593439,126.062629 36.3863319,121.52201 L36.3863319,136.718738 C36.3863319,138.473446 36.3863319,138.473446 34.5617065,138.473446 C32.0211287,138.473446 32.0211287,138.473446 32.0211287,135.920388 C32.0211287,127.860997 32.034816,119.801607 32.0000713,111.742216 C31.9958598,110.841992 32.1759008,110.408513 33.1592823,110.569638 C33.4867252,110.622654 33.831014,110.577955 34.1679327,110.577955 C36.9822569,110.577955 36.9759397,110.578994 37.7845446,113.279664 C39.1385367,117.80677 40.5020047,122.329717 41.8644197,126.853703 C41.9770769,127.226891 42.1139502,127.59488 42.2392418,127.964949 C42.3097842,127.951435 42.3803265,127.938961 42.4508689,127.925447" id="Fill-22" fill="#ffffff"></path>
                    <path d="M428.573658,128.583324 C428.573658,122.735697 428.595954,117.265437 428.551362,111.796216 C428.54393,110.84812 428.754148,110.534168 429.786125,110.55288 C432.975486,110.612136 432.975486,110.565355 432.975486,113.626913 C432.975486,121.480926 432.955314,129.335979 432.999905,137.189993 C433.006275,138.23061 432.693072,138.507138 431.655787,138.499861 C428.219049,138.479069 428.222234,138.516494 427.165837,135.308356 C425.692191,130.834011 424.214298,126.361746 422.516632,121.906114 C422.497522,122.325064 422.463547,122.744014 422.462485,123.162964 C422.4593,127.901361 422.441251,132.638719 422.481596,137.376077 C422.489028,138.253481 422.218293,138.496742 421.33177,138.497782 C418.022436,138.499861 418.022436,138.531048 418.022436,135.268852 C418.022436,127.496965 418.039423,119.725079 418.00014,111.954231 C417.994832,110.931286 418.134977,110.412537 419.355937,110.554959 C420.526997,110.692183 421.969854,110.234769 422.838329,110.758716 C423.715297,111.289941 423.664335,112.829556 424.007266,113.927351 C425.412963,118.442239 426.770883,122.971681 428.150038,127.493847 C428.228604,127.751662 428.34433,127.999082 428.573658,128.583324" id="Fill-24" fill="#ffffff"></path>
                    <path d="M172.417466,121.79832 C172.417466,126.943063 172.390957,132.088843 172.440793,137.233585 C172.451397,138.21749 172.175708,138.497716 171.169446,138.488375 C168.023418,138.457239 168.023418,138.498754 168.023418,135.375791 C168.023418,127.57409 168.042504,119.77239 168.000091,111.97069 C167.995849,110.952535 168.135814,110.448128 169.34036,110.589279 C170.508854,110.726278 172.020899,110.249894 172.792826,110.814498 C173.563693,111.379101 173.619891,112.894398 173.96026,114.001809 C175.311133,118.398245 176.652462,122.795717 177.98637,127.195266 C178.092404,127.541916 178.140119,127.902059 178.4561,128.182285 C178.4561,122.697119 178.475186,117.23375 178.435954,111.77038 C178.428531,110.889225 178.572737,110.461621 179.590663,110.59862 C180.627676,110.737695 181.991272,110.172054 182.647623,110.812422 C183.305033,111.45279 182.840604,112.781269 182.842725,113.805651 C182.860751,121.523284 182.82682,129.242992 182.880897,136.960625 C182.88832,138.117854 182.665648,138.53508 181.383698,138.497716 C178.17405,138.404308 178.17617,138.469694 177.173089,135.454669 C175.659984,130.903591 174.140518,126.354588 172.624232,121.804548 L172.417466,121.79832 Z" id="Fill-26" fill="#ffffff"></path>
                    <path d="M115.442925,121.711987 C115.442925,126.857499 115.40237,132.00301 115.473874,137.147484 C115.489883,138.291854 115.124891,138.521351 114.035252,138.498505 C111.019269,138.436198 111.018201,138.48189 111.018201,135.492197 C111.018201,127.60622 111.032075,119.720243 111.000058,111.835304 C110.996857,110.936008 111.121722,110.477013 112.209227,110.583974 C113.433336,110.704434 115.007496,110.21844 115.81432,110.801009 C116.615807,111.381502 116.668101,112.956828 117.023488,114.104314 C118.488791,118.8386 119.942354,123.576002 121.572009,128.288481 L121.572009,121.272723 C121.572009,118.035879 121.570942,114.799036 121.572009,111.562192 C121.572009,111.077237 121.441808,110.630704 122.28385,110.580858 C125.980724,110.363822 125.97859,110.331631 125.97859,113.887278 C125.97859,121.690179 125.961514,129.492042 125.999934,137.294944 C126.004203,138.201509 125.802497,138.499544 124.815312,138.496428 C121.195278,138.486044 121.212354,138.519274 120.120581,135.191047 C118.640337,130.675873 117.131278,126.169007 115.632891,121.659026 C115.569925,121.676679 115.506958,121.694333 115.442925,121.711987" id="Fill-28" fill="#ffffff"></path>
                    <path d="M81.2771998,119.369072 L81.2771998,121.368414 C81.2771998,123.911327 81.2771998,123.911327 83.8133308,123.717641 C85.165934,123.613509 85.9988638,122.758582 86.0465783,121.373621 C86.0756219,120.49995 86.0164974,119.623156 86.0579883,118.750526 C86.2509209,114.707066 85.188754,114.975727 82.0157377,114.960107 C81.3902625,114.956983 81.2471189,115.166289 81.2657898,115.746307 C81.3041689,116.953201 81.2771998,118.161137 81.2771998,119.369072 Z M77.0274948,124.459064 C77.0274948,120.211503 77.0637993,115.962902 77.0005257,111.715342 C76.9849666,110.690679 77.3127447,110.457423 78.254588,110.506365 C80.6527618,110.631324 83.0706438,110.306431 85.4563703,110.711506 C88.2984967,111.192598 90.0359279,113.070104 90.2122642,115.962902 C90.3346624,117.995566 90.2786497,120.041768 90.2330097,122.079638 C90.203966,123.413574 89.6490253,124.598601 88.7497101,125.555578 C88.1812849,126.159545 88.1667631,126.710406 88.3659194,127.454952 C89.2341164,130.703883 90.0162197,133.974681 90.8927149,137.22257 C91.1592939,138.211828 90.9642867,138.500274 89.9073061,138.490903 C86.4770463,138.461745 86.4894936,138.498192 85.7125766,135.098269 C85.2323195,132.994795 84.7136833,130.899652 84.1971216,128.804508 C83.8237035,127.287299 82.6246166,128.218243 81.8207305,128.069333 C80.9255645,127.904804 81.2989825,128.726409 81.2937962,129.113781 C81.2606034,131.904529 81.251268,134.695277 81.2917216,137.483942 C81.3031316,138.232654 81.1205717,138.476324 80.3343192,138.487779 C77.0264575,138.540886 77.0274948,138.569002 77.0274948,135.203443 L77.0274948,124.459064 Z" id="Fill-30" fill="#ffffff"></path>
                    <path d="M256.294154,119.288325 L256.294154,121.412605 C256.294154,123.86594 256.294154,123.86594 258.741835,123.724322 C260.164472,123.642058 261.018676,122.777767 261.062163,121.333465 C261.090118,120.459803 261.066304,119.584058 261.066304,118.709355 C261.066304,115.15431 260.801242,114.895022 257.23326,114.966873 C257.150428,114.967914 257.066561,114.977286 256.984764,114.967914 C256.454641,114.902312 256.265163,115.113698 256.281729,115.665595 C256.320039,116.872477 256.294154,118.081443 256.294154,119.288325 Z M252.017959,124.502183 C252.017959,120.21197 252.039703,115.921758 252.000357,111.630504 C251.992074,110.807866 252.121499,110.465274 253.04818,110.502761 C255.157287,110.58919 257.273641,110.491307 259.382747,110.572529 C262.960048,110.711024 265.052587,112.780114 265.234817,116.361192 C265.325933,118.147045 265.285552,119.941229 265.263809,121.731247 C265.246207,123.202623 264.714012,124.509472 263.731419,125.583067 C263.220968,126.14017 263.126747,126.65562 263.31726,127.369961 C264.193207,130.659471 264.999782,133.966684 265.880906,137.254111 C266.112835,138.122567 266.094198,138.500564 265.00703,138.496398 C261.532233,138.483903 261.53534,138.526596 260.717375,135.074641 C260.230738,133.014923 259.71718,130.960411 259.240897,128.89861 C258.872295,127.303317 257.639136,128.199888 256.806676,128.070765 C255.914163,127.93227 256.319003,128.76428 256.313826,129.140194 C256.273446,131.930915 256.263092,134.721636 256.309685,137.511315 C256.32211,138.296466 256.073614,138.479737 255.325021,138.489109 C252.017959,138.538051 252.017959,138.563042 252.017959,135.247499 L252.017959,124.502183 Z" id="Fill-32" fill="#ffffff"></path>
                    <path d="M288.209843,124.475032 C288.209843,127.425894 288.204765,130.376755 288.216952,133.327617 C288.217967,133.62864 288.049378,134.001534 288.448509,134.207772 C290.243076,135.134799 292.802391,133.659889 292.874499,131.612097 C292.930357,129.992404 292.885671,128.369586 292.885671,126.749893 C292.885671,123.715703 292.910045,120.680471 292.875515,117.647323 C292.853172,115.772437 292.00616,114.946446 290.177062,114.876659 C289.85207,114.864159 289.523015,114.90999 289.204116,114.865201 C288.428197,114.757916 288.17125,115.025608 288.188515,115.872431 C288.245389,118.738923 288.209843,121.607498 288.209843,124.475032 M284.016425,124.293793 C284.016425,120.046135 284.035721,115.799519 284.000175,111.552903 C283.994082,110.772742 284.143375,110.47276 284.979215,110.501925 C286.885499,110.571713 288.795845,110.504008 290.703144,110.529007 C294.128767,110.573796 296.956201,113.467369 296.977528,116.997363 C297.006981,121.993933 297.007996,126.991545 296.977528,131.988115 C296.955185,135.504568 294.154157,138.385642 290.700097,138.46897 C288.792798,138.514801 286.881436,138.428348 284.976168,138.498135 C284.10986,138.529383 283.998144,138.167947 284.002207,137.410702 C284.031659,133.039093 284.016425,128.665401 284.016425,124.293793" id="Fill-34" fill="#ffffff"></path>
                    <path d="M102.61933,124.02702 C102.61933,121.582466 102.623384,119.135799 102.618316,116.690188 C102.614261,114.87209 101.816471,113.880112 100.375988,113.875887 C98.954765,113.871661 98.0971657,114.892162 98.0920971,116.663777 C98.0809463,121.513799 98.0789189,126.362764 98.0931108,131.211729 C98.0981794,132.947426 99.0125465,134.008071 100.415522,133.983773 C101.759703,133.959475 102.61122,132.91362 102.618316,131.237083 C102.628453,128.834785 102.621357,126.430375 102.61933,124.02702 Z M106.994505,124.048149 C106.994505,126.582499 107.008697,129.116849 106.991464,131.651199 C106.967135,135.545161 104.143951,138.511587 100.497633,138.499966 C96.8006295,138.488345 94.0078563,135.549387 94.0038014,131.652256 C93.9987329,126.540242 93.9987329,121.429285 94.0038014,116.318328 C94.0078563,112.472962 96.7692045,109.525552 100.378015,109.500198 C104.199705,109.472731 106.962067,112.312386 106.986396,116.318328 C107.001601,118.894935 106.989437,121.471542 106.989437,124.048149 L106.994505,124.048149 Z" id="Fill-36" fill="#ffffff"></path>
                    <path d="M349.146057,123.884288 C349.146057,126.330587 349.141011,128.776885 349.147066,131.223184 C349.151102,132.919538 349.965451,133.945166 351.320681,133.983192 C352.690038,134.020161 353.632543,133.032557 353.644652,131.358385 C353.676944,126.382343 353.675935,121.405245 353.641625,116.428148 C353.629516,114.772988 352.667837,113.813904 351.269216,113.87411 C349.951324,113.932205 349.158166,114.915583 349.150093,116.546449 C349.138993,118.991691 349.147066,121.439046 349.146057,123.884288 M357.962618,124.153634 C357.962618,126.855548 358.048392,129.56063 357.942436,132.258319 C357.801161,135.821084 354.889889,138.529335 351.4115,138.49976 C348.022922,138.470185 345.138896,135.709121 345.077341,132.182268 C344.981476,126.737247 344.972394,121.288001 345.063213,115.841923 C345.12275,112.245357 348.002739,109.522319 351.489201,109.500137 C354.991809,109.477956 357.809234,112.150294 357.947481,115.794391 C358.052428,118.576581 357.967663,121.366164 357.967663,124.152578 C357.965645,124.152578 357.964636,124.152578 357.962618,124.153634" id="Fill-38" fill="#ffffff"></path>
                    <path d="M406.624627,117.949661 C406.580333,117.922669 406.536039,117.895677 406.491746,117.868685 C406.068381,120.932289 405.57394,123.988626 405.253583,127.06365 C405.114522,128.399759 406.277488,127.569233 406.820343,127.716651 C407.811285,127.989687 408.033783,127.498638 407.87721,126.532113 C407.414702,123.679255 407.035631,120.811863 406.624627,117.949661 M406.562822,110.51645 C409.494444,110.51645 409.476932,110.519565 409.972403,113.502192 C411.256919,121.226088 412.556887,128.948945 413.854794,136.669726 C414.141158,138.372305 414.150428,138.370228 412.484781,138.376457 C409.562429,138.386839 409.56449,138.385801 409.177178,135.412516 C409.128764,135.042932 409.049447,134.677501 408.989702,134.311031 C408.866092,133.549023 409.037086,132.277279 408.516893,132.140242 C407.323024,131.823604 405.993184,131.976213 404.723089,132.032274 C404.270882,132.053037 404.347108,132.601185 404.289424,132.945853 C404.030872,134.497899 403.75893,136.050983 403.558063,137.610297 C403.483897,138.190627 403.27376,138.401373 402.706183,138.379572 C401.555578,138.335969 400.052684,138.776148 399.346045,138.202047 C398.529188,137.539702 399.391369,136.074861 399.568544,134.981681 C400.85203,127.09168 402.203501,119.213099 403.51377,111.327251 C403.613688,110.724082 403.830006,110.459351 404.463508,110.50503 C405.159846,110.5559 405.863394,110.51645 406.562822,110.51645" id="Fill-40" fill="#ffffff"></path>
                    <path d="M206.611891,118.071171 C206.560109,118.076379 206.508327,118.080545 206.456545,118.085754 C206.072321,120.708613 205.686027,123.332515 205.303875,125.956416 C205.030465,127.830334 205.034608,127.774085 206.95676,127.829292 C207.92405,127.858458 207.985153,127.541799 207.847412,126.692859 C207.383445,123.827296 207.016827,120.94715 206.611891,118.071171 M206.586,110.524459 C209.557258,110.524459 209.508583,110.532793 209.978764,113.423355 C211.24639,121.219019 212.553371,129.009475 213.856209,136.799931 C214.137903,138.481145 214.160688,138.476978 212.447735,138.47802 C209.555186,138.479061 209.556222,138.479061 209.182355,135.594749 C209.160607,135.429127 209.139894,135.264548 209.110896,135.10101 C208.510223,131.743791 208.45637,131.726083 205.00561,132.054201 C204.335549,132.116699 204.327264,132.485441 204.257876,132.948973 C204.022785,134.510397 203.741091,136.066614 203.538105,137.633246 C203.45836,138.250941 203.237769,138.513436 202.601884,138.487394 C201.69259,138.448854 200.776047,138.422813 199.86986,138.492603 C198.996814,138.56031 198.924319,138.159277 199.045489,137.452 C200.073882,131.47088 201.082597,125.487676 202.099598,119.505515 C202.553209,116.840989 203.05446,114.183755 203.437648,111.508813 C203.55364,110.699456 203.8198,110.438003 204.598603,110.51196 C205.2552,110.574458 205.922153,110.524459 206.586,110.524459" id="Fill-42" fill="#ffffff"></path>
                    <path d="M58.0971453,131.280189 C58.4043312,129.50264 58.7263467,127.728214 59.0165843,125.948585 C59.8057342,121.111322 60.590647,116.271978 61.352256,111.430553 C61.4528859,110.786348 61.6763901,110.474132 62.3956287,110.530331 C63.1530007,110.590692 63.9273209,110.614629 64.6793966,110.528249 C65.8530583,110.391915 66.1570664,110.73223 65.9303844,111.917609 C64.2938253,120.444221 62.7112886,128.980199 61.1520556,137.520341 C61.0196479,138.24364 60.7876696,138.514227 60.0345347,138.486128 C58.6807984,138.435133 57.3196474,138.403911 55.9701482,138.494454 C55.1036722,138.552734 54.8907606,138.147894 54.766827,137.459979 C53.8410325,132.307378 52.9004082,127.158941 51.9693173,122.007381 C51.3348196,118.490791 50.7395147,114.967957 50.0573502,111.460734 C49.9132907,110.724945 50.0012094,110.489743 50.7818851,110.531371 C51.7108575,110.581326 52.652541,110.614629 53.5740985,110.523046 C54.3897299,110.440829 54.5666266,110.822773 54.673612,111.480507 C55.6184733,117.346 56.5824013,123.208371 57.541033,129.072823 C57.6596703,129.799245 57.7783076,130.524627 57.8958856,131.252089 C57.9636784,131.260415 58.0304119,131.269782 58.0971453,131.280189" id="Fill-44" fill="#ffffff"></path>
                    <g id="Group-48" transform="translate(234.000000, 109.500000)">
                        <mask id="mask-4" fill="white">
                            <use xlink:href="#path-3"></use>
                        </mask>
                        <g id="Clip-47"></g>
                        <path d="M4.41056,14.7909321 C4.41162667,17.1927536 4.40522667,19.594575 4.41376,21.9963964 C4.41909333,23.5541107 5.30229333,24.5204321 6.72416,24.553575 C8.18869333,24.5877536 9.18282667,23.5934679 9.22656,22.0077893 C9.25322667,21.0559679 9.25322667,20.102075 9.21909333,19.1512893 C9.19882667,18.6261821 9.35882667,18.362075 9.93269333,18.4438964 C9.97429333,18.4501107 10.0180267,18.4459679 10.0596267,18.4438964 C13.8846933,18.2802536 13.8846933,18.2802536 13.7854933,22.349575 C13.7044267,25.7011464 11.30656,28.4126464 7.97856,28.9201464 C4.74229333,29.411075 1.58922667,27.6068607 0.457493333,24.6229679 C0.158826667,23.835825 0.03616,23.031075 0.0372266667,22.1931821 C0.0468266667,17.2662893 0.03936,12.3383607 0.04256,7.41043214 C0.04576,3.593825 2.82122667,0.716610714 6.62602667,0.573682143 C10.46496,0.431789286 13.4740267,3.07389643 13.7748267,6.85321786 C14.07136,10.5693607 14.07136,10.5445036 10.27296,10.5092893 C9.44096,10.5010036 9.12522667,10.2907536 9.20949333,9.46011071 C9.28309333,8.72164643 9.26282667,7.96868214 9.21909333,7.22503929 C9.13376,5.75950357 8.06282667,4.77661071 6.67296,4.83771786 C5.33749333,4.89468214 4.42229333,5.89000357 4.41482667,7.33793214 C4.40096,9.821575 4.41056,12.3072893 4.41056,14.7909321" id="Fill-46" fill="#ffffff" mask="url(#mask-4)"></path>
                    </g>
                    <path d="M328.002595,124.031628 C328.002595,121.538585 328.001595,119.045543 328.003596,116.5525 C328.005597,112.601483 330.540085,109.673902 334.100176,109.507911 C337.773334,109.335576 340.571978,111.99461 340.884161,115.954085 C341.175332,119.655587 341.175332,119.61964 337.68128,119.645015 C336.77975,119.650301 336.453559,119.405015 336.554618,118.446071 C336.629662,117.736643 336.588638,117.010298 336.566625,116.293469 C336.520598,114.851353 335.593053,113.850118 334.332313,113.848004 C333.045557,113.846947 332.11501,114.821749 332.110008,116.276553 C332.093998,121.38951 332.092998,126.502468 332.110008,131.615425 C332.11501,133.007849 333.004533,133.939304 334.262272,133.980538 C335.548027,134.022828 336.515595,133.058598 336.563623,131.629169 C336.598644,130.574014 336.59264,129.515687 336.560622,128.459474 C336.543612,127.918152 336.701704,127.707755 337.236018,127.727843 C338.194581,127.764848 339.155145,127.763791 340.113708,127.732072 C340.659029,127.714099 340.930188,127.870575 340.89917,128.504937 C340.83113,129.895247 340.986221,131.289786 340.79711,132.679038 C340.311825,136.25684 337.382104,138.741424 333.941083,138.481336 C330.595118,138.228648 328.017604,135.320099 328.004596,131.763443 C327.995591,129.186876 328.002595,126.609252 328.002595,124.031628" id="Fill-49" fill="#ffffff"></path>
                    <path d="M390.231177,119.342288 L390.231177,121.586081 C390.231177,123.791349 390.231177,123.791349 392.418658,123.725753 C393.908243,123.680982 394.834064,122.777217 394.874405,121.261225 C394.907686,119.973257 394.904661,118.684247 394.874405,117.39732 C394.83709,115.841763 394.054478,115.04316 392.551783,114.98277 C392.02836,114.960905 391.501913,115.012965 390.982525,114.967152 C390.407668,114.917174 390.200921,115.118126 390.220083,115.72723 C390.258407,116.931902 390.232186,118.137616 390.231177,119.342288 Z M386.018587,124.374423 C386.018587,120.173168 386.0438,115.971913 386.000434,111.770658 C385.990348,110.842946 386.149695,110.447289 387.166283,110.505596 C388.893879,110.602428 390.630551,110.507679 392.362181,110.537874 C396.27524,110.605552 398.535335,112.681711 398.892351,116.683055 C399.04262,118.372928 399.031527,120.100284 398.884283,121.791198 C398.551471,125.615537 395.913181,128.013428 392.17863,128.041541 C390.23622,128.056118 390.237228,128.056118 390.237228,130.054187 C390.23622,132.509344 390.204955,134.96346 390.248322,137.416534 C390.261433,138.210973 390.080907,138.491056 389.250895,138.496262 C386.018587,138.518127 386.018587,138.550405 386.018587,135.231049 L386.018587,124.374423 Z" id="Fill-51" fill="#ffffff"></path>
                    <path d="M153.019892,124.356657 C153.019892,120.110125 153.042517,115.862552 153.000352,111.617061 C152.992124,110.754631 153.209124,110.486944 154.086376,110.500485 C157.374275,110.553605 160.664231,110.550481 163.95213,110.500485 C164.775904,110.489027 164.985704,110.737965 164.991875,111.547275 C165.015529,114.822011 165.04124,114.822011 161.860298,114.822011 C160.626179,114.822011 159.393088,114.84805 158.161026,114.810553 C157.559393,114.790763 157.287887,114.912628 157.30537,115.61153 C157.350621,117.566581 157.346508,119.524756 157.30537,121.480848 C157.292001,122.143294 157.496659,122.339112 158.138401,122.316197 C159.451709,122.271409 160.769131,122.328696 162.083468,122.291199 C162.67276,122.273492 162.832167,122.471393 162.86302,123.065095 C163.051223,126.621058 163.067678,126.620016 159.550439,126.620016 C157.321825,126.620016 157.321825,126.620016 157.321825,128.916705 C157.321825,130.373879 157.352678,131.832095 157.307427,133.288227 C157.286859,133.947549 157.499744,134.141283 158.140458,134.128784 C160.071854,134.093371 162.005307,134.152741 163.936703,134.09962 C164.749165,134.076705 164.980562,134.332935 164.990847,135.157868 C165.033012,138.473225 165.061808,138.473225 161.864412,138.473225 C159.314927,138.473225 156.764415,138.421146 154.218016,138.498223 C153.200896,138.528429 152.990067,138.176374 153.000352,137.223326 C153.045603,132.934089 153.019892,128.644852 153.019892,124.356657" id="Fill-53" fill="#ffffff"></path>
                    <path d="M270.020827,124.506027 C270.020827,120.176828 270.042488,115.846588 270.000197,111.51739 C269.991945,110.682808 270.241567,110.48901 271.030662,110.500471 C274.328355,110.54319 277.626049,110.540064 280.92271,110.502555 C281.69427,110.494219 281.989278,110.65676 281.993404,111.518432 C282.013002,114.81925 282.04601,114.81925 278.758631,114.81925 C277.521867,114.81925 276.284072,114.848424 275.049371,114.806747 C274.457292,114.78695 274.274717,114.973455 274.285032,115.575688 C274.319072,117.573058 274.322166,119.572512 274.284001,121.569882 C274.271623,122.208582 274.522276,122.327361 275.078253,122.313816 C276.315017,122.279433 277.553844,122.346116 278.786482,122.287768 C279.568356,122.251301 279.927317,122.450309 279.836545,123.309897 C279.72308,124.37266 280.269773,125.742792 279.616836,126.431504 C279.013411,127.06812 277.665245,126.600296 276.646127,126.611757 C274.29741,126.640931 274.29741,126.621134 274.29741,129.037358 C274.29741,130.410615 274.340733,131.785956 274.280906,133.158172 C274.246867,133.918777 274.458324,134.162587 275.234009,134.138623 C277.127836,134.082359 279.024757,134.151126 280.919616,134.110491 C281.690144,134.09382 281.986183,134.281367 281.993404,135.143039 C282.026411,138.478241 282.060451,138.478241 278.758631,138.478241 C276.202584,138.478241 273.646536,138.440731 271.092551,138.499079 C270.206496,138.518876 269.996071,138.221927 270.00226,137.370674 C270.042488,133.082111 270.020827,128.79459 270.020827,124.506027" id="Fill-55" fill="#ffffff"></path>
                    <path d="M17.0175626,124.390542 C17.0175626,120.121224 17.0308881,115.851907 17.0042371,111.581552 C17.000137,110.851151 17.0729146,110.484913 17.9636714,110.500476 C21.2806898,110.559613 24.5987333,110.543013 27.9157517,110.506701 C28.6445527,110.498401 28.9551388,110.659214 28.8905615,111.460165 C28.8044584,112.524641 29.2165232,113.922155 28.6886293,114.579931 C28.1289593,115.277131 26.6969832,114.760456 25.6483708,114.796768 C24.5444063,114.836193 23.4342917,114.856943 22.3323774,114.787431 C21.5236235,114.736593 21.1812613,114.894293 21.2253378,115.83012 C21.3093908,117.649897 21.28479,119.477974 21.2325131,121.299826 C21.2120124,122.036452 21.3596176,122.323839 22.1591462,122.278189 C23.4650428,122.202452 24.7791397,122.277152 26.0891365,122.250177 C26.6600819,122.237727 26.942992,122.429665 26.8763646,123.030378 C26.8712394,123.071878 26.8743145,123.114415 26.8763646,123.155915 C27.0260199,126.557882 27.0260199,126.557882 23.6762004,126.557882 C21.2499387,126.557882 21.2499387,126.557882 21.2499387,128.977335 C21.2499387,130.344761 21.2970904,131.716338 21.2314881,133.080652 C21.1945867,133.840103 21.3893437,134.075615 22.1652964,134.051753 C24.0882651,133.99054 26.0153339,134.067315 27.9393276,134.014403 C28.708105,133.993653 28.9520637,134.244728 28.8854363,135.000029 C28.792158,136.06658 29.3108265,137.445419 28.6886293,138.127058 C28.0582318,138.818033 26.6816077,138.334558 25.6340203,138.348045 C23.0950046,138.37917 20.5549639,138.323145 18.0169733,138.376058 C17.1928439,138.392658 16.9939868,138.124983 17.000137,137.324032 C17.0370383,133.013214 17.0175626,128.701359 17.0175626,124.390542" id="Fill-57" fill="#ffffff"></path>
                    <path d="M436,110.530996 C437.529506,110.530996 438.894526,110.584083 440.252069,110.509136 C441.044593,110.466458 441.03498,111.018146 441.173832,111.445965 C442.081709,114.251246 442.96502,117.063814 443.871829,119.921141 C444.396262,119.658829 444.364219,119.148778 444.491322,118.753228 C445.287049,116.30186 446.078505,113.847369 446.811215,111.376223 C447.01522,110.692338 447.327103,110.466458 448.055541,110.503932 C449.327637,110.56951 450.604005,110.521627 452,110.521627 C450.660614,114.305374 449.503872,118.034993 448.014953,121.636579 C446.615754,125.022694 445.991989,128.445241 446.233378,132.071809 C446.350868,133.852824 446.226969,135.647372 446.263284,137.435674 C446.279306,138.146622 446.12016,138.455776 445.287049,138.476594 C441.785848,138.564032 441.611749,138.581727 441.825367,135.168548 C442.181041,129.512185 441.327637,124.133748 439.00988,118.918735 C437.83498,116.271673 437.039252,113.463269 436,110.530996" id="Fill-59" fill="#ffffff"></path>
                    <path d="M313.347337,126.53461 C313.347337,123.120733 313.306775,119.704771 313.369646,116.291935 C313.390941,115.208165 313.200301,114.722552 312.013867,114.827803 C311.072833,114.91117 309.565962,115.292574 309.267833,114.652732 C308.79326,113.631487 309.100515,112.228838 309.06908,110.987712 C309.056911,110.478131 309.396617,110.511478 309.725167,110.511478 C313.574483,110.510436 317.423799,110.51773 321.272101,110.500015 C321.776082,110.497931 321.917034,110.713643 321.869374,111.171119 C321.865318,111.21176 321.869374,111.253444 321.869374,111.295127 C321.858219,112.418497 322.250655,113.845115 321.726394,114.58187 C321.160556,115.374899 319.689176,114.845518 318.622401,114.830929 C317.728013,114.817382 317.568808,115.147724 317.57185,115.978267 C317.600243,123.057165 317.572864,130.136064 317.605313,137.21392 C317.610384,138.157009 317.410617,138.508192 316.409754,138.499855 C313.347337,138.475887 313.347337,138.522781 313.347337,135.403814 L313.347337,126.53461 Z" id="Fill-61" fill="#ffffff"></path>
                    <path d="M217.027756,124.378562 C217.027756,120.143681 217.050548,115.907761 217.008928,111.67288 C217.00001,110.800351 217.229911,110.50016 218.065287,110.575987 C219.046334,110.664278 220.362323,110.245672 220.939059,110.767112 C221.615882,111.382037 221.158061,112.798858 221.162025,113.863551 C221.182835,120.257941 221.189771,126.652331 221.152115,133.047759 C221.14716,133.926521 221.368143,134.178931 222.201537,134.140498 C223.783103,134.069865 225.370615,134.14673 226.954162,134.109336 C227.658732,134.093755 227.989711,134.215286 227.995657,135.104435 C228.01944,138.465748 228.056105,138.465748 224.824598,138.465748 C222.685124,138.465748 220.542677,138.389921 218.408158,138.494832 C217.220993,138.553001 216.982172,138.125046 217.001,136.959597 C217.069376,132.767304 217.027756,128.572933 217.027756,124.378562" id="Fill-63" fill="#ffffff"></path>
                    <path d="M190.431404,126.707497 C190.431404,123.106742 190.407299,119.507022 190.450487,115.907303 C190.459526,115.130609 190.252626,114.894493 189.511402,114.952487 C188.673759,115.0198 187.82105,114.905885 186.985415,114.985626 C186.194978,115.060188 186.033274,114.73087 186.08048,114.003884 C186.150785,112.938259 185.75406,111.550565 186.267292,110.883644 C186.813668,110.173227 188.216771,110.669276 189.242231,110.657885 C192.131799,110.625781 195.021367,110.676525 197.909931,110.626817 C198.708404,110.613354 198.977575,110.855683 198.895216,111.665516 C198.788753,112.722856 199.317051,114.080518 198.678273,114.772294 C198.083687,115.416432 196.767964,115.01048 195.785692,114.942131 C194.758223,114.868604 194.546301,115.215527 194.553332,116.233515 C194.600537,123.225835 194.561367,130.219191 194.597524,137.211511 C194.602546,138.14458 194.420755,138.558817 193.434465,138.448009 C192.484333,138.340307 191.228872,138.741081 190.639308,138.246068 C190.009569,137.717916 190.450487,136.378895 190.441447,135.396118 C190.413325,132.500601 190.431404,129.604049 190.431404,126.707497" id="Fill-65" fill="#ffffff"></path>
                    <path d="M305.981743,124.55237 C305.981743,128.796407 305.958053,133.041487 305.999747,137.285524 C306.008275,138.196821 305.804547,138.49885 304.936573,138.499892 C302.018056,138.500933 302.018056,138.539468 302.018056,135.34941 C302.018056,127.485182 302.033217,119.621996 302.000052,111.757768 C301.996261,110.798563 302.199042,110.482995 303.12008,110.5007 C305.981743,110.554857 305.98269,110.509032 305.98269,113.692841 C305.98269,117.313031 305.98269,120.93218 305.981743,124.55237" id="Fill-67" fill="#ffffff"></path>
                    <path d="M70.0159281,124.466865 C70.0159281,120.195592 70.0335878,115.92432 70.0001273,111.65201 C69.9945505,110.853806 70.1702184,110.521654 70.9193626,110.608844 C71.8683406,110.720945 73.0961564,110.170818 73.7049522,110.832008 C74.2616984,111.438187 73.8592425,112.798974 73.8611014,113.824494 C73.8741138,121.580253 73.8425122,129.334973 73.8954914,137.090732 C73.9029271,138.275063 73.5785458,138.524177 72.5933189,138.498228 C70.0168576,138.430759 70.0159281,138.480582 70.0159281,135.664553 L70.0159281,124.466865 Z" id="Fill-69" fill="#ffffff"></path>
                </g>
            </g>
        </g>
    </g>
</svg>