<?xml version="1.0" encoding="utf-8"?>
<!-- Generator: Adobe Illustrator 18.1.1, SVG Export Plug-In . SVG Version: 6.00 Build 0)  -->
<!DOCTYPE svg PUBLIC "-//W3C//DTD SVG 1.1//EN" "http://www.w3.org/Graphics/SVG/1.1/DTD/svg11.dtd">
<svg version="1.1" id="Layer_1" xmlns="http://www.w3.org/2000/svg" xmlns:xlink="http://www.w3.org/1999/xlink" x="0px" y="0px"
	 width="150px" height="49px" viewBox="0 0 150 49" enable-background="new 0 0 150 49" xml:space="preserve">
<g>
	<defs>
		<rect id="SVGID_1_" width="150" height="49"/>
	</defs>
	<clipPath id="SVGID_2_">
		<use xlink:href="#SVGID_1_"  overflow="visible"/>
	</clipPath>
	<path clip-path="url(#SVGID_2_)" fill="#E03E2F" d="M126.1,35.5l3.3-0.2c-0.5,4.3,0.4,8.8,5.2,9.9c3.6,0.8,6.2-0.8,7-4.4
		c0.8-3.4-1-6.8-3.2-10.5l-4.7-8c-1.8-3-3-5.9-2.3-8.9c1.2-5.3,5.9-7.6,11.2-6.4c5.3,1.2,7.7,5,7.4,10.8l0,0.4l-3.2,0.2l0-0.3
		c0.3-3.8-1.1-7.4-4.9-8.3c-3.4-0.8-6.2,0.4-7,3.9c-0.5,2.2,0.3,4.6,1.8,7.1l4.4,7.7c2.3,4.1,5,8.2,4,12.8
		c-1.4,5.9-6.2,7.9-11.5,6.6C127.6,46.6,125.6,41.1,126.1,35.5 M103.7,19.3l7.2,0.9c4.3,0.5,5.6-3.1,6.1-6.8c0.5-4,0-7.6-4.2-8.1
		l-7.2-0.9L103.7,19.3z M97.2,41.5L102.3,1l10.8,1.4c7.1,0.9,8.1,5.9,7.4,11.5c-0.5,4.1-2.2,8-6.9,9.1l3.7,21l-3.8-0.5L110.1,23
		l-6.8-0.9l-2.5,19.7L97.2,41.5z M67,30.7L67.3,0l3.6,0l-0.3,31.5c0,4.5,1.7,7,6.9,7c4.9,0,6.6-2.4,6.7-6.9l0.3-31.5l3.6,0
		l-0.3,30.7c-0.1,5.7-2.2,10.6-10.3,10.5C69.1,41.4,67,36.4,67,30.7 M36.1,31.4l-1.7-17c-0.7-6.9,1.3-12.6,9.2-13.4
		c7.9-0.8,10.9,4.5,11.6,11.4l1.7,17c0.7,6.8-1.1,12.6-9.2,13.4C39.6,43.6,36.8,38.3,36.1,31.4 M53.4,30.6L51.5,12
		c-0.5-4.8-2.3-8.5-7.6-8c-5.3,0.5-6.4,4.5-5.9,9.4l1.8,18.6c0.5,4.8,2.3,8.6,7.6,8.1C52.7,39.4,53.8,35.4,53.4,30.6 M8.8,49L0,9.2
		l3.5-0.8l4,18l12.3-2.7l-4-18L19.4,5l8.8,39.8l-3.5,0.8l-4.3-19.3L8,28.9l4.3,19.3L8.8,49z"/>
</g>
</svg>
