<?xml version="1.0" encoding="utf-8"?>
<!-- Generator: Adobe Illustrator 19.1.0, SVG Export Plug-In . SVG Version: 6.00 Build 0)  -->
<!DOCTYPE svg PUBLIC "-//W3C//DTD SVG 1.1//EN" "http://www.w3.org/Graphics/SVG/1.1/DTD/svg11.dtd">
<svg version="1.1" id="Layer_1" xmlns="http://www.w3.org/2000/svg" xmlns:xlink="http://www.w3.org/1999/xlink" x="0px" y="0px" viewBox="0 0 500 190" enable-background="new 0 0 500 190" xml:space="preserve">
<g>
	<g>
		<g>
			<path fill="#FFFFFF" d="M234.7,75.3v2.7l27.7-8.9v-2.7l-9.6,3.1L252,49.9c3.5-0.5,6.8-1.9,9.8-4.1c-0.4-3.6-0.7-7.3-1.1-10.9
				c-0.3-2.5-0.5-5-0.7-7.5c-0.1-0.6-0.1-1.3-0.2-1.9c-0.2-2.4-0.5-4.8-0.7-7.2c0-0.2,0-0.4-0.1-0.6c-0.2-2.6-0.5-5.2-0.7-7.8
				c-0.1-0.6-0.1-1.3-0.2-1.9c-0.2-2.6-0.5-5.3-0.7-7.9c-1,0-1.9,0-2.9,0c0.3,12.3,0.5,24.8,0.6,37.3c-1.2,0.3-2.4,1.1-3.7,1.3
				c-0.6-12.6-1-24.6-1.4-37.4c-0.2,0-2.7,0-2.9,0c-0.4,12.7-0.9,24.8-1.4,37.4c-1.2-0.1-2.5-0.7-3.7-1c0.1-12.5,0.4-25.1,0.6-37.4
				c-1,0-1.9-0.1-2.9-0.1c-0.2,2.6-0.5,5.2-0.7,7.9c-0.1,0.6-0.1,1.2-0.2,1.8c-0.2,2.6-0.5,5.2-0.7,7.8c0,0.1,0,0.1,0,0.2
				c-0.2,2.6-0.5,5.1-0.7,7.7c-0.1,0.5-0.1,1-0.2,1.6c-0.3,2.6-0.5,5.2-0.8,7.8c-0.4,3.6-0.7,7.2-1.1,10.8c3,2.2,6.5,3.6,10,4.1
				l-1,22.3L234.7,75.3z"/>
			<path fill="#FFFFFF" d="M262.4,103.5l-27.7,8.9v2.7l7.9-2.5l-1.3,30.3c0,0,2.1,3.7,7.2,3.7c5.1,0,7.4-3.7,7.4-3.7l-1.4-34.1
				l8-2.6V103.5z"/>
		</g>
		<g>
			<path fill="#FFFFFF" d="M41.2,89.2l-11-1.1c-3.1-0.3-3.9-0.6-4.5-1.3c-0.8-0.8-1.3-1.6-1.3-6.3c0-3.9,0.4-5.9,1.4-6.9
				c0.8-0.9,1.9-1.2,3.9-1.2h11.2c2,0,2.9,0.3,3.7,1.1c0.9,0.9,1.3,2,1.3,7.8v0.6h2.6v-0.6c0-6.1-0.4-7.9-2.1-9.6
				c-1.2-1.3-2.8-1.7-5.6-1.7H29.6c-2.7,0-4.4,0.6-5.6,1.8c-1.7,1.7-2.4,4.3-2.4,8.8c0,5.2,0.7,7,1.9,8.2c1.1,1.1,2.9,1.7,6.2,2.1
				l11,1.1c3.1,0.3,3.9,0.6,4.5,1.3c0.9,0.9,1.3,1.8,1.3,6.7c0,4.5-0.6,6-1.4,6.9c-0.9,0.9-1.9,1.2-3.9,1.2H28.7
				c-2,0-2.9-0.3-3.7-1.1c-0.8-0.8-1.3-1.7-1.3-8.1v-0.6h-2.6v0.6c0,7.1,0.6,8.5,2.1,10c1.2,1.3,2.8,1.7,5.6,1.7h12.5
				c2.7,0,4.4-0.6,5.6-1.8c1.7-1.8,2.4-4.1,2.4-8.8c0-4.9-0.5-7.1-1.9-8.6C46.2,90.1,44.4,89.5,41.2,89.2z"/>
			<polygon fill="#FFFFFF" points="59.1,82.9 61.7,82.9 61.7,72.4 73.9,72.4 73.9,107.9 67.9,107.9 67.9,110.4 82.7,110.4
				82.7,107.9 76.6,107.9 76.6,72.4 88.9,72.4 88.9,82.9 91.5,82.9 91.5,69.9 59.1,69.9 			"/>
			<path fill="#FFFFFF" d="M122.5,69.9h-12.1c-3.2,0-4.9,0.5-6.2,1.7c-2,2-2.8,5-2.8,18.5s0.8,16.5,2.8,18.5
				c1.3,1.3,2.9,1.7,6.2,1.7h12.1c3.2,0,4.9-0.5,6.2-1.7c2-2,2.8-5,2.8-18.5s-0.8-16.5-2.8-18.5C127.5,70.4,125.8,69.9,122.5,69.9z
				 M122.5,107.9h-12.1c-3,0-3.7-0.5-4.3-1.1c-1.1-1.1-2-3.1-2-16.6s0.9-15.5,2-16.6c0.6-0.6,1.3-1.1,4.3-1.1h12.1
				c3,0,3.7,0.5,4.3,1.1c1.1,1.1,2,3.1,2,16.6s-0.9,15.5-2,16.6C126.2,107.4,125.5,107.9,122.5,107.9z"/>
			<path fill="#FFFFFF" d="M170.8,98c-0.2,5.3-0.7,7.6-1.9,8.8c-0.6,0.6-1.4,1.1-4.3,1.1h-11.4c-3,0-3.7-0.5-4.3-1.1
				c-1.1-1.1-2-3.1-2-16.6s0.9-15.5,2-16.6c0.6-0.6,1.3-1.1,4.3-1.1h11.4c3,0,3.7,0.5,4.3,1.1c1.3,1.3,1.7,4,1.9,8.2l0,0.5h2.6
				l0-0.6c-0.2-5.1-0.7-8.1-2.7-10.1c-1.3-1.3-2.9-1.7-6.2-1.7h-11.4c-3.2,0-4.9,0.5-6.2,1.7c-2,2-2.8,5-2.8,18.5s0.8,16.5,2.8,18.5
				c1.3,1.3,2.9,1.7,6.2,1.7h11.4c3.2,0,4.9-0.5,6.2-1.7c2-2,2.5-5.2,2.7-10.6l0-0.6h-2.6L170.8,98z"/>
			<polygon fill="#FFFFFF" points="199.2,89.4 214.1,72.4 219.4,72.4 219.4,69.9 205.4,69.9 205.4,72.4 210.6,72.4 196.9,88.1
				192.2,88.1 192.2,72.4 198.5,72.4 198.5,69.9 183.7,69.9 183.7,72.4 189.5,72.4 189.5,107.9 183.7,107.9 183.7,110.4
				198.5,110.4 198.5,107.9 192.2,107.9 192.2,90.6 196.9,90.6 210.9,107.9 205.6,107.9 205.6,110.4 219.7,110.4 219.7,107.9
				214.3,107.9 			"/>
			<polygon fill="#FFFFFF" points="279.9,82.9 282.6,82.9 282.6,72.4 294.8,72.4 294.8,107.9 288.7,107.9 288.7,110.4 303.5,110.4
				303.5,107.9 297.5,107.9 297.5,72.4 309.7,72.4 309.7,82.9 312.3,82.9 312.3,69.9 279.9,69.9 			"/>
			<path fill="#FFFFFF" d="M350.8,100.2c-0.2-6.1-1.1-8.4-3.8-9.5c2.5-1.3,4-3.7,4-9.7c0-5.5-0.9-7.5-2.6-9.2
				c-1.5-1.5-3.5-1.9-6.3-1.9H321v2.5h5.8v35.5H321v2.5h14.6v-2.5h-6.2V92h12.9c2.2,0,3.5,0.4,4.4,1.3c0.8,0.8,1.2,2.1,1.4,6.9
				c0.3,8.4,0.4,8.9,1.1,9.6c0.5,0.5,1.2,0.6,1.8,0.6h6.7v-2.5h-6.4C351.1,107,351,105.6,350.8,100.2z M329.4,72.4h12.7
				c2.3,0,3.5,0.3,4.4,1.2c0.9,0.9,1.8,2.5,1.8,7.4c0,5.2-1.3,6.5-1.9,7.1c-0.7,0.8-1.8,1.5-4.5,1.5h-12.5V72.4z"/>
			<path fill="#FFFFFF" d="M384.5,71.5c-0.4-1.3-1-1.7-2.6-1.7h-0.4c-1.5,0-2.1,0.4-2.6,1.7l-11.7,36.5h-5.4v2.5h14v-2.5H370l3.8-12
				h15.8l3.8,12h-5.8v2.5h14.1v-2.5h-5.4L384.5,71.5z M388.8,93.4h-14.2l6.8-21.2h0.6L388.8,93.4z"/>
			<path fill="#FFFFFF" d="M429.3,69.9H407v2.5h5.8v35.5H407v2.5h22.3c3.4,0,5.3-0.6,6.8-2.1c2.4-2.4,4-6.4,4-18.1
				c0-11.7-1.6-15.7-4-18.1C434.6,70.5,432.7,69.9,429.3,69.9z M429.3,107.9h-13.8V72.4h13.8c2.9,0,4,0.5,5,1.5
				c2.1,2.1,3.2,7.6,3.2,16.2s-1.1,14.1-3.2,16.2C433.3,107.4,432.2,107.9,429.3,107.9z"/>
			<polygon fill="#FFFFFF" points="475.7,97.8 475.7,107.9 456.5,107.9 456.5,90.6 471.3,90.6 471.3,88.1 456.5,88.1 456.5,72.4
				475.5,72.4 475.5,82.1 478.2,82.1 478.2,69.9 448,69.9 448,72.4 453.8,72.4 453.8,107.9 448,107.9 448,110.4 478.3,110.4
				478.3,97.8 			"/>
		</g>
		<g>
			<polygon fill="#FFFFFF" points="237.7,102.3 240,101.6 240,85.4 237.7,86.1 			"/>
			<polygon fill="#FFFFFF" points="257.5,79.8 257.5,91.9 248,82.8 246.3,83.4 246.3,99.5 248.5,98.8 248.5,86.5 258.1,95.7
				259.7,95.2 259.7,79.1 			"/>
		</g>
		<g>
			<polygon fill="#FFFFFF" points="219.2,131.4 0,131.4 0,50.8 219.2,50.8 219.2,53.4 2.5,53.4 2.5,128.9 219.2,128.9 			"/>
		</g>
		<g>
			<polygon fill="#FFFFFF" points="500,131.4 280.8,131.4 280.8,128.9 497.5,128.9 497.5,53.4 280.8,53.4 280.8,50.8 500,50.8
				"/>
		</g>
	</g>
	<g>
		<path fill="#FFFFFF" d="M60.6,173.7h6.8c1.9,0,3.5,0.6,4.5,1.6c0.8,0.8,1.2,1.9,1.2,3.2v0c0,2.7-1.8,4.2-4.3,4.7l4.9,6.6h-2.2
			l-4.6-6.2h-4.5v6.2h-1.8V173.7z M67.3,181.9c2.4,0,4.1-1.2,4.1-3.3v0c0-2-1.5-3.2-4-3.2h-4.9v6.5H67.3z"/>
		<path fill="#FFFFFF" d="M85.1,173.7h11.4v1.7h-9.7v5.5h8.6v1.6h-8.6v5.6h9.8v1.7H85.1V173.7z"/>
		<path fill="#FFFFFF" d="M107.4,187.4l1.1-1.3c1.7,1.5,3.2,2.3,5.4,2.3c2.1,0,3.5-1.1,3.5-2.7v0c0-1.5-0.8-2.3-4.1-3.1
			c-3.6-0.8-5.3-2-5.3-4.6v0c0-2.5,2.2-4.4,5.2-4.4c2.3,0,4,0.7,5.6,2l-1,1.4c-1.5-1.2-2.9-1.7-4.6-1.7c-2.1,0-3.4,1.1-3.4,2.6v0
			c0,1.5,0.8,2.4,4.3,3.1c3.5,0.8,5.2,2.1,5.2,4.5v0c0,2.8-2.3,4.5-5.4,4.5C111.3,190,109.3,189.1,107.4,187.4z"/>
		<path fill="#FFFFFF" d="M134.9,175.3h-5.3v-1.7H142v1.7h-5.3v14.4h-1.8V175.3z"/>
		<path fill="#FFFFFF" d="M157.3,173.6h1.7l7.2,16.2h-1.9l-1.9-4.2h-8.6l-1.9,4.2h-1.8L157.3,173.6z M161.7,183.9l-3.6-8.2l-3.6,8.2
			H161.7z"/>
		<path fill="#FFFFFF" d="M176.6,183v-9.3h1.8v9.2c0,3.5,1.8,5.4,4.8,5.4c2.9,0,4.8-1.8,4.8-5.3v-9.3h1.8v9.2c0,4.7-2.6,7.1-6.6,7.1
			C179.3,190,176.6,187.5,176.6,183z"/>
		<path fill="#FFFFFF" d="M202.2,173.7h6.8c1.9,0,3.5,0.6,4.5,1.6c0.8,0.8,1.2,1.9,1.2,3.2v0c0,2.7-1.8,4.2-4.3,4.7l4.9,6.6h-2.2
			l-4.6-6.2H204v6.2h-1.8V173.7z M208.8,181.9c2.4,0,4.1-1.2,4.1-3.3v0c0-2-1.5-3.2-4-3.2H204v6.5H208.8z"/>
		<path fill="#FFFFFF" d="M232.5,173.6h1.7l7.2,16.2h-1.9l-1.9-4.2H229l-1.9,4.2h-1.8L232.5,173.6z M236.9,183.9l-3.6-8.2l-3.6,8.2
			H236.9z"/>
		<path fill="#FFFFFF" d="M252.7,173.7h1.7l10,12.9v-12.9h1.7v16.1h-1.4l-10.2-13.2v13.2h-1.7V173.7z"/>
		<path fill="#FFFFFF" d="M282.9,175.3h-5.3v-1.7H290v1.7h-5.3v14.4h-1.8V175.3z"/>
		<path fill="#FFFFFF" d="M315.7,181.7L315.7,181.7c0-4.5,3.2-8.4,7.9-8.4c2.7,0,4.3,0.8,5.9,2.1l-1.2,1.4c-1.2-1.1-2.6-1.8-4.8-1.8
			c-3.5,0-6,3-6,6.6v0c0,3.8,2.4,6.7,6.3,6.7c1.8,0,3.5-0.7,4.6-1.6v-4h-4.8v-1.6h6.5v6.4c-1.5,1.3-3.7,2.5-6.4,2.5
			C318.8,190,315.7,186.3,315.7,181.7z"/>
		<path fill="#FFFFFF" d="M342.3,173.7h6.8c1.9,0,3.5,0.6,4.5,1.6c0.8,0.8,1.2,1.9,1.2,3.2v0c0,2.7-1.8,4.2-4.3,4.7l4.9,6.6h-2.2
			l-4.6-6.2H344v6.2h-1.8V173.7z M348.9,181.9c2.4,0,4.1-1.2,4.1-3.3v0c0-2-1.5-3.2-4-3.2H344v6.5H348.9z"/>
		<path fill="#FFFFFF" d="M366.1,181.7L366.1,181.7c0-4.5,3.3-8.4,8.1-8.4c4.8,0,8.1,3.8,8.1,8.3v0c0,4.4-3.3,8.3-8.1,8.3
			C369.3,190,366.1,186.2,366.1,181.7z M380.3,181.7L380.3,181.7c0-3.7-2.6-6.7-6.2-6.7s-6.2,2.9-6.2,6.6v0c0,3.6,2.6,6.6,6.2,6.6
			C377.8,188.3,380.3,185.4,380.3,181.7z"/>
		<path fill="#FFFFFF" d="M393.9,183v-9.3h1.8v9.2c0,3.5,1.8,5.4,4.8,5.4c2.9,0,4.8-1.8,4.8-5.3v-9.3h1.8v9.2c0,4.7-2.6,7.1-6.6,7.1
			C396.5,190,393.9,187.5,393.9,183z"/>
		<path fill="#FFFFFF" d="M419.4,173.7h5.9c3.6,0,5.9,1.9,5.9,5.1v0c0,3.5-2.8,5.3-6.2,5.3h-3.8v5.7h-1.8V173.7z M425.1,182.4
			c2.6,0,4.3-1.4,4.3-3.5v0c0-2.3-1.7-3.5-4.3-3.5h-4v7.1H425.1z"/>
	</g>
</g>
</svg>
